<svg id="Ebene_1" data-name="Ebene 1" xmlns="http://www.w3.org/2000/svg" xmlns:xlink="http://www.w3.org/1999/xlink" viewBox="0 0 519.14 152.62"><defs><style>.cls-1,.cls-8,.cls-9{fill:none;}.cls-2{clip-path:url(#clip-path);}.cls-3{fill:#595959;}.cls-4{clip-path:url(#clip-path-2);}.cls-5{clip-path:url(#clip-path-3);}.cls-6{clip-path:url(#clip-path-4);}.cls-7{font-size:11px;fill:#1a1a1a;}.cls-10,.cls-7{font-family:Times New Roman;}.cls-8{stroke:#000;stroke-width:0.85px;}.cls-8,.cls-9{stroke-linejoin:round;}.cls-9{stroke:#333;stroke-width:0.64px;}.cls-10{font-size:10px;fill:#4d4d4d;}.cls-11{letter-spacing:15px;}.cls-12{clip-path:url(#clip-path-5);}.cls-13{clip-path:url(#clip-path-6);}.cls-14{clip-path:url(#clip-path-7);}.cls-15{clip-path:url(#clip-path-8);}.cls-16{letter-spacing:6px;}.cls-17{letter-spacing:11px;}.cls-18{letter-spacing:14px;}.cls-19{font-size:12px;font-family:Myriad Pro;}.cls-20{fill:red;stroke:red;stroke-miterlimit:10;}</style><clipPath id="clip-path" transform="translate(-6.08 -5.35)"><rect class="cls-1" x="72.17" y="20.48" width="94.82" height="51.67"/></clipPath><clipPath id="clip-path-2" transform="translate(-6.08 -5.35)"><rect class="cls-1" x="191.58" y="20.48" width="94.82" height="51.67"/></clipPath><clipPath id="clip-path-3" transform="translate(-6.08 -5.35)"><rect class="cls-1" x="310.99" y="20.48" width="94.82" height="51.67"/></clipPath><clipPath id="clip-path-4" transform="translate(-6.08 -5.35)"><rect class="cls-1" x="430.4" y="20.48" width="94.82" height="51.67"/></clipPath><clipPath id="clip-path-5" transform="translate(-6.08 -5.35)"><rect class="cls-1" x="72.17" y="91.23" width="94.82" height="51.67"/></clipPath><clipPath id="clip-path-6" transform="translate(-6.08 -5.35)"><rect class="cls-1" x="191.58" y="91.23" width="94.82" height="51.67"/></clipPath><clipPath id="clip-path-7" transform="translate(-6.08 -5.35)"><rect class="cls-1" x="310.99" y="91.23" width="94.82" height="51.67"/></clipPath><clipPath id="clip-path-8" transform="translate(-6.08 -5.35)"><rect class="cls-1" x="430.4" y="91.23" width="94.82" height="51.67"/></clipPath></defs><title>BuerknerSPMPPMC</title><g class="cls-2"><rect class="cls-3" x="70.4" y="64.4" width="2.87" height="0.05"/><rect class="cls-3" x="73.27" y="64.4" width="2.87" height="0.05"/><rect class="cls-3" x="76.14" y="64.34" width="2.87" height="0.11"/><rect class="cls-3" x="79.02" y="63.9" width="2.87" height="0.55"/><rect class="cls-3" x="81.89" y="63.74" width="2.87" height="0.71"/><rect class="cls-3" x="84.76" y="62.98" width="2.87" height="1.47"/><rect class="cls-3" x="87.64" y="62.32" width="2.87" height="2.13"/><rect class="cls-3" x="90.51" y="59.48" width="2.87" height="4.97"/><rect class="cls-3" x="93.38" y="57.24" width="2.87" height="7.21"/><rect class="cls-3" x="96.26" y="51.45" width="2.87" height="13"/><rect class="cls-3" x="99.13" y="45.99" width="2.87" height="18.46"/><rect class="cls-3" x="102" y="38.07" width="2.87" height="26.38"/><rect class="cls-3" x="104.88" y="31.95" width="2.87" height="32.5"/><rect class="cls-3" x="107.75" y="23.65" width="2.87" height="40.8"/><rect class="cls-3" x="110.62" y="19.66" width="2.87" height="44.79"/><rect class="cls-3" x="113.5" y="17.47" width="2.87" height="46.98"/><rect class="cls-3" x="116.37" y="19.28" width="2.87" height="45.17"/><rect class="cls-3" x="119.24" y="23.54" width="2.87" height="40.91"/><rect class="cls-3" x="122.12" y="30.04" width="2.87" height="34.41"/><rect class="cls-3" x="124.99" y="35.61" width="2.87" height="28.84"/><rect class="cls-3" x="127.86" y="47.63" width="2.87" height="16.82"/><rect class="cls-3" x="130.74" y="51.45" width="2.87" height="13"/><rect class="cls-3" x="133.61" y="56.75" width="2.87" height="7.7"/><rect class="cls-3" x="136.48" y="59.26" width="2.87" height="5.19"/><rect class="cls-3" x="139.36" y="62.32" width="2.87" height="2.13"/><rect class="cls-3" x="142.23" y="62.98" width="2.87" height="1.47"/><rect class="cls-3" x="145.11" y="63.63" width="2.87" height="0.82"/><rect class="cls-3" x="147.98" y="64.29" width="2.87" height="0.16"/><rect class="cls-3" x="150.85" y="64.34" width="2.87" height="0.11"/><rect class="cls-3" x="153.73" y="64.4" width="2.87" height="0.05"/></g><g class="cls-4"><rect class="cls-3" x="189.81" y="64.35" width="2.87" height="0.1"/><rect class="cls-3" x="192.68" y="64.4" width="2.87" height="0.05"/><rect class="cls-3" x="195.55" y="64.35" width="2.87" height="0.1"/><rect class="cls-3" x="198.43" y="64.09" width="2.87" height="0.36"/><rect class="cls-3" x="201.3" y="63.38" width="2.87" height="1.07"/><rect class="cls-3" x="204.17" y="62.31" width="2.87" height="2.14"/><rect class="cls-3" x="207.05" y="60.52" width="2.87" height="3.93"/><rect class="cls-3" x="209.92" y="58.23" width="2.87" height="6.22"/><rect class="cls-3" x="212.79" y="54.61" width="2.87" height="9.84"/><rect class="cls-3" x="215.67" y="48.89" width="2.87" height="15.56"/><rect class="cls-3" x="218.54" y="42.36" width="2.87" height="22.09"/><rect class="cls-3" x="221.42" y="35.02" width="2.87" height="29.43"/><rect class="cls-3" x="224.29" y="25.74" width="2.87" height="38.71"/><rect class="cls-3" x="227.16" y="21.96" width="2.87" height="42.49"/><rect class="cls-3" x="230.04" y="19.51" width="2.87" height="44.94"/><rect class="cls-3" x="232.91" y="17.47" width="2.87" height="46.98"/><rect class="cls-3" x="235.78" y="23.29" width="2.87" height="41.16"/><rect class="cls-3" x="238.66" y="31.65" width="2.87" height="32.8"/><rect class="cls-3" x="241.53" y="37.42" width="2.87" height="27.03"/><rect class="cls-3" x="244.4" y="45.53" width="2.87" height="18.92"/><rect class="cls-3" x="247.28" y="54.55" width="2.87" height="9.9"/><rect class="cls-3" x="250.15" y="58.07" width="2.87" height="6.38"/><rect class="cls-3" x="253.02" y="60.47" width="2.87" height="3.98"/><rect class="cls-3" x="255.9" y="61.85" width="2.87" height="2.6"/><rect class="cls-3" x="258.77" y="63.58" width="2.87" height="0.87"/><rect class="cls-3" x="261.64" y="64.19" width="2.87" height="0.26"/><rect class="cls-3" x="264.52" y="64.4" width="2.87" height="0.05"/><rect class="cls-3" x="267.39" y="64.4" width="2.87" height="0.05"/><path class="cls-3" d="M276.34,69.8h0Z" transform="translate(-6.08 -5.35)"/><rect class="cls-3" x="273.14" y="64.4" width="2.87" height="0.05"/></g><g class="cls-5"><rect class="cls-3" x="309.22" y="64.4" width="2.87" height="0.05"/><rect class="cls-3" x="312.09" y="64.35" width="2.87" height="0.1"/><rect class="cls-3" x="314.97" y="64.3" width="2.87" height="0.15"/><rect class="cls-3" x="317.84" y="64.35" width="2.87" height="0.1"/><rect class="cls-3" x="320.71" y="63.57" width="2.87" height="0.88"/><rect class="cls-3" x="323.59" y="63.08" width="2.87" height="1.37"/><rect class="cls-3" x="326.46" y="59.98" width="2.87" height="4.47"/><rect class="cls-3" x="329.33" y="58.26" width="2.87" height="6.19"/><rect class="cls-3" x="332.21" y="54.58" width="2.87" height="9.87"/><rect class="cls-3" x="335.08" y="49.58" width="2.87" height="14.87"/><rect class="cls-3" x="337.95" y="41.82" width="2.87" height="22.63"/><rect class="cls-3" x="340.83" y="31.9" width="2.87" height="32.55"/><rect class="cls-3" x="343.7" y="24.05" width="2.87" height="40.4"/><rect class="cls-3" x="346.57" y="19.19" width="2.87" height="45.26"/><rect class="cls-3" x="349.45" y="17.47" width="2.87" height="46.98"/><rect class="cls-3" x="352.32" y="22.58" width="2.87" height="41.87"/><rect class="cls-3" x="355.19" y="28.86" width="2.87" height="35.59"/><rect class="cls-3" x="358.07" y="33.48" width="2.87" height="30.97"/><rect class="cls-3" x="360.94" y="41.04" width="2.87" height="23.41"/><rect class="cls-3" x="363.81" y="48.4" width="2.87" height="16.05"/><rect class="cls-3" x="366.69" y="56.01" width="2.87" height="8.44"/><rect class="cls-3" x="369.56" y="59" width="2.87" height="5.45"/><rect class="cls-3" x="372.43" y="61.46" width="2.87" height="2.99"/><rect class="cls-3" x="375.31" y="63.32" width="2.87" height="1.13"/><rect class="cls-3" x="378.18" y="63.86" width="2.87" height="0.59"/><rect class="cls-3" x="381.05" y="64.3" width="2.87" height="0.15"/><rect class="cls-3" x="383.93" y="64.3" width="2.87" height="0.15"/><path class="cls-3" d="M392.88,69.8h0Z" transform="translate(-6.08 -5.35)"/><path class="cls-3" d="M395.75,69.8h0Z" transform="translate(-6.08 -5.35)"/><rect class="cls-3" x="392.55" y="64.4" width="2.87" height="0.05"/></g><g class="cls-6"><rect class="cls-3" x="428.63" y="64.4" width="2.87" height="0.05"/><path class="cls-3" d="M437.58,69.8h0Z" transform="translate(-6.08 -5.35)"/><rect class="cls-3" x="434.38" y="64.4" width="2.87" height="0.05"/><rect class="cls-3" x="437.25" y="64.4" width="2.87" height="0.05"/><rect class="cls-3" x="440.12" y="64.4" width="2.87" height="0.05"/><rect class="cls-3" x="443" y="63.91" width="2.87" height="0.54"/><rect class="cls-3" x="445.87" y="63.48" width="2.87" height="0.97"/><rect class="cls-3" x="448.74" y="62.14" width="2.87" height="2.31"/><rect class="cls-3" x="451.62" y="59.77" width="2.87" height="4.68"/><rect class="cls-3" x="454.49" y="57.57" width="2.87" height="6.88"/><rect class="cls-3" x="457.36" y="53.38" width="2.87" height="11.07"/><rect class="cls-3" x="460.24" y="44.24" width="2.87" height="20.21"/><rect class="cls-3" x="463.11" y="37.95" width="2.87" height="26.5"/><rect class="cls-3" x="465.98" y="32.25" width="2.87" height="32.2"/><rect class="cls-3" x="468.86" y="22.47" width="2.87" height="41.98"/><rect class="cls-3" x="471.73" y="17.47" width="2.87" height="46.98"/><rect class="cls-3" x="474.6" y="17.85" width="2.87" height="46.6"/><rect class="cls-3" x="477.48" y="17.8" width="2.87" height="46.65"/><rect class="cls-3" x="480.35" y="26.4" width="2.87" height="38.05"/><rect class="cls-3" x="483.22" y="30.21" width="2.87" height="34.24"/><rect class="cls-3" x="486.1" y="39.67" width="2.87" height="24.78"/><rect class="cls-3" x="488.97" y="46.55" width="2.87" height="17.9"/><rect class="cls-3" x="491.85" y="53.27" width="2.87" height="11.18"/><rect class="cls-3" x="494.72" y="57.19" width="2.87" height="7.26"/><rect class="cls-3" x="497.59" y="60.1" width="2.87" height="4.35"/><rect class="cls-3" x="500.47" y="62.19" width="2.87" height="2.26"/><rect class="cls-3" x="503.34" y="63.38" width="2.87" height="1.07"/><rect class="cls-3" x="506.21" y="63.86" width="2.87" height="0.59"/><rect class="cls-3" x="509.09" y="64.02" width="2.87" height="0.43"/><rect class="cls-3" x="511.96" y="64.34" width="2.87" height="0.11"/></g><text class="cls-7" transform="translate(110.75 9.14)">1</text><text class="cls-7" transform="translate(230.16 9.14)">2</text><text class="cls-7" transform="translate(349.56 9.14)">3</text><text class="cls-7" transform="translate(468.96 9.14)">4</text><line class="cls-8" x1="66.09" y1="66.8" x2="160.91" y2="66.8"/><line class="cls-9" x1="83.33" y1="69.79" x2="83.33" y2="66.8"/><line class="cls-9" x1="111.04" y1="69.79" x2="111.04" y2="66.8"/><line class="cls-9" x1="138.75" y1="69.79" x2="138.75" y2="66.8"/><text class="cls-10" transform="translate(80.83 78.8)">0</text><text class="cls-10" transform="translate(106.04 78.8)">40</text><text class="cls-10" transform="translate(133.75 78.8)">80</text><line class="cls-8" x1="185.5" y1="66.8" x2="280.32" y2="66.8"/><line class="cls-9" x1="211.21" y1="69.79" x2="211.21" y2="66.8"/><line class="cls-9" x1="237.22" y1="69.79" x2="237.22" y2="66.8"/><line class="cls-9" x1="263.23" y1="69.79" x2="263.23" y2="66.8"/><text class="cls-10" transform="translate(203.39 78.8)">−40</text><text class="cls-10" transform="translate(234.72 78.8)">0</text><text class="cls-10" transform="translate(258.23 78.8)">40</text><line class="cls-8" x1="304.91" y1="66.8" x2="399.73" y2="66.8"/><line class="cls-9" x1="325.08" y1="69.79" x2="325.08" y2="66.8"/><line class="cls-9" x1="350.88" y1="69.79" x2="350.88" y2="66.8"/><line class="cls-9" x1="376.69" y1="69.79" x2="376.69" y2="66.8"/><text class="cls-10" transform="translate(317.26 78.8)">−4<tspan class="cls-11" x="10.64" y="0">0</tspan><tspan x="31.12" y="0">0</tspan></text><text class="cls-10" transform="translate(371.69 78.8)">40</text><line class="cls-8" x1="424.32" y1="66.8" x2="519.14" y2="66.8"/><line class="cls-9" x1="427.09" y1="69.79" x2="427.09" y2="66.8"/><line class="cls-9" x1="461.62" y1="69.79" x2="461.62" y2="66.8"/><line class="cls-9" x1="496.16" y1="69.79" x2="496.16" y2="66.8"/><text class="cls-10" transform="translate(416.77 78.8)">−100</text><text class="cls-10" transform="translate(453.8 78.8)">−50</text><text class="cls-10" transform="translate(493.66 78.8)">0</text><line class="cls-8" x1="424.32" y1="66.8" x2="424.32" y2="15.12"/><line class="cls-8" x1="304.91" y1="66.8" x2="304.91" y2="15.12"/><line class="cls-8" x1="185.5" y1="66.8" x2="185.5" y2="15.12"/><line class="cls-8" x1="66.09" y1="66.8" x2="66.09" y2="15.12"/><g class="cls-12"><rect class="cls-3" x="70.4" y="135.14" width="2.87" height="0.06"/><rect class="cls-3" x="73.27" y="135.14" width="2.87" height="0.06"/><rect class="cls-3" x="76.14" y="134.9" width="2.87" height="0.3"/><rect class="cls-3" x="79.02" y="134.9" width="2.87" height="0.3"/><rect class="cls-3" x="81.89" y="133.6" width="2.87" height="1.6"/><rect class="cls-3" x="84.76" y="132.71" width="2.87" height="2.49"/><rect class="cls-3" x="87.64" y="129.26" width="2.87" height="5.94"/><rect class="cls-3" x="90.51" y="125.82" width="2.87" height="9.38"/><rect class="cls-3" x="93.38" y="121.84" width="2.87" height="13.36"/><rect class="cls-3" x="96.26" y="112.57" width="2.87" height="22.63"/><rect class="cls-3" x="99.13" y="105.62" width="2.87" height="29.58"/><rect class="cls-3" x="102" y="99.98" width="2.87" height="35.22"/><rect class="cls-3" x="104.88" y="91.67" width="2.87" height="43.53"/><rect class="cls-3" x="107.75" y="90" width="2.87" height="45.2"/><rect class="cls-3" x="110.62" y="88.28" width="2.87" height="46.92"/><rect class="cls-3" x="113.5" y="88.22" width="2.87" height="46.98"/><rect class="cls-3" x="116.37" y="94.04" width="2.87" height="41.16"/><rect class="cls-3" x="119.24" y="98.2" width="2.87" height="37"/><rect class="cls-3" x="122.12" y="103.84" width="2.87" height="31.36"/><rect class="cls-3" x="124.99" y="114.65" width="2.87" height="20.55"/><rect class="cls-3" x="127.86" y="119.64" width="2.87" height="15.56"/><rect class="cls-3" x="130.74" y="125.28" width="2.87" height="9.92"/><rect class="cls-3" x="133.61" y="128.55" width="2.87" height="6.65"/><rect class="cls-3" x="136.48" y="131.04" width="2.87" height="4.16"/><rect class="cls-3" x="139.36" y="132.47" width="2.87" height="2.73"/><rect class="cls-3" x="142.23" y="134.07" width="2.87" height="1.13"/><rect class="cls-3" x="145.11" y="134.37" width="2.87" height="0.83"/><rect class="cls-3" x="147.98" y="134.9" width="2.87" height="0.3"/><rect class="cls-3" x="150.85" y="135.08" width="2.87" height="0.12"/><rect class="cls-3" x="153.73" y="135.08" width="2.87" height="0.12"/></g><g class="cls-13"><rect class="cls-3" x="189.81" y="135.14" width="2.87" height="0.06"/><path class="cls-3" d="M198.76,140.55h0Z" transform="translate(-6.08 -5.35)"/><rect class="cls-3" x="195.55" y="135.02" width="2.87" height="0.18"/><rect class="cls-3" x="198.43" y="134.73" width="2.87" height="0.47"/><rect class="cls-3" x="201.3" y="134.37" width="2.87" height="0.83"/><rect class="cls-3" x="204.17" y="133.31" width="2.87" height="1.89"/><rect class="cls-3" x="207.05" y="132.3" width="2.87" height="2.9"/><rect class="cls-3" x="209.92" y="130.76" width="2.87" height="4.44"/><rect class="cls-3" x="212.79" y="128.46" width="2.87" height="6.74"/><rect class="cls-3" x="215.67" y="124.02" width="2.87" height="11.18"/><rect class="cls-3" x="218.54" y="119.99" width="2.87" height="15.21"/><rect class="cls-3" x="221.42" y="113.6" width="2.87" height="21.6"/><rect class="cls-3" x="224.29" y="105.32" width="2.87" height="29.88"/><rect class="cls-3" x="227.16" y="100.94" width="2.87" height="34.26"/><rect class="cls-3" x="230.04" y="93.43" width="2.87" height="41.77"/><rect class="cls-3" x="232.91" y="89.76" width="2.87" height="45.44"/><rect class="cls-3" x="235.78" y="88.22" width="2.87" height="46.98"/><rect class="cls-3" x="238.66" y="89.52" width="2.87" height="45.68"/><rect class="cls-3" x="241.53" y="94.2" width="2.87" height="41"/><rect class="cls-3" x="244.4" y="98.58" width="2.87" height="36.62"/><rect class="cls-3" x="247.28" y="106.15" width="2.87" height="29.05"/><rect class="cls-3" x="250.15" y="112.24" width="2.87" height="22.96"/><rect class="cls-3" x="253.02" y="120.35" width="2.87" height="14.85"/><rect class="cls-3" x="255.9" y="126.15" width="2.87" height="9.05"/><rect class="cls-3" x="258.77" y="130.23" width="2.87" height="4.97"/><rect class="cls-3" x="261.64" y="132.54" width="2.87" height="2.66"/><rect class="cls-3" x="264.52" y="133.72" width="2.87" height="1.48"/><rect class="cls-3" x="267.39" y="134.55" width="2.87" height="0.65"/><rect class="cls-3" x="270.26" y="134.79" width="2.87" height="0.41"/><rect class="cls-3" x="273.14" y="135.08" width="2.87" height="0.12"/></g><g class="cls-14"><rect class="cls-3" x="309.22" y="135.15" width="2.87" height="0.05"/><rect class="cls-3" x="312.09" y="135.1" width="2.87" height="0.1"/><rect class="cls-3" x="314.97" y="134.85" width="2.87" height="0.35"/><rect class="cls-3" x="317.84" y="134.95" width="2.87" height="0.25"/><rect class="cls-3" x="320.71" y="134.14" width="2.87" height="1.06"/><rect class="cls-3" x="323.59" y="132.83" width="2.87" height="2.37"/><rect class="cls-3" x="326.46" y="130.55" width="2.87" height="4.65"/><rect class="cls-3" x="329.33" y="126.36" width="2.87" height="8.84"/><rect class="cls-3" x="332.21" y="120.55" width="2.87" height="14.65"/><rect class="cls-3" x="335.08" y="114.84" width="2.87" height="20.36"/><rect class="cls-3" x="337.95" y="105.25" width="2.87" height="29.95"/><rect class="cls-3" x="340.83" y="97.21" width="2.87" height="37.99"/><rect class="cls-3" x="343.7" y="89.03" width="2.87" height="46.17"/><rect class="cls-3" x="346.57" y="88.98" width="2.87" height="46.22"/><rect class="cls-3" x="349.45" y="88.22" width="2.87" height="46.98"/><rect class="cls-3" x="352.32" y="92.11" width="2.87" height="43.09"/><rect class="cls-3" x="355.19" y="100.85" width="2.87" height="34.35"/><rect class="cls-3" x="358.07" y="110.45" width="2.87" height="24.75"/><rect class="cls-3" x="360.94" y="115.65" width="2.87" height="19.55"/><rect class="cls-3" x="363.81" y="125" width="2.87" height="10.2"/><rect class="cls-3" x="366.69" y="129.04" width="2.87" height="6.16"/><rect class="cls-3" x="369.56" y="131.41" width="2.87" height="3.79"/><rect class="cls-3" x="372.43" y="133.74" width="2.87" height="1.46"/><rect class="cls-3" x="375.31" y="134.9" width="2.87" height="0.3"/><rect class="cls-3" x="378.18" y="135" width="2.87" height="0.2"/><rect class="cls-3" x="381.05" y="135" width="2.87" height="0.2"/><path class="cls-3" d="M390,140.55h0Z" transform="translate(-6.08 -5.35)"/><path class="cls-3" d="M392.88,140.55h0Z" transform="translate(-6.08 -5.35)"/><path class="cls-3" d="M395.75,140.55h0Z" transform="translate(-6.08 -5.35)"/><rect class="cls-3" x="392.55" y="135.15" width="2.87" height="0.05"/></g><g class="cls-15"><rect class="cls-3" x="428.63" y="135.15" width="2.87" height="0.05"/><path class="cls-3" d="M437.58,140.55h0Z" transform="translate(-6.08 -5.35)"/><rect class="cls-3" x="434.38" y="135.1" width="2.87" height="0.1"/><rect class="cls-3" x="437.25" y="134.99" width="2.87" height="0.21"/><rect class="cls-3" x="440.12" y="134.32" width="2.87" height="0.88"/><rect class="cls-3" x="443" y="133.44" width="2.87" height="1.76"/><rect class="cls-3" x="445.87" y="133.24" width="2.87" height="1.96"/><rect class="cls-3" x="448.74" y="130.86" width="2.87" height="4.34"/><rect class="cls-3" x="451.62" y="128.33" width="2.87" height="6.87"/><rect class="cls-3" x="454.49" y="123.28" width="2.87" height="11.92"/><rect class="cls-3" x="457.36" y="120.07" width="2.87" height="15.13"/><rect class="cls-3" x="460.24" y="111.35" width="2.87" height="23.85"/><rect class="cls-3" x="463.11" y="103.04" width="2.87" height="32.16"/><rect class="cls-3" x="465.98" y="96.43" width="2.87" height="38.77"/><rect class="cls-3" x="468.86" y="90.96" width="2.87" height="44.24"/><rect class="cls-3" x="471.73" y="88.22" width="2.87" height="46.98"/><rect class="cls-3" x="474.6" y="93.18" width="2.87" height="42.02"/><rect class="cls-3" x="477.48" y="95.76" width="2.87" height="39.44"/><rect class="cls-3" x="480.35" y="100.35" width="2.87" height="34.85"/><rect class="cls-3" x="483.22" y="110.27" width="2.87" height="24.93"/><rect class="cls-3" x="486.1" y="116.67" width="2.87" height="18.53"/><rect class="cls-3" x="488.97" y="124.46" width="2.87" height="10.74"/><rect class="cls-3" x="491.85" y="128.95" width="2.87" height="6.25"/><rect class="cls-3" x="494.72" y="131.64" width="2.87" height="3.56"/><rect class="cls-3" x="497.59" y="133.6" width="2.87" height="1.6"/><rect class="cls-3" x="500.47" y="133.7" width="2.87" height="1.5"/><rect class="cls-3" x="503.34" y="135.1" width="2.87" height="0.1"/><rect class="cls-3" x="506.21" y="135.05" width="2.87" height="0.15"/><rect class="cls-3" x="509.09" y="135.15" width="2.87" height="0.05"/><rect class="cls-3" x="511.96" y="135.15" width="2.87" height="0.05"/></g><line class="cls-8" x1="66.09" y1="137.55" x2="160.91" y2="137.55"/><line class="cls-9" x1="81.45" y1="140.54" x2="81.45" y2="137.55"/><line class="cls-9" x1="109.19" y1="140.54" x2="109.19" y2="137.55"/><line class="cls-9" x1="136.92" y1="140.54" x2="136.92" y2="137.55"/><text class="cls-10" transform="translate(73.63 149.55)">−40</text><text class="cls-10" transform="translate(106.69 149.55)">0</text><text class="cls-10" transform="translate(131.92 149.55)">40</text><line class="cls-8" x1="185.5" y1="137.55" x2="280.32" y2="137.55"/><line class="cls-9" x1="193.83" y1="140.54" x2="193.83" y2="137.55"/><line class="cls-9" x1="215.52" y1="140.54" x2="215.52" y2="137.55"/><line class="cls-9" x1="237.22" y1="140.54" x2="237.22" y2="137.55"/><line class="cls-9" x1="258.91" y1="140.54" x2="258.91" y2="137.55"/><text class="cls-10" transform="translate(186.01 149.55)">−</text><text class="cls-10" transform="translate(191.65 149.55)">60</text><text class="cls-10" transform="translate(207.7 149.55)">−</text><text class="cls-10" transform="translate(213.34 149.55)">30</text><text class="cls-10" transform="translate(234.72 149.55)">0</text><text class="cls-10" transform="translate(253.91 149.55)">30</text><line class="cls-8" x1="304.91" y1="137.55" x2="399.73" y2="137.55"/><line class="cls-9" x1="324.96" y1="140.54" x2="324.96" y2="137.55"/><line class="cls-9" x1="348.01" y1="140.54" x2="348.01" y2="137.55"/><line class="cls-9" x1="371.06" y1="140.54" x2="371.06" y2="137.55"/><line class="cls-9" x1="394.11" y1="140.54" x2="394.11" y2="137.55"/><text class="cls-10" transform="translate(317.14 149.55)">−40</text><text class="cls-10" transform="translate(345.51 149.55)">0</text><text class="cls-10" transform="translate(366.06 149.55)">40</text><text class="cls-10" transform="translate(389.11 149.55)">80</text><line class="cls-8" x1="424.32" y1="137.55" x2="519.14" y2="137.55"/><line class="cls-9" x1="432.67" y1="140.54" x2="432.67" y2="137.55"/><line class="cls-9" x1="454.36" y1="140.54" x2="454.36" y2="137.55"/><line class="cls-9" x1="476.04" y1="140.54" x2="476.04" y2="137.55"/><line class="cls-9" x1="497.73" y1="140.54" x2="497.73" y2="137.55"/><line class="cls-8" x1="424.32" y1="137.55" x2="424.32" y2="85.87"/><text class="cls-10" transform="translate(424.85 149.55)">−6<tspan class="cls-16" x="10.64" y="0">0</tspan><tspan x="21.68" y="0">−3</tspan><tspan class="cls-17" x="32.32" y="0">0</tspan><tspan class="cls-18" x="48.68" y="0">0</tspan><tspan x="67.87" y="0">30</tspan></text><line class="cls-8" x1="304.91" y1="137.55" x2="304.91" y2="85.87"/><line class="cls-8" x1="185.5" y1="137.55" x2="185.5" y2="85.87"/><line class="cls-8" x1="66.09" y1="137.55" x2="66.09" y2="85.87"/><text class="cls-19" transform="translate(0 40.96)">1pl-model</text><text class="cls-19" transform="translate(0 111.72)">2pl-model</text><line class="cls-20" x1="109.19" y1="140.54" x2="109.19" y2="13.76"/><line class="cls-20" x1="237.22" y1="140.54" x2="237.22" y2="13.76"/><line class="cls-20" x1="348.01" y1="140.54" x2="348.01" y2="13.76"/><line class="cls-20" x1="476.04" y1="140.54" x2="476.04" y2="13.76"/></svg>