<?xml version="1.0" encoding="utf-8"?>
<!-- Generator: Adobe Illustrator 19.2.1, SVG Export Plug-In . SVG Version: 6.00 Build 0)  -->
<svg version="1.1" id="Ebene_1" xmlns="http://www.w3.org/2000/svg" xmlns:xlink="http://www.w3.org/1999/xlink" x="0px" y="0px"
	 viewBox="0 0 177 214.2" style="enable-background:new 0 0 177 214.2;" xml:space="preserve">
<style type="text/css">
	.st0{fill:#C63235;}
	.st1{fill:#289548;}
	.st2{fill:#4570B4;}
	.st3{fill:#222221;}
	.st4{font-family:'ArialMT';}
	.st5{font-size:24px;}
	.st6{fill:#C20E1A;}
	.st7{letter-spacing:-6;}
</style>
<title>conditional</title>
<rect x="55.2" y="191.7" class="st0" width="20" height="20"/>
<circle class="st0" cx="56.4" cy="70.8" r="10"/>
<polygon class="st0" points="36.3,84.2 47.8,104.2 24.7,104.2 "/>
<polygon class="st0" points="20.5,48.7 31,56.3 27,68.7 14,68.7 10,56.3 "/>
<rect y="102.2" class="st1" width="20" height="20"/>
<circle class="st1" cx="51.3" cy="132.7" r="10"/>
<polygon class="st1" points="77.4,88.9 88.9,108.9 65.8,108.9 "/>
<polygon class="st1" points="98.3,142.7 108.8,150.4 104.8,162.7 91.8,162.7 87.8,150.4 "/>
<rect x="78.9" y="46.3" class="st2" width="20" height="20"/>
<circle class="st2" cx="115.2" cy="91.3" r="10"/>
<polygon class="st2" points="145.6,20.4 157.1,40.4 134,40.4 "/>
<polygon class="st2" points="166.5,74.2 177,81.9 173,94.2 160,94.2 156,81.9 "/>
<text transform="matrix(1 0 0 1 36.89 208.24)" class="st3 st4 st5">f(    |</text>
<text transform="matrix(1 0 0 1 84.54 208.24)" class="st6 st4 st5">θ</text>
<text transform="matrix(1 0 0 1 97.35 208.24)" class="st3 st4 st5 st7">​</text>
<text transform="matrix(1 0 0 1 97.35 208.24)" class="st3 st4 st5">,</text>
<text transform="matrix(1 0 0 1 102.32 208.24)" class="st3 st4 st5">ω</text>
<text transform="matrix(1 0 0 1 118.5 208.24)" class="st3 st4 st5">)</text>
</svg>
