<?xml version="1.0" encoding="utf-8"?>
<!-- Generator: Adobe Illustrator 19.2.1, SVG Export Plug-In . SVG Version: 6.00 Build 0)  -->
<svg version="1.1" id="Ebene_1" xmlns="http://www.w3.org/2000/svg" xmlns:xlink="http://www.w3.org/1999/xlink" x="0px" y="0px"
	 viewBox="0 0 287.8 185.5" style="enable-background:new 0 0 287.8 185.5;" xml:space="preserve">
<style type="text/css">
	.st0{fill:#C63235;}
	.st1{fill:#289548;}
	.st2{fill:#4570B4;}
	.st3{fill:#222221;}
	.st4{font-family:'ArialMT';}
	.st5{font-size:24px;}
	.st6{fill:#C20E1A;}
	.st7{letter-spacing:-6;}
</style>
<title>marginal</title>
<rect x="29.2" y="161.3" class="st0" width="20" height="20"/>
<circle class="st0" cx="72.3" cy="171.3" r="10"/>
<polygon class="st0" points="129.1,159.5 140.6,179.5 117.6,179.5 "/>
<polygon class="st0" points="100.1,159.5 110.6,167.1 106.6,179.5 93.6,179.5 89.6,167.1 "/>
<rect x="27.5" y="81.8" class="st1" width="20" height="20"/>
<circle class="st1" cx="78.8" cy="112.3" r="10"/>
<polygon class="st1" points="104.8,68.5 116.4,88.5 93.3,88.5 "/>
<polygon class="st1" points="125.8,122.3 136.3,129.9 132.3,142.3 119.3,142.3 115.3,129.9 "/>
<rect x="106.4" y="25.9" class="st2" width="20" height="20"/>
<circle class="st2" cx="142.6" cy="70.8" r="10"/>
<polygon class="st2" points="173,0 184.6,20 161.5,20 "/>
<polygon class="st2" points="194,53.8 204.5,61.5 200.5,73.8 187.5,73.8 183.4,61.5 "/>
<text transform="matrix(1 0 0 1 8 179.49)" class="st3 st4 st5">∫f(   ,    ,   ,    |</text>
<text transform="matrix(1 0 0 1 150.45 179.49)" class="st6 st4 st5">θ</text>
<text transform="matrix(1 0 0 1 163.27 179.49)" class="st3 st4 st5 st7">​</text>
<text transform="matrix(1 0 0 1 163.27 179.49)" class="st3 st4 st5">,</text>
<text transform="matrix(1 0 0 1 168.23 179.49)" class="st3 st4 st5">ω</text>
<text transform="matrix(1 0 0 1 184.41 179.49)" class="st3 st4 st5">)g(</text>
<text transform="matrix(1 0 0 1 211.46 179.49)" class="st6 st4 st5">θ</text>
<text transform="matrix(1 0 0 1 223.5 179.49)" class="st3 st4 st5">,Ψ</text>
<text transform="matrix(1 0 0 1 244.91 179.49)" class="st3 st4 st5">)d</text>
<text transform="matrix(1 0 0 1 265.26 179.49)" class="st6 st4 st5">θ</text>
</svg>
