<svg id="Ebene_1" data-name="Ebene 1" xmlns="http://www.w3.org/2000/svg" xmlns:xlink="http://www.w3.org/1999/xlink" viewBox="0 0 617 520"><defs><style>.cls-1,.cls-4,.cls-5,.cls-7{fill:none;}.cls-2{clip-path:url(#clip-path);}.cls-3{opacity:0;}.cls-4{stroke:#000;}.cls-4,.cls-7{stroke-width:2px;}.cls-5{stroke:#fff;stroke-width:6px;}.cls-6{fill:#fff;}.cls-7{stroke:#666;}.cls-8{font-size:32px;}.cls-10,.cls-8,.cls-9{font-family:MinionPro Capt;}.cls-9{font-size:21.33px;}.cls-10{font-size:26px;}</style><clipPath id="clip-path" transform="translate(0 -6)"><rect class="cls-1" y="6" width="617" height="520"/></clipPath></defs><title>modelsandhypothesis</title><g class="cls-2"><rect class="cls-3" width="617" height="520"/><line class="cls-4" x1="361.66" y1="381.9" x2="479.35" y2="413.75"/><line class="cls-5" x1="355.46" y1="458.46" x2="487.16" y2="322"/><line class="cls-4" x1="358.54" y1="453.59" x2="492.07" y2="317.79"/><path class="cls-6" d="M547.36,389.64a50,50,0,1,1-70.71,0,50,50,0,0,1,70.71,0" transform="translate(0 -6)"/><path class="cls-4" d="M547.36,389.64a50,50,0,1,1-70.71,0,50,50,0,0,1,70.71,0" transform="translate(0 -6)"/><line class="cls-7" x1="138.55" y1="428.73" x2="220" y2="466.81"/><rect class="cls-6" x="219.5" y="416" width="147" height="100"/><rect class="cls-4" x="219.5" y="416" width="147" height="100"/><line class="cls-7" x1="117.45" y1="388.05" x2="219.7" y2="358"/><rect class="cls-6" x="219.5" y="306" width="147" height="100"/><rect class="cls-4" x="219.5" y="306" width="147" height="100"/><line class="cls-4" x1="367.44" y1="220.51" x2="490.68" y2="177.97"/><line class="cls-5" x1="363.96" y1="156.32" x2="482.55" y2="270.23"/><line class="cls-4" x1="364" y1="156" x2="486.79" y2="275.57"/><line class="cls-7" x1="124.8" y1="182.32" x2="219.73" y2="130.77"/><rect class="cls-6" x="219.5" y="82" width="147" height="100"/><rect class="cls-4" x="219.5" y="82" width="147" height="100"/><path class="cls-6" d="M547.36,141.64a50,50,0,1,1-70.71,0,50,50,0,0,1,70.71,0" transform="translate(0 -6)"/><path class="cls-4" d="M547.36,141.64a50,50,0,1,1-70.71,0,50,50,0,0,1,70.71,0" transform="translate(0 -6)"/><path class="cls-6" d="M547.36,265.64a50,50,0,1,1-70.71,0,50,50,0,0,1,70.71,0" transform="translate(0 -6)"/><path class="cls-4" d="M547.36,265.64a50,50,0,1,1-70.71,0,50,50,0,0,1,70.71,0" transform="translate(0 -6)"/><line class="cls-7" x1="143.55" y1="221.36" x2="220.01" y2="245.85"/><path class="cls-6" d="M35.12,244.6C18.78,239.35,2.35,209,12.64,197.65S39.12,189.49,42.36,176s12.39-31.27,33.53-28.85,36.51-2.23,43,19.2S133.92,204,149,204s5.94,38.73-15,41.18-51.09,26.27-62.42,12.51S46.17,248.15,35.12,244.6Z" transform="translate(0 -6)"/><path class="cls-7" d="M35.12,244.6C18.78,239.35,2.35,209,12.64,197.65S39.12,189.49,42.36,176s12.39-31.27,33.53-28.85,36.51-2.23,43,19.2S133.92,204,149,204s5.94,38.73-15,41.18-51.09,26.27-62.42,12.51S46.17,248.15,35.12,244.6Z" transform="translate(0 -6)"/><path class="cls-6" d="M74.11,333.1c-16.31,1-30.06,56.27-48.06,51.94S-3.31,407.29,7.48,416.11,44.27,420.51,45,437.47,69.45,488,85.43,471.68s6.75-24.59,33.63-22.32,55.82-.83,39.45-23.05-42.09-26.81-35.2-45.53,5.33-18.85-18.86-27.93S88.48,332.18,74.11,333.1Z" transform="translate(0 -6)"/><path class="cls-7" d="M74.11,333.1c-16.31,1-30.06,56.27-48.06,51.94S-3.31,407.29,7.48,416.11,44.27,420.51,45,437.47,69.45,488,85.43,471.68s6.75-24.59,33.63-22.32,55.82-.83,39.45-23.05-42.09-26.81-35.2-45.53,5.33-18.85-18.86-27.93S88.48,332.18,74.11,333.1Z" transform="translate(0 -6)"/></g><text class="cls-8" transform="translate(69.13 175)">H</text><text class="cls-9" transform="translate(94 177.91)">0</text><text class="cls-8" transform="translate(65.1 375)">H</text><text class="cls-9" transform="translate(89.96 377.91)">1</text><text class="cls-8" transform="translate(271.27 112)">P</text><text class="cls-9" transform="translate(289.6 114.91)">0A</text><text class="cls-8" transform="translate(273.62 224)">P</text><text class="cls-9" transform="translate(291.96 226.91)">0B</text><text class="cls-8" transform="translate(271.5 446)">P</text><text class="cls-9" transform="translate(289.84 448.91)">1B</text><text class="cls-8" transform="translate(271.5 336)">P</text><text class="cls-9" transform="translate(289.84 338.91)">1A</text><text class="cls-8" transform="translate(494.22 178)">M</text><text class="cls-9" transform="translate(523.08 180.91)">I</text><text class="cls-8" transform="translate(490.1 302)">M</text><text class="cls-9" transform="translate(518.96 304.91)">II</text><g class="cls-2"><rect class="cls-4" x="219.5" y="194" width="147" height="100"/></g><text class="cls-8" transform="translate(486.1 426)">M</text><text class="cls-9" transform="translate(514.96 428.91)">III</text><text class="cls-10" transform="translate(19.74 31)">H<tspan x="16.09" y="0">y</tspan><tspan x="28.34" y="0">p</tspan><tspan x="43.37" y="0">o</tspan><tspan x="57.35" y="0">t</tspan><tspan x="66.09" y="0">he</tspan><tspan x="93.44" y="0">s</tspan><tspan x="103.95" y="0">e</tspan><tspan x="116.92" y="0">s</tspan></text><text class="cls-10" transform="translate(212.79 30.51)">P<tspan x="13.65" y="0">r</tspan><tspan x="21.87" y="0">o</tspan><tspan x="36.37" y="0">c</tspan><tspan x="48.02" y="0">e</tspan><tspan x="61" y="0">s</tspan><tspan x="71.19" y="0">s </tspan><tspan x="87" y="0">m</tspan><tspan x="108.6" y="0">o</tspan><tspan x="123.08" y="0">d</tspan><tspan x="137.75" y="0">el</tspan><tspan x="156.75" y="0">s</tspan></text><text class="cls-10" transform="translate(419.77 30.51)">S<tspan x="12.45" y="0">t</tspan><tspan x="21.22" y="0">a</tspan><tspan x="33.31" y="0">t</tspan><tspan x="42.07" y="0">i</tspan><tspan x="48.07" y="0">s</tspan><tspan x="58.27" y="0">t</tspan><tspan x="67.03" y="0">i</tspan><tspan x="73.11" y="0">c</tspan><tspan x="84.84" y="0">a</tspan><tspan x="97.47" y="0">l </tspan><tspan x="109.12" y="0">m</tspan><tspan x="130.75" y="0">o</tspan><tspan x="145.23" y="0">d</tspan><tspan x="159.9" y="0">e</tspan><tspan x="172.85" y="0">l</tspan><tspan x="178.93" y="0">s</tspan></text></svg>