<svg id="Ebene_1" data-name="Ebene 1" xmlns="http://www.w3.org/2000/svg" viewBox="0 0 606.48 139.2"><defs><style>.cls-1,.cls-4{fill:#fff;}.cls-1,.cls-2{fill-rule:evenodd;}.cls-2{fill:#cdcdcd;}.cls-3{fill:none;stroke:#000;stroke-miterlimit:10;stroke-width:0.96px;}.cls-5{font-size:36.02px;font-family:Calibri;}</style></defs><title>modeltransformation</title><path class="cls-1" d="M382.5,113.52l-12.44-10.14h8.14C369.95,85.47,341.11,73,308.09,73h4c33,0,61.85,12.51,70.11,30.42h8.14Z" transform="translate(-120.96 -72.48)"/><path class="cls-2" d="M310.09,73c-39.2.6-70.41,18.58-70.41,40.54h-4c0-22.4,32.42-40.56,72.41-40.56Z" transform="translate(-120.96 -72.48)"/><path class="cls-3" d="M310.09,73c-39.2.6-70.41,18.58-70.41,40.54h-4c0-22.4,32.42-40.56,72.41-40.56h4c33,0,61.85,12.51,70.11,30.42h8.14l-7.84,10.14-12.44-10.14h8.14C369.95,85.47,341.11,73,308.09,73" transform="translate(-120.96 -72.48)"/><path class="cls-1" d="M595.32,113.52L574.25,101.2h7.63c-9-16.82-35-28.24-64.46-28.24h20.49c29.45,0,55.51,11.42,64.46,28.24H610Z" transform="translate(-120.96 -72.48)"/><path class="cls-2" d="M527.66,73.43c-33,3-57.41,20.06-57.41,40.09H449.76C449.76,91.12,480,73,517.42,73,520.85,73,524.27,73.12,527.66,73.43Z" transform="translate(-120.96 -72.48)"/><path class="cls-3" d="M527.66,73.43c-33,3-57.41,20.06-57.41,40.09H449.76C449.76,91.12,480,73,517.42,73h20.49c29.45,0,55.51,11.42,64.46,28.24H610l-14.68,12.32L574.25,101.2h7.63c-9-16.82-35-28.24-64.46-28.24" transform="translate(-120.96 -72.48)"/><path class="cls-1" d="M464,170.16l21.07,12.32h-7.63c9,16.82,35,28.24,64.46,28.24H521.45c-29.45,0-55.51-11.42-64.46-28.24h-7.63Z" transform="translate(-120.96 -72.48)"/><path class="cls-2" d="M531.7,210.25c33-3,57.41-20.06,57.41-40.09H609.6c0,22.4-30.29,40.56-67.66,40.56C538.51,210.72,535.09,210.56,531.7,210.25Z" transform="translate(-120.96 -72.48)"/><path class="cls-3" d="M531.7,210.25c33-3,57.41-20.06,57.41-40.09H609.6c0,22.4-30.29,40.56-67.66,40.56H521.45c-29.45,0-55.51-11.42-64.46-28.24h-7.63L464,170.16l21.07,12.32h-7.63c8.95,16.82,35,28.24,64.46,28.24" transform="translate(-120.96 -72.48)"/><path class="cls-1" d="M241,170.64l12.44,10.14h-8.14c8.25,17.91,37.09,30.42,70.11,30.42h-4c-33,0-61.85-12.51-70.11-30.42h-8.14Z" transform="translate(-120.96 -72.48)"/><path class="cls-2" d="M313.43,211.18c39.2-.6,70.41-18.58,70.41-40.54h4c0,22.4-32.42,40.56-72.41,40.56Z" transform="translate(-120.96 -72.48)"/><path class="cls-3" d="M313.43,211.18c39.2-.6,70.41-18.58,70.41-40.54h4c0,22.4-32.42,40.56-72.41,40.56h-4c-33,0-61.85-12.51-70.11-30.42h-8.14L241,170.64l12.44,10.14h-8.14c8.25,17.91,37.09,30.42,70.11,30.42" transform="translate(-120.96 -72.48)"/><rect class="cls-4" x="213.12" y="41.04" width="180.24" height="56.64" rx="9.44" ry="9.44"/><rect class="cls-3" x="213.12" y="41.04" width="180.24" height="56.64" rx="9.44" ry="9.44"/><text class="cls-5" transform="translate(265.99 81.41)">brms</text><rect class="cls-4" x="0.48" y="41.04" width="180.24" height="56.64" rx="9.44" ry="9.44"/><rect class="cls-3" x="0.48" y="41.04" width="180.24" height="56.64" rx="9.44" ry="9.44"/><text class="cls-5" transform="translate(43.3 81.41)">bi<tspan x="27.19" y="0">r</tspan><tspan x="39.61" y="0">tms</tspan></text><rect class="cls-4" x="425.76" y="41.04" width="180.24" height="56.64" rx="9.44" ry="9.44"/><rect class="cls-3" x="425.76" y="41.04" width="180.24" height="56.64" rx="9.44" ry="9.44"/><text class="cls-5" transform="translate(483.67 81.41)">S<tspan x="16.55" y="0">t</tspan><tspan x="28.11" y="0">an</tspan></text></svg>