<svg id="Ebene_1" data-name="Ebene 1" xmlns="http://www.w3.org/2000/svg" xmlns:xlink="http://www.w3.org/1999/xlink" viewBox="0 0 238.04 262.01"><defs><style>.cls-1,.cls-12,.cls-13,.cls-2,.cls-7,.cls-9{fill:none;}.cls-12,.cls-2,.cls-9{stroke:#000;}.cls-13,.cls-2{stroke-linecap:round;}.cls-12,.cls-13,.cls-2,.cls-7,.cls-9{stroke-linejoin:round;}.cls-13,.cls-2,.cls-9{stroke-width:0.41px;}.cls-3,.cls-4,.cls-8{font-size:9.93px;}.cls-10,.cls-16,.cls-17,.cls-19,.cls-3,.cls-5,.cls-8{font-family:JkdwrgArial;}.cls-11,.cls-4{font-family:MwhtfjSymbol;}.cls-5{font-size:6.95px;}.cls-6{clip-path:url(#clip-path);}.cls-7{stroke:#fff;stroke-width:1.49px;}.cls-8{white-space:pre;}.cls-10{font-size:4.96px;}.cls-11{font-size:10.92px;}.cls-12{stroke-width:3.72px;}.cls-13{stroke:#87ceeb;}.cls-14{font-size:7.45px;font-family:FrwssjArialBold;}.cls-15{fill:#87ceeb;fill-rule:evenodd;}.cls-16{font-size:13.4px;}.cls-17{font-size:13.4px;}.cls-18{letter-spacing:-1px;}.cls-19{font-size:15.28px;}</style><clipPath id="clip-path" transform="translate(-0.28 -2.3)"><rect class="cls-1" y="-34.35" width="238.32" height="298.66"/></clipPath></defs><title>NHSTvsPCIvalues</title><rect class="cls-2" x="17.3" y="41.27" width="110.27" height="110.27"/><text class="cls-3" transform="translate(51.59 89.05)">p = 0.031</text><text class="cls-3" transform="translate(46.45 102.76)">(</text><text class="cls-4" transform="translate(52.51 102.76)">θ</text><text class="cls-5" transform="translate(57.69 104.57)">null</text><text class="cls-4" transform="translate(70.8 102.75)">=</text><text class="cls-3" transform="translate(78.54 102.75)">0.5 )</text><g class="cls-6"><rect class="cls-2" x="127.56" y="41.27" width="110.27" height="110.27"/></g><line class="cls-7" x1="37.86" y1="235.53" x2="37.86" y2="235.53"/><line class="cls-7" x1="41.71" y1="235.53" x2="41.71" y2="235.53"/><line class="cls-7" x1="45.54" y1="235.53" x2="45.54" y2="235.53"/><text class="cls-3" transform="translate(155.63 89.12)">BF</text><text class="cls-5" transform="translate(168.32 90.94)">null</text><text class="cls-8" transform="translate(179.13 89.12)"> = 0.22</text><text class="cls-3" transform="translate(143.11 102.83)">( alt = dbeta(1,1) )</text><line class="cls-7" x1="49.39" y1="235.53" x2="49.39" y2="235.53"/><line class="cls-7" x1="53.23" y1="235.53" x2="53.23" y2="235.53"/><line class="cls-7" x1="57.07" y1="235.53" x2="57.07" y2="235.52"/><line class="cls-7" x1="60.91" y1="235.53" x2="60.91" y2="235.51"/><line class="cls-7" x1="64.75" y1="235.53" x2="64.75" y2="235.43"/><line class="cls-7" x1="68.59" y1="235.53" x2="68.59" y2="235.03"/><line class="cls-7" x1="72.43" y1="235.53" x2="72.43" y2="233.6"/><line class="cls-7" x1="76.27" y1="235.53" x2="76.27" y2="229.46"/><line class="cls-7" x1="80.11" y1="235.53" x2="80.11" y2="220.09"/><line class="cls-7" x1="83.95" y1="235.53" x2="83.95" y2="204.01"/><line class="cls-7" x1="87.79" y1="235.53" x2="87.79" y2="184.62"/><line class="cls-7" x1="91.64" y1="235.53" x2="91.64" y2="171.89"/><line class="cls-7" x1="95.47" y1="235.53" x2="95.47" y2="176.13"/><line class="cls-7" x1="99.31" y1="235.53" x2="99.31" y2="196.54"/><line class="cls-7" x1="103.16" y1="235.53" x2="103.16" y2="219.47"/><line class="cls-7" x1="107" y1="235.53" x2="107" y2="232.41"/><line class="cls-9" x1="37.86" y1="238.07" x2="107" y2="238.07"/><line class="cls-9" x1="37.86" y1="238.07" x2="37.86" y2="241.04"/><line class="cls-9" x1="51.69" y1="238.07" x2="51.69" y2="241.04"/><line class="cls-9" x1="65.52" y1="238.07" x2="65.52" y2="241.04"/><line class="cls-9" x1="79.35" y1="238.07" x2="79.35" y2="241.04"/><line class="cls-9" x1="93.17" y1="238.07" x2="93.17" y2="241.04"/><line class="cls-9" x1="107" y1="238.07" x2="107" y2="241.04"/><text class="cls-10" transform="translate(34.41 246.97)">0.0</text><text class="cls-10" transform="translate(48.24 246.97)">0.2</text><text class="cls-10" transform="translate(62.07 246.97)">0.4</text><text class="cls-10" transform="translate(75.9 246.97)">0.6</text><text class="cls-10" transform="translate(89.72 246.97)">0.8</text><text class="cls-10" transform="translate(103.55 246.97)">1.0</text><text class="cls-11" transform="translate(69.59 258.53)">θ</text><rect class="cls-2" x="17.3" y="151.54" width="110.27" height="110.27"/><line class="cls-12" x1="74.44" y1="235.53" x2="101.47" y2="235.53"/><text class="cls-3" transform="translate(76.36 179.02)">MLE:</text><text class="cls-3" transform="translate(75.53 192.72)">0.778</text><text class="cls-3" transform="translate(56.64 214)">95% Con<tspan x="36.87" y="0">f</tspan><tspan x="39.5" y="0">. Int.</tspan></text><text class="cls-3" transform="translate(61.73 227.71)">0.529 , 0.92</text><path class="cls-13" d="M148.41,237.83h17.51c5.08-.18,12.66.75,16.59-2.93l0.23-.21,0.23-.22,0.23-.23,0.23-.24,0.23-.26c4-4.67,6.07-12.87,7.6-18.67l0.24-.92,0.23-.95c2.86-11.43,4.52-23.52,7.84-34.76l0.23-.68,0.23-.63,0.23-.57,0.23-.52,0.23-.46c1.62-3,2.78-.46,3.46,1.49l0.23,0.72,0.23,0.79c1.68,6.46,2.51,13.4,3.46,20l0.23,1.72,0.23,1.74,0.23,1.76,0.23,1.77c1,7.82,2,15.74,3.45,23.5l0.23,1.11,0.23,1c0.44,1.57,1.29,6.31,3.46,6.57l0.23,0h0.92" transform="translate(-0.28 -2.3)"/><line class="cls-2" x1="148.13" y1="238.07" x2="217.27" y2="238.07"/><line class="cls-2" x1="148.13" y1="238.07" x2="148.13" y2="241.04"/><line class="cls-2" x1="161.96" y1="238.07" x2="161.96" y2="241.04"/><line class="cls-2" x1="175.79" y1="238.07" x2="175.79" y2="241.04"/><line class="cls-2" x1="189.61" y1="238.07" x2="189.61" y2="241.04"/><line class="cls-2" x1="203.44" y1="238.07" x2="203.44" y2="241.04"/><line class="cls-2" x1="217.27" y1="238.07" x2="217.27" y2="241.04"/><text class="cls-10" transform="translate(144.68 246.97)">0.0</text><text class="cls-10" transform="translate(158.51 246.97)">0.2</text><text class="cls-10" transform="translate(172.34 246.97)">0.4</text><text class="cls-10" transform="translate(186.16 246.97)">0.6</text><text class="cls-10" transform="translate(199.99 246.97)">0.8</text><text class="cls-10" transform="translate(213.82 246.97)">1.0</text><text class="cls-14" transform="translate(152.64 163.11)">P<tspan x="3.66" y="0">osterior Distrib.</tspan></text><text class="cls-11" transform="translate(179.85 258.53)">θ</text><path class="cls-15" d="M148.41,237.83h17.51c5.08-.18,12.66.75,16.59-2.93l0.23-.21,0.23-.22,0.23-.23,0.23-.24,0.23-.26c4-4.67,6.07-12.87,7.6-18.67l0.24-.92,0.23-.95c2.86-11.43,4.52-23.52,7.84-34.76l0.23-.68,0.23-.63,0.23-.57,0.23-.52,0.23-.46c1.62-3,2.78-.46,3.46,1.49l0.23,0.72,0.23,0.79c1.68,6.46,2.51,13.4,3.46,20l0.23,1.72,0.23,1.74,0.23,1.76,0.23,1.77c1,7.82,2,15.74,3.45,23.5l0.23,1.11,0.23,1c0.44,1.57,1.29,6.31,3.46,6.57l0.23,0H148.41" transform="translate(-0.28 -2.3)"/><path class="cls-13" d="M148.41,237.83h17.51c5.08-.18,12.66.75,16.59-2.93l0.23-.21,0.23-.22,0.23-.23,0.23-.24,0.23-.26c4-4.67,6.07-12.87,7.6-18.67l0.24-.92,0.23-.95c2.86-11.43,4.52-23.52,7.84-34.76l0.23-.68,0.23-.63,0.23-.57,0.23-.52,0.23-.46c1.62-3,2.78-.46,3.46,1.49l0.23,0.72,0.23,0.79c1.68,6.46,2.51,13.4,3.46,20l0.23,1.72,0.23,1.74,0.23,1.76,0.23,1.77c1,7.82,2,15.74,3.45,23.5l0.23,1.11,0.23,1c0.44,1.57,1.29,6.31,3.46,6.57l0.23,0H148.41Z" transform="translate(-0.28 -2.3)"/><line class="cls-12" x1="187.13" y1="235.53" x2="211.87" y2="235.53"/><text class="cls-3" transform="translate(179.63 214)">95% HDI</text><text class="cls-3" transform="translate(170.52 227.71)">0.564 , 0.922</text><text class="cls-3" transform="translate(186.73 179.02)">Mode:</text><text class="cls-3" transform="translate(189.49 192.72)">0.778</text><g class="cls-6"><rect class="cls-2" x="127.56" y="151.54" width="110.27" height="110.27"/></g><text class="cls-16" transform="translate(38.91 35.28)">Frequentist</text><text class="cls-17" transform="translate(11.22 237.87) rotate(-90)">Estimation</text><text class="cls-16" transform="translate(155.46 35.28)">B<tspan x="7.26" y="0">a</tspan><tspan x="13.32" y="0">y</tspan><tspan x="19.37" y="0">esian</tspan></text><text class="cls-17" transform="translate(11.22 143.56) rotate(-90)">Hypothesis <tspan class="cls-18" x="65.22" y="0">T</tspan><tspan x="70.3" y="0">est</tspan></text><text class="cls-19" transform="translate(73.58 12.79)">z = 14, N = 18</text></svg>