<svg id="Ebene_1" data-name="Ebene 1" xmlns="http://www.w3.org/2000/svg" viewBox="0 0 238.31 125.08"><defs><style>.cls-1{fill:#cfe7f5;fill-rule:evenodd;}.cls-2{fill:none;stroke:#000;stroke-linejoin:round;stroke-width:0.4px;}</style></defs><title>NHSTvsROPE</title><path class="cls-1" d="M165.52,2.47a3.67,3.67,0,0,0-3.41,3.41V19.59A3.67,3.67,0,0,0,165.52,23h60.74a3.67,3.67,0,0,0,3.41-3.41V5.89a3.67,3.67,0,0,0-3.41-3.41H165.52" transform="translate(-2.08 -2.47)"/><path class="cls-1" d="M81.18,2.47a3.62,3.62,0,0,0-3.36,3.41V19.59A3.62,3.62,0,0,0,81.18,23H135a3.67,3.67,0,0,0,3.41-3.41V5.89A3.67,3.67,0,0,0,135,2.47H81.18" transform="translate(-2.08 -2.47)"/><path class="cls-1" d="M6.91,33.24a5.25,5.25,0,0,0-4.83,4.83V57.41A5.25,5.25,0,0,0,6.91,62.3h46.8a5.21,5.21,0,0,0,4.83-4.89V38.08a5.2,5.2,0,0,0-4.83-4.83H6.91" transform="translate(-2.08 -2.47)"/><path class="cls-1" d="M8.9,77A7.34,7.34,0,0,0,2.08,83.8v27.3a7.34,7.34,0,0,0,6.82,6.82H51.73a7.34,7.34,0,0,0,6.82-6.82V83.8A7.34,7.34,0,0,0,51.73,77H8.9" transform="translate(-2.08 -2.47)"/><path d="M89.58,11.21H87.15V12.3h2.23v1.1H87.15V15.9H85.71V10.11h3.88v1.1m3.63,1.6H93.11l-0.22,0H92.55a1.69,1.69,0,0,0-.45.06,4.06,4.06,0,0,0-.46.15V15.9H90.29V11.53h1.36v0.63l0.26-.21a2.77,2.77,0,0,1,.3-0.21,1.71,1.71,0,0,1,.34-0.15,1.21,1.21,0,0,1,.37-0.07h0.29v1.29ZM96,16a2.75,2.75,0,0,1-1.89-.59,2.15,2.15,0,0,1-.66-1.68A2.36,2.36,0,0,1,94,12a2.28,2.28,0,0,1,1.72-.64,2,2,0,0,1,1.51.54,2.19,2.19,0,0,1,.51,1.55V14h-3a1.25,1.25,0,0,0,.13.51,0.88,0.88,0,0,0,.29.32,1.15,1.15,0,0,0,.41.17,2.31,2.31,0,0,0,.51.05A2.11,2.11,0,0,0,96.6,15,2.17,2.17,0,0,0,97,14.84l0.31-.16,0.23-.15H97.7v1.12l-0.31.12a2.68,2.68,0,0,1-.38.11,3.93,3.93,0,0,1-.46.09A4.22,4.22,0,0,1,96,16Zm0.45-2.86a1,1,0,0,0-.2-0.66,0.7,0.7,0,0,0-.58-0.23,0.82,0.82,0,0,0-.62.24,1,1,0,0,0-.25.65h1.65Zm6,4.35h-1.36v-2l-0.3.23a1.73,1.73,0,0,1-.3.17,1.64,1.64,0,0,1-.32.12,1.73,1.73,0,0,1-.39,0,1.37,1.37,0,0,1-1.18-.62,2.82,2.82,0,0,1-.44-1.65,3,3,0,0,1,.15-1A2.32,2.32,0,0,1,98.72,12a1.75,1.75,0,0,1,.58-0.45,1.6,1.6,0,0,1,.71-0.17,1.78,1.78,0,0,1,.56.08,3,3,0,0,1,.5.23l0.05-.19h1.32v6Zm-1.36-2.81V12.55a1.2,1.2,0,0,0-.26-0.08l-0.28,0a0.85,0.85,0,0,0-.74.34,1.61,1.61,0,0,0-.25,1,1.7,1.7,0,0,0,.2.93,0.71,0.71,0,0,0,.63.29,1,1,0,0,0,.36-0.07A1.23,1.23,0,0,0,101.08,14.69Zm6.45,1.2h-1.36V15.41a3.75,3.75,0,0,1-.65.45,1.52,1.52,0,0,1-.71.15,1.28,1.28,0,0,1-1-.41,1.81,1.81,0,0,1-.36-1.23V11.53h1.37V13.7c0,0.23,0,.41,0,0.55a1.11,1.11,0,0,0,.08.36,0.43,0.43,0,0,0,.19.21,0.78,0.78,0,0,0,.37.07,1,1,0,0,0,.34-0.07,1.48,1.48,0,0,0,.36-0.19v-3.1h1.36V15.9ZM110.83,16a2.75,2.75,0,0,1-1.9-.59,2.15,2.15,0,0,1-.66-1.68,2.36,2.36,0,0,1,.61-1.71,2.28,2.28,0,0,1,1.72-.64,2,2,0,0,1,1.51.54,2.19,2.19,0,0,1,.5,1.55V14h-3a1.23,1.23,0,0,0,.13.51,0.86,0.86,0,0,0,.29.32,1.14,1.14,0,0,0,.41.17A2.33,2.33,0,0,0,111,15a2.09,2.09,0,0,0,.47-0.05,2.2,2.2,0,0,0,.42-0.14l0.31-.16,0.23-.15h0.14v1.12l-0.3.12a2.81,2.81,0,0,1-.38.11,4,4,0,0,1-.46.09A4.22,4.22,0,0,1,110.83,16Zm0.45-2.86a1,1,0,0,0-.2-0.66,0.7,0.7,0,0,0-.58-0.23,0.82,0.82,0,0,0-.62.24,1,1,0,0,0-.25.65h1.64Zm6.12,2.74H116V13.73c0-.18,0-0.35,0-0.53a1.2,1.2,0,0,0-.08-0.39,0.43,0.43,0,0,0-.2-0.21,0.81,0.81,0,0,0-.35-0.06,1,1,0,0,0-.34.06,1.72,1.72,0,0,0-.37.2v3.1h-1.36V11.53h1.36V12a3.45,3.45,0,0,1,.65-0.44,1.57,1.57,0,0,1,.7-0.16,1.25,1.25,0,0,1,1,.42,1.85,1.85,0,0,1,.35,1.22V15.9ZM120.09,16a1.78,1.78,0,0,1-1.21-.34,1.44,1.44,0,0,1-.38-1.12v-2H118V11.53h0.52V10.28h1.36v1.25h1.31v0.95h-1.31V14c0,0.15,0,.29,0,0.4a0.83,0.83,0,0,0,.06.31,0.43,0.43,0,0,0,.19.21,0.82,0.82,0,0,0,.4.08,1.18,1.18,0,0,0,.28,0l0.25-.09h0.12v1a3.94,3.94,0,0,1-.47.09A4.74,4.74,0,0,1,120.09,16Zm3.07-5.07h-1.44V9.85h1.44v1.06Zm0,5h-1.36V11.53h1.36V15.9ZM125.48,16a3.82,3.82,0,0,1-.91-0.1,3.47,3.47,0,0,1-.71-0.24V14.52H124l0.22,0.16a1.93,1.93,0,0,0,.35.19A2.55,2.55,0,0,0,125,15a2,2,0,0,0,.52.06A1.31,1.31,0,0,0,126,15a0.3,0.3,0,0,0,.22-0.28,0.27,0.27,0,0,0-.1-0.23,1.16,1.16,0,0,0-.39-0.15l-0.39-.08-0.42-.1a1.56,1.56,0,0,1-.77-0.47,1.25,1.25,0,0,1-.26-0.82A1.18,1.18,0,0,1,124,12.3a1.41,1.41,0,0,1,.4-0.46,2.06,2.06,0,0,1,.64-0.32,3,3,0,0,1,.87-0.12,3.66,3.66,0,0,1,.84.09,3.21,3.21,0,0,1,.65.22v1.1H127.3l-0.22-.15-0.3-.16a2.18,2.18,0,0,0-.38-0.13,1.9,1.9,0,0,0-.43-0.05,1.14,1.14,0,0,0-.5.1,0.3,0.3,0,0,0-.2.27,0.28,0.28,0,0,0,.1.23,1.16,1.16,0,0,0,.44.17l0.4,0.08a3.05,3.05,0,0,1,.44.11,1.49,1.49,0,0,1,.71.45,1.18,1.18,0,0,1,.24.78,1.25,1.25,0,0,1-.14.59,1.3,1.3,0,0,1-.41.47,2.15,2.15,0,0,1-.66.32A3.18,3.18,0,0,1,125.48,16Zm4.44,0a1.78,1.78,0,0,1-1.21-.34,1.44,1.44,0,0,1-.38-1.12v-2h-0.52V11.53h0.52V10.28h1.36v1.25H131v0.95h-1.31V14c0,0.15,0,.29,0,0.4a0.81,0.81,0,0,0,.06.31,0.43,0.43,0,0,0,.19.21,0.81,0.81,0,0,0,.4.08,1.2,1.2,0,0,0,.29,0l0.25-.09H131v1a4.05,4.05,0,0,1-.47.09A4.74,4.74,0,0,1,129.92,16Z" transform="translate(-2.08 -2.47)"/><path d="M183.2,14.12a1.67,1.67,0,0,1-.16.76,1.52,1.52,0,0,1-.44.54,2,2,0,0,1-.72.37,3.81,3.81,0,0,1-1,.11h-2.32V10.11h2a7.42,7.42,0,0,1,1,0,1.88,1.88,0,0,1,.62.2,1.12,1.12,0,0,1,.46.45,1.32,1.32,0,0,1,.15.65,1.37,1.37,0,0,1-.21.75,1.23,1.23,0,0,1-.58.49v0a1.59,1.59,0,0,1,.86.46,1.33,1.33,0,0,1,.32.94m-1.86-2.38a0.65,0.65,0,0,0-.07-0.29,0.45,0.45,0,0,0-.22-0.22,1,1,0,0,0-.34-0.07H180v1.22h0.71A0.85,0.85,0,0,0,181,12.3a0.47,0.47,0,0,0,.24-0.23A0.79,0.79,0,0,0,181.34,11.74Zm0.37,2.35a0.7,0.7,0,0,0-.11-0.42,0.67,0.67,0,0,0-.33-0.23,1.15,1.15,0,0,0-.36-0.06H180v1.45h0.86a1.2,1.2,0,0,0,.44-0.1,0.58,0.58,0,0,0,.29-0.25A0.77,0.77,0,0,0,181.71,14.1Zm4.66,1.34-0.25.21a1.47,1.47,0,0,1-.3.19,2,2,0,0,1-.36.14,2,2,0,0,1-.48,0,1.29,1.29,0,0,1-1-.39,1.33,1.33,0,0,1-.38-1,1.42,1.42,0,0,1,.19-0.78,1.33,1.33,0,0,1,.56-0.47,2.92,2.92,0,0,1,.88-0.25c0.34,0,.71-0.08,1.1-0.11v0a0.51,0.51,0,0,0-.27-0.5,1.8,1.8,0,0,0-.8-0.14,2.17,2.17,0,0,0-.56.09,4.23,4.23,0,0,0-.63.22H184V11.62c0.13,0,.35-0.08.65-0.14a5.21,5.21,0,0,1,.91-0.08,2.84,2.84,0,0,1,1.64.38,1.32,1.32,0,0,1,.51,1.15v3h-1.35V15.43Zm0-.68V13.85l-0.56.06a1.86,1.86,0,0,0-.42.1,0.59,0.59,0,0,0-.28.19,0.54,0.54,0,0,0-.1.34,0.48,0.48,0,0,0,.17.42,0.86,0.86,0,0,0,.49.11A0.91,0.91,0,0,0,186,15,1.13,1.13,0,0,0,186.36,14.76Zm6.44-3.23-2.2,6h-1.46l0.66-1.71-1.6-4.26h1.43l0.92,2.74,0.86-2.74h1.4ZM195.51,16a2.74,2.74,0,0,1-1.89-.59,2.14,2.14,0,0,1-.66-1.68,2.36,2.36,0,0,1,.61-1.71,2.28,2.28,0,0,1,1.72-.64,2,2,0,0,1,1.51.54,2.18,2.18,0,0,1,.51,1.55V14h-3a1.27,1.27,0,0,0,.13.51,0.87,0.87,0,0,0,.29.32,1.14,1.14,0,0,0,.41.17,2.33,2.33,0,0,0,.51.05,2.08,2.08,0,0,0,.46-0.05,2.18,2.18,0,0,0,.42-0.14l0.31-.16,0.23-.15h0.14v1.12l-0.31.12a2.66,2.66,0,0,1-.38.12,3.89,3.89,0,0,1-.46.09A4.21,4.21,0,0,1,195.51,16ZM196,13.15a1,1,0,0,0-.2-0.66,0.71,0.71,0,0,0-.58-0.23,0.83,0.83,0,0,0-.62.24,1,1,0,0,0-.25.65H196ZM199.32,16a3.84,3.84,0,0,1-.91-0.1,3.43,3.43,0,0,1-.71-0.24V14.52h0.11L198,14.68a1.91,1.91,0,0,0,.35.19,2.45,2.45,0,0,0,.43.15,2,2,0,0,0,.52.07,1.32,1.32,0,0,0,.51-0.09,0.3,0.3,0,0,0,.22-0.28,0.27,0.27,0,0,0-.1-0.23,1.15,1.15,0,0,0-.39-0.15l-0.39-.08-0.42-.1a1.56,1.56,0,0,1-.77-0.47,1.25,1.25,0,0,1-.26-0.82,1.19,1.19,0,0,1,.13-0.55,1.44,1.44,0,0,1,.39-0.46,2,2,0,0,1,.64-0.32,3,3,0,0,1,.86-0.12,3.65,3.65,0,0,1,.84.09,3.23,3.23,0,0,1,.65.22v1.1h-0.11l-0.22-.15-0.3-.16a2.25,2.25,0,0,0-.38-0.13,1.91,1.91,0,0,0-.43-0.05,1.13,1.13,0,0,0-.5.1,0.3,0.3,0,0,0-.2.27,0.29,0.29,0,0,0,.1.23,1.18,1.18,0,0,0,.44.17L200,13.2a3,3,0,0,1,.44.11,1.49,1.49,0,0,1,.71.44,1.19,1.19,0,0,1,.24.78,1.25,1.25,0,0,1-.14.59,1.29,1.29,0,0,1-.41.47,2.11,2.11,0,0,1-.66.32A3.21,3.21,0,0,1,199.32,16Zm4.16-5.11H202V9.85h1.44v1.06Zm0,5h-1.36V11.53h1.36V15.9Zm3.43-.46-0.25.21a1.41,1.41,0,0,1-.3.19A1.94,1.94,0,0,1,206,16a2,2,0,0,1-.48,0,1.29,1.29,0,0,1-1-.39,1.33,1.33,0,0,1-.38-1,1.42,1.42,0,0,1,.19-0.78,1.33,1.33,0,0,1,.56-0.47,2.9,2.9,0,0,1,.88-0.25c0.34,0,.71-0.08,1.11-0.11v0a0.51,0.51,0,0,0-.27-0.5,1.81,1.81,0,0,0-.8-0.14,2.19,2.19,0,0,0-.56.09,4.29,4.29,0,0,0-.63.22h-0.12V11.62c0.13,0,.35-0.08.65-0.14a5.21,5.21,0,0,1,.91-0.08,2.84,2.84,0,0,1,1.64.38,1.33,1.33,0,0,1,.51,1.15v3h-1.35V15.43Zm0-.68V13.85l-0.56.06a1.9,1.9,0,0,0-.42.1,0.58,0.58,0,0,0-.28.19,0.53,0.53,0,0,0-.1.34,0.48,0.48,0,0,0,.16.42,0.86,0.86,0,0,0,.49.11,0.93,0.93,0,0,0,.37-0.08A1.16,1.16,0,0,0,206.88,14.76Zm6.45,1.14H212V13.73c0-.18,0-0.35,0-0.53a1.17,1.17,0,0,0-.08-0.39,0.42,0.42,0,0,0-.2-0.21,0.82,0.82,0,0,0-.35-0.07,1,1,0,0,0-.34.06,1.63,1.63,0,0,0-.36.2V15.9h-1.36V11.53h1.36V12a3.39,3.39,0,0,1,.65-0.44,1.56,1.56,0,0,1,.7-0.16,1.25,1.25,0,0,1,1,.42,1.85,1.85,0,0,1,.36,1.22V15.9Z" transform="translate(-2.08 -2.47)"/><path d="M14.79,46.15H13.33V43.59h-2v2.57H9.9V40.36h1.45v2.12h2V40.36h1.45v5.79M20,41.78l-2.2,6H16.31L17,46l-1.6-4.26H16.8l0.92,2.74,0.86-2.74H20Zm4.75,2.12a2.56,2.56,0,0,1-.53,1.69,1.63,1.63,0,0,1-1.31.64,2,2,0,0,1-.57-0.07,2.51,2.51,0,0,1-.51-0.23v1.82H20.45v-6h1.36v0.45a3.14,3.14,0,0,1,.61-0.42,1.56,1.56,0,0,1,.72-0.16,1.34,1.34,0,0,1,1.17.6A2.85,2.85,0,0,1,24.73,43.91Zm-1.39,0a1.68,1.68,0,0,0-.2-0.93,0.69,0.69,0,0,0-.61-0.29,1.22,1.22,0,0,0-.36.06,1.43,1.43,0,0,0-.35.18v2.2a1,1,0,0,0,.24.07l0.31,0a0.86,0.86,0,0,0,.74-0.32A1.64,1.64,0,0,0,23.34,43.93Zm6.36,0a2.36,2.36,0,0,1-.59,1.7,2.54,2.54,0,0,1-3.33,0,2.74,2.74,0,0,1,0-3.4,2.55,2.55,0,0,1,3.33,0A2.37,2.37,0,0,1,29.7,44Zm-1.4,0a2.78,2.78,0,0,0-.06-0.65,1.2,1.2,0,0,0-.18-0.41,0.66,0.66,0,0,0-.27-0.23,0.89,0.89,0,0,0-.35-0.06,0.94,0.94,0,0,0-.33.06,0.65,0.65,0,0,0-.27.22,1.18,1.18,0,0,0-.19.42,2.69,2.69,0,0,0-.07.67,2.58,2.58,0,0,0,.07.65,1.22,1.22,0,0,0,.17.39,0.64,0.64,0,0,0,.27.22,0.91,0.91,0,0,0,.36.07,0.86,0.86,0,0,0,.33-0.07A0.61,0.61,0,0,0,28.06,45a1.23,1.23,0,0,0,.18-0.4A2.69,2.69,0,0,0,28.3,44Zm3.76,2.26a1.78,1.78,0,0,1-1.21-.34,1.44,1.44,0,0,1-.38-1.12v-2H30V41.78h0.52V40.54h1.36v1.25h1.31v0.95H31.84v1.55c0,0.15,0,.29,0,0.4a0.77,0.77,0,0,0,.06.31,0.42,0.42,0,0,0,.19.21,0.82,0.82,0,0,0,.4.08,1.19,1.19,0,0,0,.29,0L33,45.15h0.12v1l-0.47.09A4.78,4.78,0,0,1,32.07,46.24Zm5.76-.08H36.46V44c0-.18,0-0.35,0-0.53a1.21,1.21,0,0,0-.08-0.39,0.42,0.42,0,0,0-.2-0.21,0.81,0.81,0,0,0-.35-0.07,1,1,0,0,0-.34.06,1.62,1.62,0,0,0-.36.2v3.1H33.74v-6H35.1v2.17a3.35,3.35,0,0,1,.65-0.44,1.54,1.54,0,0,1,.7-0.16,1.26,1.26,0,0,1,1,.42,1.86,1.86,0,0,1,.35,1.22v2.84Zm3.26,0.12a2.75,2.75,0,0,1-1.9-.59A2.14,2.14,0,0,1,38.53,44a2.35,2.35,0,0,1,.61-1.71,2.28,2.28,0,0,1,1.72-.64,2,2,0,0,1,1.51.54,2.18,2.18,0,0,1,.5,1.55v0.49h-3a1.23,1.23,0,0,0,.13.51,0.89,0.89,0,0,0,.29.32,1.16,1.16,0,0,0,.41.17,2.31,2.31,0,0,0,.51.05,2.09,2.09,0,0,0,.47-0.05,2.29,2.29,0,0,0,.42-0.14l0.31-.16,0.23-.15H42.8v1.12L42.5,46l-0.38.12-0.46.09A4.18,4.18,0,0,1,41.09,46.27Zm0.45-2.86a1,1,0,0,0-.2-0.66,0.71,0.71,0,0,0-.58-0.23,0.81,0.81,0,0,0-.62.24,1,1,0,0,0-.25.65h1.65Zm3.36,2.86A3.84,3.84,0,0,1,44,46.17a3.37,3.37,0,0,1-.71-0.25V44.77h0.11l0.22,0.16a2.07,2.07,0,0,0,.35.19,2.48,2.48,0,0,0,.43.15,2,2,0,0,0,.52.06,1.33,1.33,0,0,0,.51-0.09A0.3,0.3,0,0,0,45.64,45a0.27,0.27,0,0,0-.1-0.23,1.13,1.13,0,0,0-.39-0.15l-0.39-.08-0.42-.1a1.56,1.56,0,0,1-.77-0.47,1.24,1.24,0,0,1-.26-0.82,1.18,1.18,0,0,1,.13-0.55,1.41,1.41,0,0,1,.39-0.46,2,2,0,0,1,.64-0.31,2.94,2.94,0,0,1,.87-0.12,3.7,3.7,0,0,1,.84.09,3.27,3.27,0,0,1,.65.22v1.11H46.72l-0.22-.15-0.29-.16a2.13,2.13,0,0,0-.38-0.13,1.84,1.84,0,0,0-.43-0.05,1.12,1.12,0,0,0-.5.1,0.31,0.31,0,0,0-.21.27,0.29,0.29,0,0,0,.1.23,1.2,1.2,0,0,0,.44.17l0.4,0.08a3.14,3.14,0,0,1,.44.11,1.5,1.5,0,0,1,.71.44,1.18,1.18,0,0,1,.24.78,1.26,1.26,0,0,1-.14.58,1.28,1.28,0,0,1-.41.47,2.1,2.1,0,0,1-.66.32A3.26,3.26,0,0,1,44.9,46.27Zm4.16-5.11H47.63V40.1h1.44v1.06Zm0,5H47.67V41.78H49v4.37Zm2.36,0.12a3.83,3.83,0,0,1-.91-0.11,3.35,3.35,0,0,1-.71-0.25V44.77h0.11l0.22,0.16a2,2,0,0,0,.35.19,2.48,2.48,0,0,0,.43.15,2,2,0,0,0,.52.06,1.34,1.34,0,0,0,.51-0.09A0.3,0.3,0,0,0,52.12,45a0.27,0.27,0,0,0-.1-0.23,1.13,1.13,0,0,0-.39-0.15l-0.39-.08-0.42-.1A1.57,1.57,0,0,1,50,43.93a1.25,1.25,0,0,1-.26-0.82,1.18,1.18,0,0,1,.13-0.55,1.39,1.39,0,0,1,.39-0.46A2,2,0,0,1,51,41.78a2.93,2.93,0,0,1,.87-0.12,3.69,3.69,0,0,1,.84.09,3.28,3.28,0,0,1,.65.22v1.11H53.2L53,42.93l-0.29-.16a2.11,2.11,0,0,0-.38-0.13,1.86,1.86,0,0,0-.43-0.05,1.13,1.13,0,0,0-.5.1,0.31,0.31,0,0,0-.2.27,0.29,0.29,0,0,0,.1.23,1.2,1.2,0,0,0,.44.17l0.4,0.08a3.2,3.2,0,0,1,.44.11,1.49,1.49,0,0,1,.71.44,1.18,1.18,0,0,1,.24.78,1.25,1.25,0,0,1-.14.58,1.29,1.29,0,0,1-.41.47,2.08,2.08,0,0,1-.66.32A3.24,3.24,0,0,1,51.38,46.27Z" transform="translate(-2.08 -2.47)"/><path d="M24.8,55.85a1.78,1.78,0,0,1-1.21-.34,1.44,1.44,0,0,1-.38-1.12v-2H22.69V51.4h0.52V50.15h1.36V51.4h1.31v0.95H24.57v1.55c0,0.15,0,.29,0,0.4a0.8,0.8,0,0,0,.06.31,0.42,0.42,0,0,0,.19.22,0.81,0.81,0,0,0,.4.08,1.18,1.18,0,0,0,.29,0l0.25-.09h0.12v1a4,4,0,0,1-.47.09,4.77,4.77,0,0,1-.61,0m3.86,0a2.75,2.75,0,0,1-1.9-.59,2.15,2.15,0,0,1-.66-1.68,2.36,2.36,0,0,1,.62-1.71,2.27,2.27,0,0,1,1.72-.64,2,2,0,0,1,1.51.54,2.19,2.19,0,0,1,.5,1.55v0.49h-3a1.21,1.21,0,0,0,.13.51,0.88,0.88,0,0,0,.29.32,1.14,1.14,0,0,0,.41.17,2.32,2.32,0,0,0,.51.05,2.19,2.19,0,0,0,.89-0.19L30,54.54l0.23-.15h0.14v1.12l-0.31.12a2.7,2.7,0,0,1-.38.12l-0.46.09A4.21,4.21,0,0,1,28.66,55.88ZM29.11,53a1,1,0,0,0-.2-0.66,0.71,0.71,0,0,0-.58-0.23,0.81,0.81,0,0,0-.62.24,1,1,0,0,0-.25.65h1.64Zm3.36,2.87a3.82,3.82,0,0,1-.91-0.1,3.45,3.45,0,0,1-.71-0.24V54.38H31l0.22,0.16a1.94,1.94,0,0,0,.34.19,2.91,2.91,0,0,0,.43.15,2.07,2.07,0,0,0,.52.06A1.35,1.35,0,0,0,33,54.86a0.3,0.3,0,0,0,.22-0.28,0.27,0.27,0,0,0-.1-0.23,1.12,1.12,0,0,0-.39-0.15l-0.39-.08L31.91,54a1.58,1.58,0,0,1-.77-0.47,1.25,1.25,0,0,1-.26-0.82A1.19,1.19,0,0,1,31,52.17a1.41,1.41,0,0,1,.39-0.46A2.06,2.06,0,0,1,32,51.39a3,3,0,0,1,.87-0.12,3.64,3.64,0,0,1,.84.09,3.16,3.16,0,0,1,.65.22v1.1H34.3l-0.22-.15-0.29-.16a2.12,2.12,0,0,0-.38-0.13A1.85,1.85,0,0,0,33,52.21a1.14,1.14,0,0,0-.5.1,0.3,0.3,0,0,0-.2.27,0.28,0.28,0,0,0,.1.23,1.17,1.17,0,0,0,.44.17l0.4,0.08a3.05,3.05,0,0,1,.44.11,1.49,1.49,0,0,1,.71.44,1.18,1.18,0,0,1,.24.78,1.28,1.28,0,0,1-.14.59,1.34,1.34,0,0,1-.41.47,2.09,2.09,0,0,1-.66.32A3.21,3.21,0,0,1,32.48,55.88Zm4.44,0a1.78,1.78,0,0,1-1.21-.34,1.45,1.45,0,0,1-.38-1.12v-2H34.8V51.4h0.52V50.15h1.36V51.4H38v0.95H36.68v1.55c0,0.15,0,.29,0,0.4a0.8,0.8,0,0,0,.06.31,0.42,0.42,0,0,0,.19.22,0.81,0.81,0,0,0,.4.08,1.19,1.19,0,0,0,.29,0l0.25-.09H38v1a4,4,0,0,1-.47.09A4.75,4.75,0,0,1,36.91,55.85Z" transform="translate(-2.08 -2.47)"/><path d="M9.45,91V85.17h3.92v1.1H10.89v1h2.27v1.1H10.89v1.46h2.47V91H9.45m6.19,0.12a3.87,3.87,0,0,1-.91-0.1A3.55,3.55,0,0,1,14,90.73V89.58h0.11l0.22,0.16a1.89,1.89,0,0,0,.35.19,2.68,2.68,0,0,0,.43.15,2.07,2.07,0,0,0,.52.06,1.35,1.35,0,0,0,.51-0.09,0.3,0.3,0,0,0,.22-0.28,0.27,0.27,0,0,0-.1-0.23,1.13,1.13,0,0,0-.39-0.15l-0.39-.08-0.42-.1a1.57,1.57,0,0,1-.77-0.47A1.25,1.25,0,0,1,14,87.92a1.18,1.18,0,0,1,.13-0.55,1.43,1.43,0,0,1,.4-0.46,2,2,0,0,1,.64-0.32,3,3,0,0,1,.87-0.12,3.58,3.58,0,0,1,.84.09,3.17,3.17,0,0,1,.65.22v1.1H17.45l-0.22-.15-0.3-.16a2.12,2.12,0,0,0-.38-0.13,1.85,1.85,0,0,0-.43-0.05,1.11,1.11,0,0,0-.5.1,0.3,0.3,0,0,0-.2.27,0.29,0.29,0,0,0,.1.23,1.2,1.2,0,0,0,.44.17l0.4,0.08a3.09,3.09,0,0,1,.44.11,1.49,1.49,0,0,1,.71.44,1.18,1.18,0,0,1,.24.78,1.26,1.26,0,0,1-.14.58,1.33,1.33,0,0,1-.41.47,2.11,2.11,0,0,1-.66.32A3.16,3.16,0,0,1,15.63,91.08Zm4.43,0a1.78,1.78,0,0,1-1.21-.34,1.44,1.44,0,0,1-.38-1.12v-2H18V86.6h0.52V85.35h1.36V86.6h1.31v0.95H19.84v1.55c0,0.15,0,.29,0,0.4a0.78,0.78,0,0,0,.06.31,0.42,0.42,0,0,0,.19.22,0.8,0.8,0,0,0,.4.08,1.13,1.13,0,0,0,.28,0A1.16,1.16,0,0,0,21,90h0.12v1a3.48,3.48,0,0,1-.47.09A4.74,4.74,0,0,1,20.07,91ZM23.14,86H21.7V84.92h1.44V86Zm0,5H21.74V86.6H23.1V91Zm6.25,0V88.78c0-.21,0-0.4,0-0.54a1.14,1.14,0,0,0-.07-0.36,0.39,0.39,0,0,0-.18-0.2,0.75,0.75,0,0,0-.34-0.06,0.77,0.77,0,0,0-.31.07,2.22,2.22,0,0,0-.33.19V91H26.73V88.78c0-.21,0-0.39,0-0.54a1.16,1.16,0,0,0-.07-0.36,0.39,0.39,0,0,0-.18-0.2,0.74,0.74,0,0,0-.34-0.06,0.72,0.72,0,0,0-.32.08,2.27,2.27,0,0,0-.31.18V91H24.13V86.6h1.36v0.48a3.79,3.79,0,0,1,.63-0.44,1.4,1.4,0,0,1,.67-0.16,1.3,1.3,0,0,1,.7.19,1.21,1.21,0,0,1,.46.57,4,4,0,0,1,.74-0.56,1.42,1.42,0,0,1,.7-0.2,1.46,1.46,0,0,1,.54.1,1,1,0,0,1,.41.29,1.36,1.36,0,0,1,.27.5,2.54,2.54,0,0,1,.09.76V91H29.35Zm4.8-.46-0.25.21a1.52,1.52,0,0,1-.3.19,2,2,0,0,1-.36.13,1.91,1.91,0,0,1-.49,0,1.3,1.3,0,0,1-1-.39,1.34,1.34,0,0,1-.38-1,1.44,1.44,0,0,1,.19-0.79,1.35,1.35,0,0,1,.56-0.47,2.94,2.94,0,0,1,.88-0.25q0.51-.07,1.1-0.11v0a0.51,0.51,0,0,0-.27-0.5,1.78,1.78,0,0,0-.8-0.14,2.25,2.25,0,0,0-.56.09,4.45,4.45,0,0,0-.63.22H31.78V86.69c0.14,0,.35-0.09.65-0.14a5.23,5.23,0,0,1,.91-0.08,2.82,2.82,0,0,1,1.64.38A1.32,1.32,0,0,1,35.5,88v3H34.15V90.5Zm0-.68V88.92L33.59,89a1.93,1.93,0,0,0-.42.1,0.58,0.58,0,0,0-.28.19,0.53,0.53,0,0,0-.1.34A0.48,0.48,0,0,0,33,90a0.86,0.86,0,0,0,.49.12,0.91,0.91,0,0,0,.37-0.08A1.1,1.1,0,0,0,34.15,89.82Zm4,1.23A1.78,1.78,0,0,1,37,90.71a1.45,1.45,0,0,1-.38-1.12v-2H36.07V86.6h0.52V85.35H38V86.6h1.31v0.95H38v1.55q0,0.23,0,.4a0.84,0.84,0,0,0,.06.31,0.43,0.43,0,0,0,.19.22,0.81,0.81,0,0,0,.4.08A1.61,1.61,0,0,0,39.15,90h0.12v1a3.43,3.43,0,0,1-.47.09A4.75,4.75,0,0,1,38.18,91ZM41.25,86H39.81V84.92h1.44V86Zm0,5H39.85V86.6h1.36V91Zm5.22-2.18a2.37,2.37,0,0,1-.59,1.7,2.55,2.55,0,0,1-3.33,0,2.74,2.74,0,0,1,0-3.4,2.54,2.54,0,0,1,3.33,0A2.36,2.36,0,0,1,46.43,88.78Zm-1.4,0A2.72,2.72,0,0,0,45,88.14a1.18,1.18,0,0,0-.18-0.41,0.7,0.7,0,0,0-.27-0.23,0.9,0.9,0,0,0-.35-0.06,0.92,0.92,0,0,0-.33.06,0.64,0.64,0,0,0-.27.22,1.17,1.17,0,0,0-.19.42,2.62,2.62,0,0,0-.07.67,2.53,2.53,0,0,0,.07.65,1.23,1.23,0,0,0,.17.39,0.64,0.64,0,0,0,.27.22,0.89,0.89,0,0,0,.36.07,0.85,0.85,0,0,0,.33-0.07,0.61,0.61,0,0,0,.27-0.21,1.23,1.23,0,0,0,.18-0.4A2.65,2.65,0,0,0,45,88.79ZM51.22,91H49.85V88.8c0-.18,0-0.35,0-0.53a1.17,1.17,0,0,0-.08-0.39,0.43,0.43,0,0,0-.2-0.21,0.82,0.82,0,0,0-.35-0.06,1,1,0,0,0-.34.06,1.58,1.58,0,0,0-.37.2V91H47.13V86.6h1.36v0.48a3.43,3.43,0,0,1,.65-0.44,1.57,1.57,0,0,1,.7-0.16,1.26,1.26,0,0,1,1,.42,1.85,1.85,0,0,1,.35,1.22V91Z" transform="translate(-2.08 -2.47)"/><path d="M28.38,96.21l-1.27,4.36H25.66L24.9,97.75l-0.77,2.82H22.68l-1.26-4.36h1.43l0.67,2.89,0.83-2.89h1.2l0.78,2.89L27,96.21h1.4m2-.62H28.94V94.53h1.44v1.06Zm0,5H29V96.21h1.36v4.36Zm2.7,0.09a1.78,1.78,0,0,1-1.21-.34,1.44,1.44,0,0,1-.38-1.12v-2H30.93V96.21h0.52V95h1.36v1.25h1.31v0.95H32.81V98.7c0,0.15,0,.29,0,0.4a0.8,0.8,0,0,0,.06.31,0.41,0.41,0,0,0,.19.22,0.81,0.81,0,0,0,.4.08,1.19,1.19,0,0,0,.29,0L34,99.58h0.12v1a3.73,3.73,0,0,1-.47.09A4.76,4.76,0,0,1,33,100.66Zm5.76-.09H37.43V98.41c0-.18,0-0.35,0-0.53a1.26,1.26,0,0,0-.08-0.39,0.43,0.43,0,0,0-.2-0.21,0.79,0.79,0,0,0-.35-0.07,1,1,0,0,0-.34.06,1.59,1.59,0,0,0-.36.2v3.09H34.71v-6h1.36v2.17a3.31,3.31,0,0,1,.65-0.44,1.54,1.54,0,0,1,.7-0.16,1.26,1.26,0,0,1,1,.42,1.85,1.85,0,0,1,.35,1.22v2.84Z" transform="translate(-2.08 -2.47)"/><path d="M11.83,110.24H10.47v-0.48a3.72,3.72,0,0,1-.65.45,1.5,1.5,0,0,1-.7.15,1.28,1.28,0,0,1-1-.41,1.82,1.82,0,0,1-.36-1.24v-2.84H9.11V108c0,0.23,0,.41,0,0.55a1.12,1.12,0,0,0,.08.36,0.43,0.43,0,0,0,.19.21,0.78,0.78,0,0,0,.36.07,1.05,1.05,0,0,0,.34-0.07,1.46,1.46,0,0,0,.36-0.19v-3.1h1.36v4.37m5.15,0H15.61v-2.16c0-.18,0-0.35,0-0.53a1.18,1.18,0,0,0-.08-0.39,0.44,0.44,0,0,0-.2-0.21,0.82,0.82,0,0,0-.35-0.07,1,1,0,0,0-.34.06,1.63,1.63,0,0,0-.37.2v3.09H12.89v-4.37h1.36v0.48a3.37,3.37,0,0,1,.65-0.44,1.54,1.54,0,0,1,.7-0.16,1.25,1.25,0,0,1,1,.42A1.86,1.86,0,0,1,17,107.4v2.84Zm3.16,0.12a3.39,3.39,0,0,1-1-.14,2.14,2.14,0,0,1-.78-0.42,1.93,1.93,0,0,1-.51-0.71,2.94,2.94,0,0,1,0-2.08,2,2,0,0,1,.54-0.72,2.13,2.13,0,0,1,.77-0.4,3.23,3.23,0,0,1,1.64,0,3.33,3.33,0,0,1,.73.26v1.17H21.38l-0.2-.17a1.92,1.92,0,0,0-.26-0.17,1.73,1.73,0,0,0-.33-0.14,1.43,1.43,0,0,0-.42-0.06,1,1,0,0,0-.81.36,1.54,1.54,0,0,0-.28,1,1.38,1.38,0,0,0,.3,1,1.07,1.07,0,0,0,.81.32,1.59,1.59,0,0,0,.45-0.06,1.67,1.67,0,0,0,.33-0.14,1.63,1.63,0,0,0,.23-0.17l0.17-.16h0.18V110l-0.27.12-0.31.11-0.37.08A2.81,2.81,0,0,1,20.14,110.36Zm4.3,0a2.75,2.75,0,0,1-1.89-.59,2.14,2.14,0,0,1-.66-1.68,2.35,2.35,0,0,1,.61-1.71,2.27,2.27,0,0,1,1.72-.64,2,2,0,0,1,1.51.54,2.19,2.19,0,0,1,.5,1.55v0.49h-3a1.25,1.25,0,0,0,.13.51,0.89,0.89,0,0,0,.29.32,1.18,1.18,0,0,0,.41.17,2.34,2.34,0,0,0,.51.05,2.09,2.09,0,0,0,.47-0.05,2.24,2.24,0,0,0,.42-0.14l0.31-.16,0.23-.15h0.14V110l-0.3.12-0.38.11-0.46.09A4.22,4.22,0,0,1,24.44,110.36Zm0.45-2.86a1,1,0,0,0-.2-0.66,0.71,0.71,0,0,0-.58-0.23,0.81,0.81,0,0,0-.62.24,1,1,0,0,0-.25.65h1.64Zm5-.33H29.74l-0.23,0H29.19a1.86,1.86,0,0,0-.45.06l-0.46.15v2.92H26.92v-4.37h1.36v0.63l0.26-.22a2.29,2.29,0,0,1,.3-0.21,1.59,1.59,0,0,1,.34-0.15,1.22,1.22,0,0,1,.37-0.06h0.3v1.29Zm2.2,3.16a1.78,1.78,0,0,1-1.21-.34,1.44,1.44,0,0,1-.38-1.12v-2H29.95v-1h0.52v-1.25h1.36v1.25h1.31v1H31.83v1.55c0,0.15,0,.29,0,0.4a0.8,0.8,0,0,0,.06.31,0.42,0.42,0,0,0,.19.22,0.82,0.82,0,0,0,.4.08,1.21,1.21,0,0,0,.29,0l0.25-.09h0.12v1l-0.47.09A4.57,4.57,0,0,1,32.06,110.33Zm4.08-.55-0.25.21a1.46,1.46,0,0,1-.3.19,1.63,1.63,0,0,1-.84.18,1.29,1.29,0,0,1-1-.39,1.34,1.34,0,0,1-.38-1,1.42,1.42,0,0,1,.19-0.79,1.33,1.33,0,0,1,.56-0.48,3,3,0,0,1,.88-0.25q0.51-.07,1.1-0.11v0a0.51,0.51,0,0,0-.27-0.5,1.78,1.78,0,0,0-.8-0.14,2.17,2.17,0,0,0-.56.09,4.2,4.2,0,0,0-.63.22H33.77V106c0.14,0,.35-0.08.65-0.14a5.22,5.22,0,0,1,.91-0.08,2.82,2.82,0,0,1,1.64.38,1.32,1.32,0,0,1,.51,1.14v3H36.14v-0.46Zm0-.68v-0.91l-0.56.06a1.92,1.92,0,0,0-.42.1,0.59,0.59,0,0,0-.28.19,0.53,0.53,0,0,0-.1.34,0.48,0.48,0,0,0,.17.42,0.85,0.85,0,0,0,.49.11,0.9,0.9,0,0,0,.36-0.08A1.11,1.11,0,0,0,36.14,109.1Zm3.76-3.85H38.46v-1.06H39.9v1.06Zm0,5H38.5v-4.37h1.36v4.37Zm5.12,0H43.61v-2.16c0-.18,0-0.35,0-0.53a1.21,1.21,0,0,0-.08-0.39,0.44,0.44,0,0,0-.2-0.21,0.81,0.81,0,0,0-.35-0.07,1,1,0,0,0-.34.06,1.69,1.69,0,0,0-.36.2v3.09H40.89v-4.37h1.36v0.48a3.41,3.41,0,0,1,.65-0.44,1.54,1.54,0,0,1,.7-0.16,1.26,1.26,0,0,1,1,.42A1.85,1.85,0,0,1,45,107.4v2.84Zm2.69,0.09a1.78,1.78,0,0,1-1.21-.34,1.45,1.45,0,0,1-.38-1.12v-2H45.56v-1h0.52v-1.25h1.36v1.25h1.31v1H47.44v1.55c0,0.15,0,.29,0,0.4a0.82,0.82,0,0,0,.06.31,0.42,0.42,0,0,0,.19.22,0.82,0.82,0,0,0,.4.08,1.24,1.24,0,0,0,.29,0l0.25-.09h0.12v1l-0.47.09A4.58,4.58,0,0,1,47.67,110.33Zm5.7-4.45-2.21,6H49.7l0.66-1.71-1.6-4.26h1.43l0.92,2.74L52,105.87h1.4Z" transform="translate(-2.08 -2.47)"/><path d="M98.76,39.71a3.55,3.55,0,0,1-1,1.73,2.15,2.15,0,0,1-1.48.64A1.82,1.82,0,0,1,95.75,42a1.64,1.64,0,0,1-.45-0.23L94.81,43.6H94.08l1.59-5.94H96.4l-0.12.46A3.88,3.88,0,0,1,97,37.7a1.9,1.9,0,0,1,.77-0.16,1,1,0,0,1,1,.59,2.43,2.43,0,0,1,0,1.59M98,39.79a2.19,2.19,0,0,0,.07-1.15,0.6,0.6,0,0,0-.66-0.41,1.63,1.63,0,0,0-.64.14,3.65,3.65,0,0,0-.65.36l-0.66,2.46a1.94,1.94,0,0,0,.44.19,1.77,1.77,0,0,0,.45.05,1.38,1.38,0,0,0,1-.42A2.62,2.62,0,0,0,98,39.79Z" transform="translate(-2.08 -2.47)"/><path d="M104.85,37.66L103.21,42h-0.66l-1.62-4.34h0.79L102.91,41l1.18-3.35h0.76m2.83,3.88-0.24.18a1.65,1.65,0,0,1-.29.19,2.26,2.26,0,0,1-.37.16,1.87,1.87,0,0,1-.51.05,1.28,1.28,0,0,1-.51-0.1,1.31,1.31,0,0,1-.42-0.28,1.29,1.29,0,0,1-.28-0.44,1.58,1.58,0,0,1,.08-1.32,1.32,1.32,0,0,1,.6-0.5,3,3,0,0,1,.86-0.23c0.33,0,.69-0.08,1.07-0.1V39a0.93,0.93,0,0,0-.08-0.42,0.57,0.57,0,0,0-.22-0.24,0.84,0.84,0,0,0-.34-0.12,2.61,2.61,0,0,0-1,0,4.13,4.13,0,0,0-.68.22h0V37.75l0.58-.13a4.07,4.07,0,0,1,.75-0.07,3.42,3.42,0,0,1,.75.07,1.47,1.47,0,0,1,.55.25,1.08,1.08,0,0,1,.35.46,1.81,1.81,0,0,1,.12.69v3h-0.73V41.54Zm0-.61V39.72l-0.66.07a3.42,3.42,0,0,0-.64.11,1.17,1.17,0,0,0-.48.27,0.69,0.69,0,0,0-.19.52,0.72,0.72,0,0,0,.21.56,0.89,0.89,0,0,0,.61.19,1.3,1.3,0,0,0,.63-0.15A2.72,2.72,0,0,0,107.68,40.93ZM110.15,42h-0.73V35.95h0.73V42Zm4.51,0h-0.73V41.52a3.12,3.12,0,0,1-.64.45,1.47,1.47,0,0,1-.68.15,1.53,1.53,0,0,1-.53-0.09,1.11,1.11,0,0,1-.44-0.3,1.39,1.39,0,0,1-.29-0.51,2.39,2.39,0,0,1-.1-0.75V37.66H112v2.47a5.32,5.32,0,0,0,0,.57,1.12,1.12,0,0,0,.12.4,0.55,0.55,0,0,0,.24.24,1,1,0,0,0,.44.08,1.28,1.28,0,0,0,.57-0.15,2.67,2.67,0,0,0,.56-0.37V37.66h0.73V42Zm2.94,0.1a2.16,2.16,0,0,1-1.61-.58,2.27,2.27,0,0,1-.57-1.66,2.45,2.45,0,0,1,.56-1.69,1.85,1.85,0,0,1,1.45-.63,2,2,0,0,1,.71.12,1.43,1.43,0,0,1,.54.37,1.67,1.67,0,0,1,.36.61,2.7,2.7,0,0,1,.13.88v0.4h-3a1.62,1.62,0,0,0,.38,1.16,1.38,1.38,0,0,0,1.05.4,2,2,0,0,0,.47-0.06,2.1,2.1,0,0,0,.42-0.14l0.33-.17,0.22-.16h0v0.8l-0.32.13-0.34.12-0.39.09A2.42,2.42,0,0,1,117.59,42.1Zm0.86-2.76a2.08,2.08,0,0,0-.07-0.51,1.08,1.08,0,0,0-.18-0.36,0.82,0.82,0,0,0-.33-0.25,1.28,1.28,0,0,0-.5-0.08,1.26,1.26,0,0,0-.5.09,1.16,1.16,0,0,0-.37.25,1.21,1.21,0,0,0-.25.38,1.68,1.68,0,0,0-.11.48h2.3Z" transform="translate(-2.08 -2.47)"/><path d="M82.92,53.21H82A6.88,6.88,0,0,1,81,51.51a5.34,5.34,0,0,1-.39-2.12A5.41,5.41,0,0,1,81,47.28,6.57,6.57,0,0,1,82,45.56h0.89v0a4.82,4.82,0,0,0-.6.65,5.22,5.22,0,0,0-.53.86,5.35,5.35,0,0,0-.38,1.06,5.21,5.21,0,0,0,0,2.43,5.54,5.54,0,0,0,.38,1.05,5.1,5.1,0,0,0,1.13,1.52v0m4.25-1.6H86.44V49.14a4.85,4.85,0,0,0,0-.56,1.18,1.18,0,0,0-.11-0.41A0.56,0.56,0,0,0,86,47.92a1,1,0,0,0-.43-0.08,1.25,1.25,0,0,0-.56.14,2.92,2.92,0,0,0-.57.38v3.24H83.75V47.27h0.73v0.48a2.94,2.94,0,0,1,.65-0.45,1.51,1.51,0,0,1,.67-0.15,1.25,1.25,0,0,1,1,.42,1.83,1.83,0,0,1,.36,1.22v2.82Zm4.4,0H90.84V51.13a3.22,3.22,0,0,1-.64.45,1.48,1.48,0,0,1-.68.15A1.51,1.51,0,0,1,89,51.64a1.1,1.1,0,0,1-.44-0.29,1.38,1.38,0,0,1-.29-0.51,2.32,2.32,0,0,1-.1-0.75V47.27h0.73v2.47a5.63,5.63,0,0,0,0,.58,1.13,1.13,0,0,0,.12.4,0.55,0.55,0,0,0,.24.24,1,1,0,0,0,.44.08,1.28,1.28,0,0,0,.57-0.15,2.67,2.67,0,0,0,.56-0.37V47.27h0.73v4.34Zm1.8,0H92.64v-6h0.73v6Zm1.87,0H94.51v-6h0.73v6Zm7,0h-0.73V49.14a5.09,5.09,0,0,0,0-.56,1.23,1.23,0,0,0-.11-0.41,0.56,0.56,0,0,0-.25-0.24,1,1,0,0,0-.43-0.08,1.25,1.25,0,0,0-.56.14,3,3,0,0,0-.57.38v3.24H98.8v-6h0.73v2.19a2.89,2.89,0,0,1,.65-0.45,1.51,1.51,0,0,1,.67-0.15,1.25,1.25,0,0,1,1,.42,1.84,1.84,0,0,1,.36,1.22v2.82Zm4.38-4.34-2.34,5.94h-0.78l0.78-1.81-1.58-4.13h0.79l1.18,3.21,1.18-3.21h0.76Zm4.2,2.06a2.67,2.67,0,0,1-.52,1.73,1.61,1.61,0,0,1-1.31.64,2,2,0,0,1-.57-0.07,2.27,2.27,0,0,1-.51-0.23v1.82h-0.73V47.27h0.73v0.45a2.75,2.75,0,0,1,.6-0.41,1.61,1.61,0,0,1,.73-0.16,1.35,1.35,0,0,1,1.16.59A2.7,2.7,0,0,1,110.8,49.32Zm-0.75.08a2.32,2.32,0,0,0-.24-1.15,0.82,0.82,0,0,0-.77-0.41,1.36,1.36,0,0,0-.6.14,2.59,2.59,0,0,0-.55.36V50.8a2.62,2.62,0,0,0,.49.19,2,2,0,0,0,.47.05,1,1,0,0,0,.88-0.42A2,2,0,0,0,110,49.41Zm5.11,0a2.47,2.47,0,0,1-.53,1.69,1.79,1.79,0,0,1-1.41.6,1.77,1.77,0,0,1-1.43-.62,2.52,2.52,0,0,1-.52-1.67,2.46,2.46,0,0,1,.53-1.69,1.95,1.95,0,0,1,2.82,0A2.48,2.48,0,0,1,115.15,49.44Zm-0.75,0a2.07,2.07,0,0,0-.31-1.25,1,1,0,0,0-.87-0.41,1,1,0,0,0-.88.41,2.66,2.66,0,0,0,0,2.49,1.13,1.13,0,0,0,1.75,0A2.06,2.06,0,0,0,114.4,49.44Zm2.87,2.25a1.26,1.26,0,0,1-.93-0.34,1.49,1.49,0,0,1-.34-1.07V47.87H115.5V47.27H116V46h0.73v1.25h1.35v0.61h-1.35v2.06c0,0.22,0,.39,0,0.51a0.87,0.87,0,0,0,.09.33,0.42,0.42,0,0,0,.21.2,1,1,0,0,0,.4.07,1.14,1.14,0,0,0,.35-0.05l0.24-.09h0v0.66l-0.42.09A2.55,2.55,0,0,1,117.27,51.7Zm4.72-.09h-0.73V49.14a5.1,5.1,0,0,0,0-.56,1.21,1.21,0,0,0-.11-0.41,0.56,0.56,0,0,0-.25-0.24,1,1,0,0,0-.43-0.08,1.25,1.25,0,0,0-.56.14,2.87,2.87,0,0,0-.57.38v3.24h-0.73v-6h0.73v2.19a2.86,2.86,0,0,1,.64-0.45,1.52,1.52,0,0,1,.67-0.15,1.25,1.25,0,0,1,1,.42,1.82,1.82,0,0,1,.36,1.22v2.82Zm2.91,0.1a2.16,2.16,0,0,1-1.61-.58,2.28,2.28,0,0,1-.57-1.66,2.45,2.45,0,0,1,.56-1.69,1.85,1.85,0,0,1,1.45-.63,2.07,2.07,0,0,1,.71.12,1.44,1.44,0,0,1,.54.37,1.69,1.69,0,0,1,.36.61,2.71,2.71,0,0,1,.12.88v0.4h-3a1.61,1.61,0,0,0,.38,1.16,1.38,1.38,0,0,0,1.05.4,2,2,0,0,0,.47-0.06,2.13,2.13,0,0,0,.42-0.14l0.33-.17,0.23-.16h0v0.8l-0.32.13-0.34.12-0.39.09A2.53,2.53,0,0,1,124.89,51.71ZM125.75,49a2.1,2.1,0,0,0-.07-0.51,1.05,1.05,0,0,0-.18-0.36,0.81,0.81,0,0,0-.33-0.25,1.25,1.25,0,0,0-.5-0.09,1.26,1.26,0,0,0-.5.09,1.16,1.16,0,0,0-.37.26,1.19,1.19,0,0,0-.25.38,1.58,1.58,0,0,0-.11.48h2.3Zm2.69,2.76a2.79,2.79,0,0,1-.82-0.12,3.66,3.66,0,0,1-.63-0.25V50.53h0l0.22,0.16a2.13,2.13,0,0,0,.34.19A3.05,3.05,0,0,0,128,51a1.67,1.67,0,0,0,.47.07,1.86,1.86,0,0,0,.37,0,0.89,0.89,0,0,0,.3-0.1,0.63,0.63,0,0,0,.2-0.19,0.6,0.6,0,0,0,.06-0.3,0.51,0.51,0,0,0-.14-0.39,1.16,1.16,0,0,0-.5-0.22l-0.37-.08-0.42-.1a1.32,1.32,0,0,1-.72-0.44,1.27,1.27,0,0,1,.22-1.69,1.78,1.78,0,0,1,1.18-.37,3,3,0,0,1,.73.09,2.59,2.59,0,0,1,.61.23v0.78h0a2.34,2.34,0,0,0-.62-0.35,2,2,0,0,0-.69-0.13,1.15,1.15,0,0,0-.61.15,0.5,0.5,0,0,0-.25.46,0.52,0.52,0,0,0,.15.41,1.15,1.15,0,0,0,.47.22l0.36,0.08,0.42,0.1a1.36,1.36,0,0,1,.73.4,1.11,1.11,0,0,1,.24.76,1.3,1.3,0,0,1-.11.53,1.17,1.17,0,0,1-.32.43,1.68,1.68,0,0,1-.53.3A2.3,2.3,0,0,1,128.44,51.71Zm3.15-5.17h-0.83V45.78h0.83v0.76Zm-0.05,5.07h-0.73V47.27h0.73v4.34Zm2.3,0.1A2.78,2.78,0,0,1,133,51.6a3.69,3.69,0,0,1-.63-0.25V50.53h0l0.22,0.16a2.18,2.18,0,0,0,.34.19,3.16,3.16,0,0,0,.41.15,1.67,1.67,0,0,0,.47.07,1.84,1.84,0,0,0,.37,0,0.89,0.89,0,0,0,.3-0.1,0.62,0.62,0,0,0,.2-0.19,0.6,0.6,0,0,0,.06-0.3,0.5,0.5,0,0,0-.14-0.39,1.16,1.16,0,0,0-.5-0.22l-0.37-.08-0.42-.1a1.32,1.32,0,0,1-.72-0.44,1.27,1.27,0,0,1,.22-1.69,1.78,1.78,0,0,1,1.18-.37,3,3,0,0,1,.73.09,2.64,2.64,0,0,1,.61.23v0.78h0a2.31,2.31,0,0,0-.62-0.35,2,2,0,0,0-.69-0.13,1.15,1.15,0,0,0-.61.15,0.5,0.5,0,0,0-.25.46,0.52,0.52,0,0,0,.15.41,1.15,1.15,0,0,0,.48.22l0.36,0.08,0.42,0.1a1.36,1.36,0,0,1,.73.4,1.13,1.13,0,0,1,.24.76,1.31,1.31,0,0,1-.11.53,1.17,1.17,0,0,1-.33.43,1.66,1.66,0,0,1-.53.3A2.3,2.3,0,0,1,133.84,51.71Z" transform="translate(-2.08 -2.47)"/><path d="M79.93,61.33a2.72,2.72,0,0,1-.81-0.12A3.5,3.5,0,0,1,78.49,61V60.14h0l0.22,0.16a2.11,2.11,0,0,0,.34.19,2.86,2.86,0,0,0,.41.15,1.66,1.66,0,0,0,.47.07,1.93,1.93,0,0,0,.37,0,0.92,0.92,0,0,0,.3-0.1,0.62,0.62,0,0,0,.2-0.19,0.61,0.61,0,0,0,.06-0.3,0.5,0.5,0,0,0-.14-0.39,1.16,1.16,0,0,0-.5-0.22l-0.37-.08-0.42-.1a1.32,1.32,0,0,1-.72-0.44A1.27,1.27,0,0,1,79,57.14a1.77,1.77,0,0,1,1.18-.37,3,3,0,0,1,.73.09,2.51,2.51,0,0,1,.62.23v0.78h0a2.29,2.29,0,0,0-.62-0.35,2,2,0,0,0-.69-0.13,1.14,1.14,0,0,0-.61.15,0.5,0.5,0,0,0-.25.46,0.53,0.53,0,0,0,.15.41,1.14,1.14,0,0,0,.48.22l0.36,0.08,0.42,0.1a1.36,1.36,0,0,1,.73.4,1.12,1.12,0,0,1,.24.76,1.29,1.29,0,0,1-.11.53,1.14,1.14,0,0,1-.32.43,1.63,1.63,0,0,1-.53.3,2.27,2.27,0,0,1-.74.1m3.2-5.17H82.3V55.39h0.83v0.76Zm-0.05,5.07H82.35V56.88h0.73v4.34Zm1.23,0.7L84.52,62l0.33,0.1,0.37,0.08a2.17,2.17,0,0,0,.37,0,1.59,1.59,0,0,0,.57-0.09,0.86,0.86,0,0,0,.37-0.25,1,1,0,0,0,.17-0.37A2,2,0,0,0,86.76,61V60.65a2.3,2.3,0,0,1-.58.38,1.79,1.79,0,0,1-.71.12,1.44,1.44,0,0,1-1.18-.55A2.49,2.49,0,0,1,83.85,59a2.8,2.8,0,0,1,.15-1,2.18,2.18,0,0,1,.41-0.71A1.69,1.69,0,0,1,85,56.91a1.66,1.66,0,0,1,.69-0.15,1.91,1.91,0,0,1,.59.08,2.45,2.45,0,0,1,.5.23l0-.19h0.69v3.85A2.32,2.32,0,0,1,87,62.35a1.92,1.92,0,0,1-1.47.52,4.25,4.25,0,0,1-.65-0.05,4.63,4.63,0,0,1-.62-0.14V61.92h0ZM86.76,60V57.66a2.48,2.48,0,0,0-.5-0.19,2,2,0,0,0-.46-0.06,1.05,1.05,0,0,0-.88.41A1.87,1.87,0,0,0,84.6,59a2,2,0,0,0,.24,1.1,0.86,0.86,0,0,0,.79.38,1.62,1.62,0,0,0,.59-0.11A1.82,1.82,0,0,0,86.76,60ZM92,61.22H91.26V58.75a5.08,5.08,0,0,0,0-.56,1.2,1.2,0,0,0-.11-0.41,0.58,0.58,0,0,0-.25-0.24,1,1,0,0,0-.44-0.08,1.23,1.23,0,0,0-.56.15,2.91,2.91,0,0,0-.57.38v3.24H88.57V56.88H89.3v0.48a2.9,2.9,0,0,1,.65-0.45,1.5,1.5,0,0,1,.67-0.16,1.24,1.24,0,0,1,1,.42A1.83,1.83,0,0,1,92,58.4v2.82Zm1.82-5.07H93V55.39h0.83v0.76Zm-0.05,5.07H93V56.88h0.73v4.34Zm3.41-5.35h0l-0.28-.07-0.33,0a0.88,0.88,0,0,0-.66.21,1.11,1.11,0,0,0-.2.75v0.15h1.21v0.61H95.69v3.74H95V57.48H94.46V56.88H95V56.73a1.7,1.7,0,0,1,.38-1.19,1.4,1.4,0,0,1,1.08-.41l0.4,0,0.35,0v0.67Zm1,0.28H97.34V55.39h0.83v0.76Zm-0.05,5.07H97.39V56.88h0.73v4.34Zm2.8,0.1a2.33,2.33,0,0,1-.82-0.14,1.67,1.67,0,0,1-.64-0.42A1.88,1.88,0,0,1,99,60.06a3.07,3.07,0,0,1-.15-1,2.82,2.82,0,0,1,.15-1,2.1,2.1,0,0,1,.41-0.7,1.69,1.69,0,0,1,.64-0.44,2.18,2.18,0,0,1,.82-0.15,2.41,2.41,0,0,1,.69.1,3.88,3.88,0,0,1,.59.23v0.82h0l-0.2-.15-0.3-.18a1.9,1.9,0,0,0-.36-0.14,1.46,1.46,0,0,0-.4-0.06,1.11,1.11,0,0,0-.91.43,2.32,2.32,0,0,0,0,2.41,1.1,1.1,0,0,0,.92.43,1.61,1.61,0,0,0,.68-0.15,2.1,2.1,0,0,0,.57-0.38h0V61l-0.27.12-0.3.11-0.33.08A2.08,2.08,0,0,1,100.92,61.32Zm4.39-.56-0.24.18a1.65,1.65,0,0,1-.29.19,2.22,2.22,0,0,1-.37.16,1.87,1.87,0,0,1-.51.05,1.31,1.31,0,0,1-.51-0.1A1.35,1.35,0,0,1,103,61a1.32,1.32,0,0,1-.28-0.44,1.59,1.59,0,0,1,.08-1.32,1.32,1.32,0,0,1,.6-0.5,3.06,3.06,0,0,1,.86-0.23c0.33,0,.69-0.08,1.07-0.1V58.22a0.94,0.94,0,0,0-.08-0.41,0.58,0.58,0,0,0-.22-0.24,0.84,0.84,0,0,0-.34-0.12,2.86,2.86,0,0,0-.42,0,2.76,2.76,0,0,0-.59.07,4.08,4.08,0,0,0-.68.22h0V57l0.58-.13a4.06,4.06,0,0,1,.75-0.07,3.43,3.43,0,0,1,.75.07,1.44,1.44,0,0,1,.55.25,1.06,1.06,0,0,1,.35.46,1.78,1.78,0,0,1,.12.69v3h-0.73V60.76Zm0-.61V58.95l-0.66.06a3.36,3.36,0,0,0-.64.12,1.16,1.16,0,0,0-.48.27,0.68,0.68,0,0,0-.19.51,0.72,0.72,0,0,0,.21.56,0.89,0.89,0,0,0,.62.19,1.31,1.31,0,0,0,.63-0.15A2.77,2.77,0,0,0,105.31,60.15Zm5.19,1.07h-0.73V58.75a4.84,4.84,0,0,0,0-.56,1.2,1.2,0,0,0-.11-0.41,0.57,0.57,0,0,0-.25-0.24,1,1,0,0,0-.44-0.08,1.24,1.24,0,0,0-.56.15,2.9,2.9,0,0,0-.57.38v3.24h-0.73V56.88h0.73v0.48a2.87,2.87,0,0,1,.65-0.45,1.51,1.51,0,0,1,.67-0.16,1.25,1.25,0,0,1,1,.42,1.83,1.83,0,0,1,.36,1.22v2.82Zm2.69,0.1a2.32,2.32,0,0,1-.82-0.14,1.68,1.68,0,0,1-.64-0.42,1.91,1.91,0,0,1-.42-0.71,3,3,0,0,1-.15-1,2.84,2.84,0,0,1,.15-1,2.14,2.14,0,0,1,.41-0.7,1.71,1.71,0,0,1,.64-0.44,2.17,2.17,0,0,1,.82-0.15,2.41,2.41,0,0,1,.69.1,3.89,3.89,0,0,1,.59.23v0.82h0l-0.2-.15-0.3-.18a2,2,0,0,0-.36-0.14,1.46,1.46,0,0,0-.4-0.06,1.11,1.11,0,0,0-.91.43,2.32,2.32,0,0,0,0,2.41,1.1,1.1,0,0,0,.92.43,1.6,1.6,0,0,0,.68-0.15,2.09,2.09,0,0,0,.57-0.38h0V61l-0.27.12-0.3.11-0.33.08A2.09,2.09,0,0,1,113.19,61.32Zm3.85,0a2.16,2.16,0,0,1-1.61-.58,2.27,2.27,0,0,1-.57-1.66,2.46,2.46,0,0,1,.56-1.69,1.85,1.85,0,0,1,1.45-.63,2,2,0,0,1,.72.12,1.43,1.43,0,0,1,.54.36,1.67,1.67,0,0,1,.36.61,2.73,2.73,0,0,1,.12.88v0.4h-3a1.61,1.61,0,0,0,.38,1.16,1.38,1.38,0,0,0,1.05.4,2,2,0,0,0,.47-0.06,2.11,2.11,0,0,0,.42-0.14l0.33-.17,0.23-.16h0V61l-0.32.13-0.34.12-0.38.09A2.64,2.64,0,0,1,117,61.32Zm0.85-2.76a2,2,0,0,0-.07-0.51,1.05,1.05,0,0,0-.18-0.36,0.83,0.83,0,0,0-.33-0.25,1.29,1.29,0,0,0-.5-0.09,1.23,1.23,0,0,0-.49.09,1.14,1.14,0,0,0-.37.26,1.16,1.16,0,0,0-.25.38,1.57,1.57,0,0,0-.11.48h2.3Zm5.33,2.74a1.25,1.25,0,0,1-.93-0.34,1.49,1.49,0,0,1-.33-1.07V57.48h-0.49V56.88h0.49V55.63h0.73v1.25H124v0.61h-1.34v2.06c0,0.22,0,.39,0,0.51a0.88,0.88,0,0,0,.09.33,0.42,0.42,0,0,0,.21.2,1,1,0,0,0,.4.07,1.15,1.15,0,0,0,.35-0.05l0.24-.09h0v0.66l-0.42.09A2.56,2.56,0,0,1,123.21,61.31Zm3.24,0a2.15,2.15,0,0,1-1.61-.58,2.27,2.27,0,0,1-.57-1.66,2.46,2.46,0,0,1,.56-1.69,1.85,1.85,0,0,1,1.45-.63,2,2,0,0,1,.71.12,1.44,1.44,0,0,1,.54.36,1.68,1.68,0,0,1,.36.61,2.73,2.73,0,0,1,.12.88v0.4h-3a1.61,1.61,0,0,0,.38,1.16,1.38,1.38,0,0,0,1.05.4,2,2,0,0,0,.47-0.06,2.13,2.13,0,0,0,.42-0.14l0.33-.17,0.23-.16h0V61l-0.32.13-0.34.12-0.39.09A2.62,2.62,0,0,1,126.45,61.32Zm0.86-2.76a2.05,2.05,0,0,0-.07-0.51,1.07,1.07,0,0,0-.18-0.36,0.82,0.82,0,0,0-.33-0.25,1.28,1.28,0,0,0-.5-0.09,1.24,1.24,0,0,0-.49.09,1.13,1.13,0,0,0-.37.26,1.18,1.18,0,0,0-.25.38,1.57,1.57,0,0,0-.11.48h2.3Zm2.64,2.76a2.72,2.72,0,0,1-.82-0.12A3.53,3.53,0,0,1,128.5,61V60.14h0l0.22,0.16a2,2,0,0,0,.34.19,2.76,2.76,0,0,0,.41.15,1.67,1.67,0,0,0,.46.07,1.94,1.94,0,0,0,.37,0,0.92,0.92,0,0,0,.3-0.1,0.61,0.61,0,0,0,.2-0.19,0.6,0.6,0,0,0,.06-0.3,0.51,0.51,0,0,0-.14-0.39,1.17,1.17,0,0,0-.5-0.22l-0.36-.08-0.42-.1a1.32,1.32,0,0,1-.72-0.44,1.26,1.26,0,0,1,.22-1.68,1.77,1.77,0,0,1,1.18-.37,3,3,0,0,1,.73.09,2.5,2.5,0,0,1,.61.23v0.78h0a2.29,2.29,0,0,0-.62-0.35,2,2,0,0,0-.69-0.13,1.15,1.15,0,0,0-.61.15,0.5,0.5,0,0,0-.25.46,0.52,0.52,0,0,0,.15.41,1.13,1.13,0,0,0,.47.22l0.36,0.08,0.42,0.1a1.36,1.36,0,0,1,.73.4,1.13,1.13,0,0,1,.24.76,1.3,1.3,0,0,1-.11.53,1.16,1.16,0,0,1-.32.43,1.63,1.63,0,0,1-.53.3A2.27,2.27,0,0,1,129.95,61.33Zm3.71,0a1.26,1.26,0,0,1-.93-0.34,1.49,1.49,0,0,1-.33-1.07V57.48H131.9V56.88h0.49V55.63h0.73v1.25h1.35v0.61h-1.35v2.06q0,0.33,0,.51a0.86,0.86,0,0,0,.09.33,0.42,0.42,0,0,0,.21.2,1,1,0,0,0,.4.07,1.15,1.15,0,0,0,.35-0.05l0.24-.09h0v0.66l-0.42.09A2.59,2.59,0,0,1,133.66,61.31ZM137.11,59a5.38,5.38,0,0,1-.39,2.11,6.7,6.7,0,0,1-1.07,1.71h-0.89v0a5,5,0,0,0,.6-0.66,4.74,4.74,0,0,0,.53-0.86,5.68,5.68,0,0,0,.38-1.06,5.19,5.19,0,0,0,0-2.42,5.28,5.28,0,0,0-.38-1.05,5,5,0,0,0-.54-0.87,5,5,0,0,0-.6-0.65v0h0.89a6.76,6.76,0,0,1,1.06,1.71A5.36,5.36,0,0,1,137.11,59Z" transform="translate(-2.08 -2.47)"/><path d="M78.34,86.19V83.68c0-.2,0-0.39,0-0.55a1.14,1.14,0,0,0-.1-0.4A0.5,0.5,0,0,0,78,82.49a0.84,0.84,0,0,0-.39-0.07,1,1,0,0,0-.49.14,2.61,2.61,0,0,0-.54.4s0,0.1,0,.16,0,0.13,0,.22v2.86H75.88V83.68c0-.2,0-0.39,0-0.55a1.1,1.1,0,0,0-.1-0.4,0.49,0.49,0,0,0-.22-0.23,0.84,0.84,0,0,0-.39-0.07,1,1,0,0,0-.5.15,2.58,2.58,0,0,0-.5.38v3.24H73.41V81.84h0.73v0.48a2.61,2.61,0,0,1,.57-0.44,1.25,1.25,0,0,1,.62-0.16,1.34,1.34,0,0,1,.68.18,1.1,1.1,0,0,1,.45.58,3,3,0,0,1,.65-0.56,1.31,1.31,0,0,1,.68-0.19,1.39,1.39,0,0,1,.51.09,1,1,0,0,1,.4.28,1.39,1.39,0,0,1,.27.49,2.43,2.43,0,0,1,.1.74v2.86H78.34m4.2-.46-0.24.18a1.65,1.65,0,0,1-.29.19,2.07,2.07,0,0,1-.37.15,1.8,1.8,0,0,1-.51.06,1.32,1.32,0,0,1-.51-0.1,1.3,1.3,0,0,1-.43-0.28,1.33,1.33,0,0,1-.28-0.44,1.48,1.48,0,0,1-.1-0.55A1.46,1.46,0,0,1,80,84.16a1.29,1.29,0,0,1,.6-0.5,3,3,0,0,1,.86-0.23c0.33,0,.69-0.07,1.07-0.1V83.19a0.94,0.94,0,0,0-.08-0.41,0.58,0.58,0,0,0-.22-0.24,0.82,0.82,0,0,0-.34-0.12,2.82,2.82,0,0,0-.41,0,2.78,2.78,0,0,0-.6.08,3.94,3.94,0,0,0-.68.22h0V81.94a5.82,5.82,0,0,1,.58-0.13,4,4,0,0,1,.75-0.07,3.43,3.43,0,0,1,.75.07,1.46,1.46,0,0,1,.55.25,1.07,1.07,0,0,1,.35.46,1.82,1.82,0,0,1,.12.69v3H82.54V85.72Zm0-.61v-1.2L81.88,84a3.56,3.56,0,0,0-.64.11,1.16,1.16,0,0,0-.48.28,0.68,0.68,0,0,0-.19.51,0.72,0.72,0,0,0,.21.56,0.88,0.88,0,0,0,.61.19A1.3,1.3,0,0,0,82,85.48,2.65,2.65,0,0,0,82.54,85.12Zm5.1,1.07h-0.9l-1.05-1.64L84.6,86.19H83.77L85.28,84l-1.49-2.19h0.9l1,1.63,1.07-1.62h0.83L86.14,84ZM89,81.12H88.2V80.36H89v0.76ZM89,86.19H88.25V81.84H89v4.34Zm6,0V83.68c0-.2,0-0.39,0-0.55a1.1,1.1,0,0,0-.1-0.4,0.49,0.49,0,0,0-.22-0.23,0.84,0.84,0,0,0-.39-0.07,1,1,0,0,0-.48.14,2.6,2.6,0,0,0-.53.4s0,0.1,0,.16,0,0.13,0,.22v2.86H92.51V83.68c0-.2,0-0.39,0-0.55a1.1,1.1,0,0,0-.1-0.4,0.5,0.5,0,0,0-.22-0.23,0.85,0.85,0,0,0-.39-0.07,1,1,0,0,0-.5.15,2.62,2.62,0,0,0-.51.38v3.24H90.05V81.84h0.73v0.48a2.63,2.63,0,0,1,.57-0.44A1.25,1.25,0,0,1,92,81.72a1.34,1.34,0,0,1,.68.18,1.1,1.1,0,0,1,.45.58,3,3,0,0,1,.64-0.56,1.31,1.31,0,0,1,.68-0.19,1.39,1.39,0,0,1,.51.09,1,1,0,0,1,.4.28,1.34,1.34,0,0,1,.27.49,2.43,2.43,0,0,1,.1.74v2.86H95Zm5.16,0H99.41V85.7a3.19,3.19,0,0,1-.64.45,1.45,1.45,0,0,1-.68.15,1.5,1.5,0,0,1-.53-0.09,1.11,1.11,0,0,1-.44-0.3,1.4,1.4,0,0,1-.29-0.51,2.42,2.42,0,0,1-.1-0.75V81.84h0.73v2.47a5.32,5.32,0,0,0,0,.57,1.13,1.13,0,0,0,.11.4,0.56,0.56,0,0,0,.24.25,1,1,0,0,0,.44.08,1.27,1.27,0,0,0,.57-0.15,2.52,2.52,0,0,0,.56-0.37V81.84h0.73v4.34Zm6,0V83.68c0-.2,0-0.39,0-0.55a1.1,1.1,0,0,0-.1-0.4,0.49,0.49,0,0,0-.22-0.23,0.84,0.84,0,0,0-.39-0.07,1,1,0,0,0-.48.14,2.55,2.55,0,0,0-.53.4s0,0.1,0,.16,0,0.13,0,.22v2.86h-0.73V83.68c0-.2,0-0.39,0-0.55a1.1,1.1,0,0,0-.1-0.4,0.5,0.5,0,0,0-.22-0.23,0.85,0.85,0,0,0-.39-0.07,1,1,0,0,0-.5.15,2.59,2.59,0,0,0-.51.38v3.24h-0.73V81.84h0.73v0.48a2.59,2.59,0,0,1,.57-0.44,1.25,1.25,0,0,1,.62-0.16,1.34,1.34,0,0,1,.68.18,1.09,1.09,0,0,1,.45.58,3,3,0,0,1,.65-0.56,1.31,1.31,0,0,1,.68-0.19,1.38,1.38,0,0,1,.51.09,1,1,0,0,1,.4.28,1.37,1.37,0,0,1,.27.49,2.47,2.47,0,0,1,.1.74v2.86h-0.73Zm5,0h-0.73v-6h0.73v6ZM113,81.12h-0.83V80.36H113v0.76ZM113,86.19h-0.73V81.84H113v4.34Zm4.73,0h-1l-1.62-2.1-0.29.28v1.82h-0.73v-6h0.73v3.54l1.72-1.83h0.91l-1.78,1.82Zm2.15,0.1a2.16,2.16,0,0,1-1.61-.59,2.28,2.28,0,0,1-.57-1.66,2.45,2.45,0,0,1,.56-1.69,1.85,1.85,0,0,1,1.45-.63,2,2,0,0,1,.71.12,1.43,1.43,0,0,1,.54.37,1.68,1.68,0,0,1,.36.61,2.72,2.72,0,0,1,.12.88v0.4h-3a1.62,1.62,0,0,0,.38,1.16,1.39,1.39,0,0,0,1.05.4,2.06,2.06,0,0,0,.47-0.05,2.33,2.33,0,0,0,.42-0.14l0.33-.17,0.23-.16h0v0.8L121,86l-0.34.12-0.39.09A2.59,2.59,0,0,1,119.83,86.29Zm0.85-2.76a2.09,2.09,0,0,0-.07-0.51,1.08,1.08,0,0,0-.18-0.36,0.8,0.8,0,0,0-.33-0.25,1.44,1.44,0,0,0-1,0,1.18,1.18,0,0,0-.37.25,1.25,1.25,0,0,0-.25.38,1.7,1.7,0,0,0-.11.48h2.3Zm2.21,2.65h-0.73v-6h0.73v6Zm1.92-5.07H124V80.36h0.83v0.76Zm-0.05,5.07H124V81.84h0.73v4.34Zm4.48,0h-0.73V83.71a4.89,4.89,0,0,0,0-.56,1.17,1.17,0,0,0-.11-0.41,0.57,0.57,0,0,0-.25-0.24,1,1,0,0,0-.44-0.08,1.25,1.25,0,0,0-.56.15,2.92,2.92,0,0,0-.57.38v3.24h-0.73v-6h0.73v2.19a2.88,2.88,0,0,1,.65-0.45,1.54,1.54,0,0,1,.67-0.16,1.25,1.25,0,0,1,1,.42,1.82,1.82,0,0,1,.36,1.22v2.82ZM133.85,84a2.47,2.47,0,0,1-.53,1.69,1.79,1.79,0,0,1-1.41.6,1.76,1.76,0,0,1-1.43-.62A2.51,2.51,0,0,1,130,84a2.46,2.46,0,0,1,.53-1.69,1.95,1.95,0,0,1,2.82,0A2.48,2.48,0,0,1,133.85,84Zm-0.75,0a2.08,2.08,0,0,0-.31-1.25,1.14,1.14,0,0,0-1.75,0,2.66,2.66,0,0,0,0,2.49,1.13,1.13,0,0,0,1.75,0A2.09,2.09,0,0,0,133.09,84Zm5.13,0a2.47,2.47,0,0,1-.53,1.69,1.79,1.79,0,0,1-1.41.6,1.77,1.77,0,0,1-1.43-.62,2.52,2.52,0,0,1-.52-1.67,2.46,2.46,0,0,1,.53-1.69,1.95,1.95,0,0,1,2.82,0A2.48,2.48,0,0,1,138.22,84Zm-0.75,0a2.09,2.09,0,0,0-.31-1.25,1.14,1.14,0,0,0-1.76,0,2.67,2.67,0,0,0,0,2.49,1.13,1.13,0,0,0,1.75,0A2.07,2.07,0,0,0,137.46,84Zm4.9,2.17h-0.73V85.74l-0.3.24a1.59,1.59,0,0,1-.29.17,1.55,1.55,0,0,1-.71.16,1.47,1.47,0,0,1-.65-0.15,1.4,1.4,0,0,1-.51-0.43,2.12,2.12,0,0,1-.33-0.71,3.63,3.63,0,0,1-.12-1,3,3,0,0,1,.15-1,2.34,2.34,0,0,1,.41-0.73,1.73,1.73,0,0,1,.57-0.45,1.62,1.62,0,0,1,.71-0.16,2,2,0,0,1,.57.07,2.42,2.42,0,0,1,.51.22V80.14h0.73v6Zm-0.73-1.06v-2.5a2.44,2.44,0,0,0-.49-0.18,2,2,0,0,0-.47-0.05,1,1,0,0,0-.88.42,2,2,0,0,0-.32,1.22,2.33,2.33,0,0,0,.24,1.17,0.85,0.85,0,0,0,.78.4,1.41,1.41,0,0,0,.58-0.13A2.24,2.24,0,0,0,141.63,85.13Z" transform="translate(-2.08 -2.47)"/><path d="M85.36,95.9a2.16,2.16,0,0,1-1.61-.58,2.28,2.28,0,0,1-.57-1.66A2.46,2.46,0,0,1,83.73,92a1.85,1.85,0,0,1,1.45-.63,2,2,0,0,1,.72.12,1.4,1.4,0,0,1,.54.37,1.67,1.67,0,0,1,.36.61,2.72,2.72,0,0,1,.13.88v0.4h-3a1.62,1.62,0,0,0,.38,1.16,1.39,1.39,0,0,0,1.05.4,2.11,2.11,0,0,0,.47-0.05,2.36,2.36,0,0,0,.42-0.14l0.33-.17,0.23-.16h0v0.8l-0.32.13-0.34.12-0.39.09a2.53,2.53,0,0,1-.44,0m0.86-2.76a2.08,2.08,0,0,0-.07-0.51A1,1,0,0,0,86,92.27,0.81,0.81,0,0,0,85.64,92a1.46,1.46,0,0,0-1,0,1.18,1.18,0,0,0-.37.26,1.24,1.24,0,0,0-.25.38,1.66,1.66,0,0,0-.11.49h2.3Zm2.69,2.76a2.75,2.75,0,0,1-.81-0.12,3.64,3.64,0,0,1-.63-0.25V94.72h0l0.22,0.16a2.25,2.25,0,0,0,.34.19,3,3,0,0,0,.41.15,1.63,1.63,0,0,0,.46.07,1.8,1.8,0,0,0,.37,0,0.93,0.93,0,0,0,.29-0.1,0.49,0.49,0,0,0,.26-0.49,0.51,0.51,0,0,0-.14-0.39,1.17,1.17,0,0,0-.5-0.22l-0.36-.08-0.42-.1a1.32,1.32,0,0,1-.72-0.45,1.17,1.17,0,0,1-.23-0.73,1.19,1.19,0,0,1,.44-1,1.78,1.78,0,0,1,1.18-.37,3.08,3.08,0,0,1,.73.09,2.57,2.57,0,0,1,.61.22v0.78h0a2.24,2.24,0,0,0-.62-0.35A2,2,0,0,0,89.09,92a1.17,1.17,0,0,0-.61.15,0.5,0.5,0,0,0-.25.46,0.52,0.52,0,0,0,.15.41,1.15,1.15,0,0,0,.47.22l0.36,0.08,0.42,0.1a1.37,1.37,0,0,1,.73.4,1.13,1.13,0,0,1,.24.76,1.31,1.31,0,0,1-.11.53,1.18,1.18,0,0,1-.32.43,1.65,1.65,0,0,1-.53.29A2.29,2.29,0,0,1,88.91,95.9Zm3.67,0a1.25,1.25,0,0,1-.93-0.34,1.49,1.49,0,0,1-.33-1.07V92.06H90.82V91.45h0.49V90.21H92v1.25h1.34v0.61H92v2.06c0,0.22,0,.39,0,0.51a0.89,0.89,0,0,0,.09.33,0.43,0.43,0,0,0,.21.2,1,1,0,0,0,.4.07,1.16,1.16,0,0,0,.35-0.05l0.24-.09h0v0.66L93,95.85A2.54,2.54,0,0,1,92.58,95.88Zm2.15-5.15H93.9V90h0.83v0.76ZM94.68,95.8H93.95V91.45h0.73V95.8Zm6,0V93.29c0-.2,0-0.39,0-0.55a1.13,1.13,0,0,0-.1-0.4,0.5,0.5,0,0,0-.22-0.23A0.83,0.83,0,0,0,99.95,92a1,1,0,0,0-.49.14,2.56,2.56,0,0,0-.54.4v0.16c0,0.06,0,.13,0,0.22V95.8H98.21V93.29q0-.3,0-0.55a1.09,1.09,0,0,0-.1-0.4,0.5,0.5,0,0,0-.22-0.23A0.84,0.84,0,0,0,97.48,92a1,1,0,0,0-.5.15,2.62,2.62,0,0,0-.51.38V95.8H95.74V91.45h0.73v0.48A2.65,2.65,0,0,1,97,91.49a1.26,1.26,0,0,1,.62-0.16,1.32,1.32,0,0,1,.68.18,1.1,1.1,0,0,1,.45.58,3,3,0,0,1,.65-0.56,1.31,1.31,0,0,1,.68-0.19,1.41,1.41,0,0,1,.51.09,1,1,0,0,1,.4.28,1.36,1.36,0,0,1,.27.49,2.43,2.43,0,0,1,.1.74V95.8h-0.73Zm4.2-.46-0.24.18a1.68,1.68,0,0,1-.29.19,2.26,2.26,0,0,1-.37.15,1.85,1.85,0,0,1-.51.05,1.32,1.32,0,0,1-.93-0.38,1.32,1.32,0,0,1-.28-0.44,1.47,1.47,0,0,1-.11-0.55,1.45,1.45,0,0,1,.19-0.77,1.3,1.3,0,0,1,.6-0.5A3,3,0,0,1,103.8,93c0.33,0,.69-0.07,1.07-0.1V92.8a0.94,0.94,0,0,0-.08-0.41,0.58,0.58,0,0,0-.22-0.24,0.85,0.85,0,0,0-.34-0.12l-0.41,0a2.85,2.85,0,0,0-.6.08,3.92,3.92,0,0,0-.68.22h0V91.55l0.58-.13a4.14,4.14,0,0,1,.75-0.07,3.48,3.48,0,0,1,.75.07,1.44,1.44,0,0,1,.55.25,1.08,1.08,0,0,1,.35.46,1.81,1.81,0,0,1,.12.69v3h-0.73V95.33Zm0-.61v-1.2l-0.66.06a3.64,3.64,0,0,0-.64.12,1.17,1.17,0,0,0-.48.27,0.69,0.69,0,0,0-.19.51,0.72,0.72,0,0,0,.21.56,0.88,0.88,0,0,0,.62.19,1.31,1.31,0,0,0,.63-0.15A2.67,2.67,0,0,0,104.88,94.73Zm3,1.15a1.25,1.25,0,0,1-.93-0.34,1.49,1.49,0,0,1-.33-1.07V92.06h-0.49V91.45h0.49V90.21h0.73v1.25h1.35v0.61h-1.35v2.06c0,0.22,0,.39,0,0.51a0.83,0.83,0,0,0,.09.33,0.43,0.43,0,0,0,.21.2,1,1,0,0,0,.4.07,1.15,1.15,0,0,0,.35-0.05l0.24-.09h0v0.66l-0.42.09A2.56,2.56,0,0,1,107.91,95.88Zm3.24,0a2.16,2.16,0,0,1-1.61-.58,2.28,2.28,0,0,1-.57-1.66,2.45,2.45,0,0,1,.55-1.69,1.85,1.85,0,0,1,1.45-.63,2.06,2.06,0,0,1,.72.12,1.41,1.41,0,0,1,.54.37,1.67,1.67,0,0,1,.36.61,2.72,2.72,0,0,1,.13.88v0.4h-3a1.62,1.62,0,0,0,.38,1.16,1.39,1.39,0,0,0,1.05.4,2.14,2.14,0,0,0,.47-0.05,2.37,2.37,0,0,0,.42-0.14l0.34-.17,0.22-.16h0v0.8l-0.32.13-0.34.12-0.39.09A2.52,2.52,0,0,1,111.15,95.9ZM112,93.14a2.09,2.09,0,0,0-.07-0.51,1,1,0,0,0-.18-0.36,0.81,0.81,0,0,0-.33-0.25,1.47,1.47,0,0,0-1,0,1.17,1.17,0,0,0-.62.63,1.66,1.66,0,0,0-.11.49H112Zm9.27-1.69-1.1,4.34H119.5l-1.06-3.35-1.05,3.35h-0.67l-1.11-4.34h0.76l0.76,3.36,1-3.36h0.6l1.06,3.36,0.72-3.36h0.74Zm1.44-.73h-0.83V90h0.83v0.76Zm-0.05,5.07h-0.73V91.45h0.73V95.8Zm2.38,0.09a1.25,1.25,0,0,1-.93-0.34,1.48,1.48,0,0,1-.33-1.07V92.06h-0.49V91.45h0.49V90.21h0.73v1.25h1.35v0.61h-1.35v2.06q0,0.33,0,.51a0.87,0.87,0,0,0,.09.33,0.43,0.43,0,0,0,.21.2,1,1,0,0,0,.4.07,1.16,1.16,0,0,0,.35-0.05l0.24-.09h0v0.66l-0.42.09A2.55,2.55,0,0,1,125.05,95.88Zm4.77-.09h-0.73V93.32a4.85,4.85,0,0,0,0-.56,1.21,1.21,0,0,0-.11-0.41,0.55,0.55,0,0,0-.25-0.24,1,1,0,0,0-.44-0.08,1.25,1.25,0,0,0-.56.15,2.86,2.86,0,0,0-.57.38V95.8H126.4v-6h0.73v2.19a2.84,2.84,0,0,1,.65-0.45,1.53,1.53,0,0,1,.67-0.15,1.26,1.26,0,0,1,1,.42,1.84,1.84,0,0,1,.36,1.22V95.8Z" transform="translate(-2.08 -2.47)"/><path d="M75.82,105.5a2.38,2.38,0,0,1-.82-0.14,1.7,1.7,0,0,1-.64-0.42,1.89,1.89,0,0,1-.42-0.7,3,3,0,0,1-.15-1,2.87,2.87,0,0,1,.15-1,2.12,2.12,0,0,1,.41-0.7,1.71,1.71,0,0,1,.64-0.44,2.2,2.2,0,0,1,.82-0.15,2.35,2.35,0,0,1,.69.1,3.63,3.63,0,0,1,.59.23v0.82h0l-0.2-.15a2.33,2.33,0,0,0-.3-0.18,2,2,0,0,0-.36-0.14,1.46,1.46,0,0,0-.4-0.06,1.11,1.11,0,0,0-.91.43,1.89,1.89,0,0,0-.34,1.21,1.92,1.92,0,0,0,.33,1.2,1.1,1.1,0,0,0,.92.43,1.61,1.61,0,0,0,.68-0.15,2.14,2.14,0,0,0,.57-0.38h0v0.82l-0.27.12-0.3.11-0.33.08a2.08,2.08,0,0,1-.38,0m5.53-2.27a2.47,2.47,0,0,1-.53,1.69,1.79,1.79,0,0,1-1.41.6,1.76,1.76,0,0,1-1.43-.62,2.51,2.51,0,0,1-.52-1.67,2.46,2.46,0,0,1,.53-1.69,1.95,1.95,0,0,1,2.82,0A2.48,2.48,0,0,1,81.35,103.24Zm-0.75,0a2.08,2.08,0,0,0-.31-1.25,1,1,0,0,0-.87-0.41,1,1,0,0,0-.88.41,2.66,2.66,0,0,0,0,2.49,1.13,1.13,0,0,0,1.75,0A2.07,2.07,0,0,0,80.6,103.24Zm4.91,2.17H84.78v-2.47a5,5,0,0,0,0-.56,1.21,1.21,0,0,0-.11-0.42,0.57,0.57,0,0,0-.25-0.24,1,1,0,0,0-.43-0.08,1.24,1.24,0,0,0-.56.15,2.94,2.94,0,0,0-.57.38v3.24H82.09v-4.34h0.73v0.48a2.87,2.87,0,0,1,.65-0.45,1.51,1.51,0,0,1,.67-0.16,1.24,1.24,0,0,1,1,.42,1.82,1.82,0,0,1,.36,1.22v2.82Zm3.31-5.35h0L88.5,100a1.78,1.78,0,0,0-.33,0,0.87,0.87,0,0,0-.66.21,1.09,1.09,0,0,0-.2.75v0.15h1.21v0.61H87.34v3.74H86.61v-3.74H86.11v-0.61h0.49v-0.14A1.7,1.7,0,0,1,87,99.73a1.4,1.4,0,0,1,1.08-.41l0.4,0,0.35,0v0.67Zm1.06,0.28H89V99.58h0.83v0.76Zm-0.05,5.07H89.09v-4.34h0.73v4.34Zm4.41,0H93.5V105l-0.29.24a1.57,1.57,0,0,1-.29.17,1.54,1.54,0,0,1-.71.15,1.46,1.46,0,0,1-.65-0.15,1.4,1.4,0,0,1-.51-0.43,2.1,2.1,0,0,1-.33-0.71,3.61,3.61,0,0,1-.12-1,3,3,0,0,1,.15-1,2.31,2.31,0,0,1,.41-0.73,1.68,1.68,0,0,1,.57-0.45,1.6,1.6,0,0,1,.71-0.16A2,2,0,0,1,93,101a2.43,2.43,0,0,1,.51.22V99.36h0.73v6Zm-0.73-1.06v-2.5a2.41,2.41,0,0,0-.49-0.18,2,2,0,0,0-.47-0.05,1,1,0,0,0-.88.42,2,2,0,0,0-.32,1.22,2.29,2.29,0,0,0,.25,1.17,0.85,0.85,0,0,0,.78.4A1.42,1.42,0,0,0,93,104.7,2.17,2.17,0,0,0,93.5,104.35Zm3.7,1.16a2.15,2.15,0,0,1-1.61-.58,2.28,2.28,0,0,1-.57-1.66,2.45,2.45,0,0,1,.55-1.69,1.85,1.85,0,0,1,1.45-.63,2,2,0,0,1,.72.12,1.4,1.4,0,0,1,.54.36,1.67,1.67,0,0,1,.36.61,2.74,2.74,0,0,1,.12.88v0.4h-3a1.63,1.63,0,0,0,.38,1.16,1.39,1.39,0,0,0,1.06.4,2.07,2.07,0,0,0,.47-0.05,2.3,2.3,0,0,0,.42-0.14l0.33-.17,0.23-.16h0v0.8l-0.32.13-0.34.12-0.39.09A2.61,2.61,0,0,1,97.2,105.51Zm0.86-2.76a2.09,2.09,0,0,0-.07-0.51,1,1,0,0,0-.18-0.36,0.8,0.8,0,0,0-.33-0.25,1.46,1.46,0,0,0-1,0,1.17,1.17,0,0,0-.62.63,1.59,1.59,0,0,0-.11.48h2.3Zm4.88,2.66H102.2v-2.47a5.06,5.06,0,0,0,0-.56,1.17,1.17,0,0,0-.11-0.42,0.56,0.56,0,0,0-.25-0.24,1,1,0,0,0-.44-0.08,1.25,1.25,0,0,0-.56.15,3,3,0,0,0-.57.38v3.24H99.52v-4.34h0.73v0.48a2.88,2.88,0,0,1,.65-0.45,1.53,1.53,0,0,1,.67-0.16,1.25,1.25,0,0,1,1,.42,1.81,1.81,0,0,1,.36,1.22v2.82Zm2.75,0.1a2.37,2.37,0,0,1-.82-0.14,1.7,1.7,0,0,1-.64-0.42,1.9,1.9,0,0,1-.41-0.7,3,3,0,0,1-.15-1,2.87,2.87,0,0,1,.15-1,2.13,2.13,0,0,1,.41-0.7,1.7,1.7,0,0,1,.64-0.44,2.2,2.2,0,0,1,.82-0.15,2.35,2.35,0,0,1,.69.1,3.6,3.6,0,0,1,.59.23v0.82h0l-0.2-.15-0.3-.18a2.08,2.08,0,0,0-.36-0.14,1.45,1.45,0,0,0-.4-0.06,1.11,1.11,0,0,0-.91.43,1.9,1.9,0,0,0-.34,1.21,1.92,1.92,0,0,0,.33,1.2,1.1,1.1,0,0,0,.92.43,1.61,1.61,0,0,0,.68-0.15,2.14,2.14,0,0,0,.57-0.38h0v0.82l-0.27.12-0.3.11-0.33.08A2.07,2.07,0,0,1,105.68,105.5Zm3.85,0a2.16,2.16,0,0,1-1.61-.58,2.28,2.28,0,0,1-.57-1.66,2.45,2.45,0,0,1,.56-1.69,1.84,1.84,0,0,1,1.45-.63,2,2,0,0,1,.72.12,1.42,1.42,0,0,1,.54.36,1.68,1.68,0,0,1,.36.61,2.74,2.74,0,0,1,.12.88v0.4h-3a1.62,1.62,0,0,0,.38,1.16,1.38,1.38,0,0,0,1.05.4,2.08,2.08,0,0,0,.47-0.05,2.26,2.26,0,0,0,.42-0.14l0.34-.17,0.23-.16h0v0.8l-0.32.13-0.34.12-0.39.09A2.62,2.62,0,0,1,109.53,105.51Zm0.86-2.76a2,2,0,0,0-.07-0.51,1,1,0,0,0-.18-0.36,0.8,0.8,0,0,0-.33-0.25,1.46,1.46,0,0,0-1,0,1.17,1.17,0,0,0-.62.63,1.62,1.62,0,0,0-.11.48h2.3Zm4.81-2.41h-0.83V99.58h0.83v0.76Zm0,5.07h-0.73v-4.34h0.73v4.34Zm4.48,0h-0.73v-2.47a4.82,4.82,0,0,0,0-.56,1.15,1.15,0,0,0-.11-0.42,0.57,0.57,0,0,0-.25-0.24,1,1,0,0,0-.43-0.08,1.25,1.25,0,0,0-.56.15,2.93,2.93,0,0,0-.57.38v3.24h-0.73v-4.34h0.73v0.48a2.9,2.9,0,0,1,.64-0.45,1.53,1.53,0,0,1,.67-0.16,1.24,1.24,0,0,1,1,.42,1.82,1.82,0,0,1,.36,1.22v2.82Zm2.38,0.09a1.26,1.26,0,0,1-.93-0.34,1.49,1.49,0,0,1-.33-1.07v-2.41h-0.49v-0.61h0.49V99.82h0.73v1.25h1.35v0.61h-1.35v2.06c0,0.22,0,.39,0,0.51a0.85,0.85,0,0,0,.09.33,0.43,0.43,0,0,0,.21.21,1,1,0,0,0,.4.07,1.16,1.16,0,0,0,.35-0.05l0.24-.09h0v0.66l-0.42.09A2.55,2.55,0,0,1,122,105.49Zm3.19,0a2.15,2.15,0,0,1-1.61-.58,2.28,2.28,0,0,1-.57-1.66,2.46,2.46,0,0,1,.56-1.69,1.85,1.85,0,0,1,1.45-.63,2,2,0,0,1,.72.12,1.4,1.4,0,0,1,.54.36,1.67,1.67,0,0,1,.36.61,2.71,2.71,0,0,1,.13.88v0.4h-3a1.62,1.62,0,0,0,.38,1.16,1.38,1.38,0,0,0,1.05.4,2.09,2.09,0,0,0,.47-0.05,2.32,2.32,0,0,0,.42-0.14l0.33-.17,0.23-.16h0v0.8l-0.32.13-0.34.12-0.39.09A2.61,2.61,0,0,1,125.2,105.51Zm0.86-2.76a2,2,0,0,0-.07-0.51,1,1,0,0,0-.18-0.36,0.82,0.82,0,0,0-.33-0.25,1.46,1.46,0,0,0-1,0,1.17,1.17,0,0,0-.62.63,1.62,1.62,0,0,0-.11.48h2.3Zm3.82-.9h0l-0.17,0h-0.22a1.43,1.43,0,0,0-.59.13,1.85,1.85,0,0,0-.55.38v3.08h-0.73v-4.34h0.73v0.65a3.29,3.29,0,0,1,.7-0.5,1.3,1.3,0,0,1,.58-0.15h0.17l0.13,0v0.76Zm4-.79-1.64,4.34h-0.66l-1.62-4.34h0.79l1.19,3.35,1.18-3.35h0.76Zm2.82,3.88-0.24.19a1.85,1.85,0,0,1-.29.19,2.3,2.3,0,0,1-.37.15,1.87,1.87,0,0,1-.51.05,1.29,1.29,0,0,1-.51-0.1,1.25,1.25,0,0,1-.7-0.72,1.48,1.48,0,0,1-.1-0.56,1.45,1.45,0,0,1,.19-0.77,1.29,1.29,0,0,1,.6-0.5,3.07,3.07,0,0,1,.86-0.23c0.33,0,.69-0.07,1.07-0.1v-0.14a0.94,0.94,0,0,0-.08-0.41,0.58,0.58,0,0,0-.22-0.24,0.88,0.88,0,0,0-.34-0.12l-0.42,0a2.84,2.84,0,0,0-.59.08,4.21,4.21,0,0,0-.68.22h0v-0.74l0.58-.13a4.06,4.06,0,0,1,.75-0.07,3.43,3.43,0,0,1,.76.07,1.46,1.46,0,0,1,.55.25,1.09,1.09,0,0,1,.35.46,1.83,1.83,0,0,1,.12.69v3h-0.73v-0.46Zm0-.61v-1.21l-0.66.06a3.49,3.49,0,0,0-.64.11,1.16,1.16,0,0,0-.48.27,0.68,0.68,0,0,0-.19.51,0.72,0.72,0,0,0,.21.56,0.88,0.88,0,0,0,.61.19,1.31,1.31,0,0,0,.62-0.15A2.6,2.6,0,0,0,136.65,104.34Zm2.47,1.07h-0.73v-6h0.73v6Z" transform="translate(-2.08 -2.47)"/><path d="M71.94,116.68H71.06A6.81,6.81,0,0,1,70,115a5.36,5.36,0,0,1-.39-2.12,5.42,5.42,0,0,1,.38-2.11A6.54,6.54,0,0,1,71.06,109h0.89v0a5,5,0,0,0-.6.65,5.28,5.28,0,0,0-.53.87,5.55,5.55,0,0,0-.38,1.05,4.93,4.93,0,0,0-.15,1.21,4.86,4.86,0,0,0,.14,1.22,5.54,5.54,0,0,0,.38,1.05,5.1,5.1,0,0,0,1.13,1.52v0m2.3-1.6V110H72.3v-0.68H77V110H75v5.1H74.25Zm6.66,0H80.18V112.6a5.11,5.11,0,0,0,0-.56,1.22,1.22,0,0,0-.11-0.41,0.56,0.56,0,0,0-.25-0.24,1,1,0,0,0-.44-0.08,1.26,1.26,0,0,0-.56.14,3,3,0,0,0-.57.38v3.24H77.49V109h0.73v2.19a2.81,2.81,0,0,1,.64-0.45,1.51,1.51,0,0,1,.67-0.15,1.25,1.25,0,0,1,1,.42,1.83,1.83,0,0,1,.36,1.22v2.82Zm2.91,0.1a2.15,2.15,0,0,1-1.61-.59,2.28,2.28,0,0,1-.57-1.66,2.46,2.46,0,0,1,.56-1.69,1.85,1.85,0,0,1,1.46-.63,2,2,0,0,1,.71.12,1.46,1.46,0,0,1,.54.37,1.66,1.66,0,0,1,.36.61,2.68,2.68,0,0,1,.13.88V113h-3a1.62,1.62,0,0,0,.38,1.16,1.38,1.38,0,0,0,1.05.4,2,2,0,0,0,.47-0.06,2.15,2.15,0,0,0,.42-0.14l0.33-.17,0.22-.16h0v0.8l-0.32.13-0.34.12-0.39.09A2.61,2.61,0,0,1,83.81,115.18Zm0.86-2.76a2.1,2.1,0,0,0-.07-0.51,1.06,1.06,0,0,0-.18-0.36,0.81,0.81,0,0,0-.33-0.25,1.49,1.49,0,0,0-1,0,1.2,1.2,0,0,0-.37.26,1.19,1.19,0,0,0-.25.38,1.64,1.64,0,0,0-.11.48h2.3Zm4.77-1.22H88.92l-1-2.17h0.93Zm1.53,0H90.45l-1-2.17h0.92Zm5.09,3.88H95.2l-2.56-5v5H91.92v-5.79H93l2.33,4.58v-4.58h0.72v5.79Zm3,0.1a2.16,2.16,0,0,1-1.61-.59,2.28,2.28,0,0,1-.57-1.66,2.46,2.46,0,0,1,.56-1.69,1.85,1.85,0,0,1,1.45-.63,2.05,2.05,0,0,1,.72.12,1.46,1.46,0,0,1,.54.37,1.67,1.67,0,0,1,.36.61,2.68,2.68,0,0,1,.13.88V113h-3a1.61,1.61,0,0,0,.38,1.16,1.38,1.38,0,0,0,1.05.4,2,2,0,0,0,.47-0.06,2.14,2.14,0,0,0,.42-0.14l0.33-.17,0.22-.16h0v0.8l-0.32.13-0.34.12-0.39.09A2.63,2.63,0,0,1,99,115.18Zm0.86-2.76a2,2,0,0,0-.07-0.51,1.06,1.06,0,0,0-.18-0.36,0.81,0.81,0,0,0-.33-0.25,1.49,1.49,0,0,0-1,0,1.18,1.18,0,0,0-.37.26,1.21,1.21,0,0,0-.25.38,1.61,1.61,0,0,0-.11.48h2.3Zm6.78-1.69-1.1,4.34H104.9l-1.06-3.35-1.05,3.35h-0.67L101,110.73h0.76l0.76,3.36,1-3.36h0.6l1.06,3.36,0.72-3.36h0.73Zm4.86,4.45a3.82,3.82,0,0,1-1.07-.13,5.43,5.43,0,0,1-.83-0.32v-1h0.05a2.77,2.77,0,0,0,.86.55,2.45,2.45,0,0,0,.93.2,1.5,1.5,0,0,0,1-.27,0.86,0.86,0,0,0,.33-0.7,0.9,0.9,0,0,0-.17-0.56,1,1,0,0,0-.54-0.32l-0.49-.13L111,112.4a2.59,2.59,0,0,1-.54-0.2,1.49,1.49,0,0,1-.42-0.31,1.38,1.38,0,0,1-.28-0.45,1.66,1.66,0,0,1-.1-0.6,1.5,1.5,0,0,1,.55-1.18,2.05,2.05,0,0,1,1.4-.48,4.18,4.18,0,0,1,.92.1,3.68,3.68,0,0,1,.8.28v0.92h-0.06a2.51,2.51,0,0,0-.71-0.44,2.24,2.24,0,0,0-.91-0.19,1.39,1.39,0,0,0-.87.25,0.79,0.79,0,0,0-.33.66,0.86,0.86,0,0,0,.19.59,1.14,1.14,0,0,0,.56.32l0.6,0.15,0.59,0.15a1.66,1.66,0,0,1,.88.55,1.48,1.48,0,0,1,.28.91,1.71,1.71,0,0,1-.14.67,1.57,1.57,0,0,1-.39.56,2,2,0,0,1-.63.39A2.47,2.47,0,0,1,111.54,115.18Zm4.08,0a1.25,1.25,0,0,1-.93-0.34,1.49,1.49,0,0,1-.33-1.08v-2.4h-0.5v-0.61h0.5v-1.25h0.73v1.25h1.34v0.61h-1.34v2.06c0,0.22,0,.39,0,0.51a0.86,0.86,0,0,0,.09.34,0.42,0.42,0,0,0,.21.2,1,1,0,0,0,.4.07,1.14,1.14,0,0,0,.35-0.05l0.24-.09h0V115l-0.42.09Zm3.78-.55-0.24.19a1.73,1.73,0,0,1-.29.19,2.34,2.34,0,0,1-.38.15,1.82,1.82,0,0,1-.51.05,1.32,1.32,0,0,1-.93-0.38,1.35,1.35,0,0,1-.28-0.44,1.5,1.5,0,0,1-.1-0.55,1.47,1.47,0,0,1,.19-0.77,1.29,1.29,0,0,1,.6-0.5,3,3,0,0,1,.86-0.23c0.33,0,.69-0.07,1.07-0.1v-0.14a1,1,0,0,0-.08-0.41,0.59,0.59,0,0,0-.22-0.24,0.89,0.89,0,0,0-.34-0.12l-0.42,0a2.9,2.9,0,0,0-.59.08,4.12,4.12,0,0,0-.68.22h0v-0.74l0.58-.13a4.13,4.13,0,0,1,.75-0.07,3.51,3.51,0,0,1,.76.07,1.46,1.46,0,0,1,.55.25,1.1,1.1,0,0,1,.35.46,1.83,1.83,0,0,1,.12.69v3h-0.73v-0.46Zm0-.6V112.8l-0.66.06a3.44,3.44,0,0,0-.64.12,1.19,1.19,0,0,0-.48.27,0.69,0.69,0,0,0-.19.52,0.72,0.72,0,0,0,.21.56,0.89,0.89,0,0,0,.61.19,1.3,1.3,0,0,0,.63-0.15A2.75,2.75,0,0,0,119.39,114Zm3,1.15a1.25,1.25,0,0,1-.93-0.34,1.49,1.49,0,0,1-.34-1.08v-2.4h-0.49v-0.61h0.49v-1.25h0.73v1.25h1.34v0.61h-1.34v2.06c0,0.22,0,.39,0,0.51a0.88,0.88,0,0,0,.09.34,0.43,0.43,0,0,0,.21.2,1,1,0,0,0,.4.07,1.15,1.15,0,0,0,.35-0.05l0.24-.09h0V115l-0.42.09A2.66,2.66,0,0,1,122.43,115.16Zm2.1-5.16H123.7v-0.76h0.83V110Zm-0.05,5.07h-0.73v-4.34h0.73v4.34Zm2.3,0.1a2.73,2.73,0,0,1-.81-0.12,3.49,3.49,0,0,1-.63-0.25V114h0l0.22,0.16a2.14,2.14,0,0,0,.34.19,3,3,0,0,0,.41.15,1.63,1.63,0,0,0,.46.07,1.86,1.86,0,0,0,.37,0,0.9,0.9,0,0,0,.29-0.1,0.62,0.62,0,0,0,.2-0.19,0.6,0.6,0,0,0,.06-0.3,0.51,0.51,0,0,0-.14-0.39,1.18,1.18,0,0,0-.5-0.22l-0.37-.08-0.42-.1a1.32,1.32,0,0,1-.72-0.44,1.27,1.27,0,0,1,.22-1.69,1.77,1.77,0,0,1,1.18-.37,3.09,3.09,0,0,1,.73.09,2.56,2.56,0,0,1,.61.23v0.78h0a2.25,2.25,0,0,0-.62-0.35,1.94,1.94,0,0,0-.69-0.13,1.15,1.15,0,0,0-.61.15,0.5,0.5,0,0,0-.25.46,0.52,0.52,0,0,0,.15.41,1.14,1.14,0,0,0,.47.22l0.36,0.08,0.42,0.1a1.36,1.36,0,0,1,.72.4,1.12,1.12,0,0,1,.24.76,1.3,1.3,0,0,1-.11.53,1.15,1.15,0,0,1-.32.43,1.6,1.6,0,0,1-.53.29A2.24,2.24,0,0,1,126.78,115.18Zm3.67,0a1.25,1.25,0,0,1-.93-0.34,1.49,1.49,0,0,1-.34-1.08v-2.4h-0.49v-0.61h0.49v-1.25h0.73v1.25h1.34v0.61h-1.34v2.06c0,0.22,0,.39,0,0.51a0.88,0.88,0,0,0,.09.34,0.42,0.42,0,0,0,.21.2,1,1,0,0,0,.4.07,1.15,1.15,0,0,0,.35-0.05l0.24-.09h0V115l-0.42.09ZM132.6,110h-0.83v-0.76h0.83V110Zm-0.05,5.07h-0.73v-4.34h0.73v4.34Zm2.85,0.1a2.35,2.35,0,0,1-.82-0.14,1.68,1.68,0,0,1-.64-0.42,1.92,1.92,0,0,1-.42-0.7,3.08,3.08,0,0,1-.15-1,2.87,2.87,0,0,1,.15-1,2.14,2.14,0,0,1,.41-0.7,1.7,1.7,0,0,1,.64-0.44,2.18,2.18,0,0,1,.82-0.15,2.37,2.37,0,0,1,.69.1,3.69,3.69,0,0,1,.59.23v0.82h0l-0.2-.15-0.3-.18a1.89,1.89,0,0,0-.36-0.14,1.41,1.41,0,0,0-.4-0.06,1.11,1.11,0,0,0-.91.43,2.32,2.32,0,0,0,0,2.42,1.1,1.1,0,0,0,.92.43,1.61,1.61,0,0,0,.68-0.15,2.15,2.15,0,0,0,.57-0.38h0v0.82l-0.27.12-0.29.11-0.34.08A2.14,2.14,0,0,1,135.4,115.17Zm3.09,0a2.75,2.75,0,0,1-.81-0.12,3.53,3.53,0,0,1-.63-0.25V114h0l0.22,0.16a2.19,2.19,0,0,0,.34.19,3,3,0,0,0,.41.15,1.64,1.64,0,0,0,.46.07,1.87,1.87,0,0,0,.37,0,0.89,0.89,0,0,0,.3-0.1,0.62,0.62,0,0,0,.2-0.19,0.6,0.6,0,0,0,.06-0.3,0.5,0.5,0,0,0-.14-0.39,1.17,1.17,0,0,0-.5-0.22l-0.37-.08-0.42-.1a1.32,1.32,0,0,1-.72-0.44,1.27,1.27,0,0,1,.22-1.69,1.77,1.77,0,0,1,1.18-.37,3.09,3.09,0,0,1,.73.09,2.55,2.55,0,0,1,.61.23v0.78h0a2.24,2.24,0,0,0-.62-0.35,1.94,1.94,0,0,0-.69-0.13,1.15,1.15,0,0,0-.61.15,0.5,0.5,0,0,0-.25.46,0.52,0.52,0,0,0,.15.41,1.14,1.14,0,0,0,.47.22l0.36,0.08,0.42,0.1a1.36,1.36,0,0,1,.72.4,1.12,1.12,0,0,1,.24.76,1.3,1.3,0,0,1-.11.53,1.16,1.16,0,0,1-.33.43,1.6,1.6,0,0,1-.53.29A2.24,2.24,0,0,1,138.48,115.18Zm3.82-6.15-1,2.17h-0.52l0.61-2.17h0.92Zm1.53,0-1,2.17H142.3l0.61-2.17h0.93Zm2.33,3.82a5.39,5.39,0,0,1-.39,2.11,6.7,6.7,0,0,1-1.07,1.71h-0.89v0a5.08,5.08,0,0,0,.6-0.66,4.68,4.68,0,0,0,.53-0.86,5.62,5.62,0,0,0,.38-1.06,4.86,4.86,0,0,0,.14-1.21,5,5,0,0,0-.14-1.21,5.22,5.22,0,0,0-.38-1.05,4.92,4.92,0,0,0-.54-0.87,5.18,5.18,0,0,0-.6-0.65v0h0.89a6.79,6.79,0,0,1,1.06,1.71A5.36,5.36,0,0,1,146.17,112.85Z" transform="translate(-2.08 -2.47)"/><path d="M178.85,49.15a1.69,1.69,0,0,1-.16.76,1.54,1.54,0,0,1-.44.54,2,2,0,0,1-.7.36,3.61,3.61,0,0,1-1,.11h-1.66V45.14h1.53a7.57,7.57,0,0,1,.93,0,1.74,1.74,0,0,1,.59.19,1.08,1.08,0,0,1,.45.44,1.33,1.33,0,0,1,.14.64,1.28,1.28,0,0,1-.22.73,1.46,1.46,0,0,1-.6.5v0a1.45,1.45,0,0,1,.8.51,1.48,1.48,0,0,1,.29.93m-1.07-2.6a0.86,0.86,0,0,0-.07-0.36,0.52,0.52,0,0,0-.22-0.24,1.06,1.06,0,0,0-.42-0.13c-0.15,0-.36,0-0.63,0h-0.74v1.7h0.88a2.73,2.73,0,0,0,.53,0,1.08,1.08,0,0,0,.35-0.15A0.63,0.63,0,0,0,177.7,47,1.22,1.22,0,0,0,177.78,46.55ZM178,49.18a1.35,1.35,0,0,0-.09-0.54,0.78,0.78,0,0,0-.38-0.36,1.15,1.15,0,0,0-.4-0.12,5,5,0,0,0-.61,0h-0.88v2.14h0.63a5.37,5.37,0,0,0,.8,0,1.23,1.23,0,0,0,.51-0.2,1,1,0,0,0,.32-0.34A1.06,1.06,0,0,0,178,49.18Zm4,1.28-0.24.18a1.61,1.61,0,0,1-.29.19,2.31,2.31,0,0,1-.37.16,1.87,1.87,0,0,1-.51.05,1.33,1.33,0,0,1-.51-0.1,1.35,1.35,0,0,1-.42-0.28,1.38,1.38,0,0,1-.28-0.44,1.5,1.5,0,0,1-.1-0.55,1.47,1.47,0,0,1,.19-0.77,1.31,1.31,0,0,1,.6-0.5,3,3,0,0,1,.86-0.23c0.33,0,.69-0.07,1.07-0.1V47.93a1,1,0,0,0-.08-0.41,0.56,0.56,0,0,0-.22-0.24,0.85,0.85,0,0,0-.34-0.12l-0.42,0a2.78,2.78,0,0,0-.59.08,4.07,4.07,0,0,0-.69.22h0V46.68l0.58-.13a4,4,0,0,1,.75-0.07,3.42,3.42,0,0,1,.75.07,1.44,1.44,0,0,1,.55.25,1.07,1.07,0,0,1,.35.46,1.83,1.83,0,0,1,.12.69v3h-0.73V50.46Zm0-.61V48.65l-0.66.06a3.53,3.53,0,0,0-.64.12,1.2,1.2,0,0,0-.48.27,0.69,0.69,0,0,0-.19.52,0.72,0.72,0,0,0,.21.56,0.89,0.89,0,0,0,.62.19,1.31,1.31,0,0,0,.63-0.15A2.85,2.85,0,0,0,182.06,49.86Zm5.08-3.27-2.34,5.94H184l0.78-1.81-1.58-4.13H184l1.19,3.22,1.18-3.22h0.76Zm2.4,4.45a2.15,2.15,0,0,1-1.61-.59,2.27,2.27,0,0,1-.58-1.66,2.46,2.46,0,0,1,.56-1.69,1.85,1.85,0,0,1,1.45-.63,2,2,0,0,1,.72.12,1.42,1.42,0,0,1,.54.37,1.68,1.68,0,0,1,.36.61,2.74,2.74,0,0,1,.12.88v0.4h-3a1.61,1.61,0,0,0,.38,1.16,1.39,1.39,0,0,0,1.05.4,2,2,0,0,0,.47-0.06,2.24,2.24,0,0,0,.42-0.14l0.33-.17,0.23-.16h0v0.8l-0.32.13-0.34.12L190,51A2.42,2.42,0,0,1,189.54,51Zm0.85-2.76a2.1,2.1,0,0,0-.07-0.51,1.07,1.07,0,0,0-.18-0.36,0.83,0.83,0,0,0-.33-0.25,1.31,1.31,0,0,0-.5-0.08,1.27,1.27,0,0,0-.49.09,1.2,1.2,0,0,0-.37.25,1.25,1.25,0,0,0-.25.38,1.64,1.64,0,0,0-.11.48h2.3ZM193,51a2.74,2.74,0,0,1-.81-0.12,3.76,3.76,0,0,1-.63-0.25V49.85h0L191.85,50a2.19,2.19,0,0,0,.34.19,3.09,3.09,0,0,0,.41.15,1.61,1.61,0,0,0,.47.07,1.8,1.8,0,0,0,.37,0,0.9,0.9,0,0,0,.29-0.1,0.63,0.63,0,0,0,.2-0.19,0.61,0.61,0,0,0,.06-0.3,0.51,0.51,0,0,0-.14-0.39,1.15,1.15,0,0,0-.5-0.22L193,49.08l-0.42-.1a1.34,1.34,0,0,1-.72-0.44,1.27,1.27,0,0,1,.22-1.69,1.77,1.77,0,0,1,1.18-.37,3,3,0,0,1,.73.09,2.58,2.58,0,0,1,.61.23v0.78h0a2.25,2.25,0,0,0-.62-0.35,2,2,0,0,0-.69-0.13,1.15,1.15,0,0,0-.61.15,0.5,0.5,0,0,0-.25.46,0.52,0.52,0,0,0,.15.41,1.14,1.14,0,0,0,.48.22l0.36,0.08,0.42,0.1a1.35,1.35,0,0,1,.72.4,1.12,1.12,0,0,1,.24.76,1.3,1.3,0,0,1-.11.53,1.19,1.19,0,0,1-.32.43,1.69,1.69,0,0,1-.53.3A2.34,2.34,0,0,1,193,51Zm7.19-5.45h0l-0.28-.07-0.33,0a0.88,0.88,0,0,0-.66.21,1.1,1.1,0,0,0-.2.75v0.15h1.21v0.61h-1.19v3.74H198V47.19h-0.49V46.58H198V46.44a1.7,1.7,0,0,1,.38-1.19,1.4,1.4,0,0,1,1.08-.41l0.4,0,0.35,0v0.67Zm2.58,4.89-0.24.18a1.64,1.64,0,0,1-.29.19,2.29,2.29,0,0,1-.37.16,1.86,1.86,0,0,1-.51.05,1.32,1.32,0,0,1-.51-0.1,1.37,1.37,0,0,1-.43-0.28,1.38,1.38,0,0,1-.28-0.44,1.5,1.5,0,0,1-.1-0.55,1.46,1.46,0,0,1,.19-0.77,1.31,1.31,0,0,1,.6-0.5,3,3,0,0,1,.86-0.23c0.33,0,.69-0.07,1.07-0.1V47.93a0.94,0.94,0,0,0-.08-0.41,0.58,0.58,0,0,0-.22-0.24,0.87,0.87,0,0,0-.34-0.12l-0.42,0a2.76,2.76,0,0,0-.6.08,4,4,0,0,0-.68.22h0V46.68l0.58-.13a4.06,4.06,0,0,1,.75-0.07,3.44,3.44,0,0,1,.76.07,1.46,1.46,0,0,1,.55.25,1.08,1.08,0,0,1,.35.46,1.84,1.84,0,0,1,.11.69v3H202.8V50.46Zm0-.61V48.65l-0.66.06a3.55,3.55,0,0,0-.64.12,1.2,1.2,0,0,0-.48.27,0.69,0.69,0,0,0-.19.52,0.72,0.72,0,0,0,.21.56,0.88,0.88,0,0,0,.61.19,1.32,1.32,0,0,0,.63-0.15A2.72,2.72,0,0,0,202.8,49.86ZM206.25,51a2.37,2.37,0,0,1-.82-0.14,1.69,1.69,0,0,1-.64-0.42,1.91,1.91,0,0,1-.42-0.71,3,3,0,0,1-.15-1,2.79,2.79,0,0,1,.15-1,2.11,2.11,0,0,1,.41-0.7,1.71,1.71,0,0,1,.64-0.44,2.18,2.18,0,0,1,.82-0.15,2.39,2.39,0,0,1,.69.1,3.74,3.74,0,0,1,.59.24v0.82h0l-0.2-.15-0.3-.18a2,2,0,0,0-.36-0.13,1.41,1.41,0,0,0-.4-0.06,1.12,1.12,0,0,0-.91.43,2.32,2.32,0,0,0,0,2.41,1.1,1.1,0,0,0,.92.43,1.6,1.6,0,0,0,.68-0.15,2.1,2.1,0,0,0,.57-0.38h0v0.82l-0.27.12-0.3.11-0.33.08A2.06,2.06,0,0,1,206.25,51Zm3.28,0a1.25,1.25,0,0,1-.93-0.34,1.48,1.48,0,0,1-.33-1.07V47.19h-0.49V46.58h0.49V45.34H209v1.25h1.34v0.61H209v2.06c0,0.22,0,.39,0,0.51a0.88,0.88,0,0,0,.09.33,0.42,0.42,0,0,0,.21.21,1,1,0,0,0,.4.07,1.16,1.16,0,0,0,.35-0.05l0.24-.09h0v0.66l-0.42.09A2.7,2.7,0,0,1,209.52,51Zm4.92-2.26a2.47,2.47,0,0,1-.53,1.69,1.78,1.78,0,0,1-1.41.6,1.77,1.77,0,0,1-1.42-.62,2.52,2.52,0,0,1-.52-1.67,2.46,2.46,0,0,1,.54-1.69,2,2,0,0,1,2.82,0A2.48,2.48,0,0,1,214.45,48.76Zm-0.75,0a2.08,2.08,0,0,0-.31-1.25,1.15,1.15,0,0,0-1.76,0,2.66,2.66,0,0,0,0,2.49,1.13,1.13,0,0,0,1.75,0A2.07,2.07,0,0,0,213.69,48.76Zm3.86-1.39h0l-0.17,0h-0.22a1.45,1.45,0,0,0-.59.13,1.88,1.88,0,0,0-.55.38v3.08h-0.73V46.58H216v0.65a3.35,3.35,0,0,1,.7-0.5,1.31,1.31,0,0,1,.58-0.15h0.17l0.13,0v0.76Z" transform="translate(-2.08 -2.47)"/><path d="M163.38,88.68a2.67,2.67,0,0,1-.52,1.73,1.61,1.61,0,0,1-1.31.64A2,2,0,0,1,161,91a2.24,2.24,0,0,1-.51-0.23v1.82h-0.73V86.62h0.73v0.46a2.62,2.62,0,0,1,.6-0.41,1.59,1.59,0,0,1,.73-0.17,1.35,1.35,0,0,1,1.16.59,2.71,2.71,0,0,1,.42,1.59m-0.75.08a2.3,2.3,0,0,0-.24-1.15,0.82,0.82,0,0,0-.77-0.41,1.39,1.39,0,0,0-.6.14,2.65,2.65,0,0,0-.55.36v2.46a2.54,2.54,0,0,0,.49.19,1.89,1.89,0,0,0,.47.05,1,1,0,0,0,.88-0.42A2,2,0,0,0,162.63,88.76Zm5.11,0a2.47,2.47,0,0,1-.53,1.69,1.78,1.78,0,0,1-1.41.6,1.76,1.76,0,0,1-1.42-.62,2.52,2.52,0,0,1-.52-1.67,2.46,2.46,0,0,1,.54-1.69,1.95,1.95,0,0,1,2.82,0A2.48,2.48,0,0,1,167.74,88.79Zm-0.75,0a2.09,2.09,0,0,0-.31-1.25,1.14,1.14,0,0,0-1.76,0,2.67,2.67,0,0,0,0,2.49,1.13,1.13,0,0,0,1.75,0A2.07,2.07,0,0,0,167,88.79Zm2.73,2.28A2.72,2.72,0,0,1,168.9,91a3.53,3.53,0,0,1-.63-0.25V89.88h0L168.53,90a2.14,2.14,0,0,0,.34.19,3.1,3.1,0,0,0,.41.15,1.63,1.63,0,0,0,.47.07,1.87,1.87,0,0,0,.37,0,0.89,0.89,0,0,0,.29-0.1,0.61,0.61,0,0,0,.2-0.19,0.59,0.59,0,0,0,.06-0.3,0.51,0.51,0,0,0-.14-0.39,1.18,1.18,0,0,0-.5-0.22l-0.36-.08-0.42-.1a1.32,1.32,0,0,1-.72-0.44,1.27,1.27,0,0,1,.22-1.69,1.79,1.79,0,0,1,1.18-.37,3.09,3.09,0,0,1,.73.09,2.55,2.55,0,0,1,.61.23v0.78h0a2.31,2.31,0,0,0-.62-0.35,2,2,0,0,0-.69-0.13,1.16,1.16,0,0,0-.61.15,0.5,0.5,0,0,0-.25.46,0.51,0.51,0,0,0,.15.41,1.12,1.12,0,0,0,.47.22L170,88.45l0.42,0.1a1.36,1.36,0,0,1,.73.4,1.11,1.11,0,0,1,.24.76,1.28,1.28,0,0,1-.11.53,1.16,1.16,0,0,1-.32.43,1.66,1.66,0,0,1-.53.3A2.3,2.3,0,0,1,169.71,91.07Zm3.67,0a1.24,1.24,0,0,1-.93-0.34,1.48,1.48,0,0,1-.33-1.07V87.23h-0.49V86.62h0.49V85.37h0.73v1.25h1.34v0.61h-1.34v2.06c0,0.22,0,.39,0,0.51a0.87,0.87,0,0,0,.09.34,0.44,0.44,0,0,0,.21.2,1,1,0,0,0,.4.07,1.17,1.17,0,0,0,.35-0.05l0.24-.09h0v0.66l-0.42.09A2.57,2.57,0,0,1,173.38,91Zm3.24,0a2.16,2.16,0,0,1-1.61-.58,2.28,2.28,0,0,1-.57-1.66,2.46,2.46,0,0,1,.56-1.69,1.85,1.85,0,0,1,1.45-.63,2,2,0,0,1,.71.12,1.46,1.46,0,0,1,.55.37,1.69,1.69,0,0,1,.36.61,2.72,2.72,0,0,1,.12.88v0.4h-3a1.62,1.62,0,0,0,.38,1.16,1.38,1.38,0,0,0,1.05.4,2,2,0,0,0,.47-0.06,2.13,2.13,0,0,0,.42-0.14l0.33-.17,0.23-.16h0v0.8l-0.32.13-0.34.12-0.39.09A2.4,2.4,0,0,1,176.62,91.06Zm0.86-2.76a2,2,0,0,0-.07-0.51,1,1,0,0,0-.18-0.36,0.81,0.81,0,0,0-.33-0.25,1.26,1.26,0,0,0-.49-0.08,1.28,1.28,0,0,0-.5.09,1.17,1.17,0,0,0-.37.26,1.21,1.21,0,0,0-.25.38,1.63,1.63,0,0,0-.11.48h2.3Zm3.76-.9h0l-0.17,0H180.8a1.44,1.44,0,0,0-.59.13,1.9,1.9,0,0,0-.55.38V91h-0.73V86.62h0.73v0.64a3.42,3.42,0,0,1,.7-0.5,1.32,1.32,0,0,1,.58-0.15h0.17l0.13,0v0.76Zm1.39-1.51h-0.83V85.14h0.83v0.76ZM182.57,91h-0.73V86.62h0.73V91Zm4.64-2.17a2.46,2.46,0,0,1-.53,1.69,1.78,1.78,0,0,1-1.41.6,1.76,1.76,0,0,1-1.42-.62,2.52,2.52,0,0,1-.52-1.67,2.45,2.45,0,0,1,.54-1.69,1.95,1.95,0,0,1,2.82,0A2.47,2.47,0,0,1,187.21,88.79Zm-0.75,0a2.09,2.09,0,0,0-.31-1.25,1.14,1.14,0,0,0-1.76,0,2.67,2.67,0,0,0,0,2.49,1.13,1.13,0,0,0,1.75,0A2.07,2.07,0,0,0,186.46,88.79Zm3.85-1.39h0l-0.17,0h-0.22a1.44,1.44,0,0,0-.59.13,1.91,1.91,0,0,0-.55.38V91H188V86.62h0.73v0.64a3.39,3.39,0,0,1,.7-0.5,1.32,1.32,0,0,1,.58-0.15h0.17l0.13,0v0.76ZM196.74,91H196V90.52l-0.29.24a1.58,1.58,0,0,1-.29.17,1.83,1.83,0,0,1-.32.12,1.72,1.72,0,0,1-.39,0,1.48,1.48,0,0,1-.66-0.15,1.41,1.41,0,0,1-.51-0.43,2.15,2.15,0,0,1-.33-0.71,3.65,3.65,0,0,1-.12-1,3,3,0,0,1,.15-1,2.35,2.35,0,0,1,.41-0.73,1.66,1.66,0,0,1,.57-0.44,1.6,1.6,0,0,1,.71-0.16,2,2,0,0,1,.57.07,2.56,2.56,0,0,1,.51.22V84.92h0.73v6ZM196,89.91V87.4a2.5,2.5,0,0,0-.49-0.18,2.11,2.11,0,0,0-.47,0,1,1,0,0,0-.88.42,2,2,0,0,0-.32,1.22,2.29,2.29,0,0,0,.25,1.17,0.85,0.85,0,0,0,.78.41,1.39,1.39,0,0,0,.58-0.13A2.21,2.21,0,0,0,196,89.91Zm2.61-4h-0.83V85.14h0.83v0.76ZM198.57,91h-0.73V86.62h0.73V91Zm2.24,0.11A2.7,2.7,0,0,1,200,91a3.49,3.49,0,0,1-.63-0.25V89.88h0L199.62,90a2.11,2.11,0,0,0,.34.19,3,3,0,0,0,.41.15,1.62,1.62,0,0,0,.46.07,1.86,1.86,0,0,0,.37,0,0.92,0.92,0,0,0,.29-0.1,0.61,0.61,0,0,0,.2-0.19,0.59,0.59,0,0,0,.06-0.3,0.51,0.51,0,0,0-.14-0.39,1.19,1.19,0,0,0-.5-0.22l-0.37-.08-0.42-.1a1.32,1.32,0,0,1-.72-0.44,1.17,1.17,0,0,1-.23-0.73,1.19,1.19,0,0,1,.44-1,1.78,1.78,0,0,1,1.18-.37,3.08,3.08,0,0,1,.73.09,2.57,2.57,0,0,1,.62.23v0.78h0a2.3,2.3,0,0,0-.62-0.35,2,2,0,0,0-.69-0.13,1.16,1.16,0,0,0-.61.15,0.5,0.5,0,0,0-.25.46,0.52,0.52,0,0,0,.15.41,1.13,1.13,0,0,0,.47.22l0.37,0.08,0.42,0.1a1.36,1.36,0,0,1,.73.4,1.12,1.12,0,0,1,.24.76,1.32,1.32,0,0,1-.11.53,1.17,1.17,0,0,1-.33.43,1.66,1.66,0,0,1-.53.3A2.3,2.3,0,0,1,200.81,91.07Zm3.71,0a1.25,1.25,0,0,1-.93-0.34,1.48,1.48,0,0,1-.34-1.07V87.23h-0.49V86.62h0.49V85.37H204v1.25h1.35v0.61H204v2.06c0,0.22,0,.39,0,0.51a0.86,0.86,0,0,0,.09.34,0.43,0.43,0,0,0,.21.2,1,1,0,0,0,.4.07,1.19,1.19,0,0,0,.35-0.05l0.24-.09h0v0.66a3.18,3.18,0,0,1-.42.09A2.57,2.57,0,0,1,204.52,91Zm3.61-3.64h0l-0.17,0H207.7a1.45,1.45,0,0,0-.59.13,1.91,1.91,0,0,0-.55.38V91h-0.73V86.62h0.73v0.64a3.32,3.32,0,0,1,.7-0.5,1.3,1.3,0,0,1,.58-0.15H208l0.13,0v0.76Zm1.39-1.51h-0.83V85.14h0.83v0.76ZM209.46,91h-0.73V86.62h0.73V91Zm4.71-2.24a2.67,2.67,0,0,1-.52,1.71,1.59,1.59,0,0,1-1.3.65,1.84,1.84,0,0,1-.6-0.09,2.66,2.66,0,0,1-.5-0.24l0,0.2h-0.68v-6h0.73v2.16a2.67,2.67,0,0,1,.6-0.41,1.6,1.6,0,0,1,.73-0.16,1.35,1.35,0,0,1,1.16.59A2.76,2.76,0,0,1,214.18,88.72Zm-0.75.06a2.36,2.36,0,0,0-.24-1.18,0.82,0.82,0,0,0-.76-0.4,1.43,1.43,0,0,0-.61.14,2.34,2.34,0,0,0-.55.35v2.49a2.59,2.59,0,0,0,.49.19,1.83,1.83,0,0,0,.47.06,1.06,1.06,0,0,0,.88-0.4A2,2,0,0,0,213.42,88.78ZM218.34,91h-0.73V90.48a3,3,0,0,1-.64.45,1.47,1.47,0,0,1-.68.15,1.54,1.54,0,0,1-.54-0.09,1.11,1.11,0,0,1-.44-0.3,1.38,1.38,0,0,1-.29-0.51,2.38,2.38,0,0,1-.1-0.74V86.62h0.73v2.47a5.53,5.53,0,0,0,0,.57,1.14,1.14,0,0,0,.11.4,0.56,0.56,0,0,0,.24.24,1,1,0,0,0,.44.08,1.28,1.28,0,0,0,.57-0.15,2.62,2.62,0,0,0,.56-0.37V86.62h0.73V91ZM220.71,91a1.25,1.25,0,0,1-.93-0.34,1.49,1.49,0,0,1-.33-1.07V87.23h-0.49V86.62h0.49V85.37h0.73v1.25h1.35v0.61h-1.35v2.06c0,0.22,0,.39,0,0.51a0.91,0.91,0,0,0,.09.34,0.44,0.44,0,0,0,.21.2,1,1,0,0,0,.4.07,1.17,1.17,0,0,0,.35-0.05l0.24-.09h0v0.66L221.1,91A2.59,2.59,0,0,1,220.71,91Zm2.15-5.15H222V85.14h0.83v0.76Zm0,5.07h-0.73V86.62h0.73V91Zm4.64-2.17a2.47,2.47,0,0,1-.53,1.69,1.78,1.78,0,0,1-1.41.6,1.76,1.76,0,0,1-1.43-.62,2.52,2.52,0,0,1-.52-1.67,2.47,2.47,0,0,1,.53-1.69,1.95,1.95,0,0,1,2.82,0A2.48,2.48,0,0,1,227.45,88.79Zm-0.75,0a2.09,2.09,0,0,0-.31-1.25,1.14,1.14,0,0,0-1.76,0,2.67,2.67,0,0,0,0,2.49,1.13,1.13,0,0,0,1.76,0A2.09,2.09,0,0,0,226.7,88.79Zm5,2.17h-0.73V88.49a5.39,5.39,0,0,0,0-.56,1.22,1.22,0,0,0-.11-0.41,0.58,0.58,0,0,0-.25-0.24,1,1,0,0,0-.44-0.08,1.24,1.24,0,0,0-.56.15,3,3,0,0,0-.57.38V91h-0.73V86.62H229V87.1a2.81,2.81,0,0,1,.65-0.45,1.5,1.5,0,0,1,.67-0.15,1.25,1.25,0,0,1,1,.42,1.83,1.83,0,0,1,.36,1.22V91Z" transform="translate(-2.08 -2.47)"/><path d="M166.25,96.29l-1.1,4.34h-0.68l-1.06-3.35-1.05,3.35h-0.67l-1.11-4.34h0.76l0.77,3.36,1-3.36h0.6l1.06,3.36,0.72-3.36h0.73m1.5-.73h-0.83V94.8h0.83v0.76Zm0,5.07H167V96.29h0.73v4.34Zm2.38,0.09a1.26,1.26,0,0,1-.93-0.34,1.49,1.49,0,0,1-.33-1.08V96.89h-0.49V96.29h0.49V95h0.73v1.25h1.35v0.61h-1.35V99c0,0.22,0,.39,0,0.51a0.87,0.87,0,0,0,.09.34,0.44,0.44,0,0,0,.21.2,1,1,0,0,0,.4.07,1.16,1.16,0,0,0,.35-0.05l0.24-.09h0v0.66l-0.42.09A2.57,2.57,0,0,1,170.08,100.72Zm4.77-.09h-0.73V98.16a5.09,5.09,0,0,0,0-.56,1.2,1.2,0,0,0-.11-0.42,0.56,0.56,0,0,0-.25-0.24,1,1,0,0,0-.43-0.08,1.25,1.25,0,0,0-.56.14,2.88,2.88,0,0,0-.57.38v3.24h-0.73v-6h0.73v2.19a2.9,2.9,0,0,1,.65-0.45,1.51,1.51,0,0,1,.67-0.15,1.25,1.25,0,0,1,1,.42,1.83,1.83,0,0,1,.36,1.22v2.82Zm7,0H181.1V98.16a5.09,5.09,0,0,0,0-.56,1.2,1.2,0,0,0-.11-0.42,0.57,0.57,0,0,0-.25-0.24,1,1,0,0,0-.44-0.08,1.26,1.26,0,0,0-.56.14,2.84,2.84,0,0,0-.56.38v3.24h-0.73v-6h0.73v2.19a2.8,2.8,0,0,1,.64-0.45,1.51,1.51,0,0,1,.67-0.15,1.25,1.25,0,0,1,1,.42,1.83,1.83,0,0,1,.36,1.22v2.82Zm1.82-5.07h-0.83V94.8h0.83v0.76Zm0,5.07h-0.73V96.29h0.73v4.34Zm1.22,0.7,0.22,0.08,0.33,0.1,0.38,0.08a2.14,2.14,0,0,0,.37,0,1.61,1.61,0,0,0,.57-0.09,0.84,0.84,0,0,0,.37-0.25,1,1,0,0,0,.17-0.37,2,2,0,0,0,.05-0.48v-0.38a2.28,2.28,0,0,1-.58.38,1.8,1.8,0,0,1-.71.12,1.43,1.43,0,0,1-1.18-.55,2.49,2.49,0,0,1-.44-1.59,2.8,2.8,0,0,1,.15-1,2.22,2.22,0,0,1,.41-0.71,1.69,1.69,0,0,1,1.27-.58,2,2,0,0,1,.59.08,2.54,2.54,0,0,1,.49.23l0-.19H188v3.85a2.32,2.32,0,0,1-.48,1.62,1.93,1.93,0,0,1-1.47.52,4.41,4.41,0,0,1-.65-0.05,4.66,4.66,0,0,1-.62-0.14v-0.76h0Zm2.46-1.87V97.07a2.52,2.52,0,0,0-.5-0.19,1.92,1.92,0,0,0-.46-0.06,1.05,1.05,0,0,0-.87.41,1.88,1.88,0,0,0-.32,1.17,2,2,0,0,0,.24,1.1,0.87,0.87,0,0,0,.79.38,1.67,1.67,0,0,0,.59-0.11A1.85,1.85,0,0,0,187.28,99.45Zm5.23,1.18h-0.73V98.16a4.85,4.85,0,0,0,0-.56,1.2,1.2,0,0,0-.11-0.42,0.56,0.56,0,0,0-.25-0.24,1,1,0,0,0-.44-0.08,1.25,1.25,0,0,0-.56.14,2.87,2.87,0,0,0-.57.38v3.24h-0.73v-6h0.73v2.19a2.87,2.87,0,0,1,.64-0.45,1.52,1.52,0,0,1,.67-0.15,1.24,1.24,0,0,1,1,.42,1.82,1.82,0,0,1,.36,1.22v2.82Zm2.91,0.1a2.15,2.15,0,0,1-1.61-.59,2.27,2.27,0,0,1-.57-1.66,2.45,2.45,0,0,1,.56-1.69,1.85,1.85,0,0,1,1.45-.63,2.05,2.05,0,0,1,.72.12,1.41,1.41,0,0,1,.54.37,1.67,1.67,0,0,1,.36.61,2.71,2.71,0,0,1,.12.88v0.4h-3a1.62,1.62,0,0,0,.38,1.16,1.39,1.39,0,0,0,1.05.4,2.07,2.07,0,0,0,.47-0.06,2.26,2.26,0,0,0,.42-0.14,2.67,2.67,0,0,0,.33-0.17l0.23-.16h0v0.8l-0.32.13-0.34.12-0.39.09A2.5,2.5,0,0,1,195.41,100.73ZM196.27,98a1.93,1.93,0,0,0-.07-0.51A1.07,1.07,0,0,0,196,97.1a0.83,0.83,0,0,0-.33-0.25,1.45,1.45,0,0,0-1,0,1.14,1.14,0,0,0-.37.26,1.16,1.16,0,0,0-.25.38A1.58,1.58,0,0,0,194,98h2.3Zm2.64,2.76a2.74,2.74,0,0,1-.81-0.12,3.64,3.64,0,0,1-.63-0.25V99.55h0l0.22,0.16a2.26,2.26,0,0,0,.33.19,3.33,3.33,0,0,0,.41.15,1.6,1.6,0,0,0,.46.07,1.86,1.86,0,0,0,.37,0,0.89,0.89,0,0,0,.3-0.1,0.49,0.49,0,0,0,.26-0.49,0.51,0.51,0,0,0-.14-0.39,1.16,1.16,0,0,0-.5-0.22l-0.37-.08-0.42-.1a1.32,1.32,0,0,1-.72-0.45,1.17,1.17,0,0,1-.23-0.73,1.18,1.18,0,0,1,.44-1,1.78,1.78,0,0,1,1.18-.37,3.08,3.08,0,0,1,.73.09,2.55,2.55,0,0,1,.61.23v0.78h0a2.3,2.3,0,0,0-.62-0.35,2,2,0,0,0-.7-0.13,1.15,1.15,0,0,0-.61.15,0.5,0.5,0,0,0-.25.46,0.52,0.52,0,0,0,.15.4,1.14,1.14,0,0,0,.47.22l0.36,0.08,0.42,0.1a1.37,1.37,0,0,1,.73.4,1.12,1.12,0,0,1,.24.76,1.29,1.29,0,0,1-.11.53,1.17,1.17,0,0,1-.32.43,1.65,1.65,0,0,1-.53.3A2.3,2.3,0,0,1,198.9,100.74Zm3.72,0a1.25,1.25,0,0,1-.93-0.34,1.49,1.49,0,0,1-.34-1.08V96.89h-0.49V96.29h0.49V95h0.73v1.25h1.35v0.61h-1.35V99c0,0.22,0,.39,0,0.51a0.87,0.87,0,0,0,.09.34,0.43,0.43,0,0,0,.21.2,1,1,0,0,0,.4.07,1.15,1.15,0,0,0,.35-0.05l0.24-.09h0v0.66l-0.42.09A2.54,2.54,0,0,1,202.62,100.72Zm7.2-.09h-0.73v-0.44l-0.3.24a1.7,1.7,0,0,1-.29.17,1.74,1.74,0,0,1-.32.11,1.63,1.63,0,0,1-.39,0,1.46,1.46,0,0,1-.65-0.15,1.41,1.41,0,0,1-.51-0.43,2.17,2.17,0,0,1-.33-0.71,3.69,3.69,0,0,1-.12-1,3,3,0,0,1,.15-1,2.34,2.34,0,0,1,.41-0.73,1.7,1.7,0,0,1,.57-0.44,1.62,1.62,0,0,1,.71-0.16,2,2,0,0,1,.57.07,2.44,2.44,0,0,1,.51.22V94.58h0.73v6Zm-0.73-1.06v-2.5a2.28,2.28,0,0,0-.49-0.18,2,2,0,0,0-.47-0.05,1,1,0,0,0-.88.42,2,2,0,0,0-.32,1.22,2.29,2.29,0,0,0,.25,1.17,0.85,0.85,0,0,0,.78.41,1.39,1.39,0,0,0,.58-0.13A2.19,2.19,0,0,0,209.09,99.57Zm3.7,1.16a2.15,2.15,0,0,1-1.61-.59,2.27,2.27,0,0,1-.57-1.66,2.46,2.46,0,0,1,.55-1.69,1.85,1.85,0,0,1,1.46-.63,2.05,2.05,0,0,1,.71.12,1.43,1.43,0,0,1,.54.37,1.7,1.7,0,0,1,.36.61,2.74,2.74,0,0,1,.12.88v0.4h-3a1.61,1.61,0,0,0,.38,1.16,1.38,1.38,0,0,0,1.05.4,2.07,2.07,0,0,0,.47-0.06,2.25,2.25,0,0,0,.42-0.14l0.33-.17,0.23-.16h0v0.8l-0.32.13-0.34.12-0.39.09A2.52,2.52,0,0,1,212.79,100.73ZM213.64,98a2.11,2.11,0,0,0-.07-0.51,1.12,1.12,0,0,0-.18-0.36,0.84,0.84,0,0,0-.33-0.25,1.45,1.45,0,0,0-1,0,1.13,1.13,0,0,0-.37.26,1.18,1.18,0,0,0-.25.38,1.55,1.55,0,0,0-.11.48h2.3Zm4.88,2.66h-0.73V98.16a5.35,5.35,0,0,0,0-.56,1.17,1.17,0,0,0-.11-0.42,0.55,0.55,0,0,0-.25-0.24,1,1,0,0,0-.43-0.08,1.25,1.25,0,0,0-.56.14,2.93,2.93,0,0,0-.57.38v3.24H215.1V96.29h0.73v0.48a2.89,2.89,0,0,1,.64-0.45,1.52,1.52,0,0,1,.67-0.15,1.25,1.25,0,0,1,1,.42,1.84,1.84,0,0,1,.36,1.22v2.82Zm2.19,0.1a2.75,2.75,0,0,1-.81-0.12,3.71,3.71,0,0,1-.63-0.25V99.55h0l0.22,0.16a2.13,2.13,0,0,0,.34.19,3.25,3.25,0,0,0,.41.15,1.59,1.59,0,0,0,.46.07,1.88,1.88,0,0,0,.37,0,0.89,0.89,0,0,0,.29-0.1,0.49,0.49,0,0,0,.26-0.49,0.51,0.51,0,0,0-.14-0.39,1.16,1.16,0,0,0-.5-0.22l-0.37-.08-0.42-.1a1.32,1.32,0,0,1-.72-0.45,1.17,1.17,0,0,1-.23-0.73,1.19,1.19,0,0,1,.44-1,1.79,1.79,0,0,1,1.18-.37,3.1,3.1,0,0,1,.73.09,2.56,2.56,0,0,1,.61.23v0.78h0a2.32,2.32,0,0,0-.62-0.35,2,2,0,0,0-.7-0.13,1.14,1.14,0,0,0-.61.15,0.5,0.5,0,0,0-.25.46,0.52,0.52,0,0,0,.15.4,1.18,1.18,0,0,0,.47.22L221,98.12l0.42,0.1a1.36,1.36,0,0,1,.72.4,1.12,1.12,0,0,1,.24.76,1.32,1.32,0,0,1-.11.53,1.18,1.18,0,0,1-.33.43,1.63,1.63,0,0,1-.53.3A2.31,2.31,0,0,1,220.71,100.74Zm3.2-5.18h-0.83V94.8h0.83v0.76Zm-0.05,5.07h-0.73V96.29h0.73v4.34Zm2.38,0.09a1.25,1.25,0,0,1-.93-0.34A1.49,1.49,0,0,1,225,99.3V96.89h-0.49V96.29H225V95h0.73v1.25h1.35v0.61h-1.35V99c0,0.22,0,.39,0,0.51a0.85,0.85,0,0,0,.09.34,0.43,0.43,0,0,0,.21.2,1,1,0,0,0,.4.07,1.15,1.15,0,0,0,.35-0.05l0.24-.09h0v0.66l-0.42.09A2.57,2.57,0,0,1,226.24,100.72ZM231,96.29l-2.34,5.94h-0.78l0.78-1.81L227,96.29h0.79L229,99.5l1.18-3.21H231Z" transform="translate(-2.08 -2.47)"/><path d="M184.14,105.17H183.3v-0.76h0.83v0.76Zm-0.05,5.07h-0.73V105.9h0.73v4.34Zm4.54,0h-0.73v-2.47a4.81,4.81,0,0,0,0-.56,1.17,1.17,0,0,0-.11-0.41,0.55,0.55,0,0,0-.25-0.24,1,1,0,0,0-.44-0.08,1.24,1.24,0,0,0-.56.15,3,3,0,0,0-.57.38v3.24h-0.73V105.9h0.73v0.48a2.86,2.86,0,0,1,.65-0.45,1.51,1.51,0,0,1,.67-0.15,1.25,1.25,0,0,1,1,.42,1.83,1.83,0,0,1,.36,1.22v2.82Zm2.34,0.09A1.26,1.26,0,0,1,190,110a1.49,1.49,0,0,1-.34-1.08v-2.41H189.2V105.9h0.49v-1.25h0.73v1.25h1.35v0.61h-1.35v2.07c0,0.22,0,.39,0,0.51a0.87,0.87,0,0,0,.09.34,0.42,0.42,0,0,0,.21.2,1,1,0,0,0,.4.07,1.14,1.14,0,0,0,.35-0.05l0.24-.09h0v0.66l-0.42.09A2.44,2.44,0,0,1,191,110.33Zm3.24,0a2.16,2.16,0,0,1-1.61-.59,2.28,2.28,0,0,1-.57-1.66,2.44,2.44,0,0,1,.56-1.69,1.85,1.85,0,0,1,1.45-.63,2,2,0,0,1,.72.12,1.44,1.44,0,0,1,.54.37,1.71,1.71,0,0,1,.36.61,2.71,2.71,0,0,1,.12.88v0.4h-3a1.62,1.62,0,0,0,.38,1.16,1.38,1.38,0,0,0,1.05.4,2.14,2.14,0,0,0,.47-0.05,2.44,2.44,0,0,0,.42-0.14l0.33-.17,0.23-.16h0V110l-0.32.13-0.34.12-0.39.09A2.62,2.62,0,0,1,194.2,110.34Zm0.85-2.76a2,2,0,0,0-.07-0.51,1,1,0,0,0-.18-0.36,0.81,0.81,0,0,0-.33-0.25,1.25,1.25,0,0,0-.5-0.09,1.27,1.27,0,0,0-.5.09,1.18,1.18,0,0,0-.37.25,1.2,1.2,0,0,0-.25.38,1.64,1.64,0,0,0-.11.48h2.3Zm3.76-.9h0l-0.17,0h-0.22a1.44,1.44,0,0,0-.59.13,1.91,1.91,0,0,0-.55.38v3.08h-0.73V105.9h0.73v0.65a3.36,3.36,0,0,1,.7-0.5,1.31,1.31,0,0,1,.58-0.15h0.17l0.13,0v0.76Zm4-.79-1.64,4.34h-0.66l-1.62-4.34h0.79l1.19,3.35L202,105.9h0.76Zm2.88,3.88-0.24.18a1.65,1.65,0,0,1-.29.19,2.1,2.1,0,0,1-.37.15,1.81,1.81,0,0,1-.51.05,1.31,1.31,0,0,1-.51-0.1,1.29,1.29,0,0,1-.42-0.28,1.33,1.33,0,0,1-.28-0.44,1.48,1.48,0,0,1-.11-0.56,1.46,1.46,0,0,1,.19-0.77,1.29,1.29,0,0,1,.6-0.5,3,3,0,0,1,.86-0.23c0.33,0,.69-0.07,1.07-0.1v-0.14a1,1,0,0,0-.08-0.41,0.6,0.6,0,0,0-.22-0.24,0.87,0.87,0,0,0-.34-0.12,2.85,2.85,0,0,0-.42,0,2.8,2.8,0,0,0-.6.08,3.93,3.93,0,0,0-.68.22h0V106c0.13,0,.33-0.08.58-0.13a4.07,4.07,0,0,1,.75-0.07,3.44,3.44,0,0,1,.76.07,1.48,1.48,0,0,1,.55.25,1.1,1.1,0,0,1,.35.46,1.79,1.79,0,0,1,.12.69v3h-0.73v-0.46Zm0-.61V108L205,108a3.58,3.58,0,0,0-.64.11,1.16,1.16,0,0,0-.48.27,0.68,0.68,0,0,0-.19.51,0.72,0.72,0,0,0,.21.56,0.87,0.87,0,0,0,.61.19,1.3,1.3,0,0,0,.63-0.15A2.65,2.65,0,0,0,205.65,109.17Zm2.47,1.07h-0.73v-6h0.73v6Z" transform="translate(-2.08 -2.47)"/><line class="cls-2" x1="149.45" y1="24.45" x2="149" y2="124.77"/><line class="cls-2" x1="61.82" y1="67.28" x2="237.88" y2="67.28"/><line class="cls-2" x1="61.82" y1="24.45" x2="237.88" y2="24.45"/><line class="cls-2" x1="61.82" y1="124.88" x2="237.88" y2="124.88"/><line class="cls-2" x1="61.82" y1="24.45" x2="61.82" y2="124.77"/><line class="cls-2" x1="238.11" y1="24.51" x2="237.88" y2="124.77"/></svg>