<svg id="Ebene_1" data-name="Ebene 1" xmlns="http://www.w3.org/2000/svg" xmlns:xlink="http://www.w3.org/1999/xlink" viewBox="0 0 376.2 136.89"><defs><style>.cls-1,.cls-6{fill:none;}.cls-11,.cls-2,.cls-4{fill:#222221;}.cls-2{fill-rule:evenodd;}.cls-3{fill:#a3bcd9;}.cls-5{clip-path:url(#clip-path);}.cls-6{stroke:#222221;stroke-linejoin:round;stroke-width:0.21px;}.cls-7{fill:#f1f1f1;}.cls-8{fill:#d1dcec;}.cls-10,.cls-11,.cls-9{font-size:12px;font-family:Myriad Pro;}.cls-9{fill:#3c9947;}.cls-10{fill:#c73a1b;}</style><clipPath id="clip-path" transform="translate(-1.97 -2.77)"><rect class="cls-1" x="1.96" y="2.78" width="376.21" height="119.77"/></clipPath></defs><title>pvaluesNHSTcoin</title><polyline class="cls-2" points="70.07 7.08 70.07 2.87 70.64 2.87 72.85 6.17 72.85 2.87 73.38 2.87 73.38 7.08 72.81 7.08 70.6 3.77 70.6 7.08 70.07 7.08"/><path class="cls-2" d="M30.16,19.81H29.65V16.52a2.59,2.59,0,0,1-.5.36,3.34,3.34,0,0,1-.55.27v-0.5a2.89,2.89,0,0,0,.76-0.5,1.71,1.71,0,0,0,.46-0.56h0.33v4.22" transform="translate(-1.97 -2.77)"/><path class="cls-2" d="M42,19.31v0.5H39.17a0.89,0.89,0,0,1,.06-0.36,1.89,1.89,0,0,1,.34-0.56,4.57,4.57,0,0,1,.68-0.64,5.69,5.69,0,0,0,.92-0.89,1,1,0,0,0,.25-0.62,0.64,0.64,0,0,0-.22-0.51A0.77,0.77,0,0,0,40.63,16a0.81,0.81,0,0,0-.61.23,0.88,0.88,0,0,0-.23.63l-0.53-.07a1.32,1.32,0,0,1,.41-0.9,1.43,1.43,0,0,1,1-.31,1.33,1.33,0,0,1,1,.33,1.1,1.1,0,0,1,.36.83,1.26,1.26,0,0,1-.11.5,2,2,0,0,1-.34.51,9.44,9.44,0,0,1-.79.74q-0.46.39-.61,0.53a1.53,1.53,0,0,0-.21.27H42" transform="translate(-1.97 -2.77)"/><path class="cls-2" d="M50.28,18.71l0.53-.07a1.15,1.15,0,0,0,.3.63,0.72,0.72,0,0,0,.52.19,0.8,0.8,0,0,0,.61-0.25,0.85,0.85,0,0,0,.25-0.62A0.76,0.76,0,0,0,52.26,18a0.82,0.82,0,0,0-.59-0.24,1.55,1.55,0,0,0-.36.06l0.06-.45h0.08A1,1,0,0,0,52,17.21a0.61,0.61,0,0,0,.25-0.53,0.59,0.59,0,0,0-.19-0.46A0.64,0.64,0,0,0,51.59,16a0.67,0.67,0,0,0-.5.19,1,1,0,0,0-.25.57l-0.53-.1a1.31,1.31,0,0,1,.43-0.81,1.24,1.24,0,0,1,.83-0.28,1.41,1.41,0,0,1,.64.14,1.19,1.19,0,0,1,.44.4,1,1,0,0,1,.15.55,0.93,0.93,0,0,1-.14.5,1,1,0,0,1-.44.36,1,1,0,0,1,.81,1,1.22,1.22,0,0,1-.4.92,1.42,1.42,0,0,1-1,.38,1.32,1.32,0,0,1-.93-0.33,1.28,1.28,0,0,1-.41-0.84" transform="translate(-1.97 -2.77)"/><path class="cls-2" d="M63,19.81v-1H61.12V18.33l1.93-2.72h0.4v2.72H64V18.8H63.46v1H63m0-1.48V16.45l-1.32,1.88H63Z" transform="translate(-1.97 -2.77)"/><rect class="cls-3" x="66.23" y="10.07" width="11.02" height="9.96"/><path class="cls-2" d="M72.32,18.71l0.53,0a0.93,0.93,0,0,0,.27.58,0.76,0.76,0,0,0,.53.2,0.83,0.83,0,0,0,.64-0.29,1.09,1.09,0,0,0,.25-0.75,1,1,0,0,0-.24-0.69,0.84,0.84,0,0,0-.65-0.26,0.83,0.83,0,0,0-.45.12,0.85,0.85,0,0,0-.31.31l-0.49-.07,0.4-2.16H74.9v0.5H73.24L73,17.28A1.33,1.33,0,0,1,73.81,17a1.25,1.25,0,0,1,.91.38,1.36,1.36,0,0,1,.38,1,1.5,1.5,0,0,1-.33,1,1.47,1.47,0,0,1-2,.19,1.23,1.23,0,0,1-.42-0.86" transform="translate(-1.97 -2.77)"/><path class="cls-2" d="M86,16.64l-0.51,0a0.89,0.89,0,0,0-.2-0.44A0.67,0.67,0,0,0,84.81,16a0.75,0.75,0,0,0-.45.14,1.24,1.24,0,0,0-.38.51,2.64,2.64,0,0,0-.14,1,1.06,1.06,0,0,1,.45-0.42,1.27,1.27,0,0,1,.57-0.14,1.18,1.18,0,0,1,.88.38,1.33,1.33,0,0,1,.37,1,1.67,1.67,0,0,1-.17.74,1.27,1.27,0,0,1-.48.52,1.4,1.4,0,0,1-1.73-.3,2.37,2.37,0,0,1-.4-1.56,2.81,2.81,0,0,1,.45-1.77,1.3,1.3,0,0,1,1.06-.49,1.12,1.12,0,0,1,1.2,1m-2.11,1.8A1.12,1.12,0,0,0,84,19a0.8,0.8,0,0,0,.31.37,0.79,0.79,0,0,0,.43.13,0.72,0.72,0,0,0,.57-0.26,1,1,0,0,0,.22-0.71,1,1,0,0,0-.22-0.69,0.78,0.78,0,0,0-.59-0.25,0.82,0.82,0,0,0-.59.25A0.92,0.92,0,0,0,83.92,18.45Z" transform="translate(-1.97 -2.77)"/><path class="cls-2" d="M94.4,16.17v-0.5h2.72v0.4a5.68,5.68,0,0,0-.79,1.13,7.13,7.13,0,0,0-.61,1.46,4.85,4.85,0,0,0-.2,1.15H95a5.12,5.12,0,0,1,.19-1.2,6.66,6.66,0,0,1,.55-1.35,5.61,5.61,0,0,1,.74-1.09H94.4" transform="translate(-1.97 -2.77)"/><path class="cls-2" d="M106.19,17.53a0.94,0.94,0,0,1-.49-0.33,0.85,0.85,0,0,1-.15-0.52,1,1,0,0,1,.33-0.77,1.4,1.4,0,0,1,1.77,0,1,1,0,0,1,.33.77,0.82,0.82,0,0,1-.15.51,1,1,0,0,1-.46.33,1.12,1.12,0,0,1,.58.42,1.1,1.1,0,0,1,.2.66,1.21,1.21,0,0,1-.38.9,1.55,1.55,0,0,1-2,0,1.24,1.24,0,0,1-.38-0.91,1.11,1.11,0,0,1,.21-0.69,1.06,1.06,0,0,1,.59-0.38m-0.11-.87a0.64,0.64,0,0,0,.19.49,0.64,0.64,0,0,0,.5.19,0.63,0.63,0,0,0,.49-0.19,0.59,0.59,0,0,0,.19-0.46,0.65,0.65,0,0,0-.19-0.47,0.66,0.66,0,0,0-.49-0.19,0.67,0.67,0,0,0-.5.19A0.6,0.6,0,0,0,106.08,16.67Zm-0.17,1.94A1.12,1.12,0,0,0,106,19a0.78,0.78,0,0,0,.31.31,0.88,0.88,0,0,0,.45.12,0.81,0.81,0,0,0,.84-0.84,0.82,0.82,0,0,0-.87-0.85,0.81,0.81,0,0,0-.59.24A0.86,0.86,0,0,0,105.92,18.6Z" transform="translate(-1.97 -2.77)"/><rect class="cls-4" x="114.46" y="16.05" width="0.4" height="0.4"/><rect class="cls-4" x="115.61" y="16.05" width="0.4" height="0.4"/><rect class="cls-4" x="116.78" y="16.05" width="0.4" height="0.4"/><path class="cls-2" d="M6.22,74.63V74.21L8.15,72a5.52,5.52,0,0,1-.58,0H6.34V71.57H8.82v0.32L7.16,73.84l-0.32.38a6.21,6.21,0,0,1,.65,0H8.91v0.44H6.22" transform="translate(-1.97 -2.77)"/><path class="cls-2" d="M17.22,27.71a3.8,3.8,0,0,1,.15-1.21,1.58,1.58,0,0,1,.46-0.7,1.21,1.21,0,0,1,.76-0.24,1.33,1.33,0,0,1,.59.13,1.14,1.14,0,0,1,.43.39,2.2,2.2,0,0,1,.26.63,4.44,4.44,0,0,1,.1,1,3.64,3.64,0,0,1-.15,1.19,1.36,1.36,0,0,1-.45.7,1.31,1.31,0,0,1-1.73-.18,2.83,2.83,0,0,1-.42-1.71m0.53,0A2.7,2.7,0,0,0,18,29.08a0.7,0.7,0,0,0,1.21,0,2.7,2.7,0,0,0,.24-1.38,2.67,2.67,0,0,0-.24-1.36A0.74,0.74,0,0,0,18.59,26a0.66,0.66,0,0,0-.58.3A2.69,2.69,0,0,0,17.75,27.7Z" transform="translate(-1.97 -2.77)"/><rect class="cls-3" x="66.23" y="20.03" width="11.02" height="9.96"/><rect class="cls-4" x="114.46" y="26.02" width="0.4" height="0.4"/><rect class="cls-4" x="115.61" y="26.02" width="0.4" height="0.4"/><rect class="cls-4" x="116.78" y="26.02" width="0.4" height="0.4"/><path class="cls-2" d="M19.15,39.74H18.64V36.45a2.55,2.55,0,0,1-.5.36,3.34,3.34,0,0,1-.55.27v-0.5a2.89,2.89,0,0,0,.76-0.5,1.71,1.71,0,0,0,.46-0.56h0.33v4.21" transform="translate(-1.97 -2.77)"/><rect class="cls-3" x="66.23" y="29.99" width="11.02" height="9.96"/><rect class="cls-4" x="114.46" y="35.98" width="0.4" height="0.4"/><rect class="cls-4" x="115.61" y="35.98" width="0.4" height="0.4"/><rect class="cls-4" x="116.78" y="35.98" width="0.4" height="0.4"/><path class="cls-2" d="M19.92,49.2v0.5H17.13a0.89,0.89,0,0,1,.06-0.36,1.85,1.85,0,0,1,.34-0.56,4.52,4.52,0,0,1,.68-0.64,5.69,5.69,0,0,0,.92-0.89,1,1,0,0,0,.25-0.62,0.64,0.64,0,0,0-.22-0.51,0.77,0.77,0,0,0-.57-0.21,0.81,0.81,0,0,0-.61.23,0.88,0.88,0,0,0-.23.63l-0.53-.07a1.32,1.32,0,0,1,.41-0.9,1.44,1.44,0,0,1,1-.31,1.33,1.33,0,0,1,1,.33,1.1,1.1,0,0,1,.36.83,1.26,1.26,0,0,1-.11.5,1.93,1.93,0,0,1-.34.51,9.28,9.28,0,0,1-.79.74c-0.31.26-.51,0.44-0.61,0.53a1.57,1.57,0,0,0-.21.27h2.07" transform="translate(-1.97 -2.77)"/><rect class="cls-4" x="26.84" y="45.15" width="1.6" height="0.52"/><rect class="cls-3" x="66.23" y="39.96" width="11.02" height="9.95"/><rect class="cls-4" x="114.46" y="45.94" width="0.4" height="0.4"/><rect class="cls-4" x="115.61" y="45.94" width="0.4" height="0.4"/><rect class="cls-4" x="116.78" y="45.94" width="0.4" height="0.4"/><path class="cls-2" d="M17.22,58.56l0.53-.07a1.15,1.15,0,0,0,.3.63,0.73,0.73,0,0,0,.52.19,0.81,0.81,0,0,0,.6-0.25,0.85,0.85,0,0,0,.25-0.62,0.76,0.76,0,0,0-.22-0.58,0.82,0.82,0,0,0-.59-0.24,1.6,1.6,0,0,0-.36.06l0.06-.45h0.08A1,1,0,0,0,19,57.06a0.61,0.61,0,0,0,.25-0.53A0.59,0.59,0,0,0,19,56.07a0.64,0.64,0,0,0-.49-0.19,0.67,0.67,0,0,0-.5.19,1,1,0,0,0-.25.57l-0.53-.1a1.3,1.3,0,0,1,.43-0.81,1.24,1.24,0,0,1,.83-0.28,1.43,1.43,0,0,1,.64.14,1.23,1.23,0,0,1,.44.4,1,1,0,0,1,.15.55,0.9,0.9,0,0,1-.58.86,1,1,0,0,1,.81,1,1.22,1.22,0,0,1-.4.93,1.42,1.42,0,0,1-1,.38,1.32,1.32,0,0,1-.93-0.33,1.27,1.27,0,0,1-.42-0.84" transform="translate(-1.97 -2.77)"/><rect class="cls-4" x="26.84" y="55.11" width="1.6" height="0.52"/><rect class="cls-4" x="37.87" y="55.11" width="1.6" height="0.52"/><rect class="cls-3" x="66.23" y="49.91" width="11.02" height="9.96"/><rect class="cls-4" x="114.46" y="55.9" width="0.4" height="0.4"/><rect class="cls-4" x="115.61" y="55.9" width="0.4" height="0.4"/><rect class="cls-4" x="116.78" y="55.9" width="0.4" height="0.4"/><path class="cls-2" d="M18.87,69.63v-1H17V68.14L19,65.42h0.4v2.72h0.57v0.48H19.38v1H18.87m0-1.48V66.27l-1.32,1.88h1.32Z" transform="translate(-1.97 -2.77)"/><rect class="cls-4" x="26.84" y="65.07" width="1.6" height="0.52"/><rect class="cls-4" x="37.87" y="65.07" width="1.6" height="0.52"/><rect class="cls-4" x="48.89" y="65.07" width="1.6" height="0.52"/><rect class="cls-3" x="66.23" y="59.87" width="11.02" height="9.96"/><rect class="cls-4" x="114.46" y="65.87" width="0.4" height="0.4"/><rect class="cls-4" x="115.61" y="65.87" width="0.4" height="0.4"/><rect class="cls-4" x="116.78" y="65.87" width="0.4" height="0.4"/><path class="cls-2" d="M17.22,78.48l0.53,0A0.93,0.93,0,0,0,18,79a0.76,0.76,0,0,0,.53.2,0.83,0.83,0,0,0,.64-0.29,1.09,1.09,0,0,0,.25-0.75,1,1,0,0,0-.24-0.69,0.84,0.84,0,0,0-.65-0.26,0.83,0.83,0,0,0-.45.12,0.86,0.86,0,0,0-.31.31l-0.49-.07,0.4-2.16h2.08v0.5H18.13l-0.22,1.12a1.33,1.33,0,0,1,.79-0.26,1.25,1.25,0,0,1,.91.38,1.37,1.37,0,0,1,.38,1,1.5,1.5,0,0,1-.33,1,1.31,1.31,0,0,1-1.1.51,1.33,1.33,0,0,1-.93-0.32,1.23,1.23,0,0,1-.42-0.86" transform="translate(-1.97 -2.77)"/><rect class="cls-4" x="26.84" y="75.03" width="1.6" height="0.52"/><rect class="cls-4" x="37.87" y="75.03" width="1.6" height="0.52"/><rect class="cls-4" x="48.89" y="75.03" width="1.6" height="0.52"/><rect class="cls-4" x="59.91" y="75.03" width="1.6" height="0.52"/><rect class="cls-3" x="66.23" y="69.83" width="11.02" height="9.96"/><rect class="cls-4" x="114.46" y="75.83" width="0.4" height="0.4"/><rect class="cls-4" x="115.61" y="75.83" width="0.4" height="0.4"/><rect class="cls-4" x="116.78" y="75.83" width="0.4" height="0.4"/><path class="cls-2" d="M19.9,86.38l-0.51,0a0.89,0.89,0,0,0-.2-0.44,0.67,0.67,0,0,0-.51-0.21,0.75,0.75,0,0,0-.45.14,1.22,1.22,0,0,0-.38.51,2.62,2.62,0,0,0-.14,1A1.08,1.08,0,0,1,18.16,87a1.27,1.27,0,0,1,.57-0.14,1.18,1.18,0,0,1,.88.38,1.33,1.33,0,0,1,.37,1,1.67,1.67,0,0,1-.17.74,1.26,1.26,0,0,1-.47.52,1.31,1.31,0,0,1-.68.18,1.32,1.32,0,0,1-1.06-.47,2.37,2.37,0,0,1-.4-1.55,2.8,2.8,0,0,1,.45-1.77,1.3,1.3,0,0,1,1.06-.49,1.12,1.12,0,0,1,1.2,1m-2.11,1.8a1.11,1.11,0,0,0,.12.51,0.82,0.82,0,0,0,.74.5,0.72,0.72,0,0,0,.57-0.26,1.05,1.05,0,0,0,.23-0.71,1,1,0,0,0-.23-0.69,0.78,0.78,0,0,0-.59-0.25,0.82,0.82,0,0,0-.59.25A0.92,0.92,0,0,0,17.79,88.19Z" transform="translate(-1.97 -2.77)"/><rect class="cls-4" x="26.84" y="85" width="1.6" height="0.52"/><rect class="cls-4" x="37.87" y="85" width="1.6" height="0.52"/><rect class="cls-4" x="48.89" y="85" width="1.6" height="0.52"/><rect class="cls-4" x="59.91" y="85" width="1.6" height="0.52"/><rect class="cls-3" x="66.23" y="79.8" width="11.02" height="9.96"/><rect class="cls-4" x="70.94" y="85" width="1.6" height="0.52"/><rect class="cls-4" x="114.46" y="85.79" width="0.4" height="0.4"/><rect class="cls-4" x="115.61" y="85.79" width="0.4" height="0.4"/><rect class="cls-4" x="116.78" y="85.79" width="0.4" height="0.4"/><path class="cls-2" d="M17.24,95.87v-0.5H20v0.4a5.62,5.62,0,0,0-.79,1.13,7,7,0,0,0-.61,1.46,4.86,4.86,0,0,0-.2,1.15H17.82a5.18,5.18,0,0,1,.19-1.2A6.63,6.63,0,0,1,18.56,97a5.65,5.65,0,0,1,.74-1.09H17.24" transform="translate(-1.97 -2.77)"/><rect class="cls-4" x="26.84" y="94.96" width="1.6" height="0.52"/><rect class="cls-4" x="37.87" y="94.96" width="1.6" height="0.52"/><rect class="cls-4" x="48.89" y="94.96" width="1.6" height="0.52"/><rect class="cls-4" x="59.91" y="94.96" width="1.6" height="0.52"/><rect class="cls-3" x="66.23" y="89.76" width="11.02" height="9.96"/><rect class="cls-4" x="70.94" y="94.96" width="1.6" height="0.52"/><rect class="cls-4" x="81.96" y="94.96" width="1.6" height="0.52"/><rect class="cls-4" x="114.46" y="95.76" width="0.4" height="0.4"/><rect class="cls-4" x="115.61" y="95.76" width="0.4" height="0.4"/><rect class="cls-4" x="116.78" y="95.76" width="0.4" height="0.4"/><path class="cls-2" d="M18,107.19a1,1,0,0,1-.49-0.33,0.86,0.86,0,0,1-.15-0.52,1,1,0,0,1,.33-0.77,1.4,1.4,0,0,1,1.77,0,1,1,0,0,1,.33.77,0.82,0.82,0,0,1-.15.51,1,1,0,0,1-.46.33,1.12,1.12,0,0,1,.58.42,1.1,1.1,0,0,1,.2.67,1.21,1.21,0,0,1-.38.9,1.55,1.55,0,0,1-2,0,1.23,1.23,0,0,1-.38-0.91,1.1,1.1,0,0,1,.21-0.69,1.06,1.06,0,0,1,.59-0.38m-0.11-.87a0.64,0.64,0,0,0,.19.49,0.64,0.64,0,0,0,.5.19,0.63,0.63,0,0,0,.49-0.19,0.6,0.6,0,0,0,.19-0.46,0.65,0.65,0,0,0-.68-0.67,0.67,0.67,0,0,0-.5.19A0.6,0.6,0,0,0,17.91,106.32Zm-0.17,1.94a1.12,1.12,0,0,0,.09.43,0.77,0.77,0,0,0,.31.31,0.89,0.89,0,0,0,.45.12,0.81,0.81,0,0,0,.84-0.84,0.82,0.82,0,0,0-.87-0.86,0.81,0.81,0,0,0-.59.24A0.86,0.86,0,0,0,17.74,108.26Z" transform="translate(-1.97 -2.77)"/><rect class="cls-4" x="26.84" y="104.91" width="1.6" height="0.52"/><rect class="cls-4" x="37.87" y="104.91" width="1.6" height="0.52"/><rect class="cls-4" x="48.89" y="104.91" width="1.6" height="0.52"/><rect class="cls-4" x="59.91" y="104.91" width="1.6" height="0.52"/><rect class="cls-3" x="66.23" y="99.72" width="11.02" height="9.96"/><rect class="cls-4" x="70.94" y="104.91" width="1.6" height="0.52"/><rect class="cls-4" x="81.96" y="104.91" width="1.6" height="0.52"/><rect class="cls-4" x="92.98" y="104.91" width="1.6" height="0.52"/><rect class="cls-4" x="114.46" y="105.71" width="0.4" height="0.4"/><rect class="cls-4" x="115.61" y="105.71" width="0.4" height="0.4"/><rect class="cls-4" x="116.78" y="105.71" width="0.4" height="0.4"/><rect class="cls-4" x="15.27" y="115.68" width="0.4" height="0.4"/><rect class="cls-4" x="16.42" y="115.68" width="0.4" height="0.4"/><rect class="cls-4" x="17.59" y="115.68" width="0.4" height="0.4"/><rect class="cls-4" x="26.84" y="114.88" width="1.6" height="0.52"/><rect class="cls-4" x="37.87" y="114.88" width="1.6" height="0.52"/><rect class="cls-4" x="48.89" y="114.88" width="1.6" height="0.52"/><rect class="cls-4" x="59.91" y="114.88" width="1.6" height="0.52"/><rect class="cls-3" x="66.23" y="109.68" width="11.02" height="9.99"/><rect class="cls-4" x="70.94" y="114.88" width="1.6" height="0.52"/><rect class="cls-4" x="81.96" y="114.88" width="1.6" height="0.52"/><rect class="cls-4" x="92.98" y="114.88" width="1.6" height="0.52"/><rect class="cls-4" x="104.01" y="114.88" width="1.6" height="0.52"/><rect class="cls-4" x="114.46" y="115.68" width="0.4" height="0.4"/><rect class="cls-4" x="115.61" y="115.68" width="0.4" height="0.4"/><rect class="cls-4" x="116.78" y="115.68" width="0.4" height="0.4"/><g class="cls-5"><line class="cls-6" x1="55.2" y1="69.84" x2="55.2" y2="79.81"/><polyline class="cls-6" points="44.18 69.84 55.2 69.84 55.2 79.81"/><line class="cls-6" x1="44.18" y1="69.84" x2="44.18" y2="79.81"/><polyline class="cls-6" points="33.15 69.84 44.18 69.84 44.18 79.81"/><line class="cls-6" x1="33.15" y1="69.84" x2="33.15" y2="79.81"/><polyline class="cls-6" points="22.13 69.84 33.15 69.84 33.15 79.81"/><line class="cls-6" x1="22.13" y1="69.84" x2="22.13" y2="79.81"/><polyline class="cls-6" points="11.12 69.84 22.13 69.84 22.13 79.81"/><line class="cls-6" x1="11.12" y1="69.84" x2="11.12" y2="79.81"/><polyline class="cls-6" points="110.32 59.88 121.33 59.88 121.33 69.84"/><line class="cls-6" x1="110.32" y1="59.88" x2="110.32" y2="69.84"/><polyline class="cls-6" points="99.3 59.88 110.32 59.88 110.32 69.84"/><line class="cls-6" x1="99.3" y1="59.88" x2="99.3" y2="69.84"/><polyline class="cls-6" points="88.27 59.88 99.3 59.88 99.3 69.84"/><line class="cls-6" x1="88.27" y1="59.88" x2="88.27" y2="69.84"/><polyline class="cls-6" points="77.25 59.88 88.27 59.88 88.27 69.84"/><line class="cls-6" x1="77.25" y1="59.88" x2="77.25" y2="69.84"/><polyline class="cls-6" points="66.23 59.88 77.25 59.88 77.25 69.84"/><line class="cls-6" x1="66.23" y1="59.88" x2="66.23" y2="69.84"/><polyline class="cls-6" points="55.2 59.88 66.23 59.88 66.23 69.84"/><line class="cls-6" x1="55.2" y1="59.88" x2="55.2" y2="69.84"/><polyline class="cls-6" points="44.18 59.88 55.2 59.88 55.2 69.84"/><line class="cls-6" x1="44.18" y1="59.88" x2="44.18" y2="69.84"/><polyline class="cls-6" points="33.16 59.88 44.18 59.88 44.18 69.84"/><line class="cls-6" x1="33.16" y1="59.88" x2="33.16" y2="69.84"/><polyline class="cls-6" points="22.13 59.88 33.16 59.88 33.16 69.84"/><line class="cls-6" x1="22.13" y1="59.88" x2="22.13" y2="69.84"/><polyline class="cls-6" points="11.12 59.88 22.13 59.88 22.13 69.84"/><line class="cls-6" x1="11.12" y1="59.88" x2="11.12" y2="69.84"/><polyline class="cls-6" points="110.32 49.92 121.33 49.92 121.33 59.88"/><line class="cls-6" x1="110.32" y1="49.92" x2="110.32" y2="59.88"/><polyline class="cls-6" points="99.3 49.92 110.32 49.92 110.32 59.88"/><line class="cls-6" x1="99.3" y1="49.92" x2="99.3" y2="59.88"/><polyline class="cls-6" points="88.28 49.92 99.3 49.92 99.3 59.88"/><line class="cls-6" x1="88.28" y1="49.92" x2="88.28" y2="59.88"/><polyline class="cls-6" points="77.25 49.92 88.28 49.92 88.28 59.88"/><line class="cls-6" x1="77.25" y1="49.92" x2="77.25" y2="59.88"/><polyline class="cls-6" points="66.23 49.92 77.25 49.92 77.25 59.88"/><line class="cls-6" x1="66.23" y1="49.92" x2="66.23" y2="59.88"/><polyline class="cls-6" points="55.21 49.92 66.23 49.92 66.23 59.88"/><line class="cls-6" x1="55.21" y1="49.92" x2="55.21" y2="59.88"/><polyline class="cls-6" points="44.18 49.92 55.21 49.92 55.21 59.88"/><line class="cls-6" x1="44.18" y1="49.92" x2="44.18" y2="59.88"/><polyline class="cls-6" points="33.16 49.92 44.18 49.92 44.18 59.88"/><line class="cls-6" x1="33.16" y1="49.92" x2="33.16" y2="59.88"/><polyline class="cls-6" points="22.13 49.92 33.16 49.92 33.16 59.88"/><line class="cls-6" x1="22.13" y1="49.92" x2="22.13" y2="59.88"/><polyline class="cls-6" points="11.12 49.92 22.13 49.92 22.13 59.88"/><line class="cls-6" x1="11.12" y1="49.92" x2="11.12" y2="59.88"/><polyline class="cls-6" points="110.33 39.96 121.34 39.96 121.34 49.92"/><line class="cls-6" x1="110.33" y1="39.96" x2="110.33" y2="49.92"/><polyline class="cls-6" points="99.3 39.96 110.33 39.96 110.33 49.92"/><line class="cls-6" x1="99.3" y1="39.96" x2="99.3" y2="49.92"/><polyline class="cls-6" points="88.28 39.96 99.3 39.96 99.3 49.92"/><line class="cls-6" x1="88.28" y1="39.96" x2="88.28" y2="49.92"/><polyline class="cls-6" points="77.25 39.96 88.28 39.96 88.28 49.92"/><line class="cls-6" x1="77.25" y1="39.96" x2="77.25" y2="49.92"/><polyline class="cls-6" points="66.23 39.96 77.25 39.96 77.25 49.92"/><line class="cls-6" x1="66.23" y1="39.96" x2="66.23" y2="49.92"/><polyline class="cls-6" points="55.21 39.96 66.23 39.96 66.23 49.92"/><line class="cls-6" x1="55.21" y1="39.96" x2="55.21" y2="49.92"/><polyline class="cls-6" points="44.19 39.96 55.21 39.96 55.21 49.92"/><line class="cls-6" x1="44.18" y1="39.96" x2="44.18" y2="49.92"/><polyline class="cls-6" points="33.16 39.96 44.18 39.96 44.18 49.92"/><line class="cls-6" x1="33.16" y1="39.96" x2="33.16" y2="49.92"/><polyline class="cls-6" points="22.14 39.96 33.16 39.96 33.16 49.92"/><line class="cls-6" x1="22.14" y1="39.96" x2="22.14" y2="49.92"/><polyline class="cls-6" points="11.12 39.96 22.14 39.96 22.14 49.92"/><line class="cls-6" x1="11.12" y1="39.96" x2="11.12" y2="49.92"/><polyline class="cls-6" points="110.33 29.99 121.34 29.99 121.34 39.96"/><line class="cls-6" x1="110.33" y1="29.99" x2="110.33" y2="39.96"/><polyline class="cls-6" points="99.3 29.99 110.33 29.99 110.33 39.96"/><line class="cls-6" x1="99.3" y1="29.99" x2="99.3" y2="39.96"/><polyline class="cls-6" points="88.28 29.99 99.3 29.99 99.3 39.96"/><line class="cls-6" x1="88.28" y1="29.99" x2="88.28" y2="39.96"/><polyline class="cls-6" points="77.26 29.99 88.28 29.99 88.28 39.96"/><line class="cls-6" x1="77.26" y1="29.99" x2="77.26" y2="39.96"/><polyline class="cls-6" points="66.23 29.99 77.26 29.99 77.26 39.96"/><line class="cls-6" x1="66.23" y1="29.99" x2="66.23" y2="39.96"/><polyline class="cls-6" points="55.21 29.99 66.23 29.99 66.23 39.96"/><line class="cls-6" x1="55.21" y1="29.99" x2="55.21" y2="39.96"/><polyline class="cls-6" points="44.19 29.99 55.21 29.99 55.21 39.96"/><line class="cls-6" x1="44.19" y1="29.99" x2="44.19" y2="39.96"/><polyline class="cls-6" points="33.16 29.99 44.19 29.99 44.19 39.96"/><line class="cls-6" x1="33.16" y1="29.99" x2="33.16" y2="39.96"/><polyline class="cls-6" points="22.14 29.99 33.16 29.99 33.16 39.96"/><line class="cls-6" x1="22.14" y1="29.99" x2="22.14" y2="39.96"/><polyline class="cls-6" points="11.13 29.99 22.14 29.99 22.14 39.96"/><line class="cls-6" x1="11.13" y1="29.99" x2="11.13" y2="39.96"/><polyline class="cls-6" points="110.33 20.03 121.34 20.03 121.34 29.99"/><line class="cls-6" x1="110.33" y1="20.03" x2="110.33" y2="29.99"/><polyline class="cls-6" points="99.31 20.03 110.33 20.03 110.33 29.99"/><line class="cls-6" x1="99.31" y1="20.03" x2="99.31" y2="29.99"/><polyline class="cls-6" points="88.28 20.03 99.31 20.03 99.31 29.99"/><line class="cls-6" x1="88.28" y1="20.03" x2="88.28" y2="29.99"/><polyline class="cls-6" points="77.26 20.03 88.28 20.03 88.28 29.99"/><line class="cls-6" x1="77.26" y1="20.03" x2="77.26" y2="29.99"/><polyline class="cls-6" points="66.23 20.03 77.26 20.03 77.26 29.99"/><line class="cls-6" x1="66.24" y1="20.03" x2="66.24" y2="29.99"/><polyline class="cls-6" points="55.21 20.03 66.23 20.03 66.23 29.99"/><line class="cls-6" x1="55.21" y1="20.03" x2="55.21" y2="29.99"/><polyline class="cls-6" points="44.19 20.03 55.21 20.03 55.21 29.99"/><line class="cls-6" x1="44.19" y1="20.03" x2="44.19" y2="29.99"/><polyline class="cls-6" points="33.16 20.03 44.19 20.03 44.19 29.99"/><line class="cls-6" x1="33.16" y1="20.03" x2="33.16" y2="29.99"/><polyline class="cls-6" points="22.14 20.03 33.16 20.03 33.16 29.99"/><line class="cls-6" x1="22.14" y1="20.03" x2="22.14" y2="29.99"/><polyline class="cls-6" points="11.13 20.03 22.14 20.03 22.14 29.99"/><line class="cls-6" x1="11.13" y1="20.03" x2="11.13" y2="29.99"/><polyline class="cls-6" points="0.1 20.03 11.13 20.03 11.13 119.67"/><line class="cls-6" x1="0.1" y1="119.67" x2="11.13" y2="119.67"/><line class="cls-6" x1="0.1" y1="20.03" x2="0.1" y2="119.67"/><polyline class="cls-6" points="110.33 10.07 121.34 10.07 121.34 20.03"/><line class="cls-6" x1="110.33" y1="10.07" x2="110.33" y2="20.03"/><polyline class="cls-6" points="99.31 10.07 110.33 10.07 110.33 20.03"/><line class="cls-6" x1="99.31" y1="10.07" x2="99.31" y2="20.03"/><polyline class="cls-6" points="88.28 10.07 99.31 10.07 99.31 20.03"/><line class="cls-6" x1="88.28" y1="10.07" x2="88.28" y2="20.03"/><polyline class="cls-6" points="77.26 10.07 88.28 10.07 88.28 20.03"/><line class="cls-6" x1="77.26" y1="10.07" x2="77.26" y2="20.03"/><polyline class="cls-6" points="66.24 10.07 77.26 10.07 77.26 20.03"/><line class="cls-6" x1="66.24" y1="10.07" x2="66.24" y2="20.03"/><polyline class="cls-6" points="55.22 10.07 66.24 10.07 66.24 20.03"/><line class="cls-6" x1="55.21" y1="10.07" x2="55.21" y2="20.03"/><polyline class="cls-6" points="44.19 10.07 55.21 10.07 55.21 20.03"/><line class="cls-6" x1="44.19" y1="10.07" x2="44.19" y2="20.03"/><polyline class="cls-6" points="33.17 10.07 44.19 10.07 44.19 20.03"/><line class="cls-6" x1="33.17" y1="10.07" x2="33.17" y2="20.03"/><polyline class="cls-6" points="22.14 10.07 33.17 10.07 33.17 20.03"/><line class="cls-6" x1="22.14" y1="10.07" x2="22.14" y2="20.03"/><polyline class="cls-6" points="22.14 0.1 121.34 0.1 121.34 10.07"/><line class="cls-6" x1="22.14" y1="0.1" x2="22.14" y2="10.07"/><polyline class="cls-6" points="0.11 0.1 22.14 0.1 22.14 20.03"/><line class="cls-6" x1="0.11" y1="0.1" x2="0.11" y2="20.03"/></g><polyline class="cls-6" points="110.32 109.69 121.33 109.69 121.33 119.67"/><line class="cls-6" x1="110.32" y1="119.67" x2="121.33" y2="119.67"/><line class="cls-6" x1="110.32" y1="109.68" x2="110.32" y2="119.67"/><polyline class="cls-6" points="99.3 109.69 110.32 109.69 110.32 119.67"/><line class="cls-6" x1="99.3" y1="119.67" x2="110.32" y2="119.67"/><line class="cls-6" x1="99.3" y1="109.68" x2="99.3" y2="119.67"/><polyline class="cls-6" points="88.27 109.69 99.3 109.69 99.3 119.67"/><line class="cls-6" x1="88.27" y1="119.67" x2="99.3" y2="119.67"/><line class="cls-6" x1="88.27" y1="109.68" x2="88.27" y2="119.67"/><polyline class="cls-6" points="77.25 109.69 88.27 109.69 88.27 119.67"/><line class="cls-6" x1="77.25" y1="119.67" x2="88.27" y2="119.67"/><line class="cls-6" x1="77.25" y1="109.68" x2="77.25" y2="119.67"/><polyline class="cls-6" points="66.23 109.69 77.25 109.69 77.25 119.67"/><line class="cls-6" x1="66.23" y1="119.67" x2="77.25" y2="119.67"/><line class="cls-6" x1="66.23" y1="109.68" x2="66.23" y2="119.67"/><polyline class="cls-6" points="55.2 109.69 66.23 109.69 66.23 119.67"/><line class="cls-6" x1="55.2" y1="119.67" x2="66.23" y2="119.67"/><line class="cls-6" x1="55.2" y1="109.68" x2="55.2" y2="119.67"/><polyline class="cls-6" points="44.18 109.69 55.2 109.69 55.2 119.67"/><line class="cls-6" x1="44.18" y1="119.67" x2="55.2" y2="119.67"/><line class="cls-6" x1="44.18" y1="109.68" x2="44.18" y2="119.67"/><polyline class="cls-6" points="33.16 109.69 44.18 109.69 44.18 119.67"/><line class="cls-6" x1="33.16" y1="119.67" x2="44.18" y2="119.67"/><line class="cls-6" x1="33.16" y1="109.68" x2="33.16" y2="119.67"/><polyline class="cls-6" points="22.13 109.69 33.16 109.69 33.16 119.67"/><line class="cls-6" x1="22.13" y1="119.67" x2="33.16" y2="119.67"/><line class="cls-6" x1="22.13" y1="109.68" x2="22.13" y2="119.67"/><polyline class="cls-6" points="11.12 109.69 22.13 109.69 22.13 119.67"/><line class="cls-6" x1="11.12" y1="119.67" x2="22.13" y2="119.67"/><line class="cls-6" x1="11.12" y1="109.68" x2="11.12" y2="119.67"/><polyline class="cls-6" points="110.32 99.73 121.33 99.73 121.33 109.69"/><line class="cls-6" x1="110.32" y1="99.73" x2="110.32" y2="109.68"/><polyline class="cls-6" points="99.3 99.73 110.32 99.73 110.32 109.69"/><line class="cls-6" x1="99.3" y1="99.73" x2="99.3" y2="109.68"/><polyline class="cls-6" points="88.28 99.73 99.3 99.73 99.3 109.69"/><line class="cls-6" x1="88.28" y1="99.73" x2="88.28" y2="109.68"/><polyline class="cls-6" points="77.25 99.73 88.28 99.73 88.28 109.69"/><line class="cls-6" x1="77.25" y1="99.73" x2="77.25" y2="109.68"/><polyline class="cls-6" points="66.23 99.73 77.25 99.73 77.25 109.69"/><line class="cls-6" x1="66.23" y1="99.73" x2="66.23" y2="109.68"/><polyline class="cls-6" points="55.21 99.73 66.23 99.73 66.23 109.69"/><line class="cls-6" x1="55.21" y1="99.73" x2="55.21" y2="109.68"/><polyline class="cls-6" points="44.18 99.73 55.21 99.73 55.21 109.69"/><line class="cls-6" x1="44.18" y1="99.73" x2="44.18" y2="109.68"/><polyline class="cls-6" points="33.16 99.73 44.18 99.73 44.18 109.69"/><line class="cls-6" x1="33.16" y1="99.73" x2="33.16" y2="109.68"/><polyline class="cls-6" points="22.13 99.73 33.16 99.73 33.16 109.69"/><line class="cls-6" x1="22.13" y1="99.73" x2="22.13" y2="109.68"/><polyline class="cls-6" points="11.12 99.73 22.13 99.73 22.13 109.69"/><line class="cls-6" x1="11.12" y1="99.73" x2="11.12" y2="109.68"/><polyline class="cls-6" points="110.33 89.77 121.34 89.77 121.34 99.73"/><line class="cls-6" x1="110.33" y1="89.77" x2="110.33" y2="99.73"/><polyline class="cls-6" points="99.3 89.77 110.33 89.77 110.33 99.73"/><line class="cls-6" x1="99.3" y1="89.77" x2="99.3" y2="99.73"/><polyline class="cls-6" points="88.28 89.77 99.3 89.77 99.3 99.73"/><line class="cls-6" x1="88.28" y1="89.77" x2="88.28" y2="99.73"/><polyline class="cls-6" points="77.25 89.77 88.28 89.77 88.28 99.73"/><line class="cls-6" x1="77.25" y1="89.77" x2="77.25" y2="99.73"/><polyline class="cls-6" points="66.23 89.77 77.25 89.77 77.25 99.73"/><line class="cls-6" x1="66.23" y1="89.77" x2="66.23" y2="99.73"/><polyline class="cls-6" points="55.21 89.77 66.23 89.77 66.23 99.73"/><line class="cls-6" x1="55.21" y1="89.77" x2="55.21" y2="99.73"/><polyline class="cls-6" points="44.19 89.77 55.21 89.77 55.21 99.73"/><line class="cls-6" x1="44.18" y1="89.77" x2="44.18" y2="99.73"/><polyline class="cls-6" points="33.16 89.77 44.18 89.77 44.18 99.73"/><line class="cls-6" x1="33.16" y1="89.77" x2="33.16" y2="99.73"/><polyline class="cls-6" points="22.14 89.77 33.16 89.77 33.16 99.73"/><line class="cls-6" x1="22.14" y1="89.77" x2="22.14" y2="99.73"/><polyline class="cls-6" points="11.12 89.77 22.14 89.77 22.14 99.73"/><line class="cls-6" x1="11.12" y1="89.77" x2="11.12" y2="99.73"/><polyline class="cls-6" points="110.33 79.81 121.34 79.81 121.34 89.77"/><line class="cls-6" x1="110.33" y1="79.81" x2="110.33" y2="89.77"/><polyline class="cls-6" points="99.3 79.81 110.33 79.81 110.33 89.77"/><line class="cls-6" x1="99.3" y1="79.81" x2="99.3" y2="89.77"/><polyline class="cls-6" points="88.28 79.81 99.3 79.81 99.3 89.77"/><line class="cls-6" x1="88.28" y1="79.81" x2="88.28" y2="89.77"/><polyline class="cls-6" points="77.26 79.81 88.28 79.81 88.28 89.77"/><line class="cls-6" x1="77.26" y1="79.81" x2="77.26" y2="89.77"/><polyline class="cls-6" points="66.23 79.81 77.26 79.81 77.26 89.77"/><line class="cls-6" x1="66.23" y1="79.81" x2="66.23" y2="89.77"/><polyline class="cls-6" points="55.21 79.81 66.23 79.81 66.23 89.77"/><line class="cls-6" x1="55.21" y1="79.81" x2="55.21" y2="89.77"/><polyline class="cls-6" points="44.19 79.81 55.21 79.81 55.21 89.77"/><line class="cls-6" x1="44.19" y1="79.81" x2="44.19" y2="89.77"/><polyline class="cls-6" points="33.16 79.81 44.19 79.81 44.19 89.77"/><line class="cls-6" x1="33.16" y1="79.81" x2="33.16" y2="89.77"/><polyline class="cls-6" points="22.14 79.81 33.16 79.81 33.16 89.77"/><line class="cls-6" x1="22.14" y1="79.81" x2="22.14" y2="89.77"/><polyline class="cls-6" points="11.13 79.81 22.14 79.81 22.14 89.77"/><line class="cls-6" x1="11.13" y1="79.81" x2="11.13" y2="89.77"/><polyline class="cls-6" points="110.33 69.84 121.34 69.84 121.34 79.81"/><line class="cls-6" x1="110.33" y1="69.84" x2="110.33" y2="79.81"/><polyline class="cls-6" points="99.31 69.84 110.33 69.84 110.33 79.81"/><line class="cls-6" x1="99.31" y1="69.84" x2="99.31" y2="79.81"/><polyline class="cls-6" points="88.28 69.84 99.31 69.84 99.31 79.81"/><line class="cls-6" x1="88.28" y1="69.84" x2="88.28" y2="79.81"/><polyline class="cls-6" points="77.26 69.84 88.28 69.84 88.28 79.81"/><line class="cls-6" x1="77.26" y1="69.84" x2="77.26" y2="79.81"/><polyline class="cls-6" points="66.23 69.84 77.26 69.84 77.26 79.81"/><line class="cls-6" x1="66.24" y1="69.84" x2="66.24" y2="79.81"/><polyline class="cls-6" points="55.21 69.84 66.23 69.84 66.23 79.81"/><polyline class="cls-2" points="197.69 7.48 197.69 3.29 198.26 3.29 200.46 6.58 200.46 3.29 201 3.29 201 7.48 200.43 7.48 198.22 4.19 198.22 7.48 197.69 7.48"/><path class="cls-2" d="M157.8,20.19h-0.51V16.91a2.57,2.57,0,0,1-.5.35,3.38,3.38,0,0,1-.55.27V17a2.9,2.9,0,0,0,.76-0.5,1.69,1.69,0,0,0,.46-0.56h0.33v4.2" transform="translate(-1.97 -2.77)"/><path class="cls-2" d="M169.59,19.69v0.5H166.8a0.89,0.89,0,0,1,.06-0.35,1.88,1.88,0,0,1,.34-0.56,4.46,4.46,0,0,1,.68-0.64,5.63,5.63,0,0,0,.93-0.89,1,1,0,0,0,.25-0.62,0.64,0.64,0,0,0-.22-0.51,0.77,0.77,0,0,0-.57-0.21,0.81,0.81,0,0,0-.6.22,0.88,0.88,0,0,0-.23.63l-0.53-.07a1.31,1.31,0,0,1,.41-0.9,1.44,1.44,0,0,1,1-.31,1.34,1.34,0,0,1,1,.33,1.1,1.1,0,0,1,.36.83,1.24,1.24,0,0,1-.11.5,1.9,1.9,0,0,1-.34.51,9.18,9.18,0,0,1-.79.73c-0.31.26-.51,0.44-0.61,0.53a1.52,1.52,0,0,0-.21.27h2.07" transform="translate(-1.97 -2.77)"/><path class="cls-2" d="M177.91,19.09l0.53-.07a1.14,1.14,0,0,0,.3.63,0.72,0.72,0,0,0,.52.19,0.81,0.81,0,0,0,.6-0.25,0.84,0.84,0,0,0,.25-0.61,0.76,0.76,0,0,0-.23-0.58,0.82,0.82,0,0,0-.59-0.24,1.57,1.57,0,0,0-.35.06l0.06-.45h0.08a1,1,0,0,0,.57-0.17,0.61,0.61,0,0,0,.25-0.53,0.59,0.59,0,0,0-.19-0.46,0.64,0.64,0,0,0-.49-0.19,0.67,0.67,0,0,0-.5.19,1,1,0,0,0-.25.57l-0.53-.09a1.31,1.31,0,0,1,.43-0.8A1.24,1.24,0,0,1,179.2,16a1.41,1.41,0,0,1,.64.14,1.2,1.2,0,0,1,.44.4,1,1,0,0,1,.15.54,0.93,0.93,0,0,1-.14.5,0.94,0.94,0,0,1-.44.35,1,1,0,0,1,.81,1,1.21,1.21,0,0,1-.4.92,1.42,1.42,0,0,1-1,.38,1.32,1.32,0,0,1-.93-0.33,1.26,1.26,0,0,1-.41-0.84" transform="translate(-1.97 -2.77)"/><path class="cls-2" d="M190.57,20.19v-1h-1.83V18.71L190.68,16h0.4v2.71h0.57v0.47h-0.57v1h-0.51m0-1.48V16.84l-1.32,1.87h1.32Z" transform="translate(-1.97 -2.77)"/><path class="cls-2" d="M199.94,19.09l0.53,0a0.92,0.92,0,0,0,.27.58,0.77,0.77,0,0,0,.53.2,0.83,0.83,0,0,0,.64-0.28,1.09,1.09,0,0,0,.25-0.75,1,1,0,0,0-.24-0.69,0.84,0.84,0,0,0-.65-0.26,0.82,0.82,0,0,0-.45.12,0.85,0.85,0,0,0-.31.31L200,18.21l0.4-2.15h2.08v0.5h-1.66l-0.23,1.11a1.33,1.33,0,0,1,.79-0.26,1.25,1.25,0,0,1,.91.38,1.35,1.35,0,0,1,.38,1,1.5,1.5,0,0,1-.33,1,1.32,1.32,0,0,1-1.1.51,1.33,1.33,0,0,1-.93-0.32,1.23,1.23,0,0,1-.41-0.85" transform="translate(-1.97 -2.77)"/><path class="cls-2" d="M213.65,17l-0.51,0a0.88,0.88,0,0,0-.2-0.44,0.67,0.67,0,0,0-.51-0.21,0.76,0.76,0,0,0-.45.14,1.24,1.24,0,0,0-.38.51,2.62,2.62,0,0,0-.14,1,1.08,1.08,0,0,1,.45-0.41,1.26,1.26,0,0,1,.57-0.14,1.17,1.17,0,0,1,.88.38,1.32,1.32,0,0,1,.37,1,1.65,1.65,0,0,1-.17.73,1.26,1.26,0,0,1-.47.52,1.3,1.3,0,0,1-.68.18,1.32,1.32,0,0,1-1.06-.47,2.36,2.36,0,0,1-.4-1.55,2.78,2.78,0,0,1,.45-1.76,1.3,1.3,0,0,1,1.06-.49,1.24,1.24,0,0,1,.82.27,1.22,1.22,0,0,1,.38.77m-2.11,1.8a1.12,1.12,0,0,0,.12.51,0.82,0.82,0,0,0,.74.5,0.72,0.72,0,0,0,.57-0.26,1,1,0,0,0,.23-0.71,1,1,0,0,0-.23-0.69,0.78,0.78,0,0,0-.59-0.25,0.82,0.82,0,0,0-.59.25A0.92,0.92,0,0,0,211.53,18.83Z" transform="translate(-1.97 -2.77)"/><path class="cls-2" d="M222,16.55v-0.5h2.72v0.4a5.6,5.6,0,0,0-.8,1.12,7,7,0,0,0-.6,1.46,4.83,4.83,0,0,0-.2,1.15h-0.53a5.16,5.16,0,0,1,.19-1.2,6.54,6.54,0,0,1,.55-1.35,5.57,5.57,0,0,1,.74-1.09H222" transform="translate(-1.97 -2.77)"/><path class="cls-2" d="M233.81,17.91a0.93,0.93,0,0,1-.48-0.33,0.84,0.84,0,0,1-.15-0.52,1,1,0,0,1,.33-0.77,1.4,1.4,0,0,1,1.77,0,1,1,0,0,1,.33.77,0.82,0.82,0,0,1-.15.51,1,1,0,0,1-.46.33,1.13,1.13,0,0,1,.58.41,1.1,1.1,0,0,1,.2.66,1.2,1.2,0,0,1-.38.9,1.55,1.55,0,0,1-2,0A1.23,1.23,0,0,1,233,19a1.1,1.1,0,0,1,.21-0.69,1.06,1.06,0,0,1,.59-0.38m-0.1-.86a0.7,0.7,0,0,0,1.17.49,0.6,0.6,0,0,0,.19-0.46,0.66,0.66,0,0,0-.19-0.47,0.74,0.74,0,0,0-1,0A0.6,0.6,0,0,0,233.7,17.05ZM233.53,19a1.13,1.13,0,0,0,.09.43,0.78,0.78,0,0,0,.31.31,0.9,0.9,0,0,0,.45.12,0.81,0.81,0,0,0,.84-0.84,0.87,0.87,0,0,0-.24-0.62,0.89,0.89,0,0,0-.63-0.24,0.82,0.82,0,0,0-.59.24A0.86,0.86,0,0,0,233.53,19Z" transform="translate(-1.97 -2.77)"/><rect class="cls-4" x="242.07" y="16.43" width="0.4" height="0.4"/><rect class="cls-4" x="243.22" y="16.43" width="0.4" height="0.4"/><rect class="cls-4" x="244.38" y="16.43" width="0.4" height="0.4"/><path class="cls-2" d="M133.84,74.79V74.38l1.93-2.25a5.54,5.54,0,0,1-.58,0H134V71.75h2.48v0.32L134.78,74l-0.32.38a6.45,6.45,0,0,1,.65,0h1.42v0.44h-2.69" transform="translate(-1.97 -2.77)"/><path class="cls-2" d="M144.84,28.06a3.78,3.78,0,0,1,.15-1.21,1.57,1.57,0,0,1,.46-0.7,1.21,1.21,0,0,1,.76-0.24,1.33,1.33,0,0,1,.59.13,1.14,1.14,0,0,1,.43.39,2.14,2.14,0,0,1,.26.63,4.42,4.42,0,0,1,.1,1,3.64,3.64,0,0,1-.15,1.18,1.36,1.36,0,0,1-.45.7,1.31,1.31,0,0,1-1.73-.18,2.82,2.82,0,0,1-.42-1.7m0.53,0a2.67,2.67,0,0,0,.24,1.37,0.7,0.7,0,0,0,1.21,0,2.67,2.67,0,0,0,.24-1.37,2.66,2.66,0,0,0-.24-1.36,0.74,0.74,0,0,0-.61-0.34,0.67,0.67,0,0,0-.58.3A2.67,2.67,0,0,0,145.37,28Z" transform="translate(-1.97 -2.77)"/><rect class="cls-4" x="242.07" y="26.36" width="0.4" height="0.4"/><rect class="cls-4" x="243.22" y="26.36" width="0.4" height="0.4"/><rect class="cls-4" x="244.38" y="26.36" width="0.4" height="0.4"/><path class="cls-2" d="M146.77,40h-0.51V36.76a2.52,2.52,0,0,1-.5.35,3.33,3.33,0,0,1-.54.27V36.9a3,3,0,0,0,.76-0.5,1.72,1.72,0,0,0,.46-0.56h0.33V40" transform="translate(-1.97 -2.77)"/><rect class="cls-4" x="242.07" y="36.29" width="0.4" height="0.4"/><rect class="cls-4" x="243.22" y="36.29" width="0.4" height="0.4"/><rect class="cls-4" x="244.38" y="36.29" width="0.4" height="0.4"/><path class="cls-2" d="M147.54,49.47V50h-2.79a0.9,0.9,0,0,1,.06-0.35,1.85,1.85,0,0,1,.34-0.56,4.52,4.52,0,0,1,.68-0.64,5.61,5.61,0,0,0,.93-0.89,1,1,0,0,0,.25-0.61,0.64,0.64,0,0,0-.23-0.51,0.77,0.77,0,0,0-.57-0.21,0.81,0.81,0,0,0-.6.22,0.88,0.88,0,0,0-.23.63L144.85,47a1.31,1.31,0,0,1,.41-0.9,1.44,1.44,0,0,1,1-.31,1.33,1.33,0,0,1,1,.33,1.09,1.09,0,0,1,.36.83,1.26,1.26,0,0,1-.11.5,1.93,1.93,0,0,1-.35.51,9,9,0,0,1-.79.73q-0.46.39-.61,0.53a1.49,1.49,0,0,0-.21.27h2.06" transform="translate(-1.97 -2.77)"/><rect class="cls-4" x="154.47" y="45.42" width="1.6" height="0.52"/><rect class="cls-4" x="242.07" y="46.21" width="0.4" height="0.4"/><rect class="cls-4" x="243.22" y="46.21" width="0.4" height="0.4"/><rect class="cls-4" x="244.38" y="46.21" width="0.4" height="0.4"/><path class="cls-2" d="M144.84,58.79l0.53-.07a1.15,1.15,0,0,0,.3.63,0.73,0.73,0,0,0,.52.19,0.81,0.81,0,0,0,.61-0.25,0.85,0.85,0,0,0,.25-0.62,0.76,0.76,0,0,0-.22-0.58,0.81,0.81,0,0,0-.59-0.24,1.55,1.55,0,0,0-.36.06l0.06-.45H146a1,1,0,0,0,.57-0.17,0.61,0.61,0,0,0,.25-0.53,0.59,0.59,0,0,0-.19-0.46,0.65,0.65,0,0,0-.49-0.19,0.67,0.67,0,0,0-.5.19,1,1,0,0,0-.25.57l-0.53-.09a1.3,1.3,0,0,1,.43-0.8,1.24,1.24,0,0,1,.83-0.28,1.42,1.42,0,0,1,.64.14,1.2,1.2,0,0,1,.44.4,1,1,0,0,1,.15.54,0.93,0.93,0,0,1-.14.5,0.94,0.94,0,0,1-.44.35,1,1,0,0,1,.81,1,1.21,1.21,0,0,1-.4.92,1.41,1.41,0,0,1-1,.38,1.33,1.33,0,0,1-.93-0.33,1.27,1.27,0,0,1-.41-0.84" transform="translate(-1.97 -2.77)"/><rect class="cls-4" x="154.47" y="55.34" width="1.6" height="0.52"/><rect class="cls-4" x="165.5" y="55.34" width="1.6" height="0.52"/><rect class="cls-4" x="242.07" y="56.13" width="0.4" height="0.4"/><rect class="cls-4" x="243.22" y="56.13" width="0.4" height="0.4"/><rect class="cls-4" x="244.38" y="56.13" width="0.4" height="0.4"/><rect class="cls-3" x="138.74" y="60.09" width="11.01" height="9.93"/><path class="cls-2" d="M146.49,69.81v-1h-1.83V68.33l1.93-2.71H147v2.71h0.57v0.48H147v1h-0.51m0-1.48V66.46l-1.32,1.87h1.32Z" transform="translate(-1.97 -2.77)"/><rect class="cls-3" x="149.75" y="60.09" width="11.02" height="9.93"/><rect class="cls-4" x="154.47" y="65.26" width="1.6" height="0.52"/><rect class="cls-3" x="160.77" y="60.09" width="11.02" height="9.93"/><rect class="cls-4" x="165.5" y="65.26" width="1.6" height="0.52"/><rect class="cls-3" x="171.8" y="60.09" width="11.02" height="9.93"/><rect class="cls-4" x="176.52" y="65.26" width="1.6" height="0.52"/><rect class="cls-3" x="182.82" y="60.09" width="66.11" height="9.93"/><rect class="cls-4" x="242.07" y="66.06" width="0.4" height="0.4"/><rect class="cls-4" x="243.22" y="66.06" width="0.4" height="0.4"/><rect class="cls-4" x="244.38" y="66.06" width="0.4" height="0.4"/><path class="cls-2" d="M144.84,78.64l0.53,0a0.93,0.93,0,0,0,.27.58,0.77,0.77,0,0,0,.53.2,0.83,0.83,0,0,0,.64-0.28,1.1,1.1,0,0,0,.25-0.74,1,1,0,0,0-.24-0.69,0.85,0.85,0,0,0-.65-0.26,0.82,0.82,0,0,0-.45.12,0.86,0.86,0,0,0-.31.31l-0.49-.07,0.4-2.15h2.08v0.5h-1.66l-0.23,1.11a1.33,1.33,0,0,1,.79-0.26,1.26,1.26,0,0,1,.91.38,1.36,1.36,0,0,1,.38,1,1.49,1.49,0,0,1-.33,1,1.31,1.31,0,0,1-1.1.51,1.34,1.34,0,0,1-.93-0.32,1.23,1.23,0,0,1-.41-0.85" transform="translate(-1.97 -2.77)"/><rect class="cls-4" x="154.47" y="75.19" width="1.6" height="0.52"/><rect class="cls-4" x="165.5" y="75.19" width="1.6" height="0.52"/><rect class="cls-4" x="176.52" y="75.19" width="1.6" height="0.52"/><rect class="cls-4" x="187.53" y="75.19" width="1.6" height="0.52"/><rect class="cls-4" x="242.07" y="75.98" width="0.4" height="0.4"/><rect class="cls-4" x="243.22" y="75.98" width="0.4" height="0.4"/><rect class="cls-4" x="244.38" y="75.98" width="0.4" height="0.4"/><path class="cls-2" d="M147.52,86.51l-0.51,0a0.9,0.9,0,0,0-.2-0.44,0.67,0.67,0,0,0-.51-0.21,0.75,0.75,0,0,0-.45.14,1.23,1.23,0,0,0-.38.51,2.62,2.62,0,0,0-.14,1,1.08,1.08,0,0,1,.45-0.41,1.26,1.26,0,0,1,.57-0.14,1.18,1.18,0,0,1,.88.38,1.32,1.32,0,0,1,.37,1,1.66,1.66,0,0,1-.17.73,1.28,1.28,0,0,1-.48.52,1.4,1.4,0,0,1-1.73-.3,2.36,2.36,0,0,1-.4-1.55,2.78,2.78,0,0,1,.45-1.76,1.3,1.3,0,0,1,1.06-.49,1.24,1.24,0,0,1,.82.27,1.23,1.23,0,0,1,.38.77m-2.11,1.8a1.11,1.11,0,0,0,.12.51,0.82,0.82,0,0,0,.74.5,0.72,0.72,0,0,0,.57-0.26,1,1,0,0,0,.22-0.71,1,1,0,0,0-.22-0.68,0.78,0.78,0,0,0-.59-0.25,0.82,0.82,0,0,0-.59.25A0.91,0.91,0,0,0,145.41,88.31Z" transform="translate(-1.97 -2.77)"/><rect class="cls-4" x="154.47" y="85.12" width="1.6" height="0.52"/><rect class="cls-4" x="165.5" y="85.12" width="1.6" height="0.52"/><rect class="cls-4" x="176.52" y="85.12" width="1.6" height="0.52"/><rect class="cls-4" x="187.53" y="85.12" width="1.6" height="0.52"/><rect class="cls-4" x="198.55" y="85.12" width="1.6" height="0.52"/><rect class="cls-4" x="242.07" y="85.91" width="0.4" height="0.4"/><rect class="cls-4" x="243.22" y="85.91" width="0.4" height="0.4"/><rect class="cls-4" x="244.38" y="85.91" width="0.4" height="0.4"/><path class="cls-2" d="M144.86,96v-0.5h2.72v0.4a5.57,5.57,0,0,0-.79,1.12,7,7,0,0,0-.6,1.45,4.78,4.78,0,0,0-.2,1.15h-0.54a5.09,5.09,0,0,1,.19-1.2,6.49,6.49,0,0,1,.55-1.35,5.61,5.61,0,0,1,.74-1.09h-2.05" transform="translate(-1.97 -2.77)"/><rect class="cls-4" x="154.47" y="95.05" width="1.6" height="0.52"/><rect class="cls-4" x="165.5" y="95.05" width="1.6" height="0.52"/><rect class="cls-4" x="176.52" y="95.05" width="1.6" height="0.52"/><rect class="cls-4" x="187.53" y="95.05" width="1.6" height="0.52"/><rect class="cls-4" x="198.55" y="95.05" width="1.6" height="0.52"/><rect class="cls-4" x="209.58" y="95.05" width="1.6" height="0.52"/><rect class="cls-4" x="242.07" y="95.84" width="0.4" height="0.4"/><rect class="cls-4" x="243.22" y="95.84" width="0.4" height="0.4"/><rect class="cls-4" x="244.38" y="95.84" width="0.4" height="0.4"/><path class="cls-2" d="M145.63,107.25a0.93,0.93,0,0,1-.49-0.33,0.84,0.84,0,0,1-.15-0.52,1,1,0,0,1,.33-0.77,1.4,1.4,0,0,1,1.77,0,1,1,0,0,1,.33.77,0.81,0.81,0,0,1-.15.51,1,1,0,0,1-.46.33,1.11,1.11,0,0,1,.58.41,1.1,1.1,0,0,1,.2.66,1.21,1.21,0,0,1-.38.9,1.56,1.56,0,0,1-2,0,1.23,1.23,0,0,1-.38-0.91,1.1,1.1,0,0,1,.21-0.69,1.06,1.06,0,0,1,.59-0.38m-0.11-.86a0.65,0.65,0,0,0,.69.67,0.62,0.62,0,0,0,.49-0.19,0.59,0.59,0,0,0,.19-0.46,0.64,0.64,0,0,0-.19-0.47,0.67,0.67,0,0,0-.49-0.19,0.67,0.67,0,0,0-.5.19A0.59,0.59,0,0,0,145.53,106.39Zm-0.17,1.93a1.12,1.12,0,0,0,.09.43,0.76,0.76,0,0,0,.31.31,0.89,0.89,0,0,0,.45.12,0.81,0.81,0,0,0,.84-0.84,0.86,0.86,0,0,0-.24-0.61,0.88,0.88,0,0,0-.63-0.24,0.81,0.81,0,0,0-.59.24A0.85,0.85,0,0,0,145.36,108.32Z" transform="translate(-1.97 -2.77)"/><rect class="cls-4" x="154.47" y="104.97" width="1.6" height="0.52"/><rect class="cls-4" x="165.5" y="104.97" width="1.6" height="0.52"/><rect class="cls-4" x="176.52" y="104.97" width="1.6" height="0.52"/><rect class="cls-4" x="187.53" y="104.97" width="1.6" height="0.52"/><rect class="cls-4" x="198.55" y="104.97" width="1.6" height="0.52"/><rect class="cls-4" x="209.58" y="104.97" width="1.6" height="0.52"/><rect class="cls-4" x="220.6" y="104.97" width="1.6" height="0.52"/><rect class="cls-4" x="242.07" y="105.77" width="0.4" height="0.4"/><rect class="cls-4" x="243.22" y="105.77" width="0.4" height="0.4"/><rect class="cls-4" x="244.38" y="105.77" width="0.4" height="0.4"/><rect class="cls-4" x="142.89" y="115.69" width="0.4" height="0.4"/><rect class="cls-4" x="144.04" y="115.69" width="0.4" height="0.4"/><rect class="cls-4" x="145.21" y="115.69" width="0.4" height="0.4"/><rect class="cls-4" x="154.47" y="114.9" width="1.6" height="0.52"/><rect class="cls-4" x="165.5" y="114.9" width="1.6" height="0.52"/><rect class="cls-4" x="176.52" y="114.9" width="1.6" height="0.52"/><rect class="cls-4" x="187.53" y="114.9" width="1.6" height="0.52"/><rect class="cls-4" x="198.55" y="114.9" width="1.6" height="0.52"/><rect class="cls-4" x="209.58" y="114.9" width="1.6" height="0.52"/><rect class="cls-4" x="220.6" y="114.9" width="1.6" height="0.52"/><rect class="cls-4" x="231.62" y="114.9" width="1.6" height="0.52"/><rect class="cls-4" x="242.07" y="115.69" width="0.4" height="0.4"/><rect class="cls-4" x="243.22" y="115.69" width="0.4" height="0.4"/><rect class="cls-4" x="244.38" y="115.69" width="0.4" height="0.4"/><line class="cls-6" x1="182.82" y1="70.02" x2="182.82" y2="79.95"/><polyline class="cls-6" points="171.81 70.02 182.82 70.02 182.82 79.95"/><line class="cls-6" x1="171.81" y1="70.02" x2="171.81" y2="79.95"/><polyline class="cls-6" points="160.79 70.02 171.81 70.02 171.81 79.95"/><line class="cls-6" x1="160.79" y1="70.02" x2="160.79" y2="79.95"/><polyline class="cls-6" points="149.76 70.02 160.79 70.02 160.79 79.95"/><line class="cls-6" x1="149.76" y1="70.02" x2="149.76" y2="79.95"/><polyline class="cls-6" points="138.74 70.02 149.76 70.02 149.76 79.95"/><line class="cls-6" x1="138.74" y1="70.02" x2="138.74" y2="79.95"/><polyline class="cls-6" points="237.94 60.09 248.94 60.09 248.94 70.02"/><line class="cls-6" x1="237.94" y1="60.09" x2="237.94" y2="70.02"/><polyline class="cls-6" points="226.91 60.09 237.94 60.09 237.94 70.02"/><line class="cls-6" x1="226.91" y1="60.09" x2="226.91" y2="70.02"/><polyline class="cls-6" points="215.89 60.09 226.91 60.09 226.91 70.02"/><line class="cls-6" x1="215.89" y1="60.09" x2="215.89" y2="70.02"/><polyline class="cls-6" points="204.87 60.09 215.89 60.09 215.89 70.02"/><line class="cls-6" x1="204.87" y1="60.09" x2="204.87" y2="70.02"/><polyline class="cls-6" points="193.84 60.09 204.87 60.09 204.87 70.02"/><line class="cls-6" x1="193.85" y1="60.09" x2="193.85" y2="70.02"/><polyline class="cls-6" points="182.82 60.09 193.84 60.09 193.84 70.02"/><line class="cls-6" x1="182.82" y1="60.09" x2="182.82" y2="70.02"/><polyline class="cls-6" points="171.81 60.09 182.82 60.09 182.82 70.02"/><line class="cls-6" x1="171.81" y1="60.09" x2="171.81" y2="70.02"/><polyline class="cls-6" points="160.79 60.09 171.81 60.09 171.81 70.02"/><line class="cls-6" x1="160.79" y1="60.09" x2="160.79" y2="70.02"/><polyline class="cls-6" points="149.76 60.09 160.79 60.09 160.79 70.02"/><line class="cls-6" x1="149.76" y1="60.09" x2="149.76" y2="70.02"/><polyline class="cls-6" points="138.74 60.09 149.76 60.09 149.76 70.02"/><line class="cls-6" x1="138.74" y1="60.09" x2="138.74" y2="70.02"/><polyline class="cls-6" points="237.94 50.16 248.94 50.16 248.94 60.09"/><line class="cls-6" x1="237.94" y1="50.16" x2="237.94" y2="60.09"/><polyline class="cls-6" points="226.91 50.16 237.94 50.16 237.94 60.09"/><line class="cls-6" x1="226.91" y1="50.16" x2="226.91" y2="60.09"/><polyline class="cls-6" points="215.89 50.16 226.91 50.16 226.91 60.09"/><line class="cls-6" x1="215.89" y1="50.16" x2="215.89" y2="60.09"/><polyline class="cls-6" points="204.87 50.16 215.89 50.16 215.89 60.09"/><line class="cls-6" x1="204.87" y1="50.16" x2="204.87" y2="60.09"/><polyline class="cls-6" points="193.84 50.16 204.87 50.16 204.87 60.09"/><line class="cls-6" x1="193.85" y1="50.16" x2="193.85" y2="60.09"/><polyline class="cls-6" points="182.82 50.16 193.84 50.16 193.84 60.09"/><line class="cls-6" x1="182.82" y1="50.16" x2="182.82" y2="60.09"/><polyline class="cls-6" points="171.81 50.16 182.82 50.16 182.82 60.09"/><line class="cls-6" x1="171.81" y1="50.16" x2="171.81" y2="60.09"/><polyline class="cls-6" points="160.79 50.16 171.81 50.16 171.81 60.09"/><line class="cls-6" x1="160.79" y1="50.16" x2="160.79" y2="60.09"/><polyline class="cls-6" points="149.76 50.16 160.79 50.16 160.79 60.09"/><line class="cls-6" x1="149.76" y1="50.16" x2="149.76" y2="60.09"/><polyline class="cls-6" points="138.74 50.16 149.76 50.16 149.76 60.09"/><line class="cls-6" x1="138.74" y1="50.16" x2="138.74" y2="60.09"/><polyline class="cls-6" points="237.94 40.25 248.94 40.25 248.94 50.16"/><line class="cls-6" x1="237.94" y1="40.25" x2="237.94" y2="50.16"/><polyline class="cls-6" points="226.91 40.25 237.94 40.25 237.94 50.16"/><line class="cls-6" x1="226.91" y1="40.25" x2="226.91" y2="50.16"/><polyline class="cls-6" points="215.89 40.25 226.91 40.25 226.91 50.16"/><line class="cls-6" x1="215.89" y1="40.25" x2="215.89" y2="50.16"/><polyline class="cls-6" points="204.87 40.25 215.89 40.25 215.89 50.16"/><line class="cls-6" x1="204.87" y1="40.25" x2="204.87" y2="50.16"/><polyline class="cls-6" points="193.84 40.25 204.87 40.25 204.87 50.16"/><line class="cls-6" x1="193.85" y1="40.25" x2="193.85" y2="50.16"/><polyline class="cls-6" points="182.82 40.25 193.84 40.25 193.84 50.16"/><line class="cls-6" x1="182.82" y1="40.25" x2="182.82" y2="50.16"/><polyline class="cls-6" points="171.81 40.25 182.82 40.25 182.82 50.16"/><line class="cls-6" x1="171.81" y1="40.25" x2="171.81" y2="50.16"/><polyline class="cls-6" points="160.79 40.25 171.81 40.25 171.81 50.16"/><line class="cls-6" x1="160.79" y1="40.25" x2="160.79" y2="50.16"/><polyline class="cls-6" points="149.76 40.25 160.79 40.25 160.79 50.16"/><line class="cls-6" x1="149.76" y1="40.25" x2="149.76" y2="50.16"/><polyline class="cls-6" points="138.74 40.25 149.76 40.25 149.76 50.16"/><line class="cls-6" x1="138.74" y1="40.25" x2="138.74" y2="50.16"/><polyline class="cls-6" points="237.94 30.32 248.94 30.32 248.94 40.25"/><line class="cls-6" x1="237.94" y1="30.32" x2="237.94" y2="40.25"/><polyline class="cls-6" points="226.91 30.32 237.94 30.32 237.94 40.25"/><line class="cls-6" x1="226.91" y1="30.32" x2="226.91" y2="40.25"/><polyline class="cls-6" points="215.89 30.32 226.91 30.32 226.91 40.25"/><line class="cls-6" x1="215.89" y1="30.32" x2="215.89" y2="40.25"/><polyline class="cls-6" points="204.87 30.32 215.89 30.32 215.89 40.25"/><line class="cls-6" x1="204.87" y1="30.32" x2="204.87" y2="40.25"/><polyline class="cls-6" points="193.84 30.32 204.87 30.32 204.87 40.25"/><line class="cls-6" x1="193.85" y1="30.32" x2="193.85" y2="40.25"/><polyline class="cls-6" points="182.82 30.32 193.84 30.32 193.84 40.25"/><line class="cls-6" x1="182.82" y1="30.32" x2="182.82" y2="40.25"/><polyline class="cls-6" points="171.81 30.32 182.82 30.32 182.82 40.25"/><line class="cls-6" x1="171.81" y1="30.32" x2="171.81" y2="40.25"/><polyline class="cls-6" points="160.79 30.32 171.81 30.32 171.81 40.25"/><line class="cls-6" x1="160.79" y1="30.32" x2="160.79" y2="40.25"/><polyline class="cls-6" points="149.76 30.32 160.79 30.32 160.79 40.25"/><line class="cls-6" x1="149.76" y1="30.32" x2="149.76" y2="40.25"/><polyline class="cls-6" points="138.74 30.32 149.76 30.32 149.76 40.25"/><line class="cls-6" x1="138.74" y1="30.32" x2="138.74" y2="40.25"/><polyline class="cls-6" points="237.94 20.39 248.94 20.39 248.94 30.32"/><line class="cls-6" x1="237.94" y1="20.39" x2="237.94" y2="30.32"/><polyline class="cls-6" points="226.91 20.39 237.94 20.39 237.94 30.32"/><line class="cls-6" x1="226.91" y1="20.39" x2="226.91" y2="30.32"/><polyline class="cls-6" points="215.89 20.39 226.91 20.39 226.91 30.32"/><line class="cls-6" x1="215.89" y1="20.39" x2="215.89" y2="30.32"/><polyline class="cls-6" points="204.87 20.39 215.89 20.39 215.89 30.32"/><line class="cls-6" x1="204.87" y1="20.39" x2="204.87" y2="30.32"/><polyline class="cls-6" points="193.84 20.39 204.87 20.39 204.87 30.32"/><line class="cls-6" x1="193.85" y1="20.39" x2="193.85" y2="30.32"/><polyline class="cls-6" points="182.82 20.39 193.84 20.39 193.84 30.32"/><line class="cls-6" x1="182.82" y1="20.39" x2="182.82" y2="30.32"/><polyline class="cls-6" points="171.81 20.39 182.82 20.39 182.82 30.32"/><line class="cls-6" x1="171.81" y1="20.39" x2="171.81" y2="30.32"/><polyline class="cls-6" points="160.79 20.39 171.81 20.39 171.81 30.32"/><line class="cls-6" x1="160.79" y1="20.39" x2="160.79" y2="30.32"/><polyline class="cls-6" points="149.76 20.39 160.79 20.39 160.79 30.32"/><line class="cls-6" x1="149.76" y1="20.39" x2="149.76" y2="30.32"/><polyline class="cls-6" points="138.74 20.39 149.76 20.39 149.76 30.32"/><line class="cls-6" x1="138.74" y1="20.39" x2="138.74" y2="30.32"/><polyline class="cls-6" points="127.72 20.39 138.74 20.39 138.74 119.67"/><line class="cls-6" x1="127.72" y1="119.67" x2="138.74" y2="119.67"/><line class="cls-6" x1="127.72" y1="20.39" x2="127.72" y2="119.67"/><polyline class="cls-6" points="237.94 10.46 248.94 10.46 248.94 20.39"/><line class="cls-6" x1="237.94" y1="10.46" x2="237.94" y2="20.39"/><polyline class="cls-6" points="226.91 10.46 237.94 10.46 237.94 20.39"/><line class="cls-6" x1="226.91" y1="10.46" x2="226.91" y2="20.39"/><polyline class="cls-6" points="215.89 10.46 226.91 10.46 226.91 20.39"/><line class="cls-6" x1="215.89" y1="10.46" x2="215.89" y2="20.39"/><polyline class="cls-6" points="204.87 10.46 215.89 10.46 215.89 20.39"/><line class="cls-6" x1="204.87" y1="10.46" x2="204.87" y2="20.39"/><polyline class="cls-6" points="193.84 10.46 204.87 10.46 204.87 20.39"/><line class="cls-6" x1="193.85" y1="10.46" x2="193.85" y2="20.39"/><polyline class="cls-6" points="182.82 10.46 193.84 10.46 193.84 20.39"/><line class="cls-6" x1="182.82" y1="10.46" x2="182.82" y2="20.39"/><polyline class="cls-6" points="171.81 10.46 182.82 10.46 182.82 20.39"/><line class="cls-6" x1="171.81" y1="10.46" x2="171.81" y2="20.39"/><polyline class="cls-6" points="160.79 10.46 171.81 10.46 171.81 20.39"/><line class="cls-6" x1="160.79" y1="10.46" x2="160.79" y2="20.39"/><polyline class="cls-6" points="149.76 10.46 160.79 10.46 160.79 20.39"/><line class="cls-6" x1="149.76" y1="10.46" x2="149.76" y2="20.39"/><polyline class="cls-6" points="149.76 0.54 248.94 0.54 248.94 10.46"/><line class="cls-6" x1="149.76" y1="0.54" x2="149.76" y2="10.46"/><polyline class="cls-6" points="127.72 0.54 149.76 0.54 149.76 20.39"/><line class="cls-6" x1="127.72" y1="0.54" x2="127.72" y2="20.39"/><polyline class="cls-6" points="237.94 109.72 248.94 109.72 248.94 119.67"/><line class="cls-6" x1="237.94" y1="119.67" x2="248.94" y2="119.67"/><line class="cls-6" x1="237.94" y1="109.72" x2="237.94" y2="119.67"/><polyline class="cls-6" points="226.91 109.72 237.94 109.72 237.94 119.67"/><line class="cls-6" x1="226.91" y1="119.67" x2="237.94" y2="119.67"/><line class="cls-6" x1="226.91" y1="109.72" x2="226.91" y2="119.67"/><polyline class="cls-6" points="215.89 109.72 226.91 109.72 226.91 119.67"/><line class="cls-6" x1="215.89" y1="119.67" x2="226.91" y2="119.67"/><line class="cls-6" x1="215.89" y1="109.72" x2="215.89" y2="119.67"/><polyline class="cls-6" points="204.87 109.72 215.89 109.72 215.89 119.67"/><line class="cls-6" x1="204.87" y1="119.67" x2="215.89" y2="119.67"/><line class="cls-6" x1="204.87" y1="109.72" x2="204.87" y2="119.67"/><polyline class="cls-6" points="193.84 109.72 204.87 109.72 204.87 119.67"/><line class="cls-6" x1="193.85" y1="119.67" x2="204.87" y2="119.67"/><line class="cls-6" x1="193.85" y1="109.72" x2="193.85" y2="119.67"/><polyline class="cls-6" points="182.82 109.72 193.84 109.72 193.84 119.67"/><line class="cls-6" x1="182.82" y1="119.67" x2="193.85" y2="119.67"/><line class="cls-6" x1="182.82" y1="109.72" x2="182.82" y2="119.67"/><polyline class="cls-6" points="171.81 109.72 182.82 109.72 182.82 119.67"/><line class="cls-6" x1="171.81" y1="119.67" x2="182.82" y2="119.67"/><line class="cls-6" x1="171.81" y1="109.72" x2="171.81" y2="119.67"/><polyline class="cls-6" points="160.79 109.72 171.81 109.72 171.81 119.67"/><line class="cls-6" x1="160.79" y1="119.67" x2="171.81" y2="119.67"/><line class="cls-6" x1="160.79" y1="109.72" x2="160.79" y2="119.67"/><polyline class="cls-6" points="149.76 109.72 160.79 109.72 160.79 119.67"/><line class="cls-6" x1="149.76" y1="119.67" x2="160.79" y2="119.67"/><line class="cls-6" x1="149.76" y1="109.72" x2="149.76" y2="119.67"/><polyline class="cls-6" points="138.74 109.72 149.76 109.72 149.76 119.67"/><line class="cls-6" x1="138.74" y1="119.67" x2="149.76" y2="119.67"/><line class="cls-6" x1="138.74" y1="109.72" x2="138.74" y2="119.67"/><polyline class="cls-6" points="237.94 99.8 248.94 99.8 248.94 109.72"/><line class="cls-6" x1="237.94" y1="99.8" x2="237.94" y2="109.72"/><polyline class="cls-6" points="226.91 99.8 237.94 99.8 237.94 109.72"/><line class="cls-6" x1="226.91" y1="99.8" x2="226.91" y2="109.72"/><polyline class="cls-6" points="215.89 99.8 226.91 99.8 226.91 109.72"/><line class="cls-6" x1="215.89" y1="99.8" x2="215.89" y2="109.72"/><polyline class="cls-6" points="204.87 99.8 215.89 99.8 215.89 109.72"/><line class="cls-6" x1="204.87" y1="99.8" x2="204.87" y2="109.72"/><polyline class="cls-6" points="193.84 99.8 204.87 99.8 204.87 109.72"/><line class="cls-6" x1="193.85" y1="99.8" x2="193.85" y2="109.72"/><polyline class="cls-6" points="182.82 99.8 193.84 99.8 193.84 109.72"/><line class="cls-6" x1="182.82" y1="99.8" x2="182.82" y2="109.72"/><polyline class="cls-6" points="171.81 99.8 182.82 99.8 182.82 109.72"/><line class="cls-6" x1="171.81" y1="99.8" x2="171.81" y2="109.72"/><polyline class="cls-6" points="160.79 99.8 171.81 99.8 171.81 109.72"/><line class="cls-6" x1="160.79" y1="99.8" x2="160.79" y2="109.72"/><polyline class="cls-6" points="149.76 99.8 160.79 99.8 160.79 109.72"/><line class="cls-6" x1="149.76" y1="99.8" x2="149.76" y2="109.72"/><polyline class="cls-6" points="138.74 99.8 149.76 99.8 149.76 109.72"/><line class="cls-6" x1="138.74" y1="99.8" x2="138.74" y2="109.72"/><polyline class="cls-6" points="237.94 89.87 248.94 89.87 248.94 99.8"/><line class="cls-6" x1="237.94" y1="89.87" x2="237.94" y2="99.8"/><polyline class="cls-6" points="226.91 89.87 237.94 89.87 237.94 99.8"/><line class="cls-6" x1="226.91" y1="89.87" x2="226.91" y2="99.8"/><polyline class="cls-6" points="215.89 89.87 226.91 89.87 226.91 99.8"/><line class="cls-6" x1="215.89" y1="89.87" x2="215.89" y2="99.8"/><polyline class="cls-6" points="204.87 89.87 215.89 89.87 215.89 99.8"/><line class="cls-6" x1="204.87" y1="89.87" x2="204.87" y2="99.8"/><polyline class="cls-6" points="193.84 89.87 204.87 89.87 204.87 99.8"/><line class="cls-6" x1="193.85" y1="89.87" x2="193.85" y2="99.8"/><polyline class="cls-6" points="182.82 89.87 193.84 89.87 193.84 99.8"/><line class="cls-6" x1="182.82" y1="89.87" x2="182.82" y2="99.8"/><polyline class="cls-6" points="171.81 89.87 182.82 89.87 182.82 99.8"/><line class="cls-6" x1="171.81" y1="89.87" x2="171.81" y2="99.8"/><polyline class="cls-6" points="160.79 89.87 171.81 89.87 171.81 99.8"/><line class="cls-6" x1="160.79" y1="89.87" x2="160.79" y2="99.8"/><polyline class="cls-6" points="149.76 89.87 160.79 89.87 160.79 99.8"/><line class="cls-6" x1="149.76" y1="89.87" x2="149.76" y2="99.8"/><polyline class="cls-6" points="138.74 89.87 149.76 89.87 149.76 99.8"/><line class="cls-6" x1="138.74" y1="89.87" x2="138.74" y2="99.8"/><polyline class="cls-6" points="237.94 79.95 248.94 79.95 248.94 89.87"/><line class="cls-6" x1="237.94" y1="79.95" x2="237.94" y2="89.87"/><polyline class="cls-6" points="226.91 79.95 237.94 79.95 237.94 89.87"/><line class="cls-6" x1="226.91" y1="79.95" x2="226.91" y2="89.87"/><polyline class="cls-6" points="215.89 79.95 226.91 79.95 226.91 89.87"/><line class="cls-6" x1="215.89" y1="79.95" x2="215.89" y2="89.87"/><polyline class="cls-6" points="204.87 79.95 215.89 79.95 215.89 89.87"/><line class="cls-6" x1="204.87" y1="79.95" x2="204.87" y2="89.87"/><polyline class="cls-6" points="193.84 79.95 204.87 79.95 204.87 89.87"/><line class="cls-6" x1="193.85" y1="79.95" x2="193.85" y2="89.87"/><polyline class="cls-6" points="182.82 79.95 193.84 79.95 193.84 89.87"/><line class="cls-6" x1="182.82" y1="79.95" x2="182.82" y2="89.87"/><polyline class="cls-6" points="171.81 79.95 182.82 79.95 182.82 89.87"/><line class="cls-6" x1="171.81" y1="79.95" x2="171.81" y2="89.87"/><polyline class="cls-6" points="160.79 79.95 171.81 79.95 171.81 89.87"/><line class="cls-6" x1="160.79" y1="79.95" x2="160.79" y2="89.87"/><polyline class="cls-6" points="149.76 79.95 160.79 79.95 160.79 89.87"/><line class="cls-6" x1="149.76" y1="79.95" x2="149.76" y2="89.87"/><polyline class="cls-6" points="138.74 79.95 149.76 79.95 149.76 89.87"/><line class="cls-6" x1="138.74" y1="79.95" x2="138.74" y2="89.87"/><polyline class="cls-6" points="237.94 70.02 248.94 70.02 248.94 79.95"/><line class="cls-6" x1="237.94" y1="70.02" x2="237.94" y2="79.95"/><polyline class="cls-6" points="226.91 70.02 237.94 70.02 237.94 79.95"/><line class="cls-6" x1="226.91" y1="70.02" x2="226.91" y2="79.95"/><polyline class="cls-6" points="215.89 70.02 226.91 70.02 226.91 79.95"/><line class="cls-6" x1="215.89" y1="70.02" x2="215.89" y2="79.95"/><polyline class="cls-6" points="204.87 70.02 215.89 70.02 215.89 79.95"/><line class="cls-6" x1="204.87" y1="70.02" x2="204.87" y2="79.95"/><polyline class="cls-6" points="193.84 70.02 204.87 70.02 204.87 79.95"/><line class="cls-6" x1="193.85" y1="70.02" x2="193.85" y2="79.95"/><polyline class="cls-6" points="182.82 70.02 193.84 70.02 193.84 79.95"/><polyline class="cls-2" points="324.84 7.48 324.84 3.29 325.41 3.29 327.62 6.58 327.62 3.29 328.15 3.29 328.15 7.48 327.58 7.48 325.38 4.19 325.38 7.48 324.84 7.48"/><path class="cls-2" d="M284.95,20.17h-0.51V16.9a2.55,2.55,0,0,1-.5.35,3.33,3.33,0,0,1-.55.27V17a2.92,2.92,0,0,0,.76-0.5,1.71,1.71,0,0,0,.46-0.56h0.33v4.2" transform="translate(-1.97 -2.77)"/><path class="cls-2" d="M296.74,19.68v0.5H294a0.9,0.9,0,0,1,.06-0.35,1.89,1.89,0,0,1,.35-0.56,4.42,4.42,0,0,1,.68-0.64,5.76,5.76,0,0,0,.93-0.89,1,1,0,0,0,.25-0.62,0.64,0.64,0,0,0-.23-0.51,0.78,0.78,0,0,0-.57-0.21,0.82,0.82,0,0,0-.61.22,0.88,0.88,0,0,0-.23.63L294,17.18a1.32,1.32,0,0,1,.41-0.9,1.45,1.45,0,0,1,1-.31,1.33,1.33,0,0,1,1,.33,1.09,1.09,0,0,1,.36.83,1.23,1.23,0,0,1-.11.5,1.9,1.9,0,0,1-.34.51,9,9,0,0,1-.79.73c-0.31.26-.51,0.44-0.61,0.53a1.52,1.52,0,0,0-.21.27h2.07" transform="translate(-1.97 -2.77)"/><rect class="cls-7" x="298.95" y="10.45" width="11.02" height="9.93"/><path class="cls-2" d="M305.06,19.07l0.53-.07a1.16,1.16,0,0,0,.3.63,0.73,0.73,0,0,0,.52.19,0.8,0.8,0,0,0,.6-0.25,0.84,0.84,0,0,0,.25-0.61,0.76,0.76,0,0,0-.23-0.58,0.82,0.82,0,0,0-.59-0.24,1.58,1.58,0,0,0-.36.06l0.06-.45h0.08a1,1,0,0,0,.57-0.17,0.61,0.61,0,0,0,.25-0.53,0.59,0.59,0,0,0-.19-0.46,0.64,0.64,0,0,0-.49-0.19,0.67,0.67,0,0,0-.5.19,1,1,0,0,0-.25.57l-0.53-.09a1.3,1.3,0,0,1,.43-0.8,1.24,1.24,0,0,1,.83-0.28,1.42,1.42,0,0,1,.64.14,1.19,1.19,0,0,1,.44.4,1,1,0,0,1,.15.54,0.92,0.92,0,0,1-.14.5,0.94,0.94,0,0,1-.44.35,1,1,0,0,1,.81,1,1.21,1.21,0,0,1-.4.92,1.42,1.42,0,0,1-1,.38,1.33,1.33,0,0,1-.93-0.33,1.26,1.26,0,0,1-.41-0.84" transform="translate(-1.97 -2.77)"/><rect class="cls-8" x="309.97" y="10.45" width="11.02" height="9.93"/><path class="cls-2" d="M317.72,20.17v-1h-1.83V18.7L317.83,16h0.4V18.7h0.57v0.47h-0.57v1h-0.51m0-1.48V16.83L316.4,18.7h1.32Z" transform="translate(-1.97 -2.77)"/><rect class="cls-3" x="321" y="10.45" width="11.02" height="9.93"/><path class="cls-2" d="M327.1,19.07l0.53,0a0.92,0.92,0,0,0,.27.58,0.76,0.76,0,0,0,.53.2,0.83,0.83,0,0,0,.64-0.28,1.09,1.09,0,0,0,.25-0.75,1,1,0,0,0-.24-0.69,0.84,0.84,0,0,0-.65-0.26A0.82,0.82,0,0,0,328,18a0.86,0.86,0,0,0-.31.31l-0.49-.07,0.4-2.15h2.08v0.5H328l-0.23,1.11a1.32,1.32,0,0,1,.8-0.26,1.26,1.26,0,0,1,.91.38,1.36,1.36,0,0,1,.38,1,1.5,1.5,0,0,1-.33,1,1.31,1.31,0,0,1-1.1.51,1.33,1.33,0,0,1-.93-0.32,1.23,1.23,0,0,1-.42-0.85" transform="translate(-1.97 -2.77)"/><rect class="cls-8" x="332.02" y="10.45" width="11.01" height="9.93"/><path class="cls-2" d="M340.8,17l-0.51,0a0.89,0.89,0,0,0-.2-0.44,0.67,0.67,0,0,0-.51-0.21,0.76,0.76,0,0,0-.45.14,1.22,1.22,0,0,0-.38.51,2.61,2.61,0,0,0-.14,1,1.08,1.08,0,0,1,.45-0.41,1.26,1.26,0,0,1,.57-0.14,1.17,1.17,0,0,1,.88.38,1.31,1.31,0,0,1,.37,1,1.66,1.66,0,0,1-.17.73,1.27,1.27,0,0,1-.48.52,1.4,1.4,0,0,1-1.73-.3,2.35,2.35,0,0,1-.4-1.55,2.79,2.79,0,0,1,.45-1.76A1.31,1.31,0,0,1,339.6,16a1.24,1.24,0,0,1,.82.27,1.22,1.22,0,0,1,.38.77m-2.11,1.8a1.1,1.1,0,0,0,.12.51,0.82,0.82,0,0,0,.74.5,0.72,0.72,0,0,0,.57-0.26,1,1,0,0,0,.23-0.71,1,1,0,0,0-.23-0.69,0.78,0.78,0,0,0-.59-0.25,0.82,0.82,0,0,0-.59.25A0.92,0.92,0,0,0,338.69,18.81Z" transform="translate(-1.97 -2.77)"/><rect class="cls-7" x="343.03" y="10.45" width="11.02" height="9.93"/><path class="cls-2" d="M349.17,16.54V16h2.72v0.4a5.67,5.67,0,0,0-.79,1.12,7.11,7.11,0,0,0-.61,1.46,4.77,4.77,0,0,0-.2,1.15h-0.53a5.1,5.1,0,0,1,.19-1.2,6.56,6.56,0,0,1,.55-1.35,5.78,5.78,0,0,1,.73-1.09h-2.05" transform="translate(-1.97 -2.77)"/><path class="cls-2" d="M361,17.9a0.94,0.94,0,0,1-.49-0.33,0.85,0.85,0,0,1-.15-0.52,1,1,0,0,1,.33-0.77,1.4,1.4,0,0,1,1.77,0,1,1,0,0,1,.33.77,0.8,0.8,0,0,1-.15.51,1,1,0,0,1-.46.33,1.12,1.12,0,0,1,.58.41,1.1,1.1,0,0,1,.2.66,1.2,1.2,0,0,1-.38.9,1.55,1.55,0,0,1-2,0,1.23,1.23,0,0,1-.38-0.91,1.1,1.1,0,0,1,.22-0.69A1.06,1.06,0,0,1,361,17.9M360.85,17a0.65,0.65,0,0,0,.69.67,0.63,0.63,0,0,0,.49-0.19,0.59,0.59,0,0,0,.19-0.46,0.64,0.64,0,0,0-.19-0.47,0.66,0.66,0,0,0-.49-0.19,0.68,0.68,0,0,0-.5.19A0.6,0.6,0,0,0,360.85,17ZM360.69,19a1.08,1.08,0,0,0,.1.43,0.76,0.76,0,0,0,.31.31,0.89,0.89,0,0,0,.45.12,0.81,0.81,0,0,0,.84-0.84,0.87,0.87,0,0,0-.24-0.62,0.88,0.88,0,0,0-.63-0.24,0.82,0.82,0,0,0-.59.24A0.86,0.86,0,0,0,360.69,19Z" transform="translate(-1.97 -2.77)"/><rect class="cls-4" x="369.22" y="16.42" width="0.4" height="0.4"/><rect class="cls-4" x="370.37" y="16.42" width="0.4" height="0.4"/><rect class="cls-4" x="371.53" y="16.42" width="0.4" height="0.4"/><path class="cls-2" d="M261,74.79V74.38l1.93-2.25a5.52,5.52,0,0,1-.58,0h-1.24V71.75h2.48v0.32L261.93,74l-0.32.38a6.45,6.45,0,0,1,.65,0h1.42v0.44H261" transform="translate(-1.97 -2.77)"/><path class="cls-2" d="M272,28a3.8,3.8,0,0,1,.15-1.21,1.59,1.59,0,0,1,.46-0.7,1.21,1.21,0,0,1,.76-0.24A1.34,1.34,0,0,1,274,26a1.13,1.13,0,0,1,.43.39,2.17,2.17,0,0,1,.26.63,4.41,4.41,0,0,1,.1,1,3.58,3.58,0,0,1-.15,1.18,1.35,1.35,0,0,1-.45.7,1.3,1.3,0,0,1-1.73-.18A2.8,2.8,0,0,1,272,28m0.53,0a2.68,2.68,0,0,0,.24,1.37,0.71,0.71,0,0,0,1.21,0,2.67,2.67,0,0,0,.24-1.37,2.64,2.64,0,0,0-.24-1.36,0.74,0.74,0,0,0-.61-0.34,0.67,0.67,0,0,0-.58.3A2.67,2.67,0,0,0,272.52,28Z" transform="translate(-1.97 -2.77)"/><rect class="cls-7" x="298.95" y="20.38" width="11.02" height="9.93"/><rect class="cls-8" x="309.97" y="20.38" width="11.02" height="9.93"/><rect class="cls-3" x="321" y="20.38" width="11.02" height="9.93"/><rect class="cls-8" x="332.02" y="20.38" width="11.01" height="9.93"/><rect class="cls-7" x="343.03" y="20.38" width="11.02" height="9.93"/><rect class="cls-4" x="369.22" y="26.35" width="0.4" height="0.4"/><rect class="cls-4" x="370.37" y="26.35" width="0.4" height="0.4"/><rect class="cls-4" x="371.53" y="26.35" width="0.4" height="0.4"/><path class="cls-2" d="M273.92,40h-0.51V36.75a2.61,2.61,0,0,1-.5.35,3.32,3.32,0,0,1-.55.27v-0.5a2.87,2.87,0,0,0,.76-0.5,1.71,1.71,0,0,0,.46-0.56h0.33V40" transform="translate(-1.97 -2.77)"/><rect class="cls-7" x="298.95" y="30.31" width="11.02" height="9.93"/><rect class="cls-8" x="309.97" y="30.31" width="11.02" height="9.93"/><rect class="cls-3" x="321" y="30.31" width="11.02" height="9.93"/><rect class="cls-8" x="332.02" y="30.31" width="11.01" height="9.93"/><rect class="cls-7" x="343.03" y="30.31" width="11.02" height="9.93"/><rect class="cls-4" x="369.22" y="36.27" width="0.4" height="0.4"/><rect class="cls-4" x="370.37" y="36.27" width="0.4" height="0.4"/><rect class="cls-4" x="371.53" y="36.27" width="0.4" height="0.4"/><path class="cls-2" d="M274.7,49.46V50h-2.79A0.9,0.9,0,0,1,272,49.6a1.87,1.87,0,0,1,.34-0.56,4.47,4.47,0,0,1,.68-0.64,5.57,5.57,0,0,0,.92-0.89,1,1,0,0,0,.25-0.62,0.64,0.64,0,0,0-.23-0.51,0.77,0.77,0,0,0-.57-0.21,0.81,0.81,0,0,0-.61.22,0.88,0.88,0,0,0-.22.63L272,47a1.31,1.31,0,0,1,.42-0.9,1.43,1.43,0,0,1,1-.31,1.33,1.33,0,0,1,1,.33,1.09,1.09,0,0,1,.36.83,1.24,1.24,0,0,1-.11.5,1.91,1.91,0,0,1-.34.51,9.31,9.31,0,0,1-.79.73q-0.46.39-.61,0.53a1.57,1.57,0,0,0-.21.27h2.07" transform="translate(-1.97 -2.77)"/><rect class="cls-4" x="281.62" y="45.41" width="1.6" height="0.52"/><rect class="cls-7" x="298.95" y="40.24" width="11.02" height="9.92"/><rect class="cls-8" x="309.97" y="40.24" width="11.02" height="9.92"/><rect class="cls-3" x="321" y="40.24" width="11.02" height="9.92"/><rect class="cls-8" x="332.02" y="40.24" width="11.01" height="9.92"/><rect class="cls-7" x="343.03" y="40.24" width="11.02" height="9.92"/><rect class="cls-4" x="369.22" y="46.2" width="0.4" height="0.4"/><rect class="cls-4" x="370.37" y="46.2" width="0.4" height="0.4"/><rect class="cls-4" x="371.53" y="46.2" width="0.4" height="0.4"/><path class="cls-2" d="M272,58.79l0.53-.07a1.15,1.15,0,0,0,.3.63,0.72,0.72,0,0,0,.52.19,0.81,0.81,0,0,0,.61-0.25,0.85,0.85,0,0,0,.25-0.62,0.75,0.75,0,0,0-.22-0.58,0.81,0.81,0,0,0-.59-0.24,1.55,1.55,0,0,0-.35.06l0.06-.45h0.08a1,1,0,0,0,.57-0.17,0.61,0.61,0,0,0,.25-0.53,0.59,0.59,0,0,0-.19-0.46,0.65,0.65,0,0,0-.49-0.19,0.67,0.67,0,0,0-.5.19,1,1,0,0,0-.25.57L272,56.77a1.3,1.3,0,0,1,.43-0.8,1.24,1.24,0,0,1,.83-0.28,1.41,1.41,0,0,1,.64.14,1.21,1.21,0,0,1,.44.4,1,1,0,0,1,.15.54,0.89,0.89,0,0,1-.58.85,1,1,0,0,1,.81,1,1.21,1.21,0,0,1-.4.92,1.42,1.42,0,0,1-1,.38,1.33,1.33,0,0,1-.93-0.33,1.27,1.27,0,0,1-.42-0.84" transform="translate(-1.97 -2.77)"/><rect class="cls-4" x="281.62" y="55.34" width="1.6" height="0.52"/><rect class="cls-4" x="292.65" y="55.34" width="1.6" height="0.52"/><rect class="cls-7" x="298.95" y="50.15" width="11.02" height="9.93"/><rect class="cls-8" x="309.97" y="50.15" width="11.02" height="9.93"/><rect class="cls-3" x="321" y="50.15" width="11.02" height="9.93"/><rect class="cls-8" x="332.02" y="50.15" width="11.01" height="9.93"/><rect class="cls-7" x="343.03" y="50.15" width="11.02" height="9.93"/><rect class="cls-4" x="369.22" y="56.13" width="0.4" height="0.4"/><rect class="cls-4" x="370.37" y="56.13" width="0.4" height="0.4"/><rect class="cls-4" x="371.53" y="56.13" width="0.4" height="0.4"/><path class="cls-2" d="M273.64,69.81v-1h-1.83V68.33l1.93-2.71h0.4v2.71h0.57v0.48h-0.57v1h-0.51m0-1.48V66.46l-1.32,1.87h1.32Z" transform="translate(-1.97 -2.77)"/><rect class="cls-4" x="281.62" y="65.26" width="1.6" height="0.52"/><rect class="cls-4" x="292.65" y="65.26" width="1.6" height="0.52"/><rect class="cls-7" x="298.95" y="60.08" width="11.02" height="9.93"/><rect class="cls-4" x="303.67" y="65.26" width="1.6" height="0.52"/><rect class="cls-8" x="309.97" y="60.08" width="11.02" height="9.93"/><rect class="cls-3" x="321" y="60.08" width="11.02" height="9.93"/><rect class="cls-8" x="332.02" y="60.08" width="11.01" height="9.93"/><rect class="cls-7" x="343.03" y="60.08" width="11.02" height="9.93"/><rect class="cls-4" x="369.22" y="66.06" width="0.4" height="0.4"/><rect class="cls-4" x="370.37" y="66.06" width="0.4" height="0.4"/><rect class="cls-4" x="371.53" y="66.06" width="0.4" height="0.4"/><path class="cls-2" d="M272,78.63l0.53,0a0.92,0.92,0,0,0,.27.58,0.77,0.77,0,0,0,.54.2,0.83,0.83,0,0,0,.64-0.28,1.09,1.09,0,0,0,.25-0.75,1,1,0,0,0-.24-0.69,0.94,0.94,0,0,0-1.1-.14,0.86,0.86,0,0,0-.31.31l-0.49-.07,0.4-2.15h2.08v0.5H272.9l-0.23,1.11a1.32,1.32,0,0,1,.79-0.26,1.25,1.25,0,0,1,.91.38,1.35,1.35,0,0,1,.38,1,1.49,1.49,0,0,1-.33,1,1.31,1.31,0,0,1-1.1.51,1.34,1.34,0,0,1-.93-0.32,1.23,1.23,0,0,1-.42-0.85" transform="translate(-1.97 -2.77)"/><rect class="cls-4" x="281.62" y="75.18" width="1.6" height="0.52"/><rect class="cls-4" x="292.65" y="75.18" width="1.6" height="0.52"/><rect class="cls-7" x="298.95" y="70.01" width="11.02" height="9.93"/><rect class="cls-4" x="303.67" y="75.18" width="1.6" height="0.52"/><rect class="cls-8" x="309.97" y="70.01" width="11.02" height="9.93"/><rect class="cls-4" x="314.68" y="75.18" width="1.6" height="0.52"/><rect class="cls-3" x="321" y="70.01" width="11.02" height="9.93"/><rect class="cls-8" x="332.02" y="70.01" width="11.01" height="9.93"/><rect class="cls-7" x="343.03" y="70.01" width="11.02" height="9.93"/><rect class="cls-4" x="369.22" y="75.97" width="0.4" height="0.4"/><rect class="cls-4" x="370.37" y="75.97" width="0.4" height="0.4"/><rect class="cls-4" x="371.53" y="75.97" width="0.4" height="0.4"/><path class="cls-2" d="M274.67,86.5l-0.51,0a0.89,0.89,0,0,0-.2-0.44,0.67,0.67,0,0,0-.51-0.21A0.76,0.76,0,0,0,273,86a1.21,1.21,0,0,0-.38.51,2.62,2.62,0,0,0-.14,1,1.08,1.08,0,0,1,.45-0.41,1.27,1.27,0,0,1,.57-0.14,1.18,1.18,0,0,1,.88.38,1.32,1.32,0,0,1,.37,1,1.67,1.67,0,0,1-.17.73,1.27,1.27,0,0,1-.47.52,1.31,1.31,0,0,1-.68.18,1.33,1.33,0,0,1-1.06-.47,2.36,2.36,0,0,1-.4-1.55,2.79,2.79,0,0,1,.45-1.76,1.3,1.3,0,0,1,1.05-.48,1.24,1.24,0,0,1,.82.27,1.21,1.21,0,0,1,.38.77m-2.11,1.8a1.11,1.11,0,0,0,.12.51,0.81,0.81,0,0,0,.31.37,0.79,0.79,0,0,0,.43.13A0.72,0.72,0,0,0,274,89a1,1,0,0,0,.23-0.71,1,1,0,0,0-.23-0.69,0.78,0.78,0,0,0-.59-0.25,0.81,0.81,0,0,0-.59.25A0.91,0.91,0,0,0,272.56,88.3Z" transform="translate(-1.97 -2.77)"/><rect class="cls-4" x="281.62" y="85.11" width="1.6" height="0.52"/><rect class="cls-4" x="292.65" y="85.11" width="1.6" height="0.52"/><rect class="cls-7" x="298.95" y="79.94" width="11.02" height="9.93"/><rect class="cls-4" x="303.67" y="85.11" width="1.6" height="0.52"/><rect class="cls-8" x="309.97" y="79.94" width="11.02" height="9.93"/><rect class="cls-4" x="314.68" y="85.11" width="1.6" height="0.52"/><rect class="cls-3" x="321" y="79.94" width="11.02" height="9.93"/><rect class="cls-4" x="325.71" y="85.11" width="1.6" height="0.52"/><rect class="cls-8" x="332.02" y="79.94" width="11.01" height="9.93"/><rect class="cls-7" x="343.03" y="79.94" width="11.02" height="9.93"/><rect class="cls-4" x="369.22" y="85.9" width="0.4" height="0.4"/><rect class="cls-4" x="370.37" y="85.9" width="0.4" height="0.4"/><rect class="cls-4" x="371.53" y="85.9" width="0.4" height="0.4"/><path class="cls-2" d="M272,96v-0.5h2.72v0.4a5.63,5.63,0,0,0-.8,1.12,7,7,0,0,0-.6,1.46,4.78,4.78,0,0,0-.2,1.15h-0.53a5.16,5.16,0,0,1,.19-1.2,6.53,6.53,0,0,1,.55-1.35,5.57,5.57,0,0,1,.74-1.09H272" transform="translate(-1.97 -2.77)"/><rect class="cls-4" x="281.62" y="95.03" width="1.6" height="0.52"/><rect class="cls-4" x="292.65" y="95.03" width="1.6" height="0.52"/><rect class="cls-7" x="298.95" y="89.86" width="11.02" height="9.93"/><rect class="cls-4" x="303.67" y="95.03" width="1.6" height="0.52"/><rect class="cls-8" x="309.97" y="89.86" width="11.02" height="9.93"/><rect class="cls-4" x="314.68" y="95.03" width="1.6" height="0.52"/><rect class="cls-3" x="321" y="89.86" width="11.02" height="9.93"/><rect class="cls-4" x="325.71" y="95.03" width="1.6" height="0.52"/><rect class="cls-8" x="332.02" y="89.86" width="11.01" height="9.93"/><rect class="cls-4" x="336.73" y="95.03" width="1.6" height="0.52"/><rect class="cls-7" x="343.03" y="89.86" width="11.02" height="9.93"/><rect class="cls-4" x="369.22" y="95.83" width="0.4" height="0.4"/><rect class="cls-4" x="370.37" y="95.83" width="0.4" height="0.4"/><rect class="cls-4" x="371.53" y="95.83" width="0.4" height="0.4"/><path class="cls-2" d="M272.78,107.24a0.94,0.94,0,0,1-.49-0.33,0.85,0.85,0,0,1-.15-0.52,1,1,0,0,1,.33-0.77,1.4,1.4,0,0,1,1.77,0,1,1,0,0,1,.33.77,0.8,0.8,0,0,1-.15.51,1,1,0,0,1-.46.33,1.13,1.13,0,0,1,.58.42,1.11,1.11,0,0,1,.2.66,1.2,1.2,0,0,1-.38.9,1.55,1.55,0,0,1-2,0,1.23,1.23,0,0,1-.38-0.91,1.1,1.1,0,0,1,.21-0.69,1.07,1.07,0,0,1,.59-0.38m-0.11-.86a0.65,0.65,0,0,0,.69.67,0.63,0.63,0,0,0,.49-0.19,0.59,0.59,0,0,0,.19-0.46,0.65,0.65,0,0,0-.19-0.47,0.66,0.66,0,0,0-.49-0.19,0.67,0.67,0,0,0-.5.19A0.6,0.6,0,0,0,272.68,106.38Zm-0.17,1.93a1.11,1.11,0,0,0,.09.43,0.76,0.76,0,0,0,.31.31,0.88,0.88,0,0,0,.45.12,0.83,0.83,0,0,0,.61-0.24,0.81,0.81,0,0,0,.24-0.6,0.86,0.86,0,0,0-.24-0.62,0.88,0.88,0,0,0-.63-0.24,0.82,0.82,0,0,0-.59.24A0.86,0.86,0,0,0,272.51,108.3Z" transform="translate(-1.97 -2.77)"/><rect class="cls-4" x="281.62" y="104.96" width="1.6" height="0.52"/><rect class="cls-4" x="292.65" y="104.96" width="1.6" height="0.52"/><rect class="cls-7" x="298.95" y="99.79" width="11.02" height="9.92"/><rect class="cls-4" x="303.67" y="104.96" width="1.6" height="0.52"/><rect class="cls-8" x="309.97" y="99.79" width="11.02" height="9.92"/><rect class="cls-4" x="314.68" y="104.96" width="1.6" height="0.52"/><rect class="cls-3" x="321" y="99.79" width="11.02" height="9.92"/><rect class="cls-4" x="325.71" y="104.96" width="1.6" height="0.52"/><rect class="cls-8" x="332.02" y="99.79" width="11.01" height="9.92"/><rect class="cls-4" x="336.73" y="104.96" width="1.6" height="0.52"/><rect class="cls-7" x="343.03" y="99.79" width="11.02" height="9.92"/><rect class="cls-4" x="347.76" y="104.96" width="1.6" height="0.52"/><rect class="cls-4" x="369.22" y="105.75" width="0.4" height="0.4"/><rect class="cls-4" x="370.37" y="105.75" width="0.4" height="0.4"/><rect class="cls-4" x="371.53" y="105.75" width="0.4" height="0.4"/><rect class="cls-4" x="270.04" y="115.69" width="0.4" height="0.4"/><rect class="cls-4" x="271.19" y="115.69" width="0.4" height="0.4"/><rect class="cls-4" x="272.36" y="115.69" width="0.4" height="0.4"/><rect class="cls-4" x="281.62" y="114.9" width="1.6" height="0.52"/><rect class="cls-4" x="292.65" y="114.9" width="1.6" height="0.52"/><rect class="cls-7" x="298.95" y="109.71" width="11.02" height="9.95"/><rect class="cls-4" x="303.67" y="114.9" width="1.6" height="0.52"/><rect class="cls-8" x="309.97" y="109.71" width="11.02" height="9.95"/><rect class="cls-4" x="314.68" y="114.9" width="1.6" height="0.52"/><rect class="cls-3" x="321" y="109.71" width="11.02" height="9.95"/><rect class="cls-4" x="325.71" y="114.9" width="1.6" height="0.52"/><rect class="cls-8" x="332.02" y="109.71" width="11.01" height="9.95"/><rect class="cls-4" x="336.73" y="114.9" width="1.6" height="0.52"/><rect class="cls-7" x="343.03" y="109.71" width="11.02" height="9.95"/><rect class="cls-4" x="347.76" y="114.9" width="1.6" height="0.52"/><rect class="cls-4" x="358.78" y="114.9" width="1.6" height="0.52"/><rect class="cls-4" x="369.22" y="115.69" width="0.4" height="0.4"/><rect class="cls-4" x="370.37" y="115.69" width="0.4" height="0.4"/><rect class="cls-4" x="371.53" y="115.69" width="0.4" height="0.4"/><line class="cls-6" x1="309.97" y1="70.02" x2="309.97" y2="79.94"/><polyline class="cls-6" points="298.96 70.02 309.97 70.02 309.97 79.94"/><line class="cls-6" x1="298.96" y1="70.02" x2="298.96" y2="79.94"/><polyline class="cls-6" points="287.94 70.02 298.96 70.02 298.96 79.94"/><line class="cls-6" x1="287.94" y1="70.02" x2="287.94" y2="79.94"/><polyline class="cls-6" points="276.91 70.02 287.94 70.02 287.94 79.94"/><line class="cls-6" x1="276.91" y1="70.02" x2="276.91" y2="79.94"/><polyline class="cls-6" points="265.89 70.02 276.91 70.02 276.91 79.94"/><line class="cls-6" x1="265.89" y1="70.02" x2="265.89" y2="79.94"/><polyline class="cls-6" points="365.09 60.09 376.09 60.09 376.09 70.02"/><line class="cls-6" x1="365.09" y1="60.09" x2="365.09" y2="70.02"/><polyline class="cls-6" points="354.07 60.09 365.09 60.09 365.09 70.02"/><line class="cls-6" x1="354.07" y1="60.09" x2="354.07" y2="70.02"/><polyline class="cls-6" points="343.05 60.09 354.07 60.09 354.07 70.02"/><line class="cls-6" x1="343.04" y1="60.09" x2="343.04" y2="70.02"/><polyline class="cls-6" points="332.02 60.09 343.05 60.09 343.05 70.02"/><line class="cls-6" x1="332.02" y1="60.09" x2="332.02" y2="70.02"/><polyline class="cls-6" points="321 60.09 332.02 60.09 332.02 70.02"/><line class="cls-6" x1="321" y1="60.09" x2="321" y2="70.02"/><polyline class="cls-6" points="309.97 60.09 321 60.09 321 70.02"/><line class="cls-6" x1="309.97" y1="60.09" x2="309.97" y2="70.02"/><polyline class="cls-6" points="298.96 60.09 309.97 60.09 309.97 70.02"/><line class="cls-6" x1="298.96" y1="60.09" x2="298.96" y2="70.02"/><polyline class="cls-6" points="287.94 60.09 298.96 60.09 298.96 70.02"/><line class="cls-6" x1="287.94" y1="60.09" x2="287.94" y2="70.02"/><polyline class="cls-6" points="276.91 60.09 287.94 60.09 287.94 70.02"/><line class="cls-6" x1="276.91" y1="60.09" x2="276.91" y2="70.02"/><polyline class="cls-6" points="265.89 60.09 276.91 60.09 276.91 70.02"/><line class="cls-6" x1="265.89" y1="60.09" x2="265.89" y2="70.02"/><polyline class="cls-6" points="365.09 50.16 376.09 50.16 376.09 60.09"/><line class="cls-6" x1="365.09" y1="50.16" x2="365.09" y2="60.09"/><polyline class="cls-6" points="354.07 50.16 365.09 50.16 365.09 60.09"/><line class="cls-6" x1="354.07" y1="50.16" x2="354.07" y2="60.09"/><polyline class="cls-6" points="343.05 50.16 354.07 50.16 354.07 60.09"/><line class="cls-6" x1="343.04" y1="50.16" x2="343.04" y2="60.09"/><polyline class="cls-6" points="332.02 50.16 343.05 50.16 343.05 60.09"/><line class="cls-6" x1="332.02" y1="50.16" x2="332.02" y2="60.09"/><polyline class="cls-6" points="321 50.16 332.02 50.16 332.02 60.09"/><line class="cls-6" x1="321" y1="50.16" x2="321" y2="60.09"/><polyline class="cls-6" points="309.97 50.16 321 50.16 321 60.09"/><line class="cls-6" x1="309.97" y1="50.16" x2="309.97" y2="60.09"/><polyline class="cls-6" points="298.96 50.16 309.97 50.16 309.97 60.09"/><line class="cls-6" x1="298.96" y1="50.16" x2="298.96" y2="60.09"/><polyline class="cls-6" points="287.94 50.16 298.96 50.16 298.96 60.09"/><line class="cls-6" x1="287.94" y1="50.16" x2="287.94" y2="60.09"/><polyline class="cls-6" points="276.91 50.16 287.94 50.16 287.94 60.09"/><line class="cls-6" x1="276.91" y1="50.16" x2="276.91" y2="60.09"/><polyline class="cls-6" points="265.89 50.16 276.91 50.16 276.91 60.09"/><line class="cls-6" x1="265.89" y1="50.16" x2="265.89" y2="60.09"/><polyline class="cls-6" points="365.09 40.24 376.09 40.24 376.09 50.16"/><line class="cls-6" x1="365.09" y1="40.24" x2="365.09" y2="50.16"/><polyline class="cls-6" points="354.07 40.24 365.09 40.24 365.09 50.16"/><line class="cls-6" x1="354.07" y1="40.24" x2="354.07" y2="50.16"/><polyline class="cls-6" points="343.05 40.24 354.07 40.24 354.07 50.16"/><line class="cls-6" x1="343.04" y1="40.24" x2="343.04" y2="50.16"/><polyline class="cls-6" points="332.02 40.24 343.05 40.24 343.05 50.16"/><line class="cls-6" x1="332.02" y1="40.24" x2="332.02" y2="50.16"/><polyline class="cls-6" points="321 40.24 332.02 40.24 332.02 50.16"/><line class="cls-6" x1="321" y1="40.24" x2="321" y2="50.16"/><polyline class="cls-6" points="309.97 40.24 321 40.24 321 50.16"/><line class="cls-6" x1="309.97" y1="40.24" x2="309.97" y2="50.16"/><polyline class="cls-6" points="298.96 40.24 309.97 40.24 309.97 50.16"/><line class="cls-6" x1="298.96" y1="40.24" x2="298.96" y2="50.16"/><polyline class="cls-6" points="287.94 40.24 298.96 40.24 298.96 50.16"/><line class="cls-6" x1="287.94" y1="40.24" x2="287.94" y2="50.16"/><polyline class="cls-6" points="276.91 40.24 287.94 40.24 287.94 50.16"/><line class="cls-6" x1="276.91" y1="40.24" x2="276.91" y2="50.16"/><polyline class="cls-6" points="265.89 40.24 276.91 40.24 276.91 50.16"/><line class="cls-6" x1="265.89" y1="40.24" x2="265.89" y2="50.16"/><polyline class="cls-6" points="365.09 30.31 376.09 30.31 376.09 40.24"/><line class="cls-6" x1="365.09" y1="30.31" x2="365.09" y2="40.24"/><polyline class="cls-6" points="354.07 30.31 365.09 30.31 365.09 40.24"/><line class="cls-6" x1="354.07" y1="30.31" x2="354.07" y2="40.24"/><polyline class="cls-6" points="343.05 30.31 354.07 30.31 354.07 40.24"/><line class="cls-6" x1="343.04" y1="30.31" x2="343.04" y2="40.24"/><polyline class="cls-6" points="332.02 30.31 343.05 30.31 343.05 40.24"/><line class="cls-6" x1="332.02" y1="30.31" x2="332.02" y2="40.24"/><polyline class="cls-6" points="321 30.31 332.02 30.31 332.02 40.24"/><line class="cls-6" x1="321" y1="30.31" x2="321" y2="40.24"/><polyline class="cls-6" points="309.97 30.31 321 30.31 321 40.24"/><line class="cls-6" x1="309.97" y1="30.31" x2="309.97" y2="40.24"/><polyline class="cls-6" points="298.96 30.31 309.97 30.31 309.97 40.24"/><line class="cls-6" x1="298.96" y1="30.31" x2="298.96" y2="40.24"/><polyline class="cls-6" points="287.94 30.31 298.96 30.31 298.96 40.24"/><line class="cls-6" x1="287.94" y1="30.31" x2="287.94" y2="40.24"/><polyline class="cls-6" points="276.91 30.31 287.94 30.31 287.94 40.24"/><line class="cls-6" x1="276.91" y1="30.31" x2="276.91" y2="40.24"/><polyline class="cls-6" points="265.89 30.31 276.91 30.31 276.91 40.24"/><line class="cls-6" x1="265.89" y1="30.31" x2="265.89" y2="40.24"/><polyline class="cls-6" points="365.09 20.38 376.09 20.38 376.09 30.31"/><line class="cls-6" x1="365.09" y1="20.38" x2="365.09" y2="30.31"/><polyline class="cls-6" points="354.07 20.38 365.09 20.38 365.09 30.31"/><line class="cls-6" x1="354.07" y1="20.38" x2="354.07" y2="30.31"/><polyline class="cls-6" points="343.05 20.38 354.07 20.38 354.07 30.31"/><line class="cls-6" x1="343.04" y1="20.38" x2="343.04" y2="30.31"/><polyline class="cls-6" points="332.02 20.38 343.05 20.38 343.05 30.31"/><line class="cls-6" x1="332.02" y1="20.38" x2="332.02" y2="30.31"/><polyline class="cls-6" points="321 20.38 332.02 20.38 332.02 30.31"/><line class="cls-6" x1="321" y1="20.38" x2="321" y2="30.31"/><polyline class="cls-6" points="309.97 20.38 321 20.38 321 30.31"/><line class="cls-6" x1="309.97" y1="20.38" x2="309.97" y2="30.31"/><polyline class="cls-6" points="298.96 20.38 309.97 20.38 309.97 30.31"/><line class="cls-6" x1="298.96" y1="20.38" x2="298.96" y2="30.31"/><polyline class="cls-6" points="287.94 20.38 298.96 20.38 298.96 30.31"/><line class="cls-6" x1="287.94" y1="20.38" x2="287.94" y2="30.31"/><polyline class="cls-6" points="276.91 20.38 287.94 20.38 287.94 30.31"/><line class="cls-6" x1="276.91" y1="20.38" x2="276.91" y2="30.31"/><polyline class="cls-6" points="265.89 20.38 276.91 20.38 276.91 30.31"/><line class="cls-6" x1="265.89" y1="20.38" x2="265.89" y2="30.31"/><polyline class="cls-6" points="254.87 20.38 265.89 20.38 265.89 119.67"/><line class="cls-6" x1="254.87" y1="119.67" x2="265.89" y2="119.67"/><line class="cls-6" x1="254.87" y1="20.38" x2="254.87" y2="119.67"/><polyline class="cls-6" points="365.09 10.47 376.09 10.47 376.09 20.38"/><line class="cls-6" x1="365.09" y1="10.47" x2="365.09" y2="20.38"/><polyline class="cls-6" points="354.07 10.47 365.09 10.47 365.09 20.38"/><line class="cls-6" x1="354.07" y1="10.47" x2="354.07" y2="20.38"/><polyline class="cls-6" points="343.05 10.47 354.07 10.47 354.07 20.38"/><line class="cls-6" x1="343.04" y1="10.47" x2="343.04" y2="20.38"/><polyline class="cls-6" points="332.02 10.47 343.05 10.47 343.05 20.38"/><line class="cls-6" x1="332.02" y1="10.47" x2="332.02" y2="20.38"/><polyline class="cls-6" points="321 10.47 332.02 10.47 332.02 20.38"/><line class="cls-6" x1="321" y1="10.47" x2="321" y2="20.38"/><polyline class="cls-6" points="309.97 10.47 321 10.47 321 20.38"/><line class="cls-6" x1="309.97" y1="10.47" x2="309.97" y2="20.38"/><polyline class="cls-6" points="298.96 10.47 309.97 10.47 309.97 20.38"/><line class="cls-6" x1="298.96" y1="10.47" x2="298.96" y2="20.38"/><polyline class="cls-6" points="287.94 10.47 298.96 10.47 298.96 20.38"/><line class="cls-6" x1="287.94" y1="10.47" x2="287.94" y2="20.38"/><polyline class="cls-6" points="276.91 10.47 287.94 10.47 287.94 20.38"/><line class="cls-6" x1="276.91" y1="10.47" x2="276.91" y2="20.38"/><polyline class="cls-6" points="276.91 0.54 376.09 0.54 376.09 10.47"/><line class="cls-6" x1="276.91" y1="0.54" x2="276.91" y2="10.47"/><polyline class="cls-6" points="254.87 0.54 276.91 0.54 276.91 20.38"/><line class="cls-6" x1="254.87" y1="0.54" x2="254.87" y2="20.38"/><polyline class="cls-6" points="365.09 109.72 376.09 109.72 376.09 119.67"/><line class="cls-6" x1="365.09" y1="119.67" x2="376.09" y2="119.67"/><line class="cls-6" x1="365.09" y1="109.72" x2="365.09" y2="119.67"/><polyline class="cls-6" points="354.07 109.72 365.09 109.72 365.09 119.67"/><line class="cls-6" x1="354.07" y1="119.67" x2="365.09" y2="119.67"/><line class="cls-6" x1="354.07" y1="109.72" x2="354.07" y2="119.67"/><polyline class="cls-6" points="343.05 109.72 354.07 109.72 354.07 119.67"/><line class="cls-6" x1="343.04" y1="119.67" x2="354.07" y2="119.67"/><line class="cls-6" x1="343.04" y1="109.72" x2="343.04" y2="119.67"/><polyline class="cls-6" points="332.02 109.72 343.05 109.72 343.05 119.67"/><line class="cls-6" x1="332.02" y1="119.67" x2="343.04" y2="119.67"/><line class="cls-6" x1="332.02" y1="109.72" x2="332.02" y2="119.67"/><polyline class="cls-6" points="321 109.72 332.02 109.72 332.02 119.67"/><line class="cls-6" x1="321" y1="119.67" x2="332.02" y2="119.67"/><line class="cls-6" x1="321" y1="109.72" x2="321" y2="119.67"/><polyline class="cls-6" points="309.97 109.72 321 109.72 321 119.67"/><line class="cls-6" x1="309.97" y1="119.67" x2="321" y2="119.67"/><line class="cls-6" x1="309.97" y1="109.72" x2="309.97" y2="119.67"/><polyline class="cls-6" points="298.96 109.72 309.97 109.72 309.97 119.67"/><line class="cls-6" x1="298.96" y1="119.67" x2="309.97" y2="119.67"/><line class="cls-6" x1="298.96" y1="109.72" x2="298.96" y2="119.67"/><polyline class="cls-6" points="287.94 109.72 298.96 109.72 298.96 119.67"/><line class="cls-6" x1="287.94" y1="119.67" x2="298.96" y2="119.67"/><line class="cls-6" x1="287.94" y1="109.72" x2="287.94" y2="119.67"/><polyline class="cls-6" points="276.91 109.72 287.94 109.72 287.94 119.67"/><line class="cls-6" x1="276.91" y1="119.67" x2="287.94" y2="119.67"/><line class="cls-6" x1="276.91" y1="109.72" x2="276.91" y2="119.67"/><polyline class="cls-6" points="265.89 109.72 276.91 109.72 276.91 119.67"/><line class="cls-6" x1="265.89" y1="119.67" x2="276.91" y2="119.67"/><line class="cls-6" x1="265.89" y1="109.72" x2="265.89" y2="119.67"/><polyline class="cls-6" points="365.09 99.79 376.09 99.79 376.09 109.72"/><line class="cls-6" x1="365.09" y1="99.79" x2="365.09" y2="109.72"/><polyline class="cls-6" points="354.07 99.79 365.09 99.79 365.09 109.72"/><line class="cls-6" x1="354.07" y1="99.79" x2="354.07" y2="109.72"/><polyline class="cls-6" points="343.05 99.79 354.07 99.79 354.07 109.72"/><line class="cls-6" x1="343.04" y1="99.79" x2="343.04" y2="109.72"/><polyline class="cls-6" points="332.02 99.79 343.05 99.79 343.05 109.72"/><line class="cls-6" x1="332.02" y1="99.79" x2="332.02" y2="109.72"/><polyline class="cls-6" points="321 99.79 332.02 99.79 332.02 109.72"/><line class="cls-6" x1="321" y1="99.79" x2="321" y2="109.72"/><polyline class="cls-6" points="309.97 99.79 321 99.79 321 109.72"/><line class="cls-6" x1="309.97" y1="99.79" x2="309.97" y2="109.72"/><polyline class="cls-6" points="298.96 99.79 309.97 99.79 309.97 109.72"/><line class="cls-6" x1="298.96" y1="99.79" x2="298.96" y2="109.72"/><polyline class="cls-6" points="287.94 99.79 298.96 99.79 298.96 109.72"/><line class="cls-6" x1="287.94" y1="99.79" x2="287.94" y2="109.72"/><polyline class="cls-6" points="276.91 99.79 287.94 99.79 287.94 109.72"/><line class="cls-6" x1="276.91" y1="99.79" x2="276.91" y2="109.72"/><polyline class="cls-6" points="265.89 99.79 276.91 99.79 276.91 109.72"/><line class="cls-6" x1="265.89" y1="99.79" x2="265.89" y2="109.72"/><polyline class="cls-6" points="365.09 89.86 376.09 89.86 376.09 99.79"/><line class="cls-6" x1="365.09" y1="89.86" x2="365.09" y2="99.79"/><polyline class="cls-6" points="354.07 89.86 365.09 89.86 365.09 99.79"/><line class="cls-6" x1="354.07" y1="89.86" x2="354.07" y2="99.79"/><polyline class="cls-6" points="343.05 89.86 354.07 89.86 354.07 99.79"/><line class="cls-6" x1="343.04" y1="89.86" x2="343.04" y2="99.79"/><polyline class="cls-6" points="332.02 89.86 343.05 89.86 343.05 99.79"/><line class="cls-6" x1="332.02" y1="89.86" x2="332.02" y2="99.79"/><polyline class="cls-6" points="321 89.86 332.02 89.86 332.02 99.79"/><line class="cls-6" x1="321" y1="89.86" x2="321" y2="99.79"/><polyline class="cls-6" points="309.97 89.86 321 89.86 321 99.79"/><line class="cls-6" x1="309.97" y1="89.86" x2="309.97" y2="99.79"/><polyline class="cls-6" points="298.96 89.86 309.97 89.86 309.97 99.79"/><line class="cls-6" x1="298.96" y1="89.86" x2="298.96" y2="99.79"/><polyline class="cls-6" points="287.94 89.86 298.96 89.86 298.96 99.79"/><line class="cls-6" x1="287.94" y1="89.86" x2="287.94" y2="99.79"/><polyline class="cls-6" points="276.91 89.86 287.94 89.86 287.94 99.79"/><line class="cls-6" x1="276.91" y1="89.86" x2="276.91" y2="99.79"/><polyline class="cls-6" points="265.89 89.86 276.91 89.86 276.91 99.79"/><line class="cls-6" x1="265.89" y1="89.86" x2="265.89" y2="99.79"/><polyline class="cls-6" points="365.09 79.94 376.09 79.94 376.09 89.86"/><line class="cls-6" x1="365.09" y1="79.93" x2="365.09" y2="89.86"/><polyline class="cls-6" points="354.07 79.94 365.09 79.94 365.09 89.86"/><line class="cls-6" x1="354.07" y1="79.93" x2="354.07" y2="89.86"/><polyline class="cls-6" points="343.05 79.94 354.07 79.94 354.07 89.86"/><line class="cls-6" x1="343.04" y1="79.93" x2="343.04" y2="89.86"/><polyline class="cls-6" points="332.02 79.94 343.05 79.94 343.05 89.86"/><line class="cls-6" x1="332.02" y1="79.93" x2="332.02" y2="89.86"/><polyline class="cls-6" points="321 79.94 332.02 79.94 332.02 89.86"/><line class="cls-6" x1="321" y1="79.93" x2="321" y2="89.86"/><polyline class="cls-6" points="309.97 79.94 321 79.94 321 89.86"/><line class="cls-6" x1="309.97" y1="79.93" x2="309.97" y2="89.86"/><polyline class="cls-6" points="298.96 79.94 309.97 79.94 309.97 89.86"/><line class="cls-6" x1="298.96" y1="79.93" x2="298.96" y2="89.86"/><polyline class="cls-6" points="287.94 79.94 298.96 79.94 298.96 89.86"/><line class="cls-6" x1="287.94" y1="79.93" x2="287.94" y2="89.86"/><polyline class="cls-6" points="276.91 79.94 287.94 79.94 287.94 89.86"/><line class="cls-6" x1="276.91" y1="79.93" x2="276.91" y2="89.86"/><polyline class="cls-6" points="265.89 79.94 276.91 79.94 276.91 89.86"/><line class="cls-6" x1="265.89" y1="79.93" x2="265.89" y2="89.86"/><polyline class="cls-6" points="365.09 70.02 376.09 70.02 376.09 79.94"/><line class="cls-6" x1="365.09" y1="70.02" x2="365.09" y2="79.93"/><polyline class="cls-6" points="354.07 70.02 365.09 70.02 365.09 79.94"/><line class="cls-6" x1="354.07" y1="70.02" x2="354.07" y2="79.93"/><polyline class="cls-6" points="343.05 70.02 354.07 70.02 354.07 79.94"/><line class="cls-6" x1="343.04" y1="70.02" x2="343.04" y2="79.93"/><polyline class="cls-6" points="332.02 70.02 343.05 70.02 343.05 79.94"/><line class="cls-6" x1="332.02" y1="70.02" x2="332.02" y2="79.93"/><polyline class="cls-6" points="321 70.02 332.02 70.02 332.02 79.94"/><line class="cls-6" x1="321" y1="70.02" x2="321" y2="79.93"/><polyline class="cls-6" points="309.97 70.02 321 70.02 321 79.94"/><text class="cls-9" transform="translate(35.89 133.89)">p = 0.032</text><text class="cls-10" transform="translate(166.18 133.89)">p = 0.017</text><text class="cls-11" transform="translate(288.7 133.89)">p = 0.024</text></svg>