<?xml version="1.0" encoding="utf-8"?>
<!-- Generator: Adobe Illustrator 19.2.1, SVG Export Plug-In . SVG Version: 6.00 Build 0)  -->
<svg version="1.1" id="Ebene_1" xmlns="http://www.w3.org/2000/svg" xmlns:xlink="http://www.w3.org/1999/xlink" x="0px" y="0px"
	 viewBox="0 0 275 179.1" style="enable-background:new 0 0 275 179.1;" xml:space="preserve">
<style type="text/css">
	.st0{fill:none;stroke:#A3BCD9;stroke-width:2.47;stroke-linecap:round;stroke-linejoin:round;}
	.st1{fill:none;stroke:#222221;stroke-width:0.49;stroke-linecap:round;stroke-linejoin:round;}
	.st2{fill:#222221;}
	.st3{font-family:'ArialMT';}
	.st4{font-size:7.91px;}
	.st5{fill:#222221;stroke:#289548;stroke-width:0.99;stroke-linecap:round;stroke-linejoin:round;}
	.st6{fill:#222221;stroke:#D9861C;stroke-width:0.99;stroke-linecap:round;stroke-linejoin:round;}
	.st7{fill:#222221;stroke:#C20E1A;stroke-width:0.99;stroke-linecap:round;stroke-linejoin:round;}
	.st8{fill:#289548;}
	.st9{font-family:'MyriadPro-Regular';}
	.st10{font-size:12px;}
	.st11{fill:#D9861C;}
	.st12{fill:#C20E1A;}
</style>
<title>skewposterior</title>
<polyline class="st0" points="35.9,145.2 36.4,141.1 36.9,136.9 37.4,132.8 37.8,128.6 38.3,124.6 38.8,120.6 39.3,116.8 39.7,113 
	40.2,109.3 40.7,105.7 41.2,102.2 41.6,98.8 42.1,95.5 42.6,92.3 43.1,89.1 43.5,86.1 44,83.1 44.5,80.3 45,77.5 45.5,74.8 
	45.9,72.1 46.4,69.6 46.9,67.2 47.3,64.8 47.8,62.5 48.3,60.3 48.8,58.1 49.3,56 49.7,54 50.2,52.1 50.7,50.2 51.2,48.4 51.6,46.7 
	52.1,45 52.6,43.4 53.1,41.9 53.5,40.4 54,39 54.5,37.6 55,36.3 55.4,35 55.9,33.8 56.4,32.7 56.9,31.6 57.3,30.6 57.8,29.6 
	58.3,28.6 58.8,27.8 59.2,26.9 59.7,26.1 60.2,25.4 60.7,24.6 61.2,24 61.6,23.3 62.1,22.8 62.6,22.2 63,21.7 63.5,21.2 64,20.8 
	64.5,20.4 64.9,20 65.4,19.7 65.9,19.4 66.4,19.1 66.9,18.9 67.3,18.7 67.8,18.5 68.3,18.4 68.8,18.3 69.2,18.2 69.7,18.1 
	70.2,18.1 70.7,18.1 71.1,18.1 71.6,18.1 72.1,18.2 72.6,18.3 73,18.4 73.5,18.5 74,18.7 74.5,18.8 74.9,19 75.4,19.2 75.9,19.5 
	76.4,19.7 76.8,20 77.3,20.3 77.8,20.6 78.3,20.9 78.8,21.2 79.2,21.5 79.7,21.9 80.2,22.3 80.7,22.7 81.1,23.1 81.6,23.5 
	82.1,23.9 82.6,24.3 83,24.8 83.5,25.3 84,25.7 84.4,26.2 84.9,26.7 85.4,27.2 85.9,27.7 86.4,28.2 86.8,28.7 87.3,29.3 87.8,29.8 
	88.3,30.4 89.2,31.5 89.7,32.1 90.2,32.6 90.6,33.2 91.1,33.8 91.6,34.4 92.1,35 92.5,35.6 93,36.2 93.5,36.8 94,37.5 94.4,38.1 
	94.9,38.7 95.4,39.3 95.9,40 96.3,40.6 96.8,41.2 97.3,41.9 97.8,42.5 98.3,43.2 98.7,43.8 99.2,44.5 99.7,45.1 100.2,45.8 
	100.6,46.4 101.1,47.1 101.6,47.7 102.1,48.4 102.5,49.1 103.5,50.4 104,51 104.9,52.4 105.4,53 105.9,53.7 106.3,54.3 106.8,55 
	107.3,55.7 107.8,56.3 108.2,57 108.7,57.6 109.2,58.3 109.7,58.9 110.1,59.6 110.6,60.2 111.1,60.9 111.6,61.5 112,62.2 
	112.5,62.8 113.5,64.1 113.9,64.8 114.4,65.4 114.9,66 115.4,66.7 115.8,67.3 116.3,67.9 116.8,68.6 117.3,69.2 117.8,69.8 
	118.2,70.4 118.7,71 119.2,71.6 119.7,72.3 120.1,72.9 120.6,73.5 121.1,74.1 121.6,74.7 122,75.3 122.5,75.9 123,76.5 123.5,77.1 
	123.9,77.6 124.4,78.2 124.9,78.8 125.4,79.4 125.8,80 126.3,80.5 126.8,81.1 127.3,81.7 127.7,82.2 128.2,82.8 128.7,83.3 
	129.2,83.9 129.6,84.4 130.1,85 130.6,85.5 131.1,86.1 131.6,86.6 132,87.1 132.5,87.7 133,88.2 133.4,88.7 134.4,89.7 134.9,90.3 
	135.4,90.8 135.8,91.3 136.3,91.8 136.8,92.3 137.7,93.3 138.2,93.7 138.7,94.2 139.2,94.7 139.6,95.2 140.1,95.7 140.6,96.1 
	141.1,96.6 141.5,97.1 142,97.5 142.5,98 143.4,98.9 143.9,99.3 144.9,100.2 145.4,100.7 145.8,101.1 146.3,101.5 146.8,101.9 
	147.3,102.4 147.7,102.8 148.2,103.2 148.7,103.6 149.1,104 149.6,104.4 150.1,104.8 150.6,105.2 151.1,105.6 151.5,106 152,106.4 
	152.5,106.8 153.4,107.6 153.9,107.9 154.4,108.3 154.9,108.7 155.3,109.1 155.8,109.4 156.3,109.8 156.8,110.1 157.2,110.5 
	157.7,110.9 158.2,111.2 158.7,111.6 159.1,111.9 159.6,112.2 160.1,112.6 160.6,112.9 161.1,113.2 161.5,113.6 162,113.9 
	162.5,114.2 162.9,114.5 163.4,114.9 163.9,115.2 164.4,115.5 164.9,115.8 165.3,116.1 165.8,116.4 166.3,116.7 166.8,117 
	167.7,117.6 168.2,117.9 168.7,118.2 169.1,118.4 169.6,118.7 170.1,119 170.6,119.3 171,119.6 171.5,119.8 172,120.1 172.5,120.4 
	172.9,120.6 173.4,120.9 173.9,121.1 174.4,121.4 174.8,121.7 175.3,121.9 175.8,122.2 176.3,122.4 176.8,122.7 177.2,122.9 
	177.7,123.1 178.2,123.4 178.6,123.6 179.1,123.8 179.6,124.1 180.1,124.3 180.6,124.5 181,124.7 181.5,125 182,125.2 182.5,125.4 
	182.9,125.6 183.4,125.8 183.9,126 184.4,126.3 184.8,126.5 185.3,126.7 185.8,126.9 186.3,127.1 186.7,127.3 187.2,127.5 
	187.7,127.7 188.2,127.8 188.6,128 189.1,128.2 189.6,128.4 190.1,128.6 190.5,128.8 191,129 191.5,129.1 192,129.3 192.4,129.5 
	192.9,129.7 193.4,129.8 193.9,130 194.4,130.2 194.8,130.3 195.3,130.5 195.8,130.7 196.3,130.8 196.7,131 197.2,131.2 
	197.7,131.3 198.1,131.5 198.6,131.6 199.1,131.8 199.6,131.9 200.1,132.1 200.5,132.2 201,132.4 201.5,132.5 202,132.7 
	202.4,132.8 202.9,132.9 203.4,133.1 203.9,133.2 204.3,133.3 204.8,133.5 205.3,133.6 205.8,133.7 206.2,133.9 206.7,134 
	207.2,134.1 207.7,134.3 208.1,134.4 208.6,134.5 209.1,134.6 209.6,134.7 210,134.9 210.5,135 211,135.1 211.5,135.2 211.9,135.3 
	212.4,135.4 212.9,135.6 213.4,135.7 213.9,135.8 214.3,135.9 214.8,136 215.3,136.1 215.8,136.2 216.2,136.3 216.7,136.4 
	217.2,136.5 217.6,136.6 218.1,136.7 218.6,136.8 219.1,136.9 219.6,137 220,137.1 220.5,137.2 221,137.3 221.5,137.4 221.9,137.5 
	222.4,137.5 222.9,137.6 223.4,137.7 223.8,137.8 224.3,137.9 224.8,138 225.3,138.1 225.8,138.1 226.2,138.2 226.7,138.3 
	227.2,138.4 227.6,138.5 228.1,138.6 228.6,138.6 229.1,138.7 229.6,138.8 230,138.9 230.5,138.9 231,139 231.4,139.1 231.9,139.1 
	232.4,139.2 232.9,139.3 233.4,139.4 233.8,139.4 234.3,139.5 234.8,139.6 235.3,139.6 235.7,139.7 236.2,139.8 236.7,139.8 
	237.2,139.9 237.6,139.9 238.1,140 238.6,140.1 239.1,140.1 239.5,140.2 240,140.3 240.5,140.3 241,140.4 241.4,140.4 241.9,140.5 
	242.4,140.5 242.9,140.6 243.3,140.7 243.8,140.7 244.3,140.8 244.8,140.8 245.3,140.9 245.7,140.9 246.2,141 246.7,141 
	247.1,141.1 247.6,141.1 248.1,141.2 248.6,141.2 249.1,141.3 249.5,141.3 250,141.4 250.5,141.4 251,141.4 251.9,141.5 
	252.4,141.6 252.9,141.6 253.3,141.7 253.8,141.7 254.3,141.8 254.8,141.8 255.2,141.8 255.7,141.9 256.2,141.9 256.7,142 
	257.1,142 257.6,142 258.1,142.1 259,142.1 259.5,142.2 260,142.2 260.5,142.3 261,142.3 261.9,142.4 262.4,142.4 262.9,142.4 
	263.3,142.5 263.8,142.5 264.3,142.5 264.8,142.6 265.2,142.6 265.7,142.6 266.2,142.7 266.7,142.7 267.1,142.7 267.6,142.7 
	268.1,142.8 268.6,142.8 269,142.8 269.5,142.9 270,142.9 270.5,142.9 270.9,142.9 271.4,143 271.9,143 272.4,143 272.8,143.1 
	273.3,143.1 273.8,143.1 "/>
<line class="st1" x1="239.8" y1="150.3" x2="239.8" y2="155"/>
<line class="st1" x1="171.9" y1="150.3" x2="171.9" y2="155"/>
<line class="st1" x1="103.9" y1="150.3" x2="103.9" y2="155"/>
<line class="st1" x1="35.9" y1="150.3" x2="35.9" y2="155"/>
<line class="st1" x1="35.9" y1="150.3" x2="239.8" y2="150.3"/>
<text transform="matrix(1 0 0 1 167.46 164.5133)" class="st2 st3 st4">20</text>
<text transform="matrix(1 0 0 1 33.73 164.5133)" class="st2 st3 st4">0</text>
<text transform="matrix(1 0 0 1 99.49 164.5133)" class="st2 st3 st4">1</text>
<text transform="matrix(1 0 0 1 103.89 164.5133)" class="st2 st3 st4">0</text>
<text transform="matrix(1 0 0 1 235.41 164.5133)" class="st2 st3 st4">3</text>
<text transform="matrix(1 0 0 1 239.81 164.5133)" class="st2 st3 st4">0</text>
<text transform="matrix(1 0 0 1 105.98 177.0933)" class="st2 st3 st4">Parameter Value</text>
<line class="st5" x1="71" y1="13.7" x2="72" y2="145.2"/>
<line class="st6" x1="91.1" y1="25.9" x2="92" y2="144.9"/>
<line class="st7" x1="105.6" y1="41.9" x2="106.4" y2="144.9"/>
<text transform="matrix(1 0 0 1 66.1667 12.0002)" class="st8 st9 st10">modus</text>
<text transform="matrix(1 0 0 1 86.1965 24)" class="st11 st9 st10">median</text>
<text transform="matrix(1 0 0 1 100.4997 40.3335)" class="st12 st9 st10">mean</text>
</svg>
