<svg id="Ebene_1" data-name="Ebene 1" xmlns="http://www.w3.org/2000/svg" viewBox="0 0 275.03 162.24"><defs><style>.cls-1,.cls-2,.cls-4,.cls-5{fill:none;stroke-linecap:round;stroke-linejoin:round;}.cls-1{stroke:#a3bcd9;stroke-width:2.47px;}.cls-2,.cls-4,.cls-5{stroke:#222221;}.cls-2{stroke-width:0.49px;}.cls-3{font-size:7.91px;fill:#222221;font-family:Helvetica;}.cls-4{stroke-width:1.48px;}.cls-5{stroke-width:0.99px;}</style></defs><title>skewposterior</title><polyline class="cls-1" points="35.93 128.39 36.41 124.3 36.89 120.09 37.36 115.92 37.83 111.8 38.31 107.76 38.79 103.81 39.26 99.94 39.74 96.16 40.21 92.48 40.69 88.88 41.17 85.38 41.64 81.98 42.11 78.66 42.59 75.43 43.07 72.3 43.54 69.25 44.02 66.29 44.49 63.42 44.97 60.63 45.45 57.93 45.92 55.31 46.4 52.78 46.88 50.32 47.35 47.94 47.82 45.64 48.3 43.42 48.78 41.27 49.25 39.19 49.73 37.18 50.2 35.25 50.68 33.38 51.16 31.58 51.63 29.85 52.1 28.18 52.58 26.57 53.06 25.03 53.53 23.55 54.01 22.13 54.48 20.77 54.96 19.46 55.44 18.21 55.91 17.01 56.39 15.87 56.87 14.78 57.34 13.74 57.81 12.76 58.29 11.81 58.77 10.92 59.24 10.07 59.72 9.28 60.19 8.52 60.67 7.8 61.15 7.14 61.62 6.51 62.09 5.92 62.58 5.37 63.05 4.86 63.52 4.39 64 3.96 64.47 3.56 64.95 3.19 65.43 2.86 65.9 2.56 66.38 2.3 66.86 2.06 67.33 1.86 67.8 1.69 68.28 1.54 68.76 1.43 69.23 1.34 69.71 1.28 70.18 1.25 70.66 1.23 71.14 1.25 71.61 1.29 72.08 1.35 72.56 1.44 73.04 1.55 73.51 1.68 73.99 1.83 74.47 2 74.94 2.19 75.42 2.4 75.89 2.63 76.37 2.88 76.85 3.15 77.32 3.43 77.79 3.73 78.27 4.04 78.75 4.37 79.22 4.71 79.7 5.07 80.17 5.45 80.65 5.84 81.13 6.24 81.6 6.65 82.08 7.07 82.55 7.51 83.03 7.96 83.5 8.42 83.98 8.89 84.45 9.37 84.93 9.86 85.41 10.36 85.88 10.87 86.36 11.39 86.84 11.91 87.31 12.45 87.78 12.99 88.26 13.54 89.21 14.66 89.69 15.23 90.16 15.81 90.64 16.4 91.12 16.98 91.59 17.58 92.06 18.18 92.54 18.79 93.02 19.4 93.49 20.01 93.97 20.63 94.44 21.25 94.92 21.88 95.4 22.5 95.87 23.13 96.35 23.77 96.83 24.41 97.3 25.05 97.77 25.7 98.25 26.34 98.73 26.99 99.2 27.64 99.68 28.29 100.15 28.95 100.63 29.6 101.11 30.26 101.58 30.91 102.05 31.57 102.53 32.23 103.48 33.55 103.96 34.21 104.91 35.52 105.39 36.19 105.86 36.85 106.34 37.5 106.82 38.16 107.29 38.83 107.76 39.48 108.24 40.13 108.72 40.79 109.19 41.45 109.67 42.1 110.14 42.75 110.62 43.4 111.1 44.05 111.57 44.71 112.04 45.35 112.52 45.99 113.47 47.28 113.95 47.92 114.42 48.56 114.9 49.2 115.38 49.83 115.85 50.46 116.33 51.09 116.81 51.72 117.28 52.34 117.75 52.97 118.23 53.59 118.71 54.2 119.18 54.81 119.66 55.43 120.13 56.04 120.61 56.64 121.09 57.25 121.56 57.85 122.03 58.45 122.52 59.04 122.99 59.63 123.46 60.23 123.94 60.81 124.42 61.4 124.89 61.98 125.37 62.55 125.84 63.13 126.32 63.7 126.8 64.27 127.27 64.83 127.74 65.4 128.22 65.95 128.7 66.51 129.17 67.06 129.65 67.61 130.12 68.15 130.6 68.7 131.08 69.24 131.55 69.77 132.03 70.3 132.5 70.83 132.98 71.36 133.45 71.88 134.41 72.91 134.88 73.43 135.36 73.93 135.83 74.44 136.31 74.94 136.79 75.44 137.73 76.42 138.21 76.91 138.69 77.4 139.16 77.88 139.64 78.35 140.11 78.83 140.59 79.3 141.07 79.77 141.54 80.23 142.01 80.69 142.5 81.15 143.44 82.06 143.92 82.5 144.87 83.38 145.35 83.82 145.82 84.25 146.3 84.69 146.78 85.11 147.25 85.53 147.72 85.96 148.2 86.37 148.68 86.78 149.15 87.19 149.63 87.6 150.1 88 150.58 88.4 151.06 88.8 151.53 89.19 152 89.59 152.49 89.97 153.43 90.74 153.91 91.11 154.39 91.48 154.86 91.86 155.34 92.23 155.81 92.59 156.29 92.95 156.77 93.31 157.24 93.67 157.71 94.03 158.19 94.37 158.67 94.72 159.14 95.06 159.62 95.4 160.09 95.74 160.57 96.08 161.05 96.41 161.52 96.73 162 97.06 162.47 97.39 162.95 97.71 163.42 98.02 163.9 98.34 164.38 98.65 164.85 98.96 165.33 99.26 165.8 99.57 166.28 99.86 166.76 100.16 167.71 100.75 168.18 101.04 168.66 101.33 169.13 101.61 169.61 101.89 170.08 102.17 170.56 102.45 171.04 102.73 171.51 103 171.99 103.27 172.47 103.53 172.94 103.79 173.41 104.06 173.89 104.31 174.37 104.57 174.84 104.82 175.32 105.07 175.79 105.32 176.27 105.57 176.75 105.82 177.22 106.05 177.69 106.3 178.17 106.53 178.65 106.77 179.12 107 179.6 107.23 180.08 107.46 180.55 107.69 181.03 107.91 181.5 108.13 181.97 108.35 182.46 108.57 182.93 108.78 183.4 108.99 183.88 109.2 184.36 109.42 184.83 109.62 185.31 109.83 185.78 110.03 186.26 110.23 186.74 110.43 187.21 110.63 187.68 110.82 188.16 111.01 188.64 111.2 189.11 111.39 189.59 111.58 190.06 111.76 190.54 111.95 191.02 112.13 191.49 112.31 191.97 112.49 192.45 112.66 192.92 112.83 193.39 113 193.87 113.18 194.35 113.35 194.82 113.51 195.3 113.68 195.77 113.84 196.25 114 196.73 114.16 197.2 114.32 197.67 114.48 198.15 114.64 198.63 114.79 199.1 114.94 199.58 115.09 200.06 115.24 200.53 115.39 201.01 115.53 201.48 115.68 201.96 115.82 202.44 115.96 202.91 116.1 203.38 116.24 203.86 116.38 204.34 116.51 204.81 116.65 205.29 116.78 205.76 116.91 206.24 117.04 206.72 117.17 207.19 117.29 207.66 117.42 208.15 117.54 208.62 117.67 209.09 117.79 209.57 117.91 210.04 118.03 210.52 118.15 211 118.27 211.47 118.38 211.95 118.49 212.43 118.61 212.9 118.72 213.37 118.83 213.85 118.94 214.33 119.04 214.8 119.15 215.28 119.26 215.75 119.36 216.23 119.46 216.71 119.57 217.18 119.67 217.65 119.77 218.13 119.87 218.61 119.97 219.08 120.06 219.56 120.16 220.04 120.25 220.51 120.35 220.99 120.44 221.46 120.54 221.94 120.62 222.42 120.71 222.89 120.81 223.36 120.89 223.84 120.98 224.32 121.06 224.79 121.15 225.27 121.23 225.75 121.31 226.22 121.4 226.7 121.48 227.17 121.56 227.65 121.64 228.12 121.72 228.6 121.79 229.07 121.87 229.55 121.95 230.03 122.02 230.5 122.09 230.98 122.17 231.45 122.24 231.93 122.31 232.41 122.38 232.88 122.46 233.35 122.52 233.83 122.59 234.31 122.66 234.78 122.73 235.26 122.79 235.73 122.86 236.21 122.92 236.69 122.99 237.16 123.05 237.63 123.11 238.12 123.18 238.59 123.24 239.06 123.3 239.54 123.36 240.01 123.42 240.49 123.48 240.97 123.53 241.44 123.59 241.92 123.65 242.4 123.7 242.87 123.76 243.34 123.82 243.82 123.87 244.3 123.92 244.77 123.98 245.25 124.03 245.72 124.08 246.2 124.13 246.68 124.18 247.15 124.23 247.62 124.28 248.1 124.33 248.58 124.38 249.05 124.42 249.53 124.47 250.01 124.52 250.48 124.57 250.96 124.61 251.91 124.7 252.39 124.74 252.86 124.78 253.33 124.83 253.81 124.87 254.29 124.92 254.76 124.95 255.24 125 255.72 125.03 256.19 125.08 256.67 125.12 257.14 125.16 257.62 125.19 258.1 125.23 259.04 125.31 259.52 125.34 260 125.38 260.47 125.42 260.95 125.45 261.9 125.52 262.38 125.56 262.85 125.59 263.32 125.63 263.8 125.66 264.28 125.69 264.75 125.72 265.23 125.76 265.7 125.79 266.18 125.82 266.66 125.85 267.13 125.88 267.61 125.91 268.08 125.94 268.56 125.97 269.03 126 269.51 126.03 269.99 126.05 270.46 126.09 270.94 126.11 271.41 126.14 271.89 126.17 272.37 126.19 272.84 126.22 273.31 126.25 273.79 126.27"/><line class="cls-2" x1="239.81" y1="133.47" x2="239.81" y2="138.21"/><line class="cls-2" x1="171.85" y1="133.47" x2="171.85" y2="138.21"/><line class="cls-2" x1="103.89" y1="133.47" x2="103.89" y2="138.21"/><line class="cls-2" x1="35.93" y1="133.47" x2="35.93" y2="138.21"/><line class="cls-2" x1="35.93" y1="133.47" x2="239.81" y2="133.47"/><text class="cls-3" transform="translate(167.46 147.68)">20</text><text class="cls-3" transform="translate(33.73 147.68)">0</text><text class="cls-3" transform="translate(99.49 147.68)">1</text><text class="cls-3" transform="translate(103.89 147.68)">0</text><text class="cls-3" transform="translate(235.41 147.68)">3</text><text class="cls-3" transform="translate(239.81 147.68)">0</text><line class="cls-4" x1="37.56" y1="114.22" x2="196.91" y2="114.22"/><text class="cls-3" transform="translate(101.41 111.38)">95% HDI</text><line class="cls-5" x1="196.91" y1="128.39" x2="196.91" y2="114.22"/><line class="cls-5" x1="37.56" y1="128.39" x2="37.56" y2="114.22"/><line class="cls-4" x1="44.42" y1="128.39" x2="223.82" y2="128.39"/><text class="cls-3" transform="translate(118.95 125.55)">95% ETI</text><line class="cls-5" x1="223.82" y1="128.39" x2="223.82" y2="120.98"/><line class="cls-5" x1="44.42" y1="128.39" x2="44.42" y2="63.84"/><polyline class="cls-2" points="37.69 106.58 40.99 109.97 42.28 105.42"/><line class="cls-2" x1="20.6" y1="29.25" x2="40.99" y2="109.97"/><text class="cls-3" transform="translate(2.39 12.47)">Inside HDI</text><text class="cls-3" transform="translate(0 25.35)">Outside ETI</text><polyline class="cls-2" points="209.07 105.42 210.36 109.97 213.66 106.58"/><line class="cls-2" x1="230.75" y1="29.25" x2="210.36" y2="109.97"/><text class="cls-3" transform="translate(209.26 12.48)">Outside HDI</text><text class="cls-3" transform="translate(212.98 25.36)">Inside ETI</text><text class="cls-3" transform="translate(105.98 160.26)">Parameter Value</text></svg>