<svg id="Ebene_1" data-name="Ebene 1" xmlns="http://www.w3.org/2000/svg" viewBox="0 0 451.64 361.14"><defs><style>.cls-1{fill:#fff;}.cls-2{fill:none;stroke:#000;stroke-linejoin:round;stroke-width:0.24px;}.cls-3,.cls-4,.cls-5,.cls-6,.cls-8{isolation:isolate;}.cls-3{font-size:10.13px;}.cls-3,.cls-5,.cls-6,.cls-8{font-family:Arial;}.cls-5{font-size:16px;}.cls-6{font-size:12px;}.cls-7{letter-spacing:-1px;}.cls-8{font-size:13.33px;}</style></defs><title>testletmodell2</title><polygon id="polygon6" class="cls-1" points="390.62 61.02 391.12 55.92 392.52 50.92 394.72 46.32 397.62 42.02 401.22 38.42 405.32 35.52 410.12 33.32 414.92 32.12 420.02 31.62 425.02 32.12 430.12 33.32 434.72 35.52 439.02 38.42 442.62 42.02 445.52 46.32 447.72 50.92 448.92 55.92 449.42 61.02 448.92 66.12 447.72 70.82 445.52 75.72 442.62 79.82 439.02 83.42 434.72 86.32 430.12 88.42 425.02 89.92 420.02 90.32 414.92 89.92 410.12 88.42 405.32 86.32 401.22 83.42 397.62 79.82 394.72 75.72 392.52 70.82 391.12 66.12 390.62 61.02"/><polygon id="polygon8" class="cls-2" points="390.62 61.02 391.12 55.92 392.52 50.92 394.72 46.32 397.62 42.02 401.22 38.42 405.32 35.52 410.12 33.32 414.92 32.12 420.02 31.62 425.02 32.12 430.12 33.32 434.72 35.52 439.02 38.42 442.62 42.02 445.52 46.32 447.72 50.92 448.92 55.92 449.42 61.02 448.92 66.12 447.72 70.82 445.52 75.72 442.62 79.82 439.02 83.42 434.72 86.32 430.12 88.42 425.02 89.92 420.02 90.32 414.92 89.92 410.12 88.42 405.32 86.32 401.22 83.42 397.62 79.82 394.72 75.72 392.52 70.82 391.12 66.12 390.62 61.02"/><rect id="rect24" class="cls-1" x="162.62" y="0.12" width="117.5" height="22.4"/><rect id="rect26" class="cls-2" x="162.62" y="0.12" width="117.5" height="22.4"/><polygon id="polygon40" class="cls-1" points="0.12 166.92 0.62 160.62 2.02 154.32 4.52 148.32 7.62 142.82 11.72 137.82 16.52 133.42 21.82 129.82 27.62 127.22 33.62 125.22 39.82 124.32 46.32 124.32 52.62 125.22 58.92 127.22 64.72 129.82 69.92 133.42 74.52 137.82 78.62 142.82 81.72 148.32 84.12 154.32 85.62 160.62 86.12 166.92 85.62 173.32 84.12 179.62 81.72 185.62 78.62 191.12 74.52 196.22 69.92 200.52 64.72 204.12 58.92 206.82 52.62 208.72 46.32 209.72 39.82 209.72 33.62 208.72 27.62 206.82 21.82 204.12 16.52 200.52 11.72 196.22 7.62 191.12 4.52 185.62 2.02 179.62 0.62 173.32 0.12 166.92"/><polygon id="polygon42" class="cls-2" points="0.12 166.92 0.62 160.62 2.02 154.32 4.52 148.32 7.62 142.82 11.72 137.82 16.52 133.42 21.82 129.82 27.62 127.22 33.62 125.22 39.82 124.32 46.32 124.32 52.62 125.22 58.92 127.22 64.72 129.82 69.92 133.42 74.52 137.82 78.62 142.82 81.72 148.32 84.12 154.32 85.62 160.62 86.12 166.92 85.62 173.32 84.12 179.62 81.72 185.62 78.62 191.12 74.52 196.22 69.92 200.52 64.72 204.12 58.92 206.82 52.62 208.72 46.32 209.72 39.82 209.72 33.62 208.72 27.62 206.82 21.82 204.12 16.52 200.52 11.72 196.22 7.62 191.12 4.52 185.62 2.02 179.62 0.62 173.32 0.12 166.92"/><text class="cls-3" transform="translate(228.04 13.85)"> </text><rect id="rect66" class="cls-1" x="162.62" y="40.52" width="117.5" height="22.6"/><rect id="rect68" class="cls-2" x="162.62" y="40.52" width="117.5" height="22.6"/><rect id="rect82" class="cls-1" x="162.62" y="83.62" width="117.5" height="22.4"/><rect id="rect84" class="cls-2" x="162.62" y="83.62" width="117.5" height="22.4"/><text class="cls-3" transform="translate(228.04 54.51)"> </text><rect id="rect98" class="cls-1" x="162.62" y="126.42" width="117.5" height="22.4"/><rect id="rect100" class="cls-2" x="162.62" y="126.42" width="117.5" height="22.4"/><text class="cls-3" transform="translate(228.04 97.32)"> </text><rect id="rect114" class="cls-1" x="162.62" y="171.42" width="117.5" height="22.6"/><rect id="rect116" class="cls-2" x="162.62" y="171.42" width="117.5" height="22.6"/><text class="cls-3" transform="translate(228.04 140.15)"> </text><rect id="rect130" class="cls-1" x="162.62" y="218.82" width="117.5" height="22.6"/><rect id="rect132" class="cls-2" x="162.62" y="218.82" width="117.5" height="22.6"/><text class="cls-3" transform="translate(228.04 185.39)"> </text><rect id="rect146" class="cls-1" x="162.62" y="257.12" width="117.5" height="22.6"/><rect id="rect148" class="cls-2" x="162.62" y="257.12" width="117.5" height="22.6"/><text class="cls-3" transform="translate(228.04 232.53)"> </text><rect id="rect162" class="cls-1" x="162.62" y="297.72" width="117.5" height="22.6"/><rect id="rect164" class="cls-2" x="162.62" y="297.72" width="117.5" height="22.6"/><text class="cls-3" transform="translate(228.04 271.02)"> </text><rect id="rect178" class="cls-1" x="162.62" y="338.42" width="117.5" height="22.6"/><rect id="rect180" class="cls-2" x="162.62" y="338.42" width="117.5" height="22.6"/><text class="cls-3" transform="translate(228.04 311.68)"> </text><polygon id="polygon194" class="cls-1" points="390.62 176.02 391.12 171.02 392.52 165.92 394.72 161.32 397.62 157.22 401.22 153.62 405.32 150.52 410.12 148.32 414.92 147.12 420.02 146.62 425.02 147.12 430.12 148.32 434.72 150.52 439.02 153.62 442.62 157.22 445.52 161.32 447.72 165.92 448.92 171.02 449.42 176.02 448.92 181.02 447.72 186.12 445.52 190.72 442.62 194.82 439.02 198.42 434.72 201.32 430.12 203.42 425.02 204.92 420.02 205.42 414.92 204.92 410.12 203.42 405.32 201.32 401.22 198.42 397.62 194.82 394.72 190.72 392.52 186.12 391.12 181.02 390.62 176.02"/><polygon id="polygon196" class="cls-2" points="390.62 176.02 391.12 171.02 392.52 165.92 394.72 161.32 397.62 157.22 401.22 153.62 405.32 150.52 410.12 148.32 414.92 147.12 420.02 146.62 425.02 147.12 430.12 148.32 434.72 150.52 439.02 153.62 442.62 157.22 445.52 161.32 447.72 165.92 448.92 171.02 449.42 176.02 448.92 181.02 447.72 186.12 445.52 190.72 442.62 194.82 439.02 198.42 434.72 201.32 430.12 203.42 425.02 204.92 420.02 205.42 414.92 204.92 410.12 203.42 405.32 201.32 401.22 198.42 397.62 194.82 394.72 190.72 392.52 186.12 391.12 181.02 390.62 176.02"/><text class="cls-3" transform="translate(228.04 352.1)"> </text><polygon id="polygon224" class="cls-1" points="393.02 277.52 393.52 272.52 394.72 267.42 396.92 262.92 399.82 258.52 403.32 254.92 407.72 252.02 412.32 249.92 417.12 248.62 422.42 248.22 427.42 248.62 432.22 249.92 437.12 252.02 441.12 254.92 444.82 258.52 447.72 262.92 449.82 267.42 451.32 272.52 451.52 277.52 451.32 282.62 449.82 287.42 447.72 292.22 444.82 296.32 441.12 299.92 437.12 302.82 432.22 305.02 427.42 306.42 422.42 306.92 417.12 306.42 412.32 305.02 407.72 302.82 403.32 299.92 399.82 296.32 396.92 292.22 394.72 287.42 393.52 282.62 393.02 277.52"/><polygon id="polygon226" class="cls-2" points="393.02 277.52 393.52 272.52 394.72 267.42 396.92 262.92 399.82 258.52 403.32 254.92 407.72 252.02 412.32 249.92 417.12 248.62 422.42 248.22 427.42 248.62 432.22 249.92 437.12 252.02 441.12 254.92 444.82 258.52 447.72 262.92 449.82 267.42 451.32 272.52 451.52 277.52 451.32 282.62 449.82 287.42 447.72 292.22 444.82 296.32 441.12 299.92 437.12 302.82 432.22 305.02 427.42 306.42 422.42 306.92 417.12 306.42 412.32 305.02 407.72 302.82 403.32 299.92 399.82 296.32 396.92 292.22 394.72 287.42 393.52 282.62 393.02 277.52"/><line id="line254" class="cls-2" x1="41.92" y1="124.32" x2="160.02" y2="12.92"/><polygon id="polygon256" points="157.52 12.32 162.02 11.02 160.42 15.62 157.52 12.32"/><line id="line258" class="cls-2" x1="66.52" y1="131.12" x2="158.52" y2="54.22"/><polygon id="polygon260" points="157.32 52.62 161.92 51.52 160.02 55.92 157.32 52.62"/><line id="line262" class="cls-2" x1="78.62" y1="142.82" x2="159.52" y2="96.42"/><polygon id="polygon264" points="160.12 98.42 162.42 94.32 158.02 95.12 160.12 98.42"/><line id="line266" class="cls-2" x1="86.12" y1="166.92" x2="159.32" y2="138.42"/><polygon id="polygon280" points="159.72 140.52 162.32 136.92 157.72 136.92 159.72 140.52"/><line id="line282" class="cls-2" x1="85.02" y1="175.92" x2="159.32" y2="182.52"/><polygon id="polygon284" points="159.22 180.52 163.02 182.82 159.02 184.52 159.22 180.52"/><line id="line286" class="cls-2" x1="76.92" y1="194.12" x2="159.52" y2="228.72"/><polygon id="polygon288" points="159.22 226.32 162.12 229.62 157.82 229.92 159.22 226.32"/><line id="line290" class="cls-2" x1="67.02" y1="202.22" x2="159.72" y2="266.52"/><polygon id="polygon292" points="159.92 264.02 162.12 267.92 157.82 267.42 159.92 264.02"/><line id="line294" class="cls-2" x1="43.22" y1="209.92" x2="160.02" y2="306.92"/><polygon id="polygon296" points="160.42 304.52 162.12 308.52 157.82 307.62 160.42 304.52"/><line id="line298" class="cls-2" x1="32.72" y1="208.52" x2="160.22" y2="347.02"/><polygon id="polygon300" points="160.92 344.92 162.12 349.22 158.02 347.52 160.92 344.92"/><line id="line302" class="cls-2" x1="390.62" y1="61.02" x2="283.52" y2="12.92"/><polygon id="polygon304" points="282.52 14.32 279.62 10.92 284.22 10.72 282.52 14.32"/><line id="line306" class="cls-2" x1="390.62" y1="61.02" x2="283.72" y2="52.32"/><polygon id="polygon308" points="283.52 53.82 279.62 51.32 283.92 49.72 283.52 53.82"/><line id="line310" class="cls-2" x1="390.62" y1="61.02" x2="283.52" y2="93.72"/><polygon id="polygon312" points="283.02 91.12 279.62 94.22 284.22 95.22 283.02 91.12"/><line id="line314" class="cls-2" x1="390.62" y1="176.02" x2="283.52" y2="138.72"/><polygon id="polygon316" points="282.72 140.42 279.62 137.32 284.22 136.52 282.72 140.42"/><line id="line318" class="cls-2" x1="390.62" y1="176.02" x2="283.72" y2="182.52"/><polygon id="polygon320" points="283.52 180.12 279.62 182.22 283.72 184.12 283.52 180.12"/><line id="line322" class="cls-2" x1="390.62" y1="176.02" x2="283.22" y2="228.42"/><polygon id="polygon324" points="282.22 226.02 279.62 229.62 284.22 229.62 282.22 226.02"/><line id="line326" class="cls-2" x1="393.02" y1="277.52" x2="283.72" y2="268.62"/><polygon id="polygon328" points="283.52 270.32 279.62 267.92 283.92 266.22 283.52 270.32"/><line id="line330" class="cls-2" x1="393.02" y1="277.52" x2="283.52" y2="308.12"/><polygon id="polygon332" points="283.02 305.42 279.62 308.52 284.22 309.52 283.02 305.42"/><line id="line334" class="cls-2" x1="393.02" y1="277.52" x2="283.02" y2="347.82"/><polygon id="polygon336" points="282.02 345.12 279.62 349.22 284.22 348.72 282.02 345.12"/><g id="text4279" class="cls-4"><text class="cls-5" transform="translate(15.35 161.75)">General</text><text class="cls-5" transform="translate(23.36 181.75)">ability</text></g><g id="text23573" class="cls-4"><text class="cls-6" transform="translate(403.83 56.82)"><tspan class="cls-7">T</tspan><tspan x="6" y="0">estlet </tspan></text><text class="cls-6" transform="translate(400.19 69.42)">e<tspan x="6.67" y="0">f</tspan><tspan x="9.79" y="0">fect 1</tspan></text></g><g id="text23573-9" class="cls-4"><text class="cls-6" transform="translate(403.83 172.62)"><tspan class="cls-7">T</tspan><tspan x="6" y="0">estlet </tspan></text><text class="cls-6" transform="translate(400.19 185.22)">e<tspan x="6.67" y="0">f</tspan><tspan x="9.79" y="0">fect 2</tspan></text></g><g id="text23573-3" class="cls-4"><text class="cls-6" transform="translate(405.83 274.52)"><tspan class="cls-7">T</tspan><tspan x="6" y="0">estlet </tspan></text><text class="cls-6" transform="translate(402.19 287.12)">e<tspan x="6.67" y="0">f</tspan><tspan x="9.79" y="0">fect 3</tspan></text></g><g id="text64743" class="cls-4"><text class="cls-8" transform="translate(199.88 15.94)">item 1</text></g><g id="text64743-6" class="cls-4"><text class="cls-8" transform="translate(199.88 57.14)">item 2</text></g><g id="text64743-4" class="cls-4"><text class="cls-8" transform="translate(199.88 98.71)">item 3</text></g><g id="text64743-62" class="cls-4"><text class="cls-8" transform="translate(199.88 143.38)">item 4</text></g><g id="text64743-5" class="cls-4"><text class="cls-8" transform="translate(199.88 187.64)">item 5</text></g><g id="text64743-63" class="cls-4"><text class="cls-8" transform="translate(199.88 236.03)">item 6</text></g><g id="text64743-9" class="cls-4"><text class="cls-8" transform="translate(199.88 273.68)">item 7</text></g><g id="text64743-69" class="cls-4"><text class="cls-8" transform="translate(199.88 314)">item 8</text></g><g id="text64743-1" class="cls-4"><text class="cls-8" transform="translate(199.88 353.71)">item 9</text></g></svg>