<svg id="Ebene_1" data-name="Ebene 1" xmlns="http://www.w3.org/2000/svg" viewBox="0 0 451.62 361.13"><defs><style>.cls-1,.cls-4{fill:#fff;}.cls-1,.cls-8{fill-rule:evenodd;}.cls-2,.cls-7{fill:none;stroke:#000;stroke-linejoin:round;}.cls-2{stroke-width:0.24px;}.cls-3{font-size:7.96px;}.cls-3,.cls-5,.cls-6{font-family:Arial;}.cls-5{font-size:10.13px;}.cls-6{font-size:12.06px;}.cls-7{stroke-width:0.73px;}</style></defs><title>testletmodell</title><polygon class="cls-1" points="390.61 61.01 391.07 55.94 392.53 50.9 394.68 46.32 397.59 41.98 401.2 38.37 405.27 35.5 410.1 33.33 414.91 32.14 419.96 31.65 425.02 32.14 430.07 33.33 434.66 35.5 438.97 38.37 442.59 41.98 445.49 46.32 447.66 50.9 448.86 55.94 449.35 61.01 448.86 66.05 447.66 70.85 445.49 75.67 442.59 79.77 438.97 83.37 434.66 86.25 430.07 88.42 425.02 89.88 419.96 90.34 414.91 89.88 410.1 88.42 405.27 86.25 401.2 83.37 397.59 79.77 394.68 75.67 392.53 70.85 391.07 66.05 390.61 61.01"/><polygon class="cls-2" points="390.61 61.01 391.07 55.94 392.53 50.9 394.68 46.32 397.59 41.98 401.2 38.37 405.27 35.5 410.1 33.33 414.91 32.14 419.96 31.65 425.02 32.14 430.07 33.33 434.66 35.5 438.97 38.37 442.59 41.98 445.49 46.32 447.66 50.9 448.86 55.94 449.35 61.01 448.86 66.05 447.66 70.85 445.49 75.67 442.59 79.77 438.97 83.37 434.66 86.25 430.07 88.42 425.02 89.88 419.96 90.34 414.91 89.88 410.1 88.42 405.27 86.25 401.2 83.37 397.59 79.77 394.68 75.67 392.53 70.85 391.07 66.05 390.61 61.01"/><text class="cls-3" transform="translate(407.92 58.1)">T<tspan x="5.04" y="0">e</tspan><tspan x="9.14" y="0">s</tspan><tspan x="13.01" y="0">t</tspan><tspan x="15.19" y="0">l</tspan><tspan x="17.1" y="0">e</tspan><tspan x="21.2" y="0">t</tspan></text><rect class="cls-4" x="162.62" y="0.12" width="117.48" height="22.39"/><rect class="cls-2" x="162.62" y="0.12" width="117.48" height="22.39"/><text class="cls-3" transform="translate(406.7 67.72)">e<tspan x="4.1" y="0">ff</tspan><tspan x="7.96" y="0">e</tspan><tspan x="12.06" y="0">c</tspan><tspan x="16.15" y="0">t </tspan><tspan x="20.01" y="0">1</tspan></text><polygon class="cls-1" points="0.12 166.86 0.61 160.6 2.05 154.34 4.47 148.32 7.59 142.79 11.69 137.75 16.5 133.41 21.79 129.81 27.58 127.15 33.58 125.23 39.85 124.28 46.34 124.28 52.62 125.23 58.86 127.15 64.65 129.81 69.94 133.41 74.5 137.75 78.61 142.79 81.73 148.32 84.14 154.34 85.58 160.6 86.07 166.86 85.58 173.34 84.14 179.61 81.73 185.62 78.61 191.15 74.5 196.2 69.94 200.53 64.65 204.14 58.86 206.79 52.62 208.72 46.34 209.67 39.85 209.67 33.58 208.72 27.58 206.79 21.79 204.14 16.5 200.53 11.69 196.2 7.59 191.15 4.47 185.62 2.05 179.61 0.61 173.34 0.12 166.86"/><polygon class="cls-2" points="0.12 166.86 0.61 160.6 2.05 154.34 4.47 148.32 7.59 142.79 11.69 137.75 16.5 133.41 21.79 129.81 27.58 127.15 33.58 125.23 39.85 124.28 46.34 124.28 52.62 125.23 58.86 127.15 64.65 129.81 69.94 133.41 74.5 137.75 78.61 142.79 81.73 148.32 84.14 154.34 85.58 160.6 86.07 166.86 85.58 173.34 84.14 179.61 81.73 185.62 78.61 191.15 74.5 196.2 69.94 200.53 64.65 204.14 58.86 206.79 52.62 208.72 46.34 209.67 39.85 209.67 33.58 208.72 27.58 206.79 21.79 204.14 16.5 200.53 11.69 196.2 7.59 191.15 4.47 185.62 2.05 179.61 0.61 173.34 0.12 166.86"/><text class="cls-5" transform="translate(206.91 13.83)">i<tspan x="3.1" y="0">t</tspan><tspan x="5.97" y="0">e</tspan><tspan x="11.97" y="0">m</tspan><tspan x="21.11" y="0"> </tspan><tspan x="23.97" y="0">1</tspan></text><text class="cls-6" transform="translate(21.05 162.76)">G<tspan x="9.16" y="0">ene</tspan><tspan x="30.04" y="0">r</tspan><tspan x="34.11" y="0">a</tspan><tspan x="41.07" y="0">l</tspan></text><rect class="cls-4" x="162.62" y="40.54" width="117.48" height="22.61"/><rect class="cls-2" x="162.62" y="40.54" width="117.48" height="22.61"/><text class="cls-6" transform="translate(26.83 177.18)">ab<tspan x="13.92" y="0">i</tspan><tspan x="17.02" y="0">l</tspan><tspan x="19.88" y="0">i</tspan><tspan x="22.98" y="0">t</tspan><tspan x="25.87" y="0">y</tspan></text><rect class="cls-4" x="162.62" y="83.62" width="117.48" height="22.36"/><rect class="cls-2" x="162.62" y="83.62" width="117.48" height="22.36"/><text class="cls-5" transform="translate(206.91 54.49)">i<tspan x="3.1" y="0">t</tspan><tspan x="5.97" y="0">e</tspan><tspan x="11.97" y="0">m</tspan><tspan x="21.11" y="0"> </tspan><tspan x="23.97" y="0">2</tspan></text><rect class="cls-4" x="162.62" y="126.45" width="117.48" height="22.36"/><rect class="cls-2" x="162.62" y="126.45" width="117.48" height="22.36"/><text class="cls-5" transform="translate(206.91 97.3)">i<tspan x="3.1" y="0">t</tspan><tspan x="5.97" y="0">e</tspan><tspan x="11.97" y="0">m</tspan><tspan x="21.11" y="0"> </tspan><tspan x="23.97" y="0">3</tspan></text><rect class="cls-4" x="162.62" y="171.42" width="117.48" height="22.63"/><rect class="cls-2" x="162.62" y="171.42" width="117.48" height="22.63"/><text class="cls-5" transform="translate(206.91 140.13)">i<tspan x="3.1" y="0">t</tspan><tspan x="5.97" y="0">e</tspan><tspan x="11.97" y="0">m</tspan><tspan x="21.11" y="0"> </tspan><tspan x="23.97" y="0">4</tspan></text><rect class="cls-4" x="162.62" y="218.83" width="117.48" height="22.61"/><rect class="cls-2" x="162.62" y="218.83" width="117.48" height="22.61"/><text class="cls-5" transform="translate(206.91 185.37)">i<tspan x="3.1" y="0">t</tspan><tspan x="5.97" y="0">e</tspan><tspan x="11.97" y="0">m</tspan><tspan x="21.11" y="0"> </tspan><tspan x="23.97" y="0">5</tspan></text><rect class="cls-4" x="162.62" y="257.08" width="117.48" height="22.61"/><rect class="cls-2" x="162.62" y="257.08" width="117.48" height="22.61"/><text class="cls-5" transform="translate(206.91 232.51)">i<tspan x="3.1" y="0">t</tspan><tspan x="5.97" y="0">e</tspan><tspan x="11.97" y="0">m</tspan><tspan x="21.11" y="0"> </tspan><tspan x="23.97" y="0">6</tspan></text><rect class="cls-4" x="162.62" y="297.74" width="117.48" height="22.61"/><rect class="cls-2" x="162.62" y="297.74" width="117.48" height="22.61"/><text class="cls-5" transform="translate(206.91 271)">i<tspan x="3.1" y="0">t</tspan><tspan x="5.97" y="0">e</tspan><tspan x="11.97" y="0">m</tspan><tspan x="21.11" y="0"> </tspan><tspan x="23.97" y="0">7</tspan></text><rect class="cls-4" x="162.62" y="338.4" width="117.48" height="22.61"/><rect class="cls-2" x="162.62" y="338.4" width="117.48" height="22.61"/><text class="cls-5" transform="translate(206.91 311.66)">i<tspan x="3.1" y="0">t</tspan><tspan x="5.97" y="0">e</tspan><tspan x="11.97" y="0">m</tspan><tspan x="21.11" y="0"> </tspan><tspan x="23.97" y="0">8</tspan></text><polygon class="cls-1" points="390.61 176 391.07 170.96 392.53 165.89 394.68 161.33 397.59 157.24 401.2 153.63 405.27 150.49 410.1 148.32 414.91 147.13 419.96 146.64 425.02 147.13 430.07 148.32 434.66 150.49 438.97 153.63 442.59 157.24 445.49 161.33 447.66 165.89 448.86 170.96 449.35 176 448.86 181.04 447.66 186.11 445.49 190.67 442.59 194.76 438.97 198.36 434.66 201.26 430.07 203.43 425.02 204.87 419.96 205.36 414.91 204.87 410.1 203.43 405.27 201.26 401.2 198.36 397.59 194.76 394.68 190.67 392.53 186.11 391.07 181.04 390.61 176"/><polygon class="cls-2" points="390.61 176 391.07 170.96 392.53 165.89 394.68 161.33 397.59 157.24 401.2 153.63 405.27 150.49 410.1 148.32 414.91 147.13 419.96 146.64 425.02 147.13 430.07 148.32 434.66 150.49 438.97 153.63 442.59 157.24 445.49 161.33 447.66 165.89 448.86 170.96 449.35 176 448.86 181.04 447.66 186.11 445.49 190.67 442.59 194.76 438.97 198.36 434.66 201.26 430.07 203.43 425.02 204.87 419.96 205.36 414.91 204.87 410.1 203.43 405.27 201.26 401.2 198.36 397.59 194.76 394.68 190.67 392.53 186.11 391.07 181.04 390.61 176"/><text class="cls-5" transform="translate(206.91 352.08)">i<tspan x="3.1" y="0">t</tspan><tspan x="5.97" y="0">e</tspan><tspan x="11.97" y="0">m</tspan><tspan x="21.11" y="0"> </tspan><tspan x="23.97" y="0">9</tspan></text><text class="cls-3" transform="translate(407.92 173.09)">T<tspan x="5.04" y="0">e</tspan><tspan x="9.14" y="0">s</tspan><tspan x="13.01" y="0">t</tspan><tspan x="15.19" y="0">l</tspan><tspan x="17.1" y="0">e</tspan><tspan x="21.2" y="0">t</tspan></text><polygon class="cls-1" points="393 277.52 393.49 272.48 394.68 267.43 396.85 262.85 399.76 258.52 403.34 254.91 407.69 252.04 412.25 249.87 417.08 248.65 422.38 248.19 427.43 248.65 432.24 249.87 437.07 252.04 441.15 254.91 444.76 258.52 447.66 262.85 449.81 267.43 451.27 272.48 451.49 277.52 451.27 282.59 449.81 287.39 447.66 292.21 444.76 296.3 441.15 299.91 437.07 302.78 432.24 304.95 427.43 306.39 422.38 306.88 417.08 306.39 412.25 304.95 407.69 302.78 403.34 299.91 399.76 296.3 396.85 292.21 394.68 287.39 393.49 282.59 393 277.52"/><polygon class="cls-2" points="393 277.52 393.49 272.48 394.68 267.43 396.85 262.85 399.76 258.52 403.34 254.91 407.69 252.04 412.25 249.87 417.08 248.65 422.38 248.19 427.43 248.65 432.24 249.87 437.07 252.04 441.15 254.91 444.76 258.52 447.66 262.85 449.81 267.43 451.27 272.48 451.49 277.52 451.27 282.59 449.81 287.39 447.66 292.21 444.76 296.3 441.15 299.91 437.07 302.78 432.24 304.95 427.43 306.39 422.38 306.88 417.08 306.39 412.25 304.95 407.69 302.78 403.34 299.91 399.76 296.3 396.85 292.21 394.68 287.39 393.49 282.59 393 277.52"/><text class="cls-3" transform="translate(406.7 182.71)">e<tspan x="4.1" y="0">ff</tspan><tspan x="7.96" y="0">e</tspan><tspan x="12.06" y="0">c</tspan><tspan x="16.15" y="0">t </tspan><tspan x="20.01" y="0">2</tspan></text><text class="cls-3" transform="translate(410.07 274.63)">T<tspan x="5.04" y="0">e</tspan><tspan x="9.14" y="0">s</tspan><tspan x="13.01" y="0">t</tspan><tspan x="15.19" y="0">l</tspan><tspan x="17.1" y="0">e</tspan><tspan x="21.2" y="0">t</tspan></text><line class="cls-7" x1="42.72" y1="123.53" x2="158.02" y2="14.78"/><polygon class="cls-8" points="155.39 12.85 162.12 10.93 159.71 17.68 155.39 12.85"/><line class="cls-7" x1="67.51" y1="130.26" x2="157.78" y2="54.95"/><polygon class="cls-8" points="155.14 53.03 162.12 51.35 159.22 58.1 155.14 53.03"/><line class="cls-2" x1="76.92" y1="144.47" x2="159.72" y2="87.71"/><polygon class="cls-8" points="159.95 89.38 162.12 85.28 157.78 85.99 159.95 89.38"/><line class="cls-2" x1="86.07" y1="166.86" x2="159.5" y2="130.3"/><text class="cls-3" transform="translate(408.87 284.26)">e<tspan x="4.1" y="0">ff</tspan><tspan x="7.96" y="0">e</tspan><tspan x="12.06" y="0">c</tspan><tspan x="16.15" y="0">t </tspan><tspan x="20.01" y="0">3</tspan></text><polygon class="cls-8" points="159.46 131.72 162.12 128.11 157.54 128.11 159.46 131.72"/><line class="cls-2" x1="86.07" y1="176" x2="159.26" y2="182.5"/><polygon class="cls-8" points="158.27 179.84 162.12 182.22 158.02 183.93 158.27 179.84"/><line class="cls-2" x1="76.92" y1="194.05" x2="159.5" y2="228.7"/><polygon class="cls-8" points="159.22 226.27 162.12 229.63 157.78 229.88 159.22 226.27"/><line class="cls-2" x1="68.01" y1="202.95" x2="159.72" y2="266.46"/><polygon class="cls-8" points="159.95 264.03 162.12 267.88 157.78 267.4 159.95 264.03"/><line class="cls-2" x1="43.22" y1="209.91" x2="159.96" y2="306.88"/><polygon class="cls-8" points="160.44 304.45 162.12 308.55 157.78 307.57 160.44 304.45"/><line class="cls-2" x1="31.9" y1="207.53" x2="160.21" y2="347.05"/><polygon class="cls-8" points="160.9 344.87 162.12 349.21 158.02 347.53 160.9 344.87"/><line class="cls-2" x1="390.61" y1="61.01" x2="283.47" y2="12.89"/><polygon class="cls-8" points="282.48 14.32 279.6 10.93 284.17 10.69 282.48 14.32"/><line class="cls-2" x1="390.61" y1="61.01" x2="283.72" y2="52.33"/><polygon class="cls-8" points="283.46 53.76 279.6 51.35 283.92 49.67 283.46 53.76"/><line class="cls-2" x1="390.61" y1="61.01" x2="283.47" y2="93.73"/><polygon class="cls-8" points="282.97 91.06 279.6 94.18 284.17 95.15 282.97 91.06"/><line class="cls-2" x1="390.61" y1="176" x2="283.47" y2="138.7"/><polygon class="cls-8" points="282.73 140.37 279.6 137.25 284.17 136.52 282.73 140.37"/><line class="cls-2" x1="390.61" y1="176" x2="283.72" y2="182.5"/><polygon class="cls-8" points="283.46 180.08 279.6 182.22 283.68 184.15 283.46 180.08"/><line class="cls-2" x1="390.61" y1="176" x2="283.23" y2="228.45"/><polygon class="cls-8" points="282.24 226.03 279.6 229.63 284.17 229.63 282.24 226.03"/><line class="cls-2" x1="393" y1="277.52" x2="283.72" y2="268.63"/><polygon class="cls-8" points="283.46 270.3 279.6 267.88 283.92 266.2 283.46 270.3"/><line class="cls-2" x1="393" y1="277.52" x2="283.47" y2="308.07"/><polygon class="cls-8" points="282.97 305.43 279.6 308.55 284.17 309.5 282.97 305.43"/><line class="cls-2" x1="393" y1="277.52" x2="282.98" y2="347.78"/><polygon class="cls-8" points="282 345.12 279.6 349.21 284.17 348.72 282 345.12"/></svg>