<?xml version="1.0" encoding="utf-8"?>
<!-- Generator: Adobe Illustrator 19.2.1, SVG Export Plug-In . SVG Version: 6.00 Build 0)  -->
<svg version="1.1" id="Ebene_1" xmlns="http://www.w3.org/2000/svg" xmlns:xlink="http://www.w3.org/1999/xlink" x="0px" y="0px"
	 viewBox="0 0 451.6 361.1" style="enable-background:new 0 0 451.6 361.1;" xml:space="preserve">
<style type="text/css">
	.st0{fill:#FFFFFF;}
	.st1{fill:none;stroke:#000000;stroke-width:0.24;stroke-linejoin:round;}
	.st2{font-family:'ArialMT';}
	.st3{font-size:7.96px;}
	.st4{font-size:10.13px;}
	.st5{font-size:12.06px;}
</style>
<title>testletmodell</title>
<polygon class="st0" points="390.6,61 391.1,55.9 392.5,50.9 394.7,46.3 397.6,42 401.2,38.4 405.3,35.5 410.1,33.3 414.9,32.1 
	420,31.6 425,32.1 430.1,33.3 434.7,35.5 439,38.4 442.6,42 445.5,46.3 447.7,50.9 448.9,55.9 449.4,61 448.9,66.1 447.7,70.8 
	445.5,75.7 442.6,79.8 439,83.4 434.7,86.3 430.1,88.4 425,89.9 420,90.3 414.9,89.9 410.1,88.4 405.3,86.3 401.2,83.4 397.6,79.8 
	394.7,75.7 392.5,70.8 391.1,66.1 "/>
<polygon class="st1" points="390.6,61 391.1,55.9 392.5,50.9 394.7,46.3 397.6,42 401.2,38.4 405.3,35.5 410.1,33.3 414.9,32.1 
	420,31.6 425,32.1 430.1,33.3 434.7,35.5 439,38.4 442.6,42 445.5,46.3 447.7,50.9 448.9,55.9 449.4,61 448.9,66.1 447.7,70.8 
	445.5,75.7 442.6,79.8 439,83.4 434.7,86.3 430.1,88.4 425,89.9 420,90.3 414.9,89.9 410.1,88.4 405.3,86.3 401.2,83.4 397.6,79.8 
	394.7,75.7 392.5,70.8 391.1,66.1 "/>
<text transform="matrix(1 0 0 1 407.92 58.1)" class="st2 st3">T</text>
<text transform="matrix(1 0 0 1 412.96 58.1)" class="st2 st3">e</text>
<text transform="matrix(1 0 0 1 417.06 58.1)" class="st2 st3">s</text>
<text transform="matrix(1 0 0 1 420.93 58.1)" class="st2 st3">t</text>
<text transform="matrix(1 0 0 1 423.11 58.1)" class="st2 st3">l</text>
<text transform="matrix(1 0 0 1 425.02 58.1)" class="st2 st3">e</text>
<text transform="matrix(1 0 0 1 429.12 58.1)" class="st2 st3">t</text>
<rect x="162.6" y="0.1" class="st0" width="117.5" height="22.4"/>
<rect x="162.6" y="0.1" class="st1" width="117.5" height="22.4"/>
<text transform="matrix(1 0 0 1 406.7 67.72)" class="st2 st3">e</text>
<text transform="matrix(1 0 0 1 410.8 67.72)" class="st2 st3">ff</text>
<text transform="matrix(1 0 0 1 414.66 67.72)" class="st2 st3">e</text>
<text transform="matrix(1 0 0 1 418.76 67.72)" class="st2 st3">c</text>
<text transform="matrix(1 0 0 1 422.85 67.72)" class="st2 st3">t </text>
<text transform="matrix(1 0 0 1 426.71 67.72)" class="st2 st3">1</text>
<polygon class="st0" points="0.1,166.9 0.6,160.6 2,154.3 4.5,148.3 7.6,142.8 11.7,137.8 16.5,133.4 21.8,129.8 27.6,127.2 
	33.6,125.2 39.8,124.3 46.3,124.3 52.6,125.2 58.9,127.2 64.7,129.8 69.9,133.4 74.5,137.8 78.6,142.8 81.7,148.3 84.1,154.3 
	85.6,160.6 86.1,166.9 85.6,173.3 84.1,179.6 81.7,185.6 78.6,191.1 74.5,196.2 69.9,200.5 64.7,204.1 58.9,206.8 52.6,208.7 
	46.3,209.7 39.8,209.7 33.6,208.7 27.6,206.8 21.8,204.1 16.5,200.5 11.7,196.2 7.6,191.1 4.5,185.6 2,179.6 0.6,173.3 "/>
<polygon class="st1" points="0.1,166.9 0.6,160.6 2,154.3 4.5,148.3 7.6,142.8 11.7,137.8 16.5,133.4 21.8,129.8 27.6,127.2 
	33.6,125.2 39.8,124.3 46.3,124.3 52.6,125.2 58.9,127.2 64.7,129.8 69.9,133.4 74.5,137.8 78.6,142.8 81.7,148.3 84.1,154.3 
	85.6,160.6 86.1,166.9 85.6,173.3 84.1,179.6 81.7,185.6 78.6,191.1 74.5,196.2 69.9,200.5 64.7,204.1 58.9,206.8 52.6,208.7 
	46.3,209.7 39.8,209.7 33.6,208.7 27.6,206.8 21.8,204.1 16.5,200.5 11.7,196.2 7.6,191.1 4.5,185.6 2,179.6 0.6,173.3 "/>
<text transform="matrix(1 0 0 1 206.91 13.83)" class="st2 st4">i</text>
<text transform="matrix(1 0 0 1 210.01 13.83)" class="st2 st4">t</text>
<text transform="matrix(1 0 0 1 212.88 13.83)" class="st2 st4">e</text>
<text transform="matrix(1 0 0 1 218.88 13.83)" class="st2 st4">m</text>
<text transform="matrix(1 0 0 1 228.02 13.83)" class="st2 st4"> </text>
<text transform="matrix(1 0 0 1 230.88 13.83)" class="st2 st4">1</text>
<text transform="matrix(1 0 0 1 21.05 162.76)" class="st2 st5">G</text>
<text transform="matrix(1 0 0 1 30.21 162.76)" class="st2 st5">ene</text>
<text transform="matrix(1 0 0 1 51.09 162.76)" class="st2 st5">r</text>
<text transform="matrix(1 0 0 1 55.16 162.76)" class="st2 st5">a</text>
<text transform="matrix(1 0 0 1 62.12 162.76)" class="st2 st5">l</text>
<rect x="162.6" y="40.5" class="st0" width="117.5" height="22.6"/>
<rect x="162.6" y="40.5" class="st1" width="117.5" height="22.6"/>
<text transform="matrix(1 0 0 1 26.83 177.18)" class="st2 st5">ab</text>
<text transform="matrix(1 0 0 1 40.75 177.18)" class="st2 st5">i</text>
<text transform="matrix(1 0 0 1 43.85 177.18)" class="st2 st5">l</text>
<text transform="matrix(1 0 0 1 46.71 177.18)" class="st2 st5">i</text>
<text transform="matrix(1 0 0 1 49.81 177.18)" class="st2 st5">t</text>
<text transform="matrix(1 0 0 1 52.7 177.18)" class="st2 st5">y</text>
<rect x="162.6" y="83.6" class="st0" width="117.5" height="22.4"/>
<rect x="162.6" y="83.6" class="st1" width="117.5" height="22.4"/>
<text transform="matrix(1 0 0 1 206.91 54.49)" class="st2 st4">i</text>
<text transform="matrix(1 0 0 1 210.01 54.49)" class="st2 st4">t</text>
<text transform="matrix(1 0 0 1 212.88 54.49)" class="st2 st4">e</text>
<text transform="matrix(1 0 0 1 218.88 54.49)" class="st2 st4">m</text>
<text transform="matrix(1 0 0 1 228.02 54.49)" class="st2 st4"> </text>
<text transform="matrix(1 0 0 1 230.88 54.49)" class="st2 st4">2</text>
<rect x="162.6" y="126.4" class="st0" width="117.5" height="22.4"/>
<rect x="162.6" y="126.4" class="st1" width="117.5" height="22.4"/>
<text transform="matrix(1 0 0 1 206.91 97.3)" class="st2 st4">i</text>
<text transform="matrix(1 0 0 1 210.01 97.3)" class="st2 st4">t</text>
<text transform="matrix(1 0 0 1 212.88 97.3)" class="st2 st4">e</text>
<text transform="matrix(1 0 0 1 218.88 97.3)" class="st2 st4">m</text>
<text transform="matrix(1 0 0 1 228.02 97.3)" class="st2 st4"> </text>
<text transform="matrix(1 0 0 1 230.88 97.3)" class="st2 st4">3</text>
<rect x="162.6" y="171.4" class="st0" width="117.5" height="22.6"/>
<rect x="162.6" y="171.4" class="st1" width="117.5" height="22.6"/>
<text transform="matrix(1 0 0 1 206.91 140.13)" class="st2 st4">i</text>
<text transform="matrix(1 0 0 1 210.01 140.13)" class="st2 st4">t</text>
<text transform="matrix(1 0 0 1 212.88 140.13)" class="st2 st4">e</text>
<text transform="matrix(1 0 0 1 218.88 140.13)" class="st2 st4">m</text>
<text transform="matrix(1 0 0 1 228.02 140.13)" class="st2 st4"> </text>
<text transform="matrix(1 0 0 1 230.88 140.13)" class="st2 st4">4</text>
<rect x="162.6" y="218.8" class="st0" width="117.5" height="22.6"/>
<rect x="162.6" y="218.8" class="st1" width="117.5" height="22.6"/>
<text transform="matrix(1 0 0 1 206.91 185.37)" class="st2 st4">i</text>
<text transform="matrix(1 0 0 1 210.01 185.37)" class="st2 st4">t</text>
<text transform="matrix(1 0 0 1 212.88 185.37)" class="st2 st4">e</text>
<text transform="matrix(1 0 0 1 218.88 185.37)" class="st2 st4">m</text>
<text transform="matrix(1 0 0 1 228.02 185.37)" class="st2 st4"> </text>
<text transform="matrix(1 0 0 1 230.88 185.37)" class="st2 st4">5</text>
<rect x="162.6" y="257.1" class="st0" width="117.5" height="22.6"/>
<rect x="162.6" y="257.1" class="st1" width="117.5" height="22.6"/>
<text transform="matrix(1 0 0 1 206.91 232.51)" class="st2 st4">i</text>
<text transform="matrix(1 0 0 1 210.01 232.51)" class="st2 st4">t</text>
<text transform="matrix(1 0 0 1 212.88 232.51)" class="st2 st4">e</text>
<text transform="matrix(1 0 0 1 218.88 232.51)" class="st2 st4">m</text>
<text transform="matrix(1 0 0 1 228.02 232.51)" class="st2 st4"> </text>
<text transform="matrix(1 0 0 1 230.88 232.51)" class="st2 st4">6</text>
<rect x="162.6" y="297.7" class="st0" width="117.5" height="22.6"/>
<rect x="162.6" y="297.7" class="st1" width="117.5" height="22.6"/>
<text transform="matrix(1 0 0 1 206.91 271)" class="st2 st4">i</text>
<text transform="matrix(1 0 0 1 210.01 271)" class="st2 st4">t</text>
<text transform="matrix(1 0 0 1 212.88 271)" class="st2 st4">e</text>
<text transform="matrix(1 0 0 1 218.88 271)" class="st2 st4">m</text>
<text transform="matrix(1 0 0 1 228.02 271)" class="st2 st4"> </text>
<text transform="matrix(1 0 0 1 230.88 271)" class="st2 st4">7</text>
<rect x="162.6" y="338.4" class="st0" width="117.5" height="22.6"/>
<rect x="162.6" y="338.4" class="st1" width="117.5" height="22.6"/>
<text transform="matrix(1 0 0 1 206.91 311.66)" class="st2 st4">i</text>
<text transform="matrix(1 0 0 1 210.01 311.66)" class="st2 st4">t</text>
<text transform="matrix(1 0 0 1 212.88 311.66)" class="st2 st4">e</text>
<text transform="matrix(1 0 0 1 218.88 311.66)" class="st2 st4">m</text>
<text transform="matrix(1 0 0 1 228.02 311.66)" class="st2 st4"> </text>
<text transform="matrix(1 0 0 1 230.88 311.66)" class="st2 st4">8</text>
<polygon class="st0" points="390.6,176 391.1,171 392.5,165.9 394.7,161.3 397.6,157.2 401.2,153.6 405.3,150.5 410.1,148.3 
	414.9,147.1 420,146.6 425,147.1 430.1,148.3 434.7,150.5 439,153.6 442.6,157.2 445.5,161.3 447.7,165.9 448.9,171 449.4,176 
	448.9,181 447.7,186.1 445.5,190.7 442.6,194.8 439,198.4 434.7,201.3 430.1,203.4 425,204.9 420,205.4 414.9,204.9 410.1,203.4 
	405.3,201.3 401.2,198.4 397.6,194.8 394.7,190.7 392.5,186.1 391.1,181 "/>
<polygon class="st1" points="390.6,176 391.1,171 392.5,165.9 394.7,161.3 397.6,157.2 401.2,153.6 405.3,150.5 410.1,148.3 
	414.9,147.1 420,146.6 425,147.1 430.1,148.3 434.7,150.5 439,153.6 442.6,157.2 445.5,161.3 447.7,165.9 448.9,171 449.4,176 
	448.9,181 447.7,186.1 445.5,190.7 442.6,194.8 439,198.4 434.7,201.3 430.1,203.4 425,204.9 420,205.4 414.9,204.9 410.1,203.4 
	405.3,201.3 401.2,198.4 397.6,194.8 394.7,190.7 392.5,186.1 391.1,181 "/>
<text transform="matrix(1 0 0 1 206.91 352.08)" class="st2 st4">i</text>
<text transform="matrix(1 0 0 1 210.01 352.08)" class="st2 st4">t</text>
<text transform="matrix(1 0 0 1 212.88 352.08)" class="st2 st4">e</text>
<text transform="matrix(1 0 0 1 218.88 352.08)" class="st2 st4">m</text>
<text transform="matrix(1 0 0 1 228.02 352.08)" class="st2 st4"> </text>
<text transform="matrix(1 0 0 1 230.88 352.08)" class="st2 st4">9</text>
<text transform="matrix(1 0 0 1 407.92 173.09)" class="st2 st3">T</text>
<text transform="matrix(1 0 0 1 412.96 173.09)" class="st2 st3">e</text>
<text transform="matrix(1 0 0 1 417.06 173.09)" class="st2 st3">s</text>
<text transform="matrix(1 0 0 1 420.93 173.09)" class="st2 st3">t</text>
<text transform="matrix(1 0 0 1 423.11 173.09)" class="st2 st3">l</text>
<text transform="matrix(1 0 0 1 425.02 173.09)" class="st2 st3">e</text>
<text transform="matrix(1 0 0 1 429.12 173.09)" class="st2 st3">t</text>
<polygon class="st0" points="393,277.5 393.5,272.5 394.7,267.4 396.9,262.9 399.8,258.5 403.3,254.9 407.7,252 412.3,249.9 
	417.1,248.6 422.4,248.2 427.4,248.6 432.2,249.9 437.1,252 441.1,254.9 444.8,258.5 447.7,262.9 449.8,267.4 451.3,272.5 
	451.5,277.5 451.3,282.6 449.8,287.4 447.7,292.2 444.8,296.3 441.1,299.9 437.1,302.8 432.2,305 427.4,306.4 422.4,306.9 
	417.1,306.4 412.3,305 407.7,302.8 403.3,299.9 399.8,296.3 396.9,292.2 394.7,287.4 393.5,282.6 "/>
<polygon class="st1" points="393,277.5 393.5,272.5 394.7,267.4 396.9,262.9 399.8,258.5 403.3,254.9 407.7,252 412.3,249.9 
	417.1,248.6 422.4,248.2 427.4,248.6 432.2,249.9 437.1,252 441.1,254.9 444.8,258.5 447.7,262.9 449.8,267.4 451.3,272.5 
	451.5,277.5 451.3,282.6 449.8,287.4 447.7,292.2 444.8,296.3 441.1,299.9 437.1,302.8 432.2,305 427.4,306.4 422.4,306.9 
	417.1,306.4 412.3,305 407.7,302.8 403.3,299.9 399.8,296.3 396.9,292.2 394.7,287.4 393.5,282.6 "/>
<text transform="matrix(1 0 0 1 406.7 182.71)" class="st2 st3">e</text>
<text transform="matrix(1 0 0 1 410.8 182.71)" class="st2 st3">ff</text>
<text transform="matrix(1 0 0 1 414.66 182.71)" class="st2 st3">e</text>
<text transform="matrix(1 0 0 1 418.76 182.71)" class="st2 st3">c</text>
<text transform="matrix(1 0 0 1 422.85 182.71)" class="st2 st3">t </text>
<text transform="matrix(1 0 0 1 426.71 182.71)" class="st2 st3">2</text>
<text transform="matrix(1 0 0 1 410.07 274.63)" class="st2 st3">T</text>
<text transform="matrix(1 0 0 1 415.11 274.63)" class="st2 st3">e</text>
<text transform="matrix(1 0 0 1 419.21 274.63)" class="st2 st3">s</text>
<text transform="matrix(1 0 0 1 423.08 274.63)" class="st2 st3">t</text>
<text transform="matrix(1 0 0 1 425.26 274.63)" class="st2 st3">l</text>
<text transform="matrix(1 0 0 1 427.17 274.63)" class="st2 st3">e</text>
<text transform="matrix(1 0 0 1 431.27 274.63)" class="st2 st3">t</text>
<line class="st1" x1="41.9" y1="124.3" x2="160" y2="12.9"/>
<polygon points="157.5,12.3 162,11 160.4,15.6 "/>
<line class="st1" x1="66.5" y1="131.1" x2="158.5" y2="54.2"/>
<polygon points="157.3,52.6 161.9,51.5 160,55.9 "/>
<line class="st1" x1="78.6" y1="142.8" x2="159.5" y2="96.4"/>
<polygon points="160.1,98.4 162.4,94.3 158,95.1 "/>
<line class="st1" x1="86.1" y1="166.9" x2="159.3" y2="138.4"/>
<text transform="matrix(1 0 0 1 408.87 284.26)" class="st2 st3">e</text>
<text transform="matrix(1 0 0 1 412.97 284.26)" class="st2 st3">ff</text>
<text transform="matrix(1 0 0 1 416.83 284.26)" class="st2 st3">e</text>
<text transform="matrix(1 0 0 1 420.93 284.26)" class="st2 st3">c</text>
<text transform="matrix(1 0 0 1 425.02 284.26)" class="st2 st3">t </text>
<text transform="matrix(1 0 0 1 428.88 284.26)" class="st2 st3">3</text>
<polygon points="159.7,140.5 162.3,136.9 157.7,136.9 "/>
<line class="st1" x1="85" y1="175.9" x2="159.3" y2="182.5"/>
<polygon points="159.2,180.5 163,182.8 159,184.5 "/>
<line class="st1" x1="76.9" y1="194.1" x2="159.5" y2="228.7"/>
<polygon points="159.2,226.3 162.1,229.6 157.8,229.9 "/>
<line class="st1" x1="67" y1="202.2" x2="159.7" y2="266.5"/>
<polygon points="159.9,264 162.1,267.9 157.8,267.4 "/>
<line class="st1" x1="43.2" y1="209.9" x2="160" y2="306.9"/>
<polygon points="160.4,304.5 162.1,308.5 157.8,307.6 "/>
<line class="st1" x1="32.7" y1="208.5" x2="160.2" y2="347"/>
<polygon points="160.9,344.9 162.1,349.2 158,347.5 "/>
<line class="st1" x1="390.6" y1="61" x2="283.5" y2="12.9"/>
<polygon points="282.5,14.3 279.6,10.9 284.2,10.7 "/>
<line class="st1" x1="390.6" y1="61" x2="283.7" y2="52.3"/>
<polygon points="283.5,53.8 279.6,51.3 283.9,49.7 "/>
<line class="st1" x1="390.6" y1="61" x2="283.5" y2="93.7"/>
<polygon points="283,91.1 279.6,94.2 284.2,95.2 "/>
<line class="st1" x1="390.6" y1="176" x2="283.5" y2="138.7"/>
<polygon points="282.7,140.4 279.6,137.3 284.2,136.5 "/>
<line class="st1" x1="390.6" y1="176" x2="283.7" y2="182.5"/>
<polygon points="283.5,180.1 279.6,182.2 283.7,184.1 "/>
<line class="st1" x1="390.6" y1="176" x2="283.2" y2="228.4"/>
<polygon points="282.2,226 279.6,229.6 284.2,229.6 "/>
<line class="st1" x1="393" y1="277.5" x2="283.7" y2="268.6"/>
<polygon points="283.5,270.3 279.6,267.9 283.9,266.2 "/>
<line class="st1" x1="393" y1="277.5" x2="283.5" y2="308.1"/>
<polygon points="283,305.4 279.6,308.5 284.2,309.5 "/>
<line class="st1" x1="393" y1="277.5" x2="283" y2="347.8"/>
<polygon points="282,345.1 279.6,349.2 284.2,348.7 "/>
</svg>
