<svg id="svg4" xmlns="http://www.w3.org/2000/svg" viewBox="0 0 46 9"><title>videosymbol</title><path id="path2" d="M43,15H5c-2.21,0-4-.45-4-1V7c0-.55,1.79-1,4-1H43c2.21,0,4,.45,4,1v7C47,14.55,45.21,15,43,15ZM12,6.5H5C3.9,6.5,3,6.72,3,7V7.5h9v-1Zm11,0H14v1h9v-1Zm11,0H25v1h9v-1ZM45,7c0-.28-0.9-0.5-2-0.5H36v1h9V7Zm0,1H3v5H45V8Zm0,5.5H36v1H34v-1H25v1H23v-1H14v1H12v-1H3V14c0,0.28.9,0.5,2,.5H43c1.1,0,2-.22,2-0.5V13.5ZM21.62,11.94A3.17,3.17,0,0,1,21,12a1.21,1.21,0,0,1-1-.25V9.25A1.21,1.21,0,0,1,21,9a3.25,3.25,0,0,1,.56,0l7.77,1.22a0.78,0.78,0,0,1,.67.23,0.47,0.47,0,0,1-.41.2Z" transform="translate(-1 -6)"/></svg>